<?xml version="1.0" encoding="UTF-8"?>
<!--Generator: Apple Native CoreSVG 175-->
<!DOCTYPE svg
PUBLIC "-//W3C//DTD SVG 1.1//EN"
       "http://www.w3.org/Graphics/SVG/1.1/DTD/svg11.dtd">
<svg version="1.1" xmlns="http://www.w3.org/2000/svg" xmlns:xlink="http://www.w3.org/1999/xlink" width="3300" height="2200">
 <!--glyph: "uni1002EF.medium", point size: 100.0, font version: "17.0d12e1", template writer version: "65.1"-->
 <style>.hierarchical-0:secondary {fill:#4D4D4D}
.hierarchical-1:primary {fill:#212121}

.SFSymbolsPreview212121 {fill:#212121;opacity:1.0}
.SFSymbolsPreview4D4D4D {fill:#4D4D4D;opacity:1.0}
</style>
 <g id="Notes">
  <rect height="2200" id="artboard" style="fill:white;opacity:1" width="3300" x="0" y="0"/>
  <line style="fill:none;stroke:black;opacity:1;stroke-width:0.5;" x1="263" x2="3036" y1="292" y2="292"/>
  <text style="stroke:none;fill:black;font-family:sans-serif;font-size:13;font-weight:bold;" transform="matrix(1 0 0 1 263 322)">Weight/Scale Variations</text>
  <text style="stroke:none;fill:black;font-family:sans-serif;font-size:13;text-anchor:middle;" transform="matrix(1 0 0 1 559.711 322)">Ultralight</text>
  <text style="stroke:none;fill:black;font-family:sans-serif;font-size:13;text-anchor:middle;" transform="matrix(1 0 0 1 856.422 322)">Thin</text>
  <text style="stroke:none;fill:black;font-family:sans-serif;font-size:13;text-anchor:middle;" transform="matrix(1 0 0 1 1153.13 322)">Light</text>
  <text style="stroke:none;fill:black;font-family:sans-serif;font-size:13;text-anchor:middle;" transform="matrix(1 0 0 1 1449.84 322)">Regular</text>
  <text style="stroke:none;fill:black;font-family:sans-serif;font-size:13;text-anchor:middle;" transform="matrix(1 0 0 1 1746.56 322)">Medium</text>
  <text style="stroke:none;fill:black;font-family:sans-serif;font-size:13;text-anchor:middle;" transform="matrix(1 0 0 1 2043.27 322)">Semibold</text>
  <text style="stroke:none;fill:black;font-family:sans-serif;font-size:13;text-anchor:middle;" transform="matrix(1 0 0 1 2339.98 322)">Bold</text>
  <text style="stroke:none;fill:black;font-family:sans-serif;font-size:13;text-anchor:middle;" transform="matrix(1 0 0 1 2636.69 322)">Heavy</text>
  <text style="stroke:none;fill:black;font-family:sans-serif;font-size:13;text-anchor:middle;" transform="matrix(1 0 0 1 2933.4 322)">Black</text>
  <line style="fill:none;stroke:black;opacity:1;stroke-width:0.5;" x1="263" x2="3036" y1="1903" y2="1903"/>
  <g transform="matrix(1 0 0 1 263 1933)">
   <path d="M9.24805 0.830078Q10.8691 0.830078 12.2949 0.214844Q13.7207-0.400391 14.8096-1.49414Q15.8984-2.58789 16.5186-4.01367Q17.1387-5.43945 17.1387-7.05078Q17.1387-8.66211 16.5186-10.0879Q15.8984-11.5137 14.8047-12.6074Q13.7109-13.7012 12.2852-14.3164Q10.8594-14.9316 9.23828-14.9316Q7.62695-14.9316 6.20117-14.3164Q4.77539-13.7012 3.69141-12.6074Q2.60742-11.5137 1.9873-10.0879Q1.36719-8.66211 1.36719-7.05078Q1.36719-5.43945 1.9873-4.01367Q2.60742-2.58789 3.69629-1.49414Q4.78516-0.400391 6.21094 0.214844Q7.63672 0.830078 9.24805 0.830078ZM9.24805-0.654297Q7.91992-0.654297 6.7627-1.14746Q5.60547-1.64062 4.73145-2.51953Q3.85742-3.39844 3.36426-4.56055Q2.87109-5.72266 2.87109-7.05078Q2.87109-8.37891 3.35938-9.54102Q3.84766-10.7031 4.72168-11.582Q5.5957-12.4609 6.75293-12.9541Q7.91016-13.4473 9.23828-13.4473Q10.5762-13.4473 11.7334-12.9541Q12.8906-12.4609 13.7695-11.582Q14.6484-10.7031 15.1465-9.54102Q15.6445-8.37891 15.6445-7.05078Q15.6445-5.72266 15.1514-4.56055Q14.6582-3.39844 13.7842-2.51953Q12.9102-1.64062 11.748-1.14746Q10.5859-0.654297 9.24805-0.654297ZM5.6543-7.05078Q5.6543-6.72852 5.85938-6.52832Q6.06445-6.32812 6.40625-6.32812L8.51562-6.32812L8.51562-4.20898Q8.51562-3.88672 8.71094-3.67676Q8.90625-3.4668 9.23828-3.4668Q9.56055-3.4668 9.77051-3.67676Q9.98047-3.88672 9.98047-4.20898L9.98047-6.32812L12.0898-6.32812Q12.4219-6.32812 12.627-6.52832Q12.832-6.72852 12.832-7.05078Q12.832-7.38281 12.627-7.58789Q12.4219-7.79297 12.0898-7.79297L9.98047-7.79297L9.98047-9.90234Q9.98047-10.2344 9.77051-10.4443Q9.56055-10.6543 9.23828-10.6543Q8.90625-10.6543 8.71094-10.4443Q8.51562-10.2344 8.51562-9.90234L8.51562-7.79297L6.40625-7.79297Q6.06445-7.79297 5.85938-7.58789Q5.6543-7.38281 5.6543-7.05078Z"/>
  </g>
  <g transform="matrix(1 0 0 1 281.867 1933)">
   <path d="M11.709 2.91016Q13.75 2.91016 15.5518 2.12891Q17.3535 1.34766 18.7305-0.0292969Q20.1074-1.40625 20.8887-3.20801Q21.6699-5.00977 21.6699-7.05078Q21.6699-9.0918 20.8887-10.8936Q20.1074-12.6953 18.7305-14.0723Q17.3535-15.4492 15.5469-16.2305Q13.7402-17.0117 11.6992-17.0117Q9.6582-17.0117 7.85645-16.2305Q6.05469-15.4492 4.68262-14.0723Q3.31055-12.6953 2.5293-10.8936Q1.74805-9.0918 1.74805-7.05078Q1.74805-5.00977 2.5293-3.20801Q3.31055-1.40625 4.6875-0.0292969Q6.06445 1.34766 7.86621 2.12891Q9.66797 2.91016 11.709 2.91016ZM11.709 1.25Q9.98047 1.25 8.47656 0.605469Q6.97266-0.0390625 5.83496-1.17676Q4.69727-2.31445 4.05762-3.81836Q3.41797-5.32227 3.41797-7.05078Q3.41797-8.7793 4.05762-10.2832Q4.69727-11.7871 5.83008-12.9297Q6.96289-14.0723 8.4668-14.7119Q9.9707-15.3516 11.6992-15.3516Q13.4277-15.3516 14.9316-14.7119Q16.4355-14.0723 17.5781-12.9297Q18.7207-11.7871 19.3652-10.2832Q20.0098-8.7793 20.0098-7.05078Q20.0098-5.32227 19.3701-3.81836Q18.7305-2.31445 17.5928-1.17676Q16.4551-0.0390625 14.9463 0.605469Q13.4375 1.25 11.709 1.25ZM7.17773-7.05078Q7.17773-6.69922 7.41211-6.47461Q7.64648-6.25 8.01758-6.25L10.8887-6.25L10.8887-3.36914Q10.8887-2.99805 11.1133-2.76855Q11.3379-2.53906 11.6895-2.53906Q12.0605-2.53906 12.29-2.76855Q12.5195-2.99805 12.5195-3.36914L12.5195-6.25L15.4004-6.25Q15.7715-6.25 16.001-6.47461Q16.2305-6.69922 16.2305-7.05078Q16.2305-7.42188 16.001-7.65137Q15.7715-7.88086 15.4004-7.88086L12.5195-7.88086L12.5195-10.752Q12.5195-11.1328 12.29-11.3623Q12.0605-11.5918 11.6895-11.5918Q11.3379-11.5918 11.1133-11.3574Q10.8887-11.123 10.8887-10.752L10.8887-7.88086L8.01758-7.88086Q7.63672-7.88086 7.40723-7.65137Q7.17773-7.42188 7.17773-7.05078Z"/>
  </g>
  <g transform="matrix(1 0 0 1 305.646 1933)">
   <path d="M14.9707 5.66406Q17.0605 5.66406 18.96 5.01465Q20.8594 4.36523 22.4512 3.19336Q24.043 2.02148 25.2197 0.429688Q26.3965-1.16211 27.0459-3.06641Q27.6953-4.9707 27.6953-7.05078Q27.6953-9.14062 27.0459-11.04Q26.3965-12.9395 25.2197-14.5312Q24.043-16.123 22.4512-17.2998Q20.8594-18.4766 18.9551-19.126Q17.0508-19.7754 14.9609-19.7754Q12.8711-19.7754 10.9717-19.126Q9.07227-18.4766 7.48535-17.2998Q5.89844-16.123 4.72168-14.5312Q3.54492-12.9395 2.90039-11.04Q2.25586-9.14062 2.25586-7.05078Q2.25586-4.9707 2.90527-3.06641Q3.55469-1.16211 4.72656 0.429688Q5.89844 2.02148 7.49023 3.19336Q9.08203 4.36523 10.9814 5.01465Q12.8809 5.66406 14.9707 5.66406ZM14.9707 3.84766Q13.1641 3.84766 11.5283 3.2959Q9.89258 2.74414 8.53516 1.74805Q7.17773 0.751953 6.17676-0.610352Q5.17578-1.97266 4.62891-3.6084Q4.08203-5.24414 4.08203-7.05078Q4.08203-8.86719 4.62891-10.5029Q5.17578-12.1387 6.17188-13.501Q7.16797-14.8633 8.52539-15.8594Q9.88281-16.8555 11.5186-17.4023Q13.1543-17.9492 14.9609-17.9492Q16.7773-17.9492 18.4131-17.4023Q20.0488-16.8555 21.4111-15.8594Q22.7734-14.8633 23.7695-13.501Q24.7656-12.1387 25.3174-10.5029Q25.8691-8.86719 25.8691-7.05078Q25.8789-5.24414 25.332-3.6084Q24.7852-1.97266 23.7842-0.610352Q22.7832 0.751953 21.4209 1.74805Q20.0586 2.74414 18.4229 3.2959Q16.7871 3.84766 14.9707 3.84766ZM9.19922-7.05078Q9.19922-6.66992 9.45801-6.4209Q9.7168-6.17188 10.1172-6.17188L14.0625-6.17188L14.0625-2.2168Q14.0625-1.81641 14.3115-1.55762Q14.5605-1.29883 14.9512-1.29883Q15.3516-1.29883 15.6104-1.55273Q15.8691-1.80664 15.8691-2.2168L15.8691-6.17188L19.8242-6.17188Q20.2246-6.17188 20.4785-6.4209Q20.7324-6.66992 20.7324-7.05078Q20.7324-7.46094 20.4785-7.71484Q20.2246-7.96875 19.8242-7.96875L15.8691-7.96875L15.8691-11.9141Q15.8691-12.3242 15.6104-12.583Q15.3516-12.8418 14.9512-12.8418Q14.5605-12.8418 14.3115-12.583Q14.0625-12.3242 14.0625-11.9141L14.0625-7.96875L10.1172-7.96875Q9.70703-7.96875 9.45312-7.71484Q9.19922-7.46094 9.19922-7.05078Z"/>
  </g>
  <text style="stroke:none;fill:black;font-family:sans-serif;font-size:13;font-weight:bold;" transform="matrix(1 0 0 1 263 1953)">Design Variations</text>
  <text style="stroke:none;fill:black;font-family:sans-serif;font-size:13;" transform="matrix(1 0 0 1 263 1971)">Symbols are supported in up to nine weights and three scales.</text>
  <text style="stroke:none;fill:black;font-family:sans-serif;font-size:13;" transform="matrix(1 0 0 1 263 1989)">For optimal layout with text and other symbols, vertically align</text>
  <text style="stroke:none;fill:black;font-family:sans-serif;font-size:13;" transform="matrix(1 0 0 1 263 2007)">symbols with the adjacent text.</text>
  <line style="fill:none;stroke:#00AEEF;stroke-width:0.5;opacity:1.0;" x1="776" x2="776" y1="1919" y2="1933"/>
  <g transform="matrix(1 0 0 1 776 1933)">
   <path d="M3.31055 0.15625Q3.70117 0.15625 3.91602-0.00976562Q4.13086-0.175781 4.26758-0.585938L5.52734-4.0332L11.2891-4.0332L12.5488-0.585938Q12.6855-0.175781 12.9004-0.00976562Q13.1152 0.15625 13.4961 0.15625Q13.8867 0.15625 14.1162-0.0585938Q14.3457-0.273438 14.3457-0.644531Q14.3457-0.869141 14.2383-1.17188L9.6582-13.3691Q9.48242-13.8184 9.17969-14.043Q8.87695-14.2676 8.4082-14.2676Q7.5-14.2676 7.17773-13.3789L2.59766-1.16211Q2.49023-0.859375 2.49023-0.634766Q2.49023-0.263672 2.70996-0.0537109Q2.92969 0.15625 3.31055 0.15625ZM6.00586-5.51758L8.37891-12.0898L8.42773-12.0898L10.8008-5.51758Z"/>
  </g>
  <line style="fill:none;stroke:#00AEEF;stroke-width:0.5;opacity:1.0;" x1="793.197" x2="793.197" y1="1919" y2="1933"/>
  <text style="stroke:none;fill:black;font-family:sans-serif;font-size:13;font-weight:bold;" transform="matrix(1 0 0 1 776 1953)">Margins</text>
  <text style="stroke:none;fill:black;font-family:sans-serif;font-size:13;" transform="matrix(1 0 0 1 776 1971)">Leading and trailing margins on the left and right side of each symbol</text>
  <text style="stroke:none;fill:black;font-family:sans-serif;font-size:13;" transform="matrix(1 0 0 1 776 1989)">can be adjusted by modifying the x-location of the margin guidelines.</text>
  <text style="stroke:none;fill:black;font-family:sans-serif;font-size:13;" transform="matrix(1 0 0 1 776 2007)">Modifications are automatically applied proportionally to all</text>
  <text style="stroke:none;fill:black;font-family:sans-serif;font-size:13;" transform="matrix(1 0 0 1 776 2025)">scales and weights.</text>
  <g transform="matrix(1 0 0 1 1289 1933)">
   <path d="M2.8418 1.86523L4.54102 3.57422Q5.18555 4.22852 5.90332 4.17969Q6.62109 4.13086 7.31445 3.35938L18.0078-8.42773L17.041-9.4043L6.42578 2.27539Q6.16211 2.57812 5.89355 2.61719Q5.625 2.65625 5.27344 2.30469L4.10156 1.14258Q3.75 0.791016 3.79395 0.522461Q3.83789 0.253906 4.14062-0.0195312L15.6152-10.8203L14.6387-11.7871L3.04688-0.898438Q2.30469-0.214844 2.25098 0.498047Q2.19727 1.21094 2.8418 1.86523ZM9.25781-16.3281Q8.94531-16.0254 8.90625-15.6348Q8.86719-15.2441 9.04297-14.9512Q9.21875-14.6777 9.55566-14.541Q9.89258-14.4043 10.3809-14.5215Q11.4746-14.7754 12.5977-14.7314Q13.7207-14.6875 14.7949-13.9844L14.209-12.5293Q13.9551-11.9043 14.0674-11.4404Q14.1797-10.9766 14.5801-10.5664L16.875-8.25195Q17.2363-7.88086 17.5781-7.82227Q17.9199-7.76367 18.3398-7.8418L19.4043-8.03711L20.0684-7.36328L20.0293-6.80664Q20-6.43555 20.1221-6.12305Q20.2441-5.81055 20.6055-5.44922L21.3672-4.70703Q21.7285-4.3457 22.1533-4.33105Q22.5781-4.31641 22.9297-4.66797L25.8398-7.58789Q26.1914-7.93945 26.1816-8.35449Q26.1719-8.76953 25.8105-9.13086L25.0391-9.89258Q24.6875-10.2539 24.3799-10.3857Q24.0723-10.5176 23.7109-10.4883L23.1348-10.4395L22.4902-11.0742L22.7344-12.1973Q22.832-12.6172 22.6953-12.9834Q22.5586-13.3496 22.1191-13.7891L19.9219-15.9766Q18.6719-17.2168 17.2607-17.8369Q15.8496-18.457 14.4189-18.4814Q12.9883-18.5059 11.665-17.959Q10.3418-17.4121 9.25781-16.3281ZM10.752-15.957Q11.6602-16.6211 12.7002-16.9043Q13.7402-17.1875 14.8047-17.085Q15.8691-16.9824 16.8701-16.5137Q17.8711-16.0449 18.7012-15.2051L21.1328-12.793Q21.3086-12.6172 21.3525-12.4512Q21.3965-12.2852 21.3379-12.0312L21.0156-10.5469L22.5195-9.0625L23.5059-9.12109Q23.6914-9.13086 23.7891-9.09668Q23.8867-9.0625 24.0332-8.91602L24.6094-8.33984L22.168-5.89844L21.5918-6.47461Q21.4453-6.62109 21.4062-6.71875Q21.3672-6.81641 21.377-7.01172L21.4453-7.98828L19.9512-9.47266L18.4277-9.21875Q18.1836-9.16992 18.042-9.2041Q17.9004-9.23828 17.7148-9.41406L15.7129-11.416Q15.5176-11.5918 15.4932-11.7529Q15.4688-11.9141 15.5859-12.1875L16.4648-14.2773Q15.293-15.3711 13.8281-15.791Q12.3633-16.2109 10.8398-15.7617Q10.7227-15.7324 10.6885-15.8057Q10.6543-15.8789 10.752-15.957Z"/>
  </g>
  <text style="stroke:none;fill:black;font-family:sans-serif;font-size:13;font-weight:bold;" transform="matrix(1 0 0 1 1289 1953)">Exporting</text>
  <text style="stroke:none;fill:black;font-family:sans-serif;font-size:13;" transform="matrix(1 0 0 1 1289 1971)">Symbols should be outlined when exporting to ensure the</text>
  <text style="stroke:none;fill:black;font-family:sans-serif;font-size:13;" transform="matrix(1 0 0 1 1289 1989)">design is preserved when submitting to Xcode.</text>
  <text id="template-version" style="stroke:none;fill:black;font-family:sans-serif;font-size:13;text-anchor:end;" transform="matrix(1 0 0 1 3036 1933)">Template v.3.0</text>
  <text style="stroke:none;fill:black;font-family:sans-serif;font-size:13;text-anchor:end;" transform="matrix(1 0 0 1 3036 1951)">Requires Xcode 13 or greater</text>
  <text id="descriptive-name" style="stroke:none;fill:black;font-family:sans-serif;font-size:13;text-anchor:end;" transform="matrix(1 0 0 1 3036 1969)">Generated from eye.slash</text>
  <text style="stroke:none;fill:black;font-family:sans-serif;font-size:13;text-anchor:end;" transform="matrix(1 0 0 1 3036 1987)">Typeset at 100 points</text>
  <text style="stroke:none;fill:black;font-family:sans-serif;font-size:13;" transform="matrix(1 0 0 1 263 726)">Small</text>
  <text style="stroke:none;fill:black;font-family:sans-serif;font-size:13;" transform="matrix(1 0 0 1 263 1156)">Medium</text>
  <text style="stroke:none;fill:black;font-family:sans-serif;font-size:13;" transform="matrix(1 0 0 1 263 1586)">Large</text>
 </g>
 <g id="Guides">
  <g id="H-reference" style="fill:#27AAE1;stroke:none;" transform="matrix(1 0 0 1 339 696)">
   <path d="M0.993347 0L3.6377 0L29.3282-67.1326L30.0301-67.1326L30.0301-70.459L28.1227-70.459ZM11.6882-24.4797L46.9818-24.4797L46.2311-26.7288L12.4382-26.7288ZM55.1193 0L57.7637 0L30.6381-70.459L29.4327-70.459L29.4327-67.1326Z"/>
  </g>
  <line id="Baseline-S" style="fill:none;stroke:#27AAE1;opacity:1;stroke-width:0.5;" x1="263" x2="3036" y1="696" y2="696"/>
  <line id="Capline-S" style="fill:none;stroke:#27AAE1;opacity:1;stroke-width:0.5;" x1="263" x2="3036" y1="625.541" y2="625.541"/>
  <g id="H-reference" style="fill:#27AAE1;stroke:none;" transform="matrix(1 0 0 1 339 1126)">
   <path d="M0.993347 0L3.6377 0L29.3282-67.1326L30.0301-67.1326L30.0301-70.459L28.1227-70.459ZM11.6882-24.4797L46.9818-24.4797L46.2311-26.7288L12.4382-26.7288ZM55.1193 0L57.7637 0L30.6381-70.459L29.4327-70.459L29.4327-67.1326Z"/>
  </g>
  <line id="Baseline-M" style="fill:none;stroke:#27AAE1;opacity:1;stroke-width:0.5;" x1="263" x2="3036" y1="1126" y2="1126"/>
  <line id="Capline-M" style="fill:none;stroke:#27AAE1;opacity:1;stroke-width:0.5;" x1="263" x2="3036" y1="1055.54" y2="1055.54"/>
  <g id="H-reference" style="fill:#27AAE1;stroke:none;" transform="matrix(1 0 0 1 339 1556)">
   <path d="M0.993347 0L3.6377 0L29.3282-67.1326L30.0301-67.1326L30.0301-70.459L28.1227-70.459ZM11.6882-24.4797L46.9818-24.4797L46.2311-26.7288L12.4382-26.7288ZM55.1193 0L57.7637 0L30.6381-70.459L29.4327-70.459L29.4327-67.1326Z"/>
  </g>
  <line id="Baseline-L" style="fill:none;stroke:#27AAE1;opacity:1;stroke-width:0.5;" x1="263" x2="3036" y1="1556" y2="1556"/>
  <line id="Capline-L" style="fill:none;stroke:#27AAE1;opacity:1;stroke-width:0.5;" x1="263" x2="3036" y1="1485.54" y2="1485.54"/>
  <line id="left-margin-Ultralight-S" style="fill:none;stroke:#00AEEF;stroke-width:0.5;opacity:1.0;" x1="502.132" x2="502.132" y1="600.785" y2="720.121"/>
  <line id="right-margin-Ultralight-S" style="fill:none;stroke:#00AEEF;stroke-width:0.5;opacity:1.0;" x1="617.29" x2="617.29" y1="600.785" y2="720.121"/>
  <line id="left-margin-Thin-S" style="fill:none;stroke:#00AEEF;stroke-width:0.5;opacity:1.0;" x1="798.151" x2="798.151" y1="600.785" y2="720.121"/>
  <line id="right-margin-Thin-S" style="fill:none;stroke:#00AEEF;stroke-width:0.5;opacity:1.0;" x1="914.694" x2="914.694" y1="600.785" y2="720.121"/>
  <line id="left-margin-Light-S" style="fill:none;stroke:#00AEEF;stroke-width:0.5;opacity:1.0;" x1="1093.51" x2="1093.51" y1="600.785" y2="720.121"/>
  <line id="right-margin-Light-S" style="fill:none;stroke:#00AEEF;stroke-width:0.5;opacity:1.0;" x1="1212.76" x2="1212.76" y1="600.785" y2="720.121"/>
  <line id="left-margin-Regular-S" style="fill:none;stroke:#00AEEF;stroke-width:0.5;opacity:1.0;" x1="1389.2" x2="1389.2" y1="600.785" y2="720.121"/>
  <line id="right-margin-Regular-S" style="fill:none;stroke:#00AEEF;stroke-width:0.5;opacity:1.0;" x1="1510.49" x2="1510.49" y1="600.785" y2="720.121"/>
  <line id="left-margin-Medium-S" style="fill:none;stroke:#00AEEF;stroke-width:0.5;opacity:1.0;" x1="1685.71" x2="1685.71" y1="600.785" y2="720.121"/>
  <line id="right-margin-Medium-S" style="fill:none;stroke:#00AEEF;stroke-width:0.5;opacity:1.0;" x1="1807.4" x2="1807.4" y1="600.785" y2="720.121"/>
  <line id="left-margin-Semibold-S" style="fill:none;stroke:#00AEEF;stroke-width:0.5;opacity:1.0;" x1="1982.27" x2="1982.27" y1="600.785" y2="720.121"/>
  <line id="right-margin-Semibold-S" style="fill:none;stroke:#00AEEF;stroke-width:0.5;opacity:1.0;" x1="2104.26" x2="2104.26" y1="600.785" y2="720.121"/>
  <line id="left-margin-Bold-S" style="fill:none;stroke:#00AEEF;stroke-width:0.5;opacity:1.0;" x1="2278.78" x2="2278.78" y1="600.785" y2="720.121"/>
  <line id="right-margin-Bold-S" style="fill:none;stroke:#00AEEF;stroke-width:0.5;opacity:1.0;" x1="2401.17" x2="2401.17" y1="600.785" y2="720.121"/>
  <line id="left-margin-Heavy-S" style="fill:none;stroke:#00AEEF;stroke-width:0.5;opacity:1.0;" x1="2575.21" x2="2575.21" y1="600.785" y2="720.121"/>
  <line id="right-margin-Heavy-S" style="fill:none;stroke:#00AEEF;stroke-width:0.5;opacity:1.0;" x1="2698.17" x2="2698.17" y1="600.785" y2="720.121"/>
  <line id="left-margin-Black-S" style="fill:none;stroke:#00AEEF;stroke-width:0.5;opacity:1.0;" x1="2871.66" x2="2871.66" y1="600.785" y2="720.121"/>
  <line id="right-margin-Black-S" style="fill:none;stroke:#00AEEF;stroke-width:0.5;opacity:1.0;" x1="2995.14" x2="2995.14" y1="600.785" y2="720.121"/>
  <line id="left-margin-Ultralight-M" style="fill:none;stroke:#00AEEF;stroke-width:0.5;opacity:1.0;" x1="486.5" x2="486.5" y1="1030.79" y2="1150.12"/>
  <line id="right-margin-Ultralight-M" style="fill:none;stroke:#00AEEF;stroke-width:0.5;opacity:1.0;" x1="632.922" x2="632.922" y1="1030.79" y2="1150.12"/>
  <line id="left-margin-Thin-M" style="fill:none;stroke:#00AEEF;stroke-width:0.5;opacity:1.0;" x1="782.427" x2="782.427" y1="1030.79" y2="1150.12"/>
  <line id="right-margin-Thin-M" style="fill:none;stroke:#00AEEF;stroke-width:0.5;opacity:1.0;" x1="930.417" x2="930.417" y1="1030.79" y2="1150.12"/>
  <line id="left-margin-Light-M" style="fill:none;stroke:#00AEEF;stroke-width:0.5;opacity:1.0;" x1="1077.61" x2="1077.61" y1="1030.79" y2="1150.12"/>
  <line id="right-margin-Light-M" style="fill:none;stroke:#00AEEF;stroke-width:0.5;opacity:1.0;" x1="1228.66" x2="1228.66" y1="1030.79" y2="1150.12"/>
  <line id="left-margin-Regular-M" style="fill:none;stroke:#00AEEF;stroke-width:0.5;opacity:1.0;" x1="1373.16" x2="1373.16" y1="1030.79" y2="1150.12"/>
  <line id="right-margin-Regular-M" style="fill:none;stroke:#00AEEF;stroke-width:0.5;opacity:1.0;" x1="1526.53" x2="1526.53" y1="1030.79" y2="1150.12"/>
  <line id="left-margin-Medium-M" style="fill:none;stroke:#00AEEF;stroke-width:0.5;opacity:1.0;" x1="1669.51" x2="1669.51" y1="1030.79" y2="1150.12"/>
  <line id="right-margin-Medium-M" style="fill:none;stroke:#00AEEF;stroke-width:0.5;opacity:1.0;" x1="1823.6" x2="1823.6" y1="1030.79" y2="1150.12"/>
  <line id="left-margin-Semibold-M" style="fill:none;stroke:#00AEEF;stroke-width:0.5;opacity:1.0;" x1="1965.95" x2="1965.95" y1="1030.79" y2="1150.12"/>
  <line id="right-margin-Semibold-M" style="fill:none;stroke:#00AEEF;stroke-width:0.5;opacity:1.0;" x1="2120.59" x2="2120.59" y1="1030.79" y2="1150.12"/>
  <line id="left-margin-Bold-M" style="fill:none;stroke:#00AEEF;stroke-width:0.5;opacity:1.0;" x1="2262.29" x2="2262.29" y1="1030.79" y2="1150.12"/>
  <line id="right-margin-Bold-M" style="fill:none;stroke:#00AEEF;stroke-width:0.5;opacity:1.0;" x1="2417.66" x2="2417.66" y1="1030.79" y2="1150.12"/>
  <line id="left-margin-Heavy-M" style="fill:none;stroke:#00AEEF;stroke-width:0.5;opacity:1.0;" x1="2558.47" x2="2558.47" y1="1030.79" y2="1150.12"/>
  <line id="right-margin-Heavy-M" style="fill:none;stroke:#00AEEF;stroke-width:0.5;opacity:1.0;" x1="2714.9" x2="2714.9" y1="1030.79" y2="1150.12"/>
  <line id="left-margin-Black-M" style="fill:none;stroke:#00AEEF;stroke-width:0.5;opacity:1.0;" x1="2854.71" x2="2854.71" y1="1030.79" y2="1150.12"/>
  <line id="right-margin-Black-M" style="fill:none;stroke:#00AEEF;stroke-width:0.5;opacity:1.0;" x1="3012.09" x2="3012.09" y1="1030.79" y2="1150.12"/>
  <line id="left-margin-Ultralight-L" style="fill:none;stroke:#00AEEF;stroke-width:0.5;opacity:1.0;" x1="465.526" x2="465.526" y1="1460.79" y2="1580.12"/>
  <line id="right-margin-Ultralight-L" style="fill:none;stroke:#00AEEF;stroke-width:0.5;opacity:1.0;" x1="653.896" x2="653.896" y1="1460.79" y2="1580.12"/>
  <line id="left-margin-Thin-L" style="fill:none;stroke:#00AEEF;stroke-width:0.5;opacity:1.0;" x1="761.37" x2="761.37" y1="1460.79" y2="1580.12"/>
  <line id="right-margin-Thin-L" style="fill:none;stroke:#00AEEF;stroke-width:0.5;opacity:1.0;" x1="951.474" x2="951.474" y1="1460.79" y2="1580.12"/>
  <line id="left-margin-Light-L" style="fill:none;stroke:#00AEEF;stroke-width:0.5;opacity:1.0;" x1="1056.39" x2="1056.39" y1="1460.79" y2="1580.12"/>
  <line id="right-margin-Light-L" style="fill:none;stroke:#00AEEF;stroke-width:0.5;opacity:1.0;" x1="1249.88" x2="1249.88" y1="1460.79" y2="1580.12"/>
  <line id="left-margin-Regular-L" style="fill:none;stroke:#00AEEF;stroke-width:0.5;opacity:1.0;" x1="1351.82" x2="1351.82" y1="1460.79" y2="1580.12"/>
  <line id="right-margin-Regular-L" style="fill:none;stroke:#00AEEF;stroke-width:0.5;opacity:1.0;" x1="1547.87" x2="1547.87" y1="1460.79" y2="1580.12"/>
  <line id="left-margin-Medium-L" style="fill:none;stroke:#00AEEF;stroke-width:0.5;opacity:1.0;" x1="1647.94" x2="1647.94" y1="1460.79" y2="1580.12"/>
  <line id="right-margin-Medium-L" style="fill:none;stroke:#00AEEF;stroke-width:0.5;opacity:1.0;" x1="1845.17" x2="1845.17" y1="1460.79" y2="1580.12"/>
  <line id="left-margin-Semibold-L" style="fill:none;stroke:#00AEEF;stroke-width:0.5;opacity:1.0;" x1="1944.2" x2="1944.2" y1="1460.79" y2="1580.12"/>
  <line id="right-margin-Semibold-L" style="fill:none;stroke:#00AEEF;stroke-width:0.5;opacity:1.0;" x1="2142.33" x2="2142.33" y1="1460.79" y2="1580.12"/>
  <line id="left-margin-Bold-L" style="fill:none;stroke:#00AEEF;stroke-width:0.5;opacity:1.0;" x1="2240.32" x2="2240.32" y1="1460.79" y2="1580.12"/>
  <line id="right-margin-Bold-L" style="fill:none;stroke:#00AEEF;stroke-width:0.5;opacity:1.0;" x1="2439.64" x2="2439.64" y1="1460.79" y2="1580.12"/>
  <line id="left-margin-Heavy-L" style="fill:none;stroke:#00AEEF;stroke-width:0.5;opacity:1.0;" x1="2536.17" x2="2536.17" y1="1460.79" y2="1580.12"/>
  <line id="right-margin-Heavy-L" style="fill:none;stroke:#00AEEF;stroke-width:0.5;opacity:1.0;" x1="2737.21" x2="2737.21" y1="1460.79" y2="1580.12"/>
  <line id="left-margin-Black-L" style="fill:none;stroke:#00AEEF;stroke-width:0.5;opacity:1.0;" x1="2832.11" x2="2832.11" y1="1460.79" y2="1580.12"/>
  <line id="right-margin-Black-L" style="fill:none;stroke:#00AEEF;stroke-width:0.5;opacity:1.0;" x1="3034.69" x2="3034.69" y1="1460.79" y2="1580.12"/>
 </g>
 <g id="Symbols">
  <g id="Black-L" transform="matrix(1 0 0 1 2832.11 1556)">
   <path class="hierarchical-0:secondary SFSymbolsPreview4D4D4D" d="M101.27 21.2891Q109.717 21.2891 117.48 20.0195Q125.244 18.75 132.227 16.5039L115.869 0Q112.354 0.732422 108.716 1.14746Q105.078 1.5625 101.27 1.5625Q92.2852 1.5625 84.1797-0.512695Q76.0742-2.58789 69.0918-6.05469Q62.1094-9.52148 56.4941-13.6475Q50.8789-17.7734 46.875-21.9238Q42.8711-26.0742 40.7471-29.5654Q38.623-33.0566 38.623-35.1074Q38.623-36.4746 39.9902-38.8916Q41.3574-41.3086 43.9697-44.3848Q46.582-47.4609 50.3174-50.8545Q54.0527-54.248 58.7891-57.4707L43.4082-72.8516Q36.1328-67.8223 30.4688-62.3535Q24.8047-56.8848 20.874-51.709Q16.9434-46.5332 14.917-42.2119Q12.8906-37.8906 12.8906-35.1074Q12.8906-31.8848 15.6982-26.4893Q18.5059-21.0938 23.9014-14.7217Q29.2969-8.34961 37.0361-2.02637Q44.7754 4.29688 54.6143 9.59473Q64.4531 14.8926 76.1719 18.0908Q87.8906 21.2891 101.27 21.2891ZM101.27-91.5039Q93.0664-91.5039 85.5225-90.2588Q77.9785-89.0137 71.0938-86.8164L87.5-70.3613Q90.7715-71.0449 94.2383-71.4111Q97.7051-71.7773 101.27-71.7773Q110.254-71.7773 118.359-69.5801Q126.465-67.3828 133.472-63.7939Q140.479-60.2051 146.094-55.9814Q151.709-51.7578 155.713-47.6074Q159.717-43.457 161.841-40.1367Q163.965-36.8164 163.965-35.1074Q163.965-33.4961 162.646-31.0059Q161.328-28.5156 158.838-25.4639Q156.348-22.4121 152.808-19.165Q149.268-15.918 144.775-12.793L159.863 2.44141Q167.041-2.58789 172.583-8.03223Q178.125-13.4766 181.958-18.6523Q185.791-23.8281 187.744-28.125Q189.697-32.4219 189.697-35.1074Q189.697-38.3789 186.938-43.75Q184.18-49.1211 178.882-55.4932Q173.584-61.8652 165.894-68.1885Q158.203-74.5117 148.364-79.8096Q138.525-85.1074 126.709-88.3057Q114.893-91.5039 101.27-91.5039ZM101.27-5.66406Q103.223-5.66406 105.005-5.95703Q106.787-6.25 108.496-6.78711L72.9492-42.334Q72.4121-40.625 72.1191-38.8184Q71.8262-37.0117 71.8262-35.0586Q71.8262-29.1016 74.0967-23.7793Q76.3672-18.457 80.4199-14.3799Q84.4727-10.3027 89.8193-7.9834Q95.166-5.66406 101.27-5.66406ZM129.932-28.8086Q130.322-30.3223 130.542-31.9336Q130.762-33.5449 130.762-35.2051Q130.762-41.3086 128.491-46.6309Q126.221-51.9531 122.192-55.9814Q118.164-60.0098 112.817-62.2803Q107.471-64.5508 101.318-64.5508Q99.6582-64.5508 98.0957-64.3555Q96.5332-64.1602 94.9707-63.7207Z"/>
   <path class="hierarchical-1:primary SFSymbolsPreview212121" d="M152.832 23.9258Q154.541 25.6348 156.934 25.6592Q159.326 25.6836 160.986 23.9258Q162.646 22.2168 162.646 19.873Q162.646 17.5293 160.986 15.8203L49.9023-95.166Q48.1934-96.875 45.7764-96.875Q43.3594-96.875 41.6992-95.166Q40.0391-93.5547 40.0391-91.1133Q40.0391-88.6719 41.6992-87.0605Z"/>
  </g>
  <g id="Heavy-L" transform="matrix(1 0 0 1 2536.17 1556)">
   <path class="hierarchical-0:secondary SFSymbolsPreview4D4D4D" d="M100.488 20.6055Q109.082 20.6055 116.943 19.2627Q124.805 17.9199 131.885 15.5762L117.725 1.31836Q113.574 2.34375 109.326 2.92969Q105.078 3.51562 100.488 3.51562Q91.1621 3.51562 82.666 1.29395Q74.1699-0.927734 66.8457-4.58984Q59.5215-8.25195 53.6133-12.6221Q47.7051-16.9922 43.5059-21.3623Q39.3066-25.7324 37.0605-29.3701Q34.8145-33.0078 34.8145-35.1074Q34.8145-36.6211 36.3525-39.2822Q37.8906-41.9434 40.8447-45.3369Q43.7988-48.7305 47.998-52.4414Q52.1973-56.1523 57.4707-59.6191L44.1406-72.998Q36.7188-67.9688 30.9326-62.5Q25.1465-57.0312 21.1182-51.8311Q17.0898-46.6309 14.9902-42.2852Q12.8906-37.9395 12.8906-35.1074Q12.8906-31.9336 15.6982-26.5869Q18.5059-21.2402 23.9014-14.9414Q29.2969-8.64258 36.9873-2.39258Q44.6777 3.85742 54.4434 9.08203Q64.209 14.3066 75.7812 17.4561Q87.3535 20.6055 100.488 20.6055ZM100.488-90.8691Q92.2363-90.8691 84.668-89.5752Q77.0996-88.2812 70.166-85.9863L84.375-71.7773Q88.2324-72.7051 92.2363-73.2422Q96.2402-73.7793 100.488-73.7793Q109.863-73.7793 118.359-71.46Q126.855-69.1406 134.18-65.3564Q141.504-61.5723 147.412-57.1045Q153.32-52.6367 157.544-48.2666Q161.768-43.8965 164.014-40.4053Q166.26-36.9141 166.26-35.1074Q166.26-33.4473 164.771-30.7129Q163.281-27.9785 160.474-24.6338Q157.666-21.2891 153.662-17.7246Q149.658-14.1602 144.629-10.791L157.764 2.44141Q164.99-2.58789 170.654-8.00781Q176.318-13.4277 180.225-18.6035Q184.131-23.7793 186.133-28.1006Q188.135-32.4219 188.135-35.1074Q188.135-38.3789 185.376-43.7012Q182.617-49.0234 177.319-55.3223Q172.021-61.6211 164.355-67.8711Q156.689-74.1211 146.948-79.3457Q137.207-84.5703 125.537-87.7197Q113.867-90.8691 100.488-90.8691ZM100.488-4.29688Q103.027-4.29688 105.371-4.78516Q107.715-5.27344 109.863-6.15234L71.4844-44.5312Q70.6055-42.3828 70.1416-40.0146Q69.6777-37.6465 69.6777-35.1074Q69.6777-28.8574 72.0459-23.2666Q74.4141-17.6758 78.6621-13.4277Q82.9102-9.17969 88.501-6.73828Q94.0918-4.29688 100.488-4.29688ZM129.883-26.7578Q130.615-28.7109 131.006-30.8594Q131.396-33.0078 131.396-35.2051Q131.396-41.6016 129.004-47.1924Q126.611-52.7832 122.388-56.9824Q118.164-61.1816 112.573-63.5498Q106.982-65.918 100.537-65.918Q98.3398-65.918 96.2402-65.5518Q94.1406-65.1855 92.1387-64.502Z"/>
   <path class="hierarchical-1:primary SFSymbolsPreview212121" d="M151.66 22.8516Q153.223 24.4629 155.469 24.4873Q157.715 24.5117 159.277 22.8516Q160.84 21.2402 160.84 19.0674Q160.84 16.8945 159.277 15.2832L49.3164-94.5312Q47.7539-96.1426 45.4834-96.1426Q43.2129-96.1426 41.6992-94.5312Q40.1367-93.0664 40.1367-90.7715Q40.1367-88.4766 41.6992-86.9629Z"/>
  </g>
  <g id="Bold-L" transform="matrix(1 0 0 1 2240.32 1556)">
   <path class="hierarchical-0:secondary SFSymbolsPreview4D4D4D" d="M99.6582 19.873Q108.398 19.873 116.333 18.457Q124.268 17.041 131.494 14.5996L119.775 2.7832Q114.99 4.15039 110.01 4.93164Q105.029 5.71289 99.6582 5.71289Q89.8926 5.71289 80.9814 3.34473Q72.0703 0.976562 64.3799-2.92969Q56.6895-6.83594 50.4395-11.4746Q44.1895-16.1133 39.7461-20.7275Q35.3027-25.3418 32.9102-29.1748Q30.5176-33.0078 30.5176-35.1562Q30.5176-36.7676 32.2754-39.7217Q34.0332-42.6758 37.3535-46.4355Q40.6738-50.1953 45.3857-54.248Q50.0977-58.3008 56.0547-62.0605L44.9707-73.1445Q37.4023-68.1641 31.4453-62.6953Q25.4883-57.2266 21.3623-52.002Q17.2363-46.7773 15.0635-42.3828Q12.8906-37.9883 12.8906-35.1562Q12.8906-31.9824 15.7227-26.709Q18.5547-21.4355 23.9258-15.21Q29.2969-8.98438 36.9629-2.80762Q44.6289 3.36914 54.2969 8.52051Q63.9648 13.6719 75.3662 16.7725Q86.7676 19.873 99.6582 19.873ZM99.6582-90.1855Q91.3086-90.1855 83.7402-88.8428Q76.1719-87.5 69.1406-85.1074L80.9082-73.3398Q85.3516-74.6094 89.9902-75.3174Q94.6289-76.0254 99.6582-76.0254Q109.473-76.0254 118.384-73.5596Q127.295-71.0938 135.01-67.0898Q142.725-63.0859 148.95-58.3496Q155.176-53.6133 159.619-48.999Q164.062-44.3848 166.431-40.6982Q168.799-37.0117 168.799-35.1562Q168.799-33.3496 167.114-30.3711Q165.43-27.3926 162.28-23.7061Q159.131-20.0195 154.639-16.1133Q150.146-12.207 144.482-8.59375L155.371 2.39258Q162.744-2.53906 168.506-7.95898Q174.268-13.3789 178.271-18.5791Q182.275-23.7793 184.351-28.1006Q186.426-32.4219 186.426-35.1562Q186.426-38.3789 183.643-43.6523Q180.859-48.9258 175.562-55.127Q170.264-61.3281 162.646-67.5049Q155.029-73.6816 145.386-78.8086Q135.742-83.9355 124.243-87.0605Q112.744-90.1855 99.6582-90.1855ZM99.6582-2.83203Q102.881-2.83203 105.811-3.51562Q108.74-4.19922 111.426-5.46875L69.873-47.0215Q68.6035-44.3359 67.9199-41.3574Q67.2363-38.3789 67.2363-35.1562Q67.2852-28.5645 69.7754-22.7051Q72.2656-16.8457 76.709-12.3779Q81.1523-7.91016 87.0361-5.37109Q92.9199-2.83203 99.6582-2.83203ZM129.834-24.5117Q130.908-26.9531 131.494-29.6631Q132.08-32.373 132.08-35.2051Q132.08-41.9434 129.59-47.8027Q127.1-53.6621 122.656-58.1055Q118.213-62.5488 112.329-65.0146Q106.445-67.4805 99.707-67.4805Q96.8262-67.4805 94.165-66.9434Q91.5039-66.4062 89.0137-65.332Z"/>
   <path class="hierarchical-1:primary SFSymbolsPreview212121" d="M150.342 21.6797Q151.807 23.1445 153.857 23.1689Q155.908 23.1934 157.373 21.6797Q158.838 20.166 158.813 18.1641Q158.789 16.1621 157.373 14.6973L48.7305-93.8965Q47.2656-95.3613 45.1904-95.3613Q43.1152-95.3613 41.6504-93.8965Q40.2344-92.4805 40.2344-90.3809Q40.2344-88.2812 41.6504-86.8652Z"/>
  </g>
  <g id="Semibold-L" transform="matrix(1 0 0 1 1944.2 1556)">
   <path class="hierarchical-0:secondary SFSymbolsPreview4D4D4D" d="M99.0723 19.3359Q107.861 19.3359 115.894 17.8711Q123.926 16.4062 131.25 13.8672L121.143 3.75977Q115.967 5.37109 110.498 6.27441Q105.029 7.17773 99.0723 7.17773Q88.9648 7.17773 79.7852 4.71191Q70.6055 2.24609 62.6465-1.80664Q54.6875-5.85938 48.2178-10.6689Q41.748-15.4785 37.1338-20.2881Q32.5195-25.0977 30.0537-29.0283Q27.5879-32.959 27.5879-35.1562Q27.5879-36.8652 29.4678-40.0146Q31.3477-43.1641 34.9121-47.168Q38.4766-51.1719 43.5791-55.4688Q48.6816-59.7656 55.0293-63.7207L45.5566-73.2422Q37.8418-68.3105 31.7871-62.8418Q25.7324-57.373 21.5332-52.0996Q17.334-46.8262 15.1123-42.4072Q12.8906-37.9883 12.8906-35.1562Q12.8906-31.9824 15.7227-26.7578Q18.5547-21.5332 23.9258-15.3809Q29.2969-9.22852 36.9141-3.125Q44.5312 2.97852 54.1504 8.08105Q63.7695 13.1836 75.0732 16.2598Q86.377 19.3359 99.0723 19.3359ZM99.0723-89.6484Q90.6738-89.6484 83.0811-88.2812Q75.4883-86.9141 68.4082-84.4727L78.5156-74.4141Q83.3984-75.8789 88.4521-76.709Q93.5059-77.5391 99.0723-77.5391Q109.131-77.5391 118.359-74.9756Q127.588-72.4121 135.547-68.2617Q143.506-64.1113 149.951-59.2041Q156.396-54.2969 161.011-49.5117Q165.625-44.7266 168.091-40.8936Q170.557-37.0605 170.557-35.1562Q170.557-33.3008 168.75-30.127Q166.943-26.9531 163.525-23.0225Q160.107-19.0918 155.273-14.9658Q150.439-10.8398 144.385-7.03125L153.76 2.39258Q161.182-2.53906 167.017-7.93457Q172.852-13.3301 176.929-18.5303Q181.006-23.7305 183.13-28.0518Q185.254-32.373 185.254-35.1562Q185.254-38.3789 182.446-43.6035Q179.639-48.8281 174.341-54.9805Q169.043-61.1328 161.45-67.2363Q153.857-73.3398 144.287-78.418Q134.717-83.4961 123.34-86.5723Q111.963-89.6484 99.0723-89.6484ZM99.0723-1.75781Q102.734-1.75781 106.079-2.6123Q109.424-3.4668 112.451-4.93164L68.7012-48.6816Q67.1875-45.6543 66.3818-42.2607Q65.5762-38.8672 65.5762-35.1562Q65.5762-28.3203 68.1641-22.29Q70.752-16.2598 75.3418-11.6455Q79.9316-7.03125 86.0107-4.39453Q92.0898-1.75781 99.0723-1.75781ZM129.785-22.9492Q131.104-25.7324 131.836-28.833Q132.568-31.9336 132.568-35.2051Q132.568-42.1875 129.98-48.2422Q127.393-54.2969 122.803-58.8623Q118.213-63.4277 112.134-65.9912Q106.055-68.5547 99.0723-68.5547Q95.8008-68.5547 92.7246-67.8711Q89.6484-67.1875 86.8164-65.918Z"/>
   <path class="hierarchical-1:primary SFSymbolsPreview212121" d="M149.414 20.8496Q150.781 22.2168 152.71 22.2412Q154.639 22.2656 156.006 20.8496Q157.471 19.3848 157.422 17.5049Q157.373 15.625 156.006 14.2578L48.291-93.4082Q46.9238-94.7754 44.9463-94.7998Q42.9688-94.8242 41.6504-93.4082Q40.2832-92.0898 40.2832-90.1123Q40.2832-88.1348 41.6504-86.8164Z"/>
  </g>
  <g id="Medium-L" transform="matrix(1 0 0 1 1647.94 1556)">
   <path class="hierarchical-0:secondary SFSymbolsPreview4D4D4D" d="M98.6328 18.9453Q107.52 18.9453 115.576 17.4561Q123.633 15.9668 131.006 13.3301L122.217 4.54102Q116.699 6.29883 110.84 7.32422Q104.98 8.34961 98.6328 8.34961Q88.3301 8.34961 78.9307 5.78613Q69.5312 3.22266 61.3525-0.952148Q53.1738-5.12695 46.5332-10.0586Q39.8926-14.9902 35.1562-19.9219Q30.4199-24.8535 27.8809-28.9062Q25.3418-32.959 25.3418-35.2051Q25.3418-36.9141 27.3438-40.21Q29.3457-43.5059 33.1055-47.7051Q36.8652-51.9043 42.2119-56.3965Q47.5586-60.8887 54.248-64.9902L45.9473-73.291Q38.1836-68.3594 32.0557-62.8906Q25.9277-57.4219 21.6553-52.1484Q17.3828-46.875 15.1367-42.4316Q12.8906-37.9883 12.8906-35.2051Q12.8906-31.9824 15.7227-26.8066Q18.5547-21.6309 23.9258-15.5029Q29.2969-9.375 36.8896-3.32031Q44.4824 2.73438 54.0527 7.78809Q63.623 12.8418 74.8291 15.8936Q86.0352 18.9453 98.6328 18.9453ZM98.6328-89.3066Q90.1855-89.3066 82.5684-87.8906Q74.9512-86.4746 67.8711-84.0332L76.709-75.1953Q81.8848-76.8555 87.2803-77.7832Q92.6758-78.7109 98.6328-78.7109Q108.936-78.7109 118.359-76.0742Q127.783-73.4375 135.962-69.165Q144.141-64.8926 150.757-59.8389Q157.373-54.7852 162.085-49.8779Q166.797-44.9707 169.336-41.0645Q171.875-37.1582 171.875-35.2051Q171.875-33.252 169.971-29.9316Q168.066-26.6113 164.478-22.5342Q160.889-18.457 155.786-14.1357Q150.684-9.81445 144.287-5.85938L152.49 2.34375Q160.01-2.49023 165.894-7.88574Q171.777-13.2812 175.903-18.5059Q180.029-23.7305 182.178-28.0518Q184.326-32.373 184.326-35.2051Q184.326-38.3789 181.519-43.5791Q178.711-48.7793 173.413-54.8828Q168.115-60.9863 160.547-67.041Q152.979-73.0957 143.457-78.1494Q133.936-83.2031 122.656-86.2549Q111.377-89.3066 98.6328-89.3066ZM98.6328-0.976562Q102.637-0.976562 106.299-1.92871Q109.961-2.88086 113.281-4.58984L67.8711-50Q66.1133-46.6797 65.21-42.9443Q64.3066-39.209 64.3066-35.1562Q64.3555-28.1738 66.9922-21.9971Q69.6289-15.8203 74.3164-11.1084Q79.0039-6.39648 85.2539-3.68652Q91.5039-0.976562 98.6328-0.976562ZM129.785-21.7773Q131.299-24.8047 132.104-28.2227Q132.91-31.6406 132.91-35.2051Q132.91-42.334 130.273-48.5352Q127.637-54.7363 122.925-59.4238Q118.213-64.1113 111.987-66.7236Q105.762-69.3359 98.6328-69.3359Q95.0195-69.3359 91.626-68.5791Q88.2324-67.8223 85.1562-66.3574Z"/>
   <path class="hierarchical-1:primary SFSymbolsPreview212121" d="M148.73 20.2637Q150 21.5332 151.831 21.5576Q153.662 21.582 155.029 20.2637Q156.396 18.7988 156.348 17.0166Q156.299 15.2344 155.029 13.916L47.9492-93.0664Q46.6797-94.3359 44.7998-94.3604Q42.9199-94.3848 41.6016-93.0664Q40.332-91.7969 40.332-89.917Q40.332-88.0371 41.6016-86.7188Z"/>
  </g>
  <g id="Regular-L" transform="matrix(1 0 0 1 1351.82 1556)">
   <path class="hierarchical-0:secondary SFSymbolsPreview4D4D4D" d="M98.0469 18.457Q107.031 18.457 115.161 16.8945Q123.291 15.332 130.762 12.6465L123.633 5.51758Q117.627 7.51953 111.304 8.66699Q104.98 9.81445 98.0469 9.81445Q87.4512 9.81445 77.7588 7.15332Q68.0664 4.49219 59.6436 0.170898Q51.2207-4.15039 44.3604-9.27734Q37.5-14.4043 32.5928-19.5068Q27.6855-24.6094 25.0488-28.7598Q22.4121-32.9102 22.4121-35.2051Q22.4121-37.0117 24.5605-40.5029Q26.709-43.9941 30.7129-48.4375Q34.7168-52.8809 40.4297-57.6172Q46.1426-62.3535 53.2715-66.6504L46.5332-73.3887Q38.623-68.5059 32.3975-63.0371Q26.1719-57.5684 21.8262-52.2705Q17.4805-46.9727 15.1855-42.5049Q12.8906-38.0371 12.8906-35.2051Q12.8906-32.0312 15.7227-26.8799Q18.5547-21.7285 23.9258-15.6738Q29.2969-9.61914 36.8652-3.61328Q44.4336 2.39258 53.9307 7.39746Q63.4277 12.4023 74.5361 15.4297Q85.6445 18.457 98.0469 18.457ZM98.0469-88.8184Q89.5508-88.8184 81.9336-87.3779Q74.3164-85.9375 67.1875-83.3984L74.3164-76.2695Q79.9316-78.125 85.7422-79.1748Q91.5527-80.2246 98.0469-80.2246Q108.643-80.2246 118.359-77.4902Q128.076-74.7559 136.499-70.3369Q144.922-65.918 151.758-60.6934Q158.594-55.4688 163.477-50.3906Q168.359-45.3125 170.996-41.2598Q173.633-37.207 173.633-35.2051Q173.633-33.2031 171.582-29.7119Q169.531-26.2207 165.698-21.8994Q161.865-17.5781 156.421-13.0127Q150.977-8.44727 144.189-4.3457L150.879 2.34375Q158.447-2.49023 164.429-7.86133Q170.41-13.2324 174.585-18.457Q178.76-23.6816 180.957-28.0273Q183.154-32.373 183.154-35.2051Q183.154-38.3789 180.347-43.5303Q177.539-48.6816 172.241-54.7363Q166.943-60.791 159.399-66.7969Q151.855-72.8027 142.383-77.7832Q132.91-82.7637 121.753-85.791Q110.596-88.8184 98.0469-88.8184ZM98.0469 0.0488281Q102.49 0.0488281 106.567-1.0498Q110.645-2.14844 114.307-4.10156L66.748-51.6602Q64.7461-47.998 63.6963-43.8477Q62.6465-39.6973 62.6465-35.2051Q62.6953-27.9785 65.4297-21.6064Q68.1641-15.2344 72.998-10.376Q77.832-5.51758 84.2529-2.73438Q90.6738 0.0488281 98.0469 0.0488281ZM129.736-20.2148Q131.494-23.584 132.446-27.3926Q133.398-31.2012 133.398-35.2051Q133.398-42.5781 130.664-48.9746Q127.93-55.3711 123.071-60.2051Q118.213-65.0391 111.792-67.7246Q105.371-70.4102 98.0469-70.4102Q93.9941-70.4102 90.21-69.5068Q86.4258-68.6035 83.0078-66.9434Z"/>
   <path class="hierarchical-1:primary SFSymbolsPreview212121" d="M147.803 19.4336Q149.023 20.6543 150.732 20.6787Q152.441 20.7031 153.711 19.4336Q155.029 18.0664 154.98 16.4062Q154.932 14.7461 153.711 13.5254L47.5098-92.5781Q46.3379-93.7988 44.5801-93.8232Q42.8223-93.8477 41.6016-92.5781Q40.3809-91.4062 40.3809-89.6484Q40.3809-87.8906 41.6016-86.6699Z"/>
  </g>
  <g id="Light-L" transform="matrix(1 0 0 1 1056.39 1556)">
   <path class="hierarchical-0:secondary SFSymbolsPreview4D4D4D" d="M96.7773 17.9688Q106.006 17.9688 114.233 16.2598Q122.461 14.5508 130.127 11.6699L124.561 6.10352Q118.066 8.44727 111.23 9.79004Q104.395 11.1328 96.7773 11.1328Q85.8398 11.1328 75.9766 8.39844Q66.1133 5.66406 57.6172 1.2207Q49.1211-3.22266 42.2607-8.52051Q35.4004-13.8184 30.5176-19.043Q25.6348-24.2676 22.998-28.54Q20.3613-32.8125 20.3613-35.2051Q20.3613-37.207 22.5586-40.918Q24.7559-44.6289 28.8574-49.3164Q32.959-54.0039 38.8428-58.9355Q44.7266-63.8672 52.0996-68.2617L46.875-73.4863Q38.916-68.6523 32.6172-63.1592Q26.3184-57.666 21.9238-52.3438Q17.5293-47.0215 15.21-42.5293Q12.8906-38.0371 12.8906-35.2051Q12.8906-32.0801 15.6982-26.9775Q18.5059-21.875 23.8037-15.8691Q29.1016-9.86328 36.5723-3.90625Q44.043 2.05078 53.3936 7.00684Q62.7441 11.9629 73.6572 14.9658Q84.5703 17.9688 96.7773 17.9688ZM96.7773-88.3301Q87.8418-88.3301 80.0537-86.6943Q72.2656-85.0586 64.8926-82.2754L70.4102-76.7578Q76.6113-78.9551 82.9834-80.249Q89.3555-81.543 96.7773-81.543Q107.666-81.543 117.578-78.7598Q127.49-75.9766 135.986-71.4844Q144.482-66.9922 151.318-61.6455Q158.154-56.2988 163.013-51.0498Q167.871-45.8008 170.483-41.5771Q173.096-37.3535 173.096-35.2051Q173.096-33.1055 170.972-29.3701Q168.848-25.6348 164.844-21.0205Q160.84-16.4062 155.127-11.5967Q149.414-6.78711 142.285-2.53906L147.559 2.68555Q155.273-2.09961 161.377-7.51953Q167.48-12.9395 171.777-18.2373Q176.074-23.5352 178.345-27.9541Q180.615-32.373 180.615-35.2051Q180.615-38.3301 177.808-43.4326Q175-48.5352 169.751-54.5166Q164.502-60.498 157.056-66.4795Q149.609-72.4609 140.283-77.3926Q130.957-82.3242 119.995-85.3271Q109.033-88.3301 96.7773-88.3301ZM96.7773 0Q101.514 0 105.884-1.26953Q110.254-2.53906 114.111-4.78516L66.1133-52.7832Q63.8184-48.9258 62.5977-44.4824Q61.377-40.0391 61.377-35.2051Q61.4258-27.9785 64.1846-21.6309Q66.9434-15.2832 71.7773-10.4248Q76.6113-5.56641 83.0078-2.7832Q89.4043 0 96.7773 0ZM127.588-18.6035Q129.736-22.2656 130.908-26.4893Q132.08-30.7129 132.08-35.2051Q132.08-42.5781 129.321-48.9502Q126.562-55.3223 121.704-60.1562Q116.846-64.9902 110.449-67.6758Q104.053-70.3613 96.7773-70.3613Q92.1875-70.3613 87.9883-69.2383Q83.7891-68.1152 80.0781-66.0645Z"/>
   <path class="hierarchical-1:primary SFSymbolsPreview212121" d="M147.51 19.4824Q148.438 20.4102 149.756 20.4346Q151.074 20.459 152.1 19.4824Q153.125 18.4082 153.076 17.1387Q153.027 15.8691 152.1 14.9414L44.7754-92.334Q43.8965-93.2617 42.5293-93.2861Q41.1621-93.3105 40.1855-92.334Q39.2578-91.4062 39.2578-90.0391Q39.2578-88.6719 40.1855-87.7441Z"/>
  </g>
  <g id="Thin-L" transform="matrix(1 0 0 1 761.37 1556)">
   <path class="hierarchical-0:secondary SFSymbolsPreview4D4D4D" d="M95.0684 17.334Q104.59 17.334 112.988 15.4297Q121.387 13.5254 129.248 10.4492L125.732 6.88477Q118.652 9.61914 111.133 11.2305Q103.613 12.8418 95.0684 12.8418Q83.7402 12.8418 73.6572 10.0098Q63.5742 7.17773 54.9561 2.58789Q46.3379-2.00195 39.4531-7.49512Q32.5684-12.9883 27.71-18.4082Q22.8516-23.8281 20.2881-28.2715Q17.7246-32.7148 17.7246-35.2051Q17.7246-37.4512 19.9463-41.4795Q22.168-45.5078 26.3916-50.4883Q30.6152-55.4688 36.7188-60.6689Q42.8223-65.8691 50.5371-70.4102L47.2656-73.6816Q39.2578-68.7988 32.8857-63.3057Q26.5137-57.8125 22.0459-52.417Q17.5781-47.0215 15.2344-42.5293Q12.8906-38.0371 12.8906-35.2051Q12.8906-32.1289 15.6494-27.0996Q18.4082-22.0703 23.6084-16.1377Q28.8086-10.2051 36.1572-4.32129Q43.5059 1.5625 52.6611 6.46973Q61.8164 11.377 72.5098 14.3555Q83.2031 17.334 95.0684 17.334ZM95.0684-87.6953Q85.5957-87.6953 77.6123-85.8154Q69.6289-83.9355 61.8652-80.8105L65.2344-77.3926Q72.2656-80.0781 79.3701-81.6895Q86.4746-83.3008 95.0684-83.3008Q106.445-83.3008 116.553-80.4688Q126.66-77.6367 135.278-72.998Q143.896-68.3594 150.757-62.8662Q157.617-57.373 162.451-51.9287Q167.285-46.4844 169.849-42.041Q172.412-37.5977 172.412-35.2051Q172.412-32.9102 170.166-28.8818Q167.92-24.8535 163.696-19.873Q159.473-14.8926 153.442-9.76562Q147.412-4.63867 139.795-0.146484L143.164 3.17383Q151.025-1.61133 157.324-7.10449Q163.623-12.5977 168.066-17.9688Q172.51-23.3398 174.854-27.832Q177.197-32.3242 177.197-35.2051Q177.197-38.2812 174.438-43.2861Q171.68-48.291 166.479-54.2236Q161.279-60.1562 153.955-66.0645Q146.631-71.9727 137.476-76.8555Q128.32-81.7383 117.627-84.7168Q106.934-87.6953 95.0684-87.6953ZM95.0684 0Q100.244 0 105.005-1.51367Q109.766-3.02734 113.867-5.66406L65.2832-54.248Q62.6465-50.1953 61.1816-45.3613Q59.7168-40.5273 59.7168-35.2051Q59.7656-28.0273 62.5244-21.6553Q65.2832-15.2832 70.1172-10.4248Q74.9512-5.56641 81.3477-2.7832Q87.7441 0 95.0684 0ZM124.707-16.4551Q127.393-20.5078 128.882-25.2686Q130.371-30.0293 130.371-35.2051Q130.371-42.5293 127.588-48.9258Q124.805-55.3223 119.922-60.1318Q115.039-64.9414 108.667-67.6514Q102.295-70.3613 95.0684-70.3613Q89.8438-70.3613 85.083-68.9453Q80.3223-67.5293 76.2207-64.9414Z"/>
   <path class="hierarchical-1:primary SFSymbolsPreview212121" d="M147.119 19.5801Q147.705 20.1172 148.511 20.1172Q149.316 20.1172 149.902 19.5801Q150.586 18.8965 150.537 18.1152Q150.488 17.334 149.902 16.748L41.1621-91.9922Q40.625-92.4805 39.8193-92.5537Q39.0137-92.627 38.3789-91.9922Q37.793-91.4062 37.793-90.5762Q37.793-89.7461 38.3789-89.1602Z"/>
  </g>
  <g id="Ultralight-L" transform="matrix(1 0 0 1 465.526 1556)">
   <path class="hierarchical-0:secondary SFSymbolsPreview4D4D4D" d="M94.1895 16.9922Q103.906 16.9922 112.378 15.0146Q120.85 13.0371 128.809 9.76562L126.367 7.27539Q118.945 10.2539 111.084 11.9873Q103.223 13.7207 94.1895 13.7207Q82.666 13.7207 72.4609 10.8643Q62.2559 8.00781 53.5889 3.32031Q44.9219-1.36719 38.0371-6.98242Q31.1523-12.5977 26.3184-18.1152Q21.4844-23.6328 18.8965-28.1494Q16.3086-32.666 16.3086-35.2051Q16.3086-37.5488 18.5791-41.748Q20.8496-45.9473 25.1465-51.0986Q29.4434-56.25 35.6445-61.5723Q41.8457-66.8945 49.707-71.5332L47.5098-73.7305Q39.4531-68.8965 33.0322-63.4033Q26.6113-57.9102 22.1191-52.4902Q17.627-47.0703 15.2588-42.5537Q12.8906-38.0371 12.8906-35.2051Q12.8906-32.1777 15.625-27.1729Q18.3594-22.168 23.5107-16.2842Q28.6621-10.4004 35.9375-4.5166Q43.2129 1.36719 52.2705 6.22559Q61.3281 11.084 71.8994 14.0381Q82.4707 16.9922 94.1895 16.9922ZM94.1895-87.3535Q84.4727-87.3535 76.3428-85.3516Q68.2129-83.3496 60.3516-80.0293L62.5977-77.7344Q70.0195-80.6641 77.5146-82.4463Q85.0098-84.2285 94.1895-84.2285Q105.762-84.2285 116.016-81.3477Q126.27-78.4668 134.937-73.7793Q143.604-69.0918 150.464-63.501Q157.324-57.9102 162.134-52.3682Q166.943-46.8262 169.482-42.2607Q172.021-37.6953 172.021-35.2051Q172.021-32.8613 169.727-28.6621Q167.432-24.4629 163.11-19.2871Q158.789-14.1113 152.563-8.81348Q146.338-3.51562 138.525 1.12305L140.869 3.41797Q148.877-1.36719 155.273-6.88477Q161.67-12.4023 166.162-17.8223Q170.654-23.2422 173.071-27.7832Q175.488-32.3242 175.488-35.2051Q175.488-38.2324 172.729-43.2129Q169.971-48.1934 164.795-54.0771Q159.619-59.9609 152.368-65.8447Q145.117-71.7285 136.06-76.5869Q127.002-81.4453 116.431-84.3994Q105.859-87.3535 94.1895-87.3535ZM94.1895-0.0488281Q99.5605-0.0488281 104.541-1.66016Q109.521-3.27148 113.77-6.15234L64.8926-55.0293Q62.0117-50.8301 60.4492-45.7764Q58.8867-40.7227 58.8867-35.2051Q58.9355-28.0273 61.6943-21.6797Q64.4531-15.332 69.2871-10.4736Q74.1211-5.61523 80.4932-2.83203Q86.8652-0.0488281 94.1895-0.0488281ZM123.242-15.332Q126.221-19.6289 127.856-24.6582Q129.492-29.6875 129.492-35.2051Q129.492-42.5293 126.685-48.9014Q123.877-55.2734 118.994-60.083Q114.111-64.8926 107.739-67.6025Q101.367-70.3125 94.1895-70.3125Q88.623-70.3125 83.5693-68.75Q78.5156-67.1875 74.2676-64.3555Z"/>
   <path class="hierarchical-1:primary SFSymbolsPreview212121" d="M146.875 19.6289Q147.314 19.9707 147.852 19.9707Q148.389 19.9707 148.828 19.6289Q149.268 19.1406 149.243 18.6279Q149.219 18.1152 148.828 17.7246L39.3555-91.7969Q38.9648-92.1387 38.4277-92.1875Q37.8906-92.2363 37.4023-91.7969Q37.0117-91.4062 37.0117-90.8447Q37.0117-90.2832 37.4023-89.8926Z"/>
  </g>
  <g id="Black-M" transform="matrix(1 0 0 1 2854.71 1126)">
   <path class="hierarchical-0:secondary SFSymbolsPreview4D4D4D" d="M78.6621 8.98438Q85.2051 8.98438 91.1865 8.00781Q97.168 7.03125 102.539 5.32227L88.4766-8.83789Q86.1328-8.44727 83.6914-8.17871Q81.25-7.91016 78.6621-7.91016Q71.9238-7.91016 65.8936-9.44824Q59.8633-10.9863 54.7119-13.5254Q49.5605-16.0645 45.459-19.1162Q41.3574-22.168 38.4521-25.2441Q35.5469-28.3203 34.0088-30.9326Q32.4707-33.5449 32.4707-35.1562Q32.4707-36.1328 33.3984-37.8662Q34.3262-39.5996 36.1084-41.7969Q37.8906-43.9941 40.4297-46.4111Q42.9688-48.8281 46.2402-51.1719L33.0566-64.3066Q27.5391-60.4004 23.2422-56.1523Q18.9453-51.9043 15.9912-47.9004Q13.0371-43.8965 11.499-40.5762Q9.96094-37.2559 9.96094-35.1562Q9.96094-32.6172 12.1338-28.418Q14.3066-24.2188 18.457-19.2383Q22.6074-14.2578 28.5889-9.30176Q34.5703-4.3457 42.2363-0.195312Q49.9023 3.95508 59.0576 6.46973Q68.2129 8.98438 78.6621 8.98438ZM78.6621-79.1992Q72.2656-79.1992 66.3574-78.2227Q60.4492-77.2461 55.0781-75.4883L69.1406-61.377Q71.3867-61.8164 73.8037-62.0605Q76.2207-62.3047 78.6621-62.3047Q85.4004-62.3047 91.4307-60.6934Q97.4609-59.082 102.612-56.4453Q107.764-53.8086 111.89-50.6836Q116.016-47.5586 118.921-44.4824Q121.826-41.4062 123.364-38.9404Q124.902-36.4746 124.902-35.1562Q124.902-33.9355 123.999-32.1045Q123.096-30.2734 121.387-28.0762Q119.678-25.8789 117.236-23.5352Q114.795-21.1914 111.67-18.9453L124.561-5.9082Q130.078-9.81445 134.351-14.0625Q138.623-18.3105 141.528-22.3389Q144.434-26.3672 145.923-29.7119Q147.412-33.0566 147.412-35.1562Q147.412-37.6465 145.312-41.8457Q143.213-46.0449 139.111-51.0254Q135.01-56.0059 129.053-60.9619Q123.096-65.918 115.454-70.0439Q107.812-74.1699 98.584-76.6846Q89.3555-79.1992 78.6621-79.1992ZM78.6621-13.4766Q79.7852-13.4766 80.8105-13.623Q81.8359-13.7695 82.8125-13.9648L57.5684-39.209Q57.3242-38.2324 57.2021-37.207Q57.0801-36.1816 57.0801-35.1074Q57.0801-30.7129 58.7402-26.8066Q60.4004-22.9004 63.3789-19.8975Q66.3574-16.8945 70.2637-15.1855Q74.1699-13.4766 78.6621-13.4766ZM99.9512-31.4453Q100.146-32.3242 100.244-33.2764Q100.342-34.2285 100.342-35.2051Q100.342-39.6484 98.6816-43.5547Q97.0215-47.4609 94.043-50.4395Q91.0645-53.418 87.1582-55.0781Q83.252-56.7383 78.7109-56.7383Q77.7344-56.7383 76.8311-56.665Q75.9277-56.5918 75-56.3965Z"/>
   <path class="hierarchical-1:primary SFSymbolsPreview212121" d="M119.385 11.5723Q120.703 12.8906 122.559 12.8906Q124.414 12.8906 125.684 11.5723Q126.953 10.2539 126.978 8.42285Q127.002 6.5918 125.684 5.27344L38.2324-82.1289Q36.9141-83.4473 35.0342-83.4473Q33.1543-83.4473 31.8848-82.1289Q30.6152-80.8594 30.6152-78.9795Q30.6152-77.0996 31.8848-75.8301Z"/>
  </g>
  <g id="Heavy-M" transform="matrix(1 0 0 1 2558.47 1126)">
   <path class="hierarchical-0:secondary SFSymbolsPreview4D4D4D" d="M78.2227 8.44727Q84.8145 8.44727 90.8447 7.42188Q96.875 6.39648 102.344 4.63867L90.0879-7.66602Q87.2559-7.08008 84.3018-6.68945Q81.3477-6.29883 78.2227-6.29883Q71.1426-6.29883 64.7949-7.93457Q58.4473-9.57031 52.9785-12.3047Q47.5098-15.0391 43.1152-18.2861Q38.7207-21.5332 35.5957-24.7803Q32.4707-28.0273 30.8105-30.7861Q29.1504-33.5449 29.1504-35.1562Q29.1504-36.2305 30.249-38.1592Q31.3477-40.0879 33.4473-42.5537Q35.5469-45.0195 38.501-47.7051Q41.4551-50.3906 45.2148-52.9297L33.7402-64.4043Q28.0762-60.5469 23.6572-56.2988Q19.2383-52.0508 16.1865-48.0225Q13.1348-43.9941 11.5479-40.6494Q9.96094-37.3047 9.96094-35.1562Q9.96094-32.6172 12.1338-28.4668Q14.3066-24.3164 18.4814-19.4092Q22.6562-14.502 28.6133-9.59473Q34.5703-4.6875 42.1875-0.610352Q49.8047 3.4668 58.8623 5.95703Q67.9199 8.44727 78.2227 8.44727ZM78.2227-78.7109Q71.8262-78.7109 65.9424-77.71Q60.0586-76.709 54.6875-74.9512L66.9434-62.6465Q69.5801-63.2812 72.4121-63.623Q75.2441-63.9648 78.2227-63.9648Q85.2539-63.9648 91.6016-62.2559Q97.9492-60.5469 103.418-57.7148Q108.887-54.8828 113.281-51.5625Q117.676-48.2422 120.801-44.9707Q123.926-41.6992 125.586-39.1113Q127.246-36.5234 127.246-35.1562Q127.246-33.8867 126.196-31.8848Q125.146-29.8828 123.145-27.4414Q121.143-25 118.335-22.4121Q115.527-19.8242 111.914-17.3828L123.193-6.00586Q128.76-9.86328 133.105-14.0869Q137.451-18.3105 140.43-22.3389Q143.408-26.3672 144.946-29.7119Q146.484-33.0566 146.484-35.1562Q146.484-37.6465 144.36-41.8213Q142.236-45.9961 138.11-50.9033Q133.984-55.8105 128.052-60.6934Q122.119-65.5762 114.526-69.6533Q106.934-73.7305 97.8271-76.2207Q88.7207-78.7109 78.2227-78.7109ZM78.2227-12.1582Q79.834-12.1582 81.3232-12.4512Q82.8125-12.7441 84.1797-13.1836L56.25-41.1133Q55.7617-39.7461 55.4932-38.2324Q55.2246-36.7188 55.2246-35.1074Q55.2246-30.4688 56.9824-26.3184Q58.7402-22.168 61.9141-18.9697Q65.0879-15.7715 69.2383-13.9648Q73.3887-12.1582 78.2227-12.1582ZM100.391-29.7852Q100.781-31.0547 101.001-32.4219Q101.221-33.7891 101.221-35.2051Q101.221-39.9414 99.4629-44.1162Q97.7051-48.291 94.5312-51.4404Q91.3574-54.5898 87.207-56.3477Q83.0566-58.1055 78.2227-58.1055Q76.8066-58.1055 75.4883-57.9102Q74.1699-57.7148 72.8516-57.3242Z"/>
   <path class="hierarchical-1:primary SFSymbolsPreview212121" d="M118.262 10.498Q119.531 11.7676 121.313 11.792Q123.096 11.8164 124.365 10.498Q125.586 9.22852 125.61 7.4707Q125.635 5.71289 124.365 4.44336L38.2812-81.5918Q37.0117-82.8613 35.2051-82.8613Q33.3984-82.8613 32.1289-81.5918Q30.9082-80.3711 30.9082-78.5645Q30.9082-76.7578 32.1289-75.5371Z"/>
  </g>
  <g id="Bold-M" transform="matrix(1 0 0 1 2262.29 1126)">
   <path class="hierarchical-0:secondary SFSymbolsPreview4D4D4D" d="M77.6855 7.8125Q84.375 7.8125 90.4785 6.7627Q96.582 5.71289 102.1 3.90625L91.8945-6.39648Q88.5254-5.56641 84.9854-5.0293Q81.4453-4.49219 77.6855-4.49219Q70.3125-4.49219 63.5742-6.27441Q56.8359-8.05664 51.0254-10.9619Q45.2148-13.8672 40.5273-17.3584Q35.8398-20.8496 32.4707-24.292Q29.1016-27.7344 27.2949-30.6396Q25.4883-33.5449 25.4883-35.2051Q25.4883-36.3281 26.7822-38.4766Q28.0762-40.625 30.4932-43.3838Q32.9102-46.1426 36.3281-49.1455Q39.7461-52.1484 44.0918-54.9316L34.4727-64.502Q28.6621-60.6934 24.1211-56.4453Q19.5801-52.1973 16.4307-48.1445Q13.2812-44.0918 11.6211-40.7227Q9.96094-37.3535 9.96094-35.2051Q9.96094-32.666 12.1582-28.5645Q14.3555-24.4629 18.5303-19.6045Q22.7051-14.7461 28.6621-9.93652Q34.6191-5.12695 42.1631-1.09863Q49.707 2.92969 58.6426 5.37109Q67.5781 7.8125 77.6855 7.8125ZM77.6855-78.125Q71.2891-78.125 65.4541-77.124Q59.6191-76.123 54.1992-74.3652L64.4531-64.1113Q67.627-64.8926 70.9229-65.3564Q74.2188-65.8203 77.6855-65.8203Q85.0586-65.8203 91.7969-63.9893Q98.5352-62.1582 104.346-59.1309Q110.156-56.1035 114.868-52.5635Q119.58-49.0234 122.925-45.5566Q126.27-42.0898 128.076-39.3311Q129.883-36.5723 129.883-35.2051Q129.883-33.8379 128.662-31.6406Q127.441-29.4434 125.146-26.7334Q122.852-24.0234 119.604-21.167Q116.357-18.3105 112.256-15.625L121.68-6.10352Q127.344-9.96094 131.763-14.1602Q136.182-18.3594 139.209-22.3633Q142.236-26.3672 143.823-29.7119Q145.41-33.0566 145.41-35.2051Q145.41-37.6953 143.262-41.7969Q141.113-45.8984 136.987-50.7568Q132.861-55.6152 126.953-60.4248Q121.045-65.2344 113.501-69.2383Q105.957-73.2422 96.9727-75.6836Q87.9883-78.125 77.6855-78.125ZM77.6855-10.6934Q79.8828-10.6934 81.8848-11.1328Q83.8867-11.5723 85.7422-12.3535L54.834-43.2617Q54.0039-41.4062 53.5889-39.3799Q53.1738-37.3535 53.1738-35.1562Q53.1738-30.1758 55.0537-25.7568Q56.9336-21.3379 60.3027-17.9443Q63.6719-14.5508 68.1152-12.6221Q72.5586-10.6934 77.6855-10.6934ZM100.879-27.9785Q101.514-29.6387 101.88-31.4697Q102.246-33.3008 102.246-35.2051Q102.246-40.2832 100.342-44.7266Q98.4375-49.1699 95.0684-52.5391Q91.6992-55.9082 87.2559-57.7881Q82.8125-59.668 77.7344-59.668Q75.7812-59.668 73.9746-59.3262Q72.168-58.9844 70.5078-58.3496Z"/>
   <path class="hierarchical-1:primary SFSymbolsPreview212121" d="M117.041 9.32617Q118.262 10.5469 119.971 10.5713Q121.68 10.5957 122.852 9.32617Q124.121 8.05664 124.097 6.39648Q124.072 4.73633 122.852 3.51562L38.3301-81.0059Q37.1094-82.1777 35.376-82.2021Q33.6426-82.2266 32.4707-81.0059Q31.2988-79.834 31.2988-78.1006Q31.2988-76.3672 32.4707-75.1953Z"/>
  </g>
  <g id="Semibold-M" transform="matrix(1 0 0 1 1965.95 1126)">
   <path class="hierarchical-0:secondary SFSymbolsPreview4D4D4D" d="M77.3438 7.37305Q84.0332 7.37305 90.21 6.29883Q96.3867 5.22461 101.953 3.36914L93.1152-5.51758Q89.4043-4.49219 85.4492-3.88184Q81.4941-3.27148 77.3438-3.27148Q69.6777-3.27148 62.6953-5.10254Q55.7129-6.93359 49.6582-10.0098Q43.6035-13.0859 38.6963-16.6992Q33.7891-20.3125 30.249-23.9258Q26.709-27.5391 24.8291-30.5176Q22.9492-33.4961 22.9492-35.2051Q22.9492-36.377 24.3652-38.6963Q25.7812-41.0156 28.418-43.9697Q31.0547-46.9238 34.8145-50.1221Q38.5742-53.3203 43.3105-56.25L35.0098-64.5508Q29.0527-60.791 24.4141-56.543Q19.7754-52.2949 16.5527-48.2178Q13.3301-44.1406 11.6455-40.7471Q9.96094-37.3535 9.96094-35.2051Q9.96094-32.666 12.1582-28.5889Q14.3555-24.5117 18.5547-19.7266Q22.7539-14.9414 28.6865-10.1562Q34.6191-5.37109 42.1387-1.41602Q49.6582 2.53906 58.4961 4.95605Q67.334 7.37305 77.3438 7.37305ZM77.3438-77.7344Q70.9473-77.7344 65.1123-76.7334Q59.2773-75.7324 53.8574-73.9258L62.7441-65.0879Q66.2109-66.0156 69.8242-66.5527Q73.4375-67.0898 77.3438-67.0898Q84.9121-67.0898 91.8945-65.1611Q98.877-63.2324 104.956-60.083Q111.035-56.9336 115.942-53.2471Q120.85-49.5605 124.365-45.9229Q127.881-42.2852 129.785-39.4531Q131.689-36.6211 131.689-35.2051Q131.689-33.7891 130.347-31.4453Q129.004-29.1016 126.489-26.2207Q123.975-23.3398 120.435-20.3125Q116.895-17.2852 112.451-14.4043L120.654-6.15234Q126.318-9.96094 130.786-14.1602Q135.254-18.3594 138.354-22.3389Q141.455-26.3184 143.066-29.6875Q144.678-33.0566 144.678-35.2051Q144.678-37.6953 142.505-41.7725Q140.332-45.8496 136.206-50.6348Q132.08-55.4199 126.172-60.2051Q120.264-64.9902 112.769-68.9453Q105.273-72.9004 96.3623-75.3174Q87.4512-77.7344 77.3438-77.7344ZM77.3438-9.66797Q79.8828-9.66797 82.251-10.2295Q84.6191-10.791 86.8164-11.7188L53.8086-44.7266Q52.7832-42.5781 52.2461-40.1611Q51.709-37.7441 51.709-35.1562Q51.7578-29.9805 53.7109-25.3662Q55.6641-20.752 59.1797-17.2119Q62.6953-13.6719 67.334-11.6699Q71.9727-9.66797 77.3438-9.66797ZM101.172-26.709Q102.002-28.6621 102.466-30.8105Q102.93-32.959 102.93-35.2051Q102.93-40.5273 100.952-45.166Q98.9746-49.8047 95.459-53.2959Q91.9434-56.7871 87.3047-58.7402Q82.666-60.6934 77.3438-60.6934Q75.0488-60.6934 72.9248-60.2783Q70.8008-59.8633 68.8477-59.082Z"/>
   <path class="hierarchical-1:primary SFSymbolsPreview212121" d="M116.211 8.49609Q117.383 9.7168 119.019 9.74121Q120.654 9.76562 121.826 8.49609Q123.047 7.27539 123.022 5.66406Q122.998 4.05273 121.826 2.88086L38.3301-80.5664Q37.1582-81.7383 35.498-81.7383Q33.8379-81.7383 32.666-80.5664Q31.4941-79.4434 31.4941-77.7588Q31.4941-76.0742 32.666-74.9512Z"/>
  </g>
  <g id="Medium-M" transform="matrix(1 0 0 1 1669.51 1126)">
   <path class="hierarchical-0:secondary SFSymbolsPreview4D4D4D" d="M77.0508 7.08008Q83.7891 7.08008 89.9902 5.98145Q96.1914 4.88281 101.807 2.97852L94.043-4.83398Q90.0391-3.66211 85.8154-2.97852Q81.5918-2.29492 77.0508-2.29492Q69.2383-2.29492 62.0605-4.22363Q54.8828-6.15234 48.6328-9.30176Q42.3828-12.4512 37.3291-16.2109Q32.2754-19.9707 28.6133-23.6572Q24.9512-27.3438 22.9736-30.4199Q20.9961-33.4961 20.9961-35.2051Q20.9961-36.4258 22.5098-38.8428Q24.0234-41.2598 26.8555-44.3848Q29.6875-47.5098 33.6914-50.8789Q37.6953-54.248 42.7246-57.2754L35.4004-64.6484Q29.3945-60.8398 24.6826-56.6162Q19.9707-52.3926 16.6748-48.3154Q13.3789-44.2383 11.6699-40.7959Q9.96094-37.3535 9.96094-35.2051Q9.96094-32.7148 12.1826-28.6377Q14.4043-24.5605 18.5791-19.7998Q22.7539-15.0391 28.6865-10.3027Q34.6191-5.56641 42.0898-1.63574Q49.5605 2.29492 58.374 4.6875Q67.1875 7.08008 77.0508 7.08008ZM77.0508-77.4414Q70.6543-77.4414 64.8438-76.416Q59.0332-75.3906 53.6133-73.584L61.4746-65.8203Q65.1855-66.8457 69.043-67.4561Q72.9004-68.0664 77.0508-68.0664Q84.8633-68.0664 92.0166-66.0889Q99.1699-64.1113 105.42-60.8398Q111.67-57.5684 116.748-53.7598Q121.826-49.9512 125.464-46.2158Q129.102-42.4805 131.079-39.5508Q133.057-36.6211 133.057-35.2051Q133.057-33.7402 131.641-31.2988Q130.225-28.8574 127.539-25.8545Q124.854-22.8516 121.094-19.6533Q117.334-16.4551 112.598-13.4766L119.824-6.25Q125.537-10.0098 130.054-14.1846Q134.57-18.3594 137.695-22.3389Q140.82-26.3184 142.48-29.6875Q144.141-33.0566 144.141-35.2051Q144.141-37.6953 141.943-41.748Q139.746-45.8008 135.62-50.5615Q131.494-55.3223 125.586-60.0586Q119.678-64.7949 112.231-68.7256Q104.785-72.6562 95.9229-75.0488Q87.0605-77.4414 77.0508-77.4414ZM77.0508-8.88672Q79.8828-8.88672 82.5439-9.52148Q85.2051-10.1562 87.5977-11.2793L53.0273-45.8496Q51.8555-43.457 51.2451-40.7715Q50.6348-38.0859 50.6348-35.2051Q50.6836-29.834 52.71-25.0732Q54.7363-20.3125 58.3496-16.6504Q61.9629-12.9883 66.748-10.9375Q71.5332-8.88672 77.0508-8.88672ZM101.416-25.7812Q102.393-27.9297 102.905-30.3223Q103.418-32.7148 103.418-35.2051Q103.418-40.6738 101.392-45.459Q99.3652-50.2441 95.7275-53.8574Q92.0898-57.4707 87.3047-59.4971Q82.5195-61.5234 77.0508-61.5234Q74.5117-61.5234 72.1436-61.0107Q69.7754-60.498 67.5781-59.6191Z"/>
   <path class="hierarchical-1:primary SFSymbolsPreview212121" d="M115.527 7.91016Q116.699 9.0332 118.286 9.08203Q119.873 9.13086 121.045 7.91016Q122.266 6.64062 122.241 5.10254Q122.217 3.56445 121.045 2.39258L38.3301-80.2246Q37.2559-81.3477 35.5957-81.3721Q33.9355-81.3965 32.8125-80.2246Q31.6895-79.1504 31.6895-77.5146Q31.6895-75.8789 32.8125-74.7559Z"/>
  </g>
  <g id="Regular-M" transform="matrix(1 0 0 1 1373.16 1126)">
   <path class="hierarchical-0:secondary SFSymbolsPreview4D4D4D" d="M76.709 6.64062Q83.4961 6.64062 89.7461 5.51758Q95.9961 4.39453 101.66 2.44141L95.2637-3.95508Q90.918-2.63672 86.2793-1.85547Q81.6406-1.07422 76.709-1.07422Q68.6523-1.07422 61.2305-3.07617Q53.8086-5.07812 47.3145-8.37402Q40.8203-11.6699 35.5469-15.5762Q30.2734-19.4824 26.4404-23.3154Q22.6074-27.1484 20.5566-30.3223Q18.5059-33.4961 18.5059-35.2051Q18.5059-36.4746 20.1416-39.0625Q21.7773-41.6504 24.8291-44.9707Q27.8809-48.291 32.2021-51.8555Q36.5234-55.4199 41.9434-58.6426L35.8887-64.6973Q29.7852-60.9375 24.9756-56.7139Q20.166-52.4902 16.8213-48.3887Q13.4766-44.2871 11.7188-40.8447Q9.96094-37.4023 9.96094-35.2051Q9.96094-32.7148 12.1826-28.6865Q14.4043-24.6582 18.6035-19.9463Q22.8027-15.2344 28.7109-10.5469Q34.6191-5.85938 42.0654-1.97754Q49.5117 1.9043 58.2275 4.27246Q66.9434 6.64062 76.709 6.64062ZM76.709-77.0508Q70.3125-77.0508 64.5264-76.0254Q58.7402-75 53.3203-73.1934L59.7656-66.7969Q63.8184-67.9688 67.9932-68.6523Q72.168-69.3359 76.709-69.3359Q84.7168-69.3359 92.1387-67.2607Q99.5605-65.1855 106.055-61.792Q112.549-58.3984 117.822-54.4434Q123.096-50.4883 126.904-46.6064Q130.713-42.7246 132.788-39.6973Q134.863-36.6699 134.863-35.2051Q134.863-33.6914 133.325-31.1279Q131.787-28.5645 128.882-25.3662Q125.977-22.168 121.924-18.7988Q117.871-15.4297 112.793-12.3047L118.799-6.29883Q124.561-10.0586 129.126-14.209Q133.691-18.3594 136.865-22.3389Q140.039-26.3184 141.724-29.6875Q143.408-33.0566 143.408-35.2051Q143.408-37.6953 141.211-41.7236Q139.014-45.752 134.863-50.4639Q130.713-55.1758 124.829-59.8633Q118.945-64.5508 111.523-68.4326Q104.102-72.3145 95.3369-74.6826Q86.5723-77.0508 76.709-77.0508ZM76.709-7.86133Q79.9316-7.86133 82.9346-8.61816Q85.9375-9.375 88.6719-10.6934L52.0508-47.3145Q50.6836-44.5801 49.9512-41.5283Q49.2188-38.4766 49.2188-35.2051Q49.2676-29.6387 51.3672-24.6826Q53.4668-19.7266 57.2266-15.9424Q60.9863-12.1582 65.9668-10.0098Q70.9473-7.86133 76.709-7.86133ZM101.758-24.5117Q102.881-26.9531 103.491-29.6631Q104.102-32.373 104.102-35.2051Q104.102-40.918 101.978-45.8984Q99.8535-50.8789 96.0938-54.6143Q92.334-58.3496 87.3535-60.4492Q82.373-62.5488 76.709-62.5488Q73.8281-62.5488 71.1182-61.9629Q68.4082-61.377 65.9668-60.3027Z"/>
   <path class="hierarchical-1:primary SFSymbolsPreview212121" d="M114.697 7.08008Q115.82 8.20312 117.358 8.25195Q118.896 8.30078 120.02 7.08008Q121.24 5.85938 121.191 4.37012Q121.143 2.88086 120.02 1.75781L38.3789-79.834Q37.3047-80.9082 35.7178-80.9326Q34.1309-80.957 33.0078-79.834Q31.9336-78.7598 31.9336-77.1729Q31.9336-75.5859 33.0078-74.5117Z"/>
  </g>
  <g id="Light-M" transform="matrix(1 0 0 1 1077.61 1126)">
   <path class="hierarchical-0:secondary SFSymbolsPreview4D4D4D" d="M75.5371 6.20117Q82.5684 6.20117 88.916 4.95605Q95.2637 3.71094 101.074 1.5625L96.0938-3.41797Q91.3086-1.80664 86.2061-0.854492Q81.1035 0.0976562 75.5371 0.0976562Q67.2363 0.0976562 59.668-1.97754Q52.0996-4.05273 45.5322-7.44629Q38.9648-10.8398 33.667-14.8926Q28.3691-18.9453 24.5605-22.9004Q20.752-26.8555 18.7256-30.127Q16.6992-33.3984 16.6992-35.2051Q16.6992-36.6699 18.3594-39.4531Q20.0195-42.2363 23.1689-45.752Q26.3184-49.2676 30.7861-53.0273Q35.2539-56.7871 40.8691-60.1074L36.1816-64.7949Q30.0293-61.0352 25.1709-56.8115Q20.3125-52.5879 16.9189-48.4619Q13.5254-44.3359 11.7432-40.8691Q9.96094-37.4023 9.96094-35.2051Q9.96094-32.7637 12.1582-28.7842Q14.3555-24.8047 18.4814-20.1416Q22.6074-15.4785 28.4424-10.8398Q34.2773-6.20117 41.5771-2.34375Q48.877 1.51367 57.4219 3.85742Q65.9668 6.20117 75.5371 6.20117ZM75.5371-76.6113Q68.7988-76.6113 62.8662-75.4395Q56.9336-74.2676 51.2695-72.168L56.25-67.2363Q60.8398-68.75 65.5273-69.6289Q70.2148-70.5078 75.5371-70.5078Q83.8379-70.5078 91.4307-68.4082Q99.0234-66.3086 105.591-62.8418Q112.158-59.375 117.456-55.2979Q122.754-51.2207 126.514-47.1924Q130.273-43.1641 132.324-39.9902Q134.375-36.8164 134.375-35.2051Q134.375-33.5938 132.764-30.8105Q131.152-28.0273 128.101-24.585Q125.049-21.1426 120.776-17.5537Q116.504-13.9648 111.084-10.6934L115.82-5.95703Q121.68-9.7168 126.367-13.916Q131.055-18.1152 134.326-22.168Q137.598-26.2207 139.355-29.6387Q141.113-33.0566 141.113-35.2051Q141.113-37.6465 138.94-41.626Q136.768-45.6055 132.642-50.2686Q128.516-54.9316 122.729-59.5703Q116.943-64.209 109.644-68.0664Q102.344-71.9238 93.75-74.2676Q85.1562-76.6113 75.5371-76.6113ZM75.5371-7.91016Q79.0527-7.91016 82.3242-8.81348Q85.5957-9.7168 88.5254-11.3281L51.5137-48.3398Q49.8535-45.4102 48.9746-42.1143Q48.0957-38.8184 48.0957-35.2051Q48.1445-29.6387 50.2441-24.6826Q52.3438-19.7266 56.1035-15.9668Q59.8633-12.207 64.8438-10.0586Q69.8242-7.91016 75.5371-7.91016ZM99.8047-23.0469Q101.318-25.7812 102.124-28.8574Q102.93-31.9336 102.93-35.2051Q102.93-40.918 100.806-45.874Q98.6816-50.8301 94.8975-54.5654Q91.1133-58.3008 86.1572-60.4004Q81.2012-62.5 75.5371-62.5Q72.2168-62.5 69.1406-61.7188Q66.0645-60.9375 63.3301-59.5215Z"/>
   <path class="hierarchical-1:primary SFSymbolsPreview212121" d="M114.453 7.12891Q115.283 8.00781 116.504 8.03223Q117.725 8.05664 118.555 7.12891Q119.531 6.20117 119.482 5.0293Q119.434 3.85742 118.555 3.02734L35.9375-79.5898Q35.1074-80.4199 33.8867-80.4443Q32.666-80.4688 31.7871-79.5898Q30.957-78.7598 30.957-77.5391Q30.957-76.3184 31.7871-75.4883Z"/>
  </g>
  <g id="Thin-M" transform="matrix(1 0 0 1 782.427 1126)">
   <path class="hierarchical-0:secondary SFSymbolsPreview4D4D4D" d="M74.0234 5.66406Q81.3477 5.66406 87.8174 4.24805Q94.2871 2.83203 100.342 0.439453L97.168-2.73438Q91.7969-0.732422 86.1328 0.463867Q80.4688 1.66016 74.0234 1.66016Q65.332 1.66016 57.5684-0.488281Q49.8047-2.63672 43.1396-6.20117Q36.4746-9.76562 31.1523-13.9648Q25.8301-18.1641 22.0459-22.3145Q18.2617-26.4648 16.2842-29.8828Q14.3066-33.3008 14.3066-35.2051Q14.3066-36.9141 15.9912-39.9658Q17.6758-43.0176 20.9473-46.8262Q24.2188-50.6348 28.9062-54.5898Q33.5938-58.5449 39.502-62.0117L36.5234-64.9902Q30.3223-61.2305 25.3906-56.958Q20.459-52.6855 17.0166-48.5352Q13.5742-44.3848 11.7676-40.8936Q9.96094-37.4023 9.96094-35.2051Q9.96094-32.8125 12.1094-28.8818Q14.2578-24.9512 18.3105-20.3613Q22.3633-15.7715 28.0762-11.1816Q33.7891-6.5918 40.918-2.7832Q48.0469 1.02539 56.3965 3.34473Q64.7461 5.66406 74.0234 5.66406ZM74.0234-76.0254Q66.7969-76.0254 60.6689-74.6338Q54.541-73.2422 48.584-70.8496L51.6602-67.7734Q56.9336-69.7754 62.2803-70.9473Q67.627-72.1191 74.0234-72.1191Q82.7148-72.1191 90.5273-69.9463Q98.3398-67.7734 104.98-64.1846Q111.621-60.5957 116.943-56.3721Q122.266-52.1484 126.001-47.9736Q129.736-43.7988 131.738-40.4053Q133.74-37.0117 133.74-35.2051Q133.74-33.4473 132.031-30.3955Q130.322-27.3438 127.075-23.584Q123.828-19.8242 119.238-15.8936Q114.648-11.9629 108.838-8.54492L111.816-5.56641Q117.92-9.27734 122.754-13.5254Q127.588-17.7734 131.006-21.8994Q134.424-26.0254 136.23-29.5166Q138.037-33.0078 138.037-35.2051Q138.037-37.5977 135.889-41.5039Q133.74-45.4102 129.688-50Q125.635-54.5898 119.946-59.1797Q114.258-63.7695 107.129-67.5781Q100-71.3867 91.6504-73.7061Q83.3008-76.0254 74.0234-76.0254ZM74.0234-7.91016Q77.9297-7.91016 81.543-9.0332Q85.1562-10.1562 88.2812-12.1582L50.7324-49.6582Q48.7793-46.5332 47.7051-42.8711Q46.6309-39.209 46.6309-35.2051Q46.6797-29.6387 48.7793-24.707Q50.8789-19.7754 54.6387-15.9912Q58.3984-12.207 63.3545-10.0586Q68.3105-7.91016 74.0234-7.91016ZM97.2656-21.1426Q99.2188-24.2188 100.293-27.7832Q101.367-31.3477 101.367-35.2051Q101.367-40.8691 99.2188-45.8252Q97.0703-50.7812 93.2861-54.5166Q89.502-58.252 84.5459-60.3516Q79.5898-62.4512 74.0234-62.4512Q70.1172-62.4512 66.5283-61.4258Q62.9395-60.4004 59.8633-58.4961Z"/>
   <path class="hierarchical-1:primary SFSymbolsPreview212121" d="M114.111 7.22656Q114.648 7.76367 115.381 7.76367Q116.113 7.76367 116.65 7.22656Q117.236 6.64062 117.212 5.93262Q117.188 5.22461 116.65 4.6875L32.666-79.248Q32.2266-79.7852 31.4453-79.834Q30.6641-79.8828 30.127-79.248Q29.5898-78.7598 29.5898-78.0273Q29.5898-77.2949 30.127-76.709Z"/>
  </g>
  <g id="Ultralight-M" transform="matrix(1 0 0 1 486.5 1126)">
   <path class="hierarchical-0:secondary SFSymbolsPreview4D4D4D" d="M73.1934 5.37109Q80.7129 5.37109 87.2559 3.85742Q93.7988 2.34375 99.9512-0.146484L97.7051-2.34375Q92.041-0.195312 86.0596 1.14746Q80.0781 2.49023 73.1934 2.49023Q64.4043 2.49023 56.5186 0.268555Q48.6328-1.95312 41.9189-5.59082Q35.2051-9.22852 29.8828-13.5254Q24.5605-17.8223 20.8008-22.0459Q17.041-26.2695 15.0391-29.7607Q13.0371-33.252 13.0371-35.2051Q13.0371-37.0117 14.7705-40.21Q16.5039-43.4082 19.8242-47.3389Q23.1445-51.2695 27.9297-55.3711Q32.7148-59.4727 38.7695-62.9883L36.7188-65.0391Q30.4688-61.2793 25.5127-57.0312Q20.5566-52.7832 17.0898-48.6084Q13.623-44.4336 11.792-40.918Q9.96094-37.4023 9.96094-35.2051Q9.96094-32.8613 12.085-28.9551Q14.209-25.0488 18.2373-20.4834Q22.2656-15.918 27.9053-11.377Q33.5449-6.83594 40.6006-3.02734Q47.6562 0.78125 55.8594 3.07617Q64.0625 5.37109 73.1934 5.37109ZM73.1934-75.7324Q65.7715-75.7324 59.5215-74.2432Q53.2715-72.7539 47.168-70.166L49.2676-68.0664Q54.9316-70.2637 60.6201-71.582Q66.3086-72.9004 73.1934-72.9004Q82.1289-72.9004 90.0391-70.7031Q97.9492-68.5059 104.663-64.8926Q111.377-61.2793 116.699-56.958Q122.021-52.6367 125.732-48.3643Q129.443-44.0918 131.421-40.6006Q133.398-37.1094 133.398-35.2051Q133.398-33.3496 131.641-30.1514Q129.883-26.9531 126.538-23.0469Q123.193-19.1406 118.457-15.0635Q113.721-10.9863 107.715-7.42188L109.814-5.32227Q115.967-9.08203 120.898-13.3301Q125.83-17.5781 129.297-21.7773Q132.764-25.9766 134.619-29.4922Q136.475-33.0078 136.475-35.2051Q136.475-37.5488 134.351-41.4307Q132.227-45.3125 128.198-49.8779Q124.17-54.4434 118.53-59.0088Q112.891-63.5742 105.835-67.3584Q98.7793-71.1426 90.5762-73.4375Q82.373-75.7324 73.1934-75.7324ZM73.1934-7.95898Q77.3438-7.95898 81.1523-9.15527Q84.9609-10.3516 88.1836-12.5488L50.3906-50.3418Q48.2422-47.1191 47.0459-43.2861Q45.8496-39.4531 45.8496-35.2051Q45.8984-29.6387 48.0225-24.707Q50.1465-19.7754 53.9062-16.0156Q57.666-12.2559 62.5977-10.1074Q67.5293-7.95898 73.1934-7.95898ZM95.9473-20.166Q98.1445-23.3887 99.3408-27.2217Q100.537-31.0547 100.537-35.2051Q100.537-40.8691 98.4131-45.8008Q96.2891-50.7324 92.5049-54.4678Q88.7207-58.2031 83.7646-60.3027Q78.8086-62.4023 73.1934-62.4023Q68.9941-62.4023 65.1855-61.2549Q61.377-60.1074 58.1055-58.0078Z"/>
   <path class="hierarchical-1:primary SFSymbolsPreview212121" d="M113.916 7.27539Q114.258 7.61719 114.795 7.61719Q115.332 7.61719 115.674 7.27539Q116.064 6.83594 116.04 6.34766Q116.016 5.85938 115.674 5.51758L31.0059-79.1016Q30.7129-79.4434 30.2002-79.4922Q29.6875-79.541 29.2969-79.1016Q28.9551-78.7598 28.9551-78.2715Q28.9551-77.7832 29.2969-77.3926Z"/>
  </g>
  <g id="Black-S" transform="matrix(1 0 0 1 2871.66 696)">
   <path class="hierarchical-0:secondary SFSymbolsPreview4D4D4D" d="M61.7188-0.439453Q66.7969-0.439453 71.4844-1.19629Q76.1719-1.95312 80.3711-3.32031L68.8965-14.8926Q67.1875-14.5996 65.3809-14.4287Q63.5742-14.2578 61.7188-14.2578Q55.4688-14.2578 50.0732-15.918Q44.6777-17.5781 40.3076-20.166Q35.9375-22.7539 32.8125-25.6348Q29.6875-28.5156 28.0273-31.0791Q26.3672-33.6426 26.3672-35.1562Q26.3672-36.1816 27.5635-38.1348Q28.7598-40.0879 31.0303-42.5049Q33.3008-44.9219 36.4746-47.2656L25.7324-58.0078Q20.0195-53.9062 16.0156-49.4385Q12.0117-44.9707 9.91211-41.1621Q7.8125-37.3535 7.8125-35.1562Q7.8125-32.7637 10.2295-28.5645Q12.6465-24.3652 17.2607-19.5312Q21.875-14.6973 28.4912-10.3516Q35.1074-6.00586 43.457-3.22266Q51.8066-0.439453 61.7188-0.439453ZM61.7188-69.8242Q56.6895-69.8242 52.0264-69.043Q47.3633-68.2617 43.1641-66.8945L54.6387-55.3711Q56.3477-55.6641 58.1299-55.835Q59.9121-56.0059 61.7188-56.0059Q67.9688-56.0059 73.3887-54.2725Q78.8086-52.5391 83.1787-49.8535Q87.5488-47.168 90.6738-44.2383Q93.7988-41.3086 95.459-38.8428Q97.1191-36.377 97.1191-35.1562Q97.1191-33.9355 95.9473-31.9092Q94.7754-29.8828 92.6025-27.5146Q90.4297-25.1465 87.3047-22.8516L97.8516-12.207Q103.613-16.3086 107.568-20.8008Q111.523-25.293 113.599-29.126Q115.674-32.959 115.674-35.1562Q115.674-37.5 113.306-41.6992Q110.938-45.8984 106.372-50.7324Q101.807-55.5664 95.2148-59.9121Q88.623-64.2578 80.2002-67.041Q71.7773-69.8242 61.7188-69.8242ZM61.7188-18.6035Q62.4512-18.6035 63.1348-18.6768Q63.8184-18.75 64.4531-18.8477L45.459-37.8418Q45.2148-36.377 45.2148-35.1074Q45.2148-30.6641 47.4365-26.9043Q49.6582-23.1445 53.418-20.874Q57.1777-18.6035 61.7188-18.6035ZM78.0762-32.666Q78.2715-33.7891 78.2715-35.2051Q78.2715-39.7461 76.0498-43.4814Q73.8281-47.2168 70.0928-49.4385Q66.3574-51.6602 61.7676-51.6602Q61.1328-51.6602 60.5225-51.6113Q59.9121-51.5625 59.2773-51.4648Z"/>
   <path class="hierarchical-1:primary SFSymbolsPreview212121" d="M93.8477 1.75781Q94.873 2.7832 96.3379 2.7832Q97.8027 2.7832 98.7793 1.75781Q99.7559 0.732422 99.7803-0.708008Q99.8047-2.14844 98.7793-3.17383L29.7852-72.1191Q28.7598-73.1445 27.2949-73.1445Q25.8301-73.1445 24.8047-72.1191Q23.8281-71.1426 23.8281-69.6533Q23.8281-68.1641 24.8047-67.1875Z"/>
  </g>
  <g id="Heavy-S" transform="matrix(1 0 0 1 2575.21 696)">
   <path class="hierarchical-0:secondary SFSymbolsPreview4D4D4D" d="M61.4746-0.830078Q66.6016-0.830078 71.3135-1.61133Q76.0254-2.39258 80.2734-3.80859L70.166-13.9648Q68.1152-13.5254 65.918-13.2812Q63.7207-13.0371 61.4746-13.0371Q54.9316-13.0371 49.2188-14.8193Q43.5059-16.6016 38.8428-19.3604Q34.1797-22.1191 30.7861-25.1953Q27.3926-28.2715 25.5859-30.957Q23.7793-33.6426 23.7793-35.1562Q23.7793-36.2305 25.2197-38.4277Q26.6602-40.625 29.3457-43.3105Q32.0312-45.9961 35.7422-48.584L26.2695-58.0566Q20.4102-54.0039 16.2842-49.5361Q12.1582-45.0684 9.98535-41.2354Q7.8125-37.4023 7.8125-35.1562Q7.8125-32.7637 10.2539-28.6133Q12.6953-24.4629 17.3096-19.6777Q21.9238-14.8926 28.54-10.6201Q35.1562-6.34766 43.4326-3.58887Q51.709-0.830078 61.4746-0.830078ZM61.4746-69.4336Q56.4941-69.4336 51.8799-68.6768Q47.2656-67.9199 43.0664-66.5527L53.1738-56.3965Q55.1758-56.7871 57.251-57.0312Q59.3262-57.2754 61.4746-57.2754Q67.9688-57.2754 73.7061-55.4199Q79.4434-53.5645 84.1309-50.6836Q88.8184-47.8027 92.1875-44.7021Q95.5566-41.6016 97.3633-38.9893Q99.1699-36.377 99.1699-35.1562Q99.1699-33.8867 97.8027-31.665Q96.4355-29.4434 93.8965-26.8311Q91.3574-24.2188 87.7441-21.7285L97.0703-12.3535Q102.881-16.4062 106.909-20.8496Q110.938-25.293 113.037-29.126Q115.137-32.959 115.137-35.1562Q115.137-37.5 112.744-41.6748Q110.352-45.8496 105.786-50.6104Q101.221-55.3711 94.6533-59.668Q88.0859-63.9648 79.7363-66.6992Q71.3867-69.4336 61.4746-69.4336ZM61.4746-17.4805Q62.5977-17.4805 63.6475-17.6514Q64.6973-17.8223 65.6738-18.1152L44.4336-39.3555Q43.75-37.2559 43.75-35.1074Q43.75-30.3711 46.1426-26.3428Q48.5352-22.3145 52.5635-19.8975Q56.5918-17.4805 61.4746-17.4805ZM78.7109-31.4453Q79.1992-33.1543 79.1992-35.2051Q79.1992-40.0879 76.8066-44.0918Q74.4141-48.0957 70.4102-50.4639Q66.4062-52.832 61.5234-52.832Q60.5469-52.832 59.6191-52.71Q58.6914-52.5879 57.8125-52.3438Z"/>
   <path class="hierarchical-1:primary SFSymbolsPreview212121" d="M92.9199 0.830078Q93.9453 1.85547 95.3857 1.87988Q96.8262 1.9043 97.8027 0.830078Q98.8281-0.195312 98.8281-1.61133Q98.8281-3.02734 97.8027-4.05273L30.127-71.6797Q29.1016-72.7051 27.6611-72.7051Q26.2207-72.7051 25.1953-71.6797Q24.2188-70.7031 24.2188-69.2383Q24.2188-67.7734 25.1953-66.7969Z"/>
  </g>
  <g id="Bold-S" transform="matrix(1 0 0 1 2278.78 696)">
   <path class="hierarchical-0:secondary SFSymbolsPreview4D4D4D" d="M61.1816-1.31836Q66.3574-1.31836 71.1182-2.12402Q75.8789-2.92969 80.1758-4.3457L71.582-12.9395Q69.1406-12.3535 66.5283-12.0117Q63.916-11.6699 61.1816-11.6699Q54.3945-11.6699 48.3154-13.5742Q42.2363-15.4785 37.207-18.457Q32.1777-21.4355 28.5156-24.707Q24.8535-27.9785 22.876-30.8105Q20.8984-33.6426 20.8984-35.2051Q20.8984-36.3281 22.6074-38.7695Q24.3164-41.2109 27.4658-44.2383Q30.6152-47.2656 34.9609-50.0977L26.8555-58.1543Q20.8496-54.1016 16.5771-49.6338Q12.3047-45.166 10.0586-41.3086Q7.8125-37.4512 7.8125-35.2051Q7.8125-32.8125 10.2783-28.6865Q12.7441-24.5605 17.3828-19.873Q22.0215-15.1855 28.6133-10.9619Q35.2051-6.73828 43.4082-4.02832Q51.6113-1.31836 61.1816-1.31836ZM61.1816-69.043Q56.2988-69.043 51.709-68.2861Q47.1191-67.5293 42.9688-66.2109L51.6113-57.5684Q53.9062-58.1055 56.3232-58.3984Q58.7402-58.6914 61.1816-58.6914Q68.0176-58.6914 74.0967-56.6895Q80.1758-54.6875 85.2051-51.6357Q90.2344-48.584 93.8965-45.2637Q97.5586-41.9434 99.5361-39.1846Q101.514-36.4258 101.514-35.2051Q101.514-33.8379 99.9023-31.3965Q98.291-28.9551 95.3369-26.0742Q92.3828-23.1934 88.2812-20.459L96.1914-12.5Q102.051-16.5039 106.152-20.9229Q110.254-25.3418 112.427-29.1504Q114.6-32.959 114.6-35.2051Q114.6-37.5488 112.183-41.6748Q109.766-45.8008 105.176-50.4883Q100.586-55.1758 94.0186-59.3994Q87.4512-63.623 79.1992-66.333Q70.9473-69.043 61.1816-69.043ZM61.1816-16.2109Q62.7441-16.2109 64.209-16.5039Q65.6738-16.7969 66.9922-17.2852L43.2617-41.0156Q42.1875-38.2324 42.1875-35.1562Q42.1875-30.0293 44.7266-25.708Q47.2656-21.3867 51.5869-18.7988Q55.9082-16.2109 61.1816-16.2109ZM79.3945-30.127Q80.2246-32.5195 80.2246-35.2051Q80.2246-40.4785 77.6611-44.7754Q75.0977-49.0723 70.8008-51.6113Q66.5039-54.1504 61.2305-54.1504Q59.8633-54.1504 58.6182-53.9551Q57.373-53.7598 56.1523-53.3691Z"/>
   <path class="hierarchical-1:primary SFSymbolsPreview212121" d="M91.9434-0.195312Q92.9199 0.830078 94.3359 0.854492Q95.752 0.878906 96.7773-0.195312Q97.7539-1.2207 97.7539-2.6123Q97.7539-4.00391 96.7773-5.0293L30.5176-71.1914Q29.4922-72.2168 28.0762-72.2168Q26.6602-72.2168 25.6348-71.1914Q24.6582-70.2637 24.6582-68.7988Q24.6582-67.334 25.6348-66.3574Z"/>
  </g>
  <g id="Semibold-S" transform="matrix(1 0 0 1 1982.27 696)">
   <path class="hierarchical-0:secondary SFSymbolsPreview4D4D4D" d="M60.9863-1.66016Q66.2109-1.66016 70.9717-2.46582Q75.7324-3.27148 80.0781-4.6875L72.5586-12.207Q69.8242-11.5234 66.9434-11.1084Q64.0625-10.6934 60.9863-10.6934Q53.9551-10.6934 47.6318-12.6953Q41.3086-14.6973 36.0596-17.7979Q30.8105-20.8984 26.9531-24.3164Q23.0957-27.7344 20.9961-30.6885Q18.8965-33.6426 18.8965-35.2051Q18.8965-36.3281 20.7764-38.9648Q22.6562-41.6016 26.123-44.8486Q29.5898-48.0957 34.375-51.0742L27.2461-58.1543Q21.1426-54.1504 16.7725-49.6826Q12.4023-45.2148 10.1074-41.333Q7.8125-37.4512 7.8125-35.2051Q7.8125-32.8125 10.3027-28.7109Q12.793-24.6094 17.4316-19.9707Q22.0703-15.332 28.6377-11.1572Q35.2051-6.98242 43.3594-4.32129Q51.5137-1.66016 60.9863-1.66016ZM60.9863-68.7012Q56.1035-68.7012 51.5625-67.9688Q47.0215-67.2363 42.9199-65.918L50.4883-58.3496Q52.9785-58.9844 55.6396-59.3262Q58.3008-59.668 60.9863-59.668Q68.0176-59.668 74.3408-57.5684Q80.6641-55.4688 85.9131-52.2705Q91.1621-49.0723 95.0195-45.6055Q98.877-42.1387 100.977-39.2822Q103.076-36.4258 103.076-35.2051Q103.076-33.7891 101.318-31.2012Q99.5605-28.6133 96.3135-25.5371Q93.0664-22.4609 88.623-19.5801L95.6055-12.5977Q101.465-16.5527 105.64-20.9473Q109.814-25.3418 111.987-29.1504Q114.16-32.959 114.16-35.2051Q114.16-37.5488 111.743-41.6504Q109.326-45.752 104.712-50.3906Q100.098-55.0293 93.5547-59.2041Q87.0117-63.3789 78.8086-66.04Q70.6055-68.7012 60.9863-68.7012ZM60.9863-15.2832Q62.8418-15.2832 64.5996-15.6738Q66.3574-16.0645 67.9199-16.6992L42.4805-42.1875Q41.0645-38.8672 41.0645-35.1562Q41.0645-29.7852 43.7256-25.2686Q46.3867-20.752 50.9277-18.0176Q55.4688-15.2832 60.9863-15.2832ZM79.834-29.1504Q80.9082-32.0312 80.9082-35.2051Q80.9082-40.7227 78.2227-45.2393Q75.5371-49.7559 71.0449-52.417Q66.5527-55.0781 60.9863-55.0781Q59.4238-55.0781 57.9102-54.8096Q56.3965-54.541 54.9805-54.0527Z"/>
   <path class="hierarchical-1:primary SFSymbolsPreview212121" d="M91.2109-0.878906Q92.1875 0.0976562 93.6035 0.146484Q95.0195 0.195312 95.9961-0.878906Q97.0215-1.95312 97.0215-3.32031Q97.0215-4.6875 95.9961-5.66406L30.7617-70.8496Q29.7363-71.8262 28.3447-71.8506Q26.9531-71.875 25.9277-70.8496Q24.9512-69.9219 24.9512-68.4814Q24.9512-67.041 25.9277-66.0645Z"/>
  </g>
  <g id="Medium-S" transform="matrix(1 0 0 1 1685.71 696)">
   <path class="hierarchical-0:secondary SFSymbolsPreview4D4D4D" d="M60.8398-1.9043Q66.0645-1.9043 70.8496-2.70996Q75.6348-3.51562 80.0293-4.98047L73.291-11.6699Q70.3613-10.8887 67.2363-10.4248Q64.1113-9.96094 60.8398-9.96094Q53.6621-9.96094 47.1436-12.0361Q40.625-14.1113 35.2051-17.334Q29.7852-20.5566 25.7812-24.0723Q21.7773-27.5879 19.5557-30.6152Q17.334-33.6426 17.334-35.2051Q17.334-36.377 19.3848-39.1357Q21.4355-41.8945 25.1465-45.3125Q28.8574-48.7305 33.9355-51.8555L27.5879-58.2031Q21.3379-54.248 16.9189-49.7803Q12.5-45.3125 10.1562-41.3818Q7.8125-37.4512 7.8125-35.2051Q7.8125-32.8613 10.3027-28.7842Q12.793-24.707 17.4561-20.0928Q22.1191-15.4785 28.6621-11.3281Q35.2051-7.17773 43.335-4.54102Q51.4648-1.9043 60.8398-1.9043ZM60.8398-68.5059Q56.0059-68.5059 51.4893-67.7734Q46.9727-67.041 42.8223-65.7227L49.6094-58.9355Q52.2949-59.6191 55.127-60.0098Q57.959-60.4004 60.8398-60.4004Q68.0176-60.4004 74.5361-58.2275Q81.0547-56.0547 86.4746-52.7588Q91.8945-49.4629 95.8984-45.8984Q99.9023-42.334 102.1-39.4043Q104.297-36.4746 104.297-35.2051Q104.297-33.7891 102.393-31.0791Q100.488-28.3691 97.0459-25.1465Q93.6035-21.9238 88.8672-18.9453L95.1172-12.6465Q101.074-16.6016 105.249-20.9961Q109.424-25.3906 111.646-29.1748Q113.867-32.959 113.867-35.2051Q113.867-37.5977 111.426-41.6504Q108.984-45.7031 104.37-50.3174Q99.7559-54.9316 93.2373-59.082Q86.7188-63.2324 78.54-65.8691Q70.3613-68.5059 60.8398-68.5059ZM60.8398-14.6484Q62.9395-14.6484 64.8926-15.0879Q66.8457-15.5273 68.6035-16.3086L41.8457-43.0664Q40.1855-39.4043 40.1855-35.2051Q40.1855-29.6387 42.9688-24.9512Q45.752-20.2637 50.415-17.4561Q55.0781-14.6484 60.8398-14.6484ZM80.1758-28.4668Q81.4453-31.6895 81.4453-35.2051Q81.4453-40.9668 78.6865-45.6055Q75.9277-50.2441 71.2646-53.0029Q66.6016-55.7617 60.8398-55.7617Q59.0332-55.7617 57.373-55.4443Q55.7129-55.127 54.1016-54.5898Z"/>
   <path class="hierarchical-1:primary SFSymbolsPreview212121" d="M90.6738-1.41602Q91.6504-0.439453 93.042-0.390625Q94.4336-0.341797 95.459-1.41602Q96.4844-2.49023 96.46-3.83301Q96.4355-5.17578 95.459-6.20117L31.0059-70.6055Q29.9805-71.582 28.5645-71.6064Q27.1484-71.6309 26.1719-70.6055Q25.1953-69.6777 25.1953-68.2373Q25.1953-66.7969 26.1719-65.8203Z"/>
  </g>
  <g id="Regular-S" transform="matrix(1 0 0 1 1389.2 696)">
   <path class="hierarchical-0:secondary SFSymbolsPreview4D4D4D" d="M60.6445-2.19727Q65.918-2.19727 70.7275-3.02734Q75.5371-3.85742 79.9316-5.32227L74.2676-10.9863Q71.0449-10.0586 67.6514-9.5459Q64.2578-9.0332 60.6445-9.0332Q53.2715-9.0332 46.5088-11.2061Q39.7461-13.3789 34.082-16.7236Q28.418-20.0684 24.2188-23.7305Q20.0195-27.3926 17.7002-30.5176Q15.3809-33.6426 15.3809-35.2051Q15.3809-36.4258 17.6025-39.3555Q19.8242-42.2852 23.8525-45.9229Q27.8809-49.5605 33.3984-52.8809L27.9785-58.252Q21.6309-54.2969 17.1143-49.8291Q12.5977-45.3613 10.2051-41.4307Q7.8125-37.5 7.8125-35.2051Q7.8125-32.8613 10.3271-28.8086Q12.8418-24.7559 17.5049-20.1904Q22.168-15.625 28.7109-11.5234Q35.2539-7.42188 43.3105-4.80957Q51.3672-2.19727 60.6445-2.19727ZM60.6445-68.2129Q55.8594-68.2129 51.3672-67.4805Q46.875-66.748 42.7734-65.4785L48.5352-59.7168Q51.416-60.498 54.4678-60.9375Q57.5195-61.377 60.6445-61.377Q68.0176-61.377 74.7803-59.1064Q81.543-56.8359 87.207-53.3936Q92.8711-49.9512 97.0703-46.2402Q101.27-42.5293 103.564-39.502Q105.859-36.4746 105.859-35.2051Q105.859-33.7402 103.809-30.8838Q101.758-28.0273 98.0225-24.6094Q94.2871-21.1914 89.209-18.0664L94.5312-12.7441Q100.488-16.6504 104.736-21.0205Q108.984-25.3906 111.23-29.1748Q113.477-32.959 113.477-35.2051Q113.477-37.5977 111.011-41.626Q108.545-45.6543 103.931-50.2197Q99.3164-54.7852 92.7979-58.8867Q86.2793-62.9883 78.1738-65.6006Q70.0684-68.2129 60.6445-68.2129ZM60.6445-13.7695Q63.0371-13.7695 65.2832-14.2822Q67.5293-14.7949 69.5312-15.7227L41.0645-44.1895Q39.1113-40.0391 39.1113-35.2051Q39.1113-29.3945 41.9922-24.5117Q44.873-19.6289 49.7559-16.6992Q54.6387-13.7695 60.6445-13.7695ZM80.6641-27.5391Q82.1289-31.2012 82.1289-35.2051Q82.1289-41.2109 79.248-46.0693Q76.3672-50.9277 71.5088-53.7842Q66.6504-56.6406 60.6445-56.6406Q58.5938-56.6406 56.6895-56.2744Q54.7852-55.9082 52.9785-55.2734Z"/>
   <path class="hierarchical-1:primary SFSymbolsPreview212121" d="M89.9902-2.09961Q90.9668-1.12305 92.334-1.07422Q93.7012-1.02539 94.7266-2.09961Q95.752-3.17383 95.7275-4.5166Q95.7031-5.85938 94.7266-6.83594L31.25-70.2637Q30.2246-71.2402 28.833-71.2646Q27.4414-71.2891 26.4648-70.2637Q25.4883-69.3359 25.4883-67.9199Q25.4883-66.5039 26.4648-65.5273Z"/>
  </g>
  <g id="Light-S" transform="matrix(1 0 0 1 1093.51 696)">
   <path class="hierarchical-0:secondary SFSymbolsPreview4D4D4D" d="M59.6191-2.58789Q65.0879-2.58789 69.9951-3.51562Q74.9023-4.44336 79.3945-6.05469L75-10.498Q71.3867-9.32617 67.5781-8.66699Q63.7695-8.00781 59.6191-8.00781Q51.9531-8.00781 45.0439-10.2539Q38.1348-12.5 32.4219-15.9912Q26.709-19.4824 22.5342-23.2666Q18.3594-27.0508 16.0645-30.2979Q13.7695-33.5449 13.7695-35.2051Q13.7695-36.6211 16.04-39.8193Q18.3105-43.0176 22.5098-46.875Q26.709-50.7324 32.4707-54.1504L28.2227-58.3496Q21.8262-54.3945 17.2607-49.9023Q12.6953-45.4102 10.2539-41.4551Q7.8125-37.5 7.8125-35.2051Q7.8125-32.9102 10.2783-28.9062Q12.7441-24.9023 17.334-20.3857Q21.9238-15.8691 28.3447-11.8164Q34.7656-7.76367 42.6758-5.17578Q50.5859-2.58789 59.6191-2.58789ZM59.6191-67.8223Q54.4922-67.8223 49.8779-66.9434Q45.2637-66.0645 40.9668-64.5996L45.459-60.1074Q48.7793-61.1816 52.2705-61.8164Q55.7617-62.4512 59.6191-62.4512Q67.2852-62.4512 74.2188-60.1318Q81.1523-57.8125 86.8408-54.248Q92.5293-50.6836 96.7285-46.8506Q100.928-43.0176 103.174-39.8193Q105.42-36.6211 105.42-35.2051Q105.42-33.5938 103.271-30.4688Q101.123-27.3438 97.1436-23.6328Q93.1641-19.9219 87.6953-16.6504L91.8945-12.4512Q97.998-16.3574 102.368-20.7764Q106.738-25.1953 109.082-29.0771Q111.426-32.959 111.426-35.2051Q111.426-37.5488 108.984-41.5283Q106.543-45.5078 102.002-50.0244Q97.4609-54.541 91.0645-58.5938Q84.668-62.6465 76.7334-65.2344Q68.7988-67.8223 59.6191-67.8223ZM59.6191-13.8184Q62.3047-13.8184 64.7705-14.4531Q67.2363-15.0879 69.3848-16.2598L40.5762-45.0684Q38.1348-40.5762 38.1348-35.2051Q38.1348-29.3945 41.0156-24.5117Q43.8965-19.6289 48.7793-16.7236Q53.6621-13.8184 59.6191-13.8184ZM78.9551-26.2695Q81.1035-30.4688 81.1035-35.2051Q81.1035-41.1621 78.1982-46.0205Q75.293-50.8789 70.4346-53.7354Q65.5762-56.5918 59.6191-56.5918Q57.1777-56.5918 54.9316-56.0547Q52.6855-55.5176 50.6836-54.5898Z"/>
   <path class="hierarchical-1:primary SFSymbolsPreview212121" d="M89.7461-2.05078Q90.5273-1.26953 91.5771-1.24512Q92.627-1.2207 93.457-2.05078Q94.2383-2.88086 94.2139-3.93066Q94.1895-4.98047 93.457-5.71289L29.1016-70.0684Q28.3203-70.8008 27.2217-70.8252Q26.123-70.8496 25.3418-70.0684Q24.6094-69.3359 24.6094-68.2373Q24.6094-67.1387 25.3418-66.3574Z"/>
  </g>
  <g id="Thin-S" transform="matrix(1 0 0 1 798.151 696)">
   <path class="hierarchical-0:secondary SFSymbolsPreview4D4D4D" d="M58.3008-3.125Q63.9648-3.125 69.0186-4.19922Q74.0723-5.27344 78.7598-7.08008L75.9277-9.91211Q71.8262-8.39844 67.5049-7.51953Q63.1836-6.64062 58.3008-6.64062Q50.1953-6.64062 43.1152-8.98438Q36.0352-11.3281 30.249-14.9902Q24.4629-18.6523 20.3125-22.6562Q16.1621-26.6602 13.916-30.0537Q11.6699-33.4473 11.6699-35.2051Q11.6699-36.9141 14.0137-40.4297Q16.3574-43.9453 20.7275-48.0957Q25.0977-52.2461 31.2012-55.8594L28.5645-58.4961Q22.0703-54.5898 17.4316-50.0488Q12.793-45.5078 10.3027-41.5039Q7.8125-37.5 7.8125-35.2051Q7.8125-32.9102 10.2295-29.0039Q12.6465-25.0977 17.1387-20.6543Q21.6309-16.2109 27.8809-12.207Q34.1309-8.20312 41.8213-5.66406Q49.5117-3.125 58.3008-3.125ZM58.3008-67.2852Q52.7344-67.2852 47.9492-66.2354Q43.1641-65.1855 38.5742-63.4277L41.3574-60.6445Q45.3125-62.0605 49.3896-62.9395Q53.4668-63.8184 58.3008-63.8184Q66.3574-63.8184 73.4863-61.4258Q80.6152-59.0332 86.377-55.3467Q92.1387-51.6602 96.2891-47.6318Q100.439-43.6035 102.661-40.2344Q104.883-36.8652 104.883-35.2051Q104.883-33.4473 102.563-29.9561Q100.244-26.4648 95.9473-22.3633Q91.6504-18.2617 85.7422-14.7461L88.3789-12.0605Q94.6777-15.9668 99.2432-20.459Q103.809-24.9512 106.274-28.9307Q108.74-32.9102 108.74-35.2051Q108.74-37.5 106.323-41.4062Q103.906-45.3125 99.4385-49.7559Q94.9707-54.1992 88.7207-58.2031Q82.4707-62.207 74.7803-64.7461Q67.0898-67.2852 58.3008-67.2852ZM58.3008-13.8184Q61.2793-13.8184 64.0625-14.6484Q66.8457-15.4785 69.2383-16.9922L39.8926-46.2402Q36.8164-41.3086 36.8164-35.2051Q36.8652-29.3945 39.7461-24.5361Q42.627-19.6777 47.4609-16.748Q52.2949-13.8184 58.3008-13.8184ZM76.709-24.5605Q79.7363-29.4434 79.7363-35.2051Q79.7363-41.1621 76.8311-46.0205Q73.9258-50.8789 69.043-53.7354Q64.1602-56.5918 58.3008-56.5918Q55.3223-56.5918 52.6367-55.8105Q49.9512-55.0293 47.6074-53.6621Z"/>
   <path class="hierarchical-1:primary SFSymbolsPreview212121" d="M89.4531-2.00195Q89.8926-1.51367 90.5762-1.48926Q91.2598-1.46484 91.748-2.00195Q92.2852-2.49023 92.2607-3.14941Q92.2363-3.80859 91.748-4.24805L26.2207-69.8242Q25.7812-70.2637 25.0977-70.2881Q24.4141-70.3125 23.877-69.8242Q23.4375-69.3359 23.4375-68.6523Q23.4375-67.9688 23.877-67.4805Z"/>
  </g>
  <g id="Ultralight-S" transform="matrix(1 0 0 1 502.132 696)">
   <path class="hierarchical-0:secondary SFSymbolsPreview4D4D4D" d="M57.6172-3.36914Q63.4277-3.36914 68.5303-4.5166Q73.6328-5.66406 78.3691-7.56836L76.416-9.57031Q72.0215-7.91016 67.4316-6.93359Q62.8418-5.95703 57.6172-5.95703Q49.3164-5.95703 42.1387-8.34961Q34.9609-10.7422 29.1504-14.502Q23.3398-18.2617 19.1895-22.3389Q15.0391-26.416 12.793-29.9072Q10.5469-33.3984 10.5469-35.2051Q10.5469-37.0605 12.9395-40.7471Q15.332-44.4336 19.8242-48.7549Q24.3164-53.0762 30.5664-56.7383L28.7109-58.5938Q22.2168-54.6387 17.5293-50.0977Q12.8418-45.5566 10.3271-41.5283Q7.8125-37.5 7.8125-35.2051Q7.8125-32.959 10.2051-29.0771Q12.5977-25.1953 17.041-20.8008Q21.4844-16.4062 27.6367-12.4023Q33.7891-8.39844 41.3818-5.88379Q48.9746-3.36914 57.6172-3.36914ZM57.6172-67.041Q51.8066-67.041 46.9238-65.8936Q42.041-64.7461 37.3047-62.793L39.2578-60.8887Q43.5547-62.5488 47.9248-63.5498Q52.2949-64.5508 57.6172-64.5508Q65.8691-64.5508 73.0957-62.1338Q80.3223-59.7168 86.1084-55.957Q91.8945-52.1973 96.0449-48.0713Q100.195-43.9453 102.393-40.4541Q104.59-36.9629 104.59-35.2051Q104.59-33.3496 102.197-29.6631Q99.8047-25.9766 95.3369-21.7041Q90.8691-17.4316 84.7168-13.7695L86.5723-11.8652Q93.0176-15.7227 97.6562-20.2881Q102.295-24.8535 104.81-28.8818Q107.324-32.9102 107.324-35.2051Q107.324-37.4512 104.932-41.333Q102.539-45.2148 98.1201-49.6094Q93.7012-54.0039 87.5488-58.0078Q81.3965-62.0117 73.8037-64.5264Q66.2109-67.041 57.6172-67.041ZM57.6172-13.8672Q60.791-13.8672 63.6963-14.7949Q66.6016-15.7227 69.1406-17.334L39.5508-46.875Q36.1816-41.6504 36.1816-35.2051Q36.1816-29.3945 39.0625-24.5361Q41.9434-19.6777 46.8018-16.7725Q51.6602-13.8672 57.6172-13.8672ZM75.5371-23.6816Q79.0527-28.9551 79.0527-35.2051Q79.0527-41.1133 76.123-45.9717Q73.1934-50.8301 68.3105-53.6865Q63.4277-56.543 57.6172-56.543Q54.3945-56.543 51.4648-55.6641Q48.5352-54.7852 46.0449-53.1738Z"/>
   <path class="hierarchical-1:primary SFSymbolsPreview212121" d="M89.3066-1.95312Q89.5996-1.61133 90.0635-1.61133Q90.5273-1.61133 90.8691-1.95312Q91.2598-2.29492 91.2354-2.75879Q91.2109-3.22266 90.8691-3.51562L24.7559-69.6777Q24.4629-69.9707 23.999-69.9951Q23.5352-70.0195 23.1445-69.6777Q22.8516-69.3359 22.8516-68.8721Q22.8516-68.4082 23.1445-68.0664Z"/>
  </g>
 </g>
</svg>
