<?xml version="1.0" encoding="UTF-8"?>
<!--Generator: Apple Native CoreSVG 175-->
<!DOCTYPE svg
PUBLIC "-//W3C//DTD SVG 1.1//EN"
       "http://www.w3.org/Graphics/SVG/1.1/DTD/svg11.dtd">
<svg version="1.1" xmlns="http://www.w3.org/2000/svg" xmlns:xlink="http://www.w3.org/1999/xlink" width="3300" height="2200">
 <!--glyph: "uni1008B2.medium", point size: 100.0, font version: "17.0d12e1", template writer version: "65.1"-->
 <style>.hierarchical-0:tertiary {fill:#8E8E8E}
.hierarchical-1:primary {fill:#212121}

.SFSymbolsPreview212121 {fill:#212121;opacity:1.0}
.SFSymbolsPreview8E8E8E {fill:#8E8E8E;opacity:1.0}
</style>
 <g id="Notes">
  <rect height="2200" id="artboard" style="fill:white;opacity:1" width="3300" x="0" y="0"/>
  <line style="fill:none;stroke:black;opacity:1;stroke-width:0.5;" x1="263" x2="3036" y1="292" y2="292"/>
  <text style="stroke:none;fill:black;font-family:sans-serif;font-size:13;font-weight:bold;" transform="matrix(1 0 0 1 263 322)">Weight/Scale Variations</text>
  <text style="stroke:none;fill:black;font-family:sans-serif;font-size:13;text-anchor:middle;" transform="matrix(1 0 0 1 559.711 322)">Ultralight</text>
  <text style="stroke:none;fill:black;font-family:sans-serif;font-size:13;text-anchor:middle;" transform="matrix(1 0 0 1 856.422 322)">Thin</text>
  <text style="stroke:none;fill:black;font-family:sans-serif;font-size:13;text-anchor:middle;" transform="matrix(1 0 0 1 1153.13 322)">Light</text>
  <text style="stroke:none;fill:black;font-family:sans-serif;font-size:13;text-anchor:middle;" transform="matrix(1 0 0 1 1449.84 322)">Regular</text>
  <text style="stroke:none;fill:black;font-family:sans-serif;font-size:13;text-anchor:middle;" transform="matrix(1 0 0 1 1746.56 322)">Medium</text>
  <text style="stroke:none;fill:black;font-family:sans-serif;font-size:13;text-anchor:middle;" transform="matrix(1 0 0 1 2043.27 322)">Semibold</text>
  <text style="stroke:none;fill:black;font-family:sans-serif;font-size:13;text-anchor:middle;" transform="matrix(1 0 0 1 2339.98 322)">Bold</text>
  <text style="stroke:none;fill:black;font-family:sans-serif;font-size:13;text-anchor:middle;" transform="matrix(1 0 0 1 2636.69 322)">Heavy</text>
  <text style="stroke:none;fill:black;font-family:sans-serif;font-size:13;text-anchor:middle;" transform="matrix(1 0 0 1 2933.4 322)">Black</text>
  <line style="fill:none;stroke:black;opacity:1;stroke-width:0.5;" x1="263" x2="3036" y1="1903" y2="1903"/>
  <g transform="matrix(1 0 0 1 263 1933)">
   <path d="M9.24805 0.830078Q10.8691 0.830078 12.2949 0.214844Q13.7207-0.400391 14.8096-1.49414Q15.8984-2.58789 16.5186-4.01367Q17.1387-5.43945 17.1387-7.05078Q17.1387-8.66211 16.5186-10.0879Q15.8984-11.5137 14.8047-12.6074Q13.7109-13.7012 12.2852-14.3164Q10.8594-14.9316 9.23828-14.9316Q7.62695-14.9316 6.20117-14.3164Q4.77539-13.7012 3.69141-12.6074Q2.60742-11.5137 1.9873-10.0879Q1.36719-8.66211 1.36719-7.05078Q1.36719-5.43945 1.9873-4.01367Q2.60742-2.58789 3.69629-1.49414Q4.78516-0.400391 6.21094 0.214844Q7.63672 0.830078 9.24805 0.830078ZM9.24805-0.654297Q7.91992-0.654297 6.7627-1.14746Q5.60547-1.64062 4.73145-2.51953Q3.85742-3.39844 3.36426-4.56055Q2.87109-5.72266 2.87109-7.05078Q2.87109-8.37891 3.35938-9.54102Q3.84766-10.7031 4.72168-11.582Q5.5957-12.4609 6.75293-12.9541Q7.91016-13.4473 9.23828-13.4473Q10.5762-13.4473 11.7334-12.9541Q12.8906-12.4609 13.7695-11.582Q14.6484-10.7031 15.1465-9.54102Q15.6445-8.37891 15.6445-7.05078Q15.6445-5.72266 15.1514-4.56055Q14.6582-3.39844 13.7842-2.51953Q12.9102-1.64062 11.748-1.14746Q10.5859-0.654297 9.24805-0.654297ZM5.6543-7.05078Q5.6543-6.72852 5.85938-6.52832Q6.06445-6.32812 6.40625-6.32812L8.51562-6.32812L8.51562-4.20898Q8.51562-3.88672 8.71094-3.67676Q8.90625-3.4668 9.23828-3.4668Q9.56055-3.4668 9.77051-3.67676Q9.98047-3.88672 9.98047-4.20898L9.98047-6.32812L12.0898-6.32812Q12.4219-6.32812 12.627-6.52832Q12.832-6.72852 12.832-7.05078Q12.832-7.38281 12.627-7.58789Q12.4219-7.79297 12.0898-7.79297L9.98047-7.79297L9.98047-9.90234Q9.98047-10.2344 9.77051-10.4443Q9.56055-10.6543 9.23828-10.6543Q8.90625-10.6543 8.71094-10.4443Q8.51562-10.2344 8.51562-9.90234L8.51562-7.79297L6.40625-7.79297Q6.06445-7.79297 5.85938-7.58789Q5.6543-7.38281 5.6543-7.05078Z"/>
  </g>
  <g transform="matrix(1 0 0 1 281.867 1933)">
   <path d="M11.709 2.91016Q13.75 2.91016 15.5518 2.12891Q17.3535 1.34766 18.7305-0.0292969Q20.1074-1.40625 20.8887-3.20801Q21.6699-5.00977 21.6699-7.05078Q21.6699-9.0918 20.8887-10.8936Q20.1074-12.6953 18.7305-14.0723Q17.3535-15.4492 15.5469-16.2305Q13.7402-17.0117 11.6992-17.0117Q9.6582-17.0117 7.85645-16.2305Q6.05469-15.4492 4.68262-14.0723Q3.31055-12.6953 2.5293-10.8936Q1.74805-9.0918 1.74805-7.05078Q1.74805-5.00977 2.5293-3.20801Q3.31055-1.40625 4.6875-0.0292969Q6.06445 1.34766 7.86621 2.12891Q9.66797 2.91016 11.709 2.91016ZM11.709 1.25Q9.98047 1.25 8.47656 0.605469Q6.97266-0.0390625 5.83496-1.17676Q4.69727-2.31445 4.05762-3.81836Q3.41797-5.32227 3.41797-7.05078Q3.41797-8.7793 4.05762-10.2832Q4.69727-11.7871 5.83008-12.9297Q6.96289-14.0723 8.4668-14.7119Q9.9707-15.3516 11.6992-15.3516Q13.4277-15.3516 14.9316-14.7119Q16.4355-14.0723 17.5781-12.9297Q18.7207-11.7871 19.3652-10.2832Q20.0098-8.7793 20.0098-7.05078Q20.0098-5.32227 19.3701-3.81836Q18.7305-2.31445 17.5928-1.17676Q16.4551-0.0390625 14.9463 0.605469Q13.4375 1.25 11.709 1.25ZM7.17773-7.05078Q7.17773-6.69922 7.41211-6.47461Q7.64648-6.25 8.01758-6.25L10.8887-6.25L10.8887-3.36914Q10.8887-2.99805 11.1133-2.76855Q11.3379-2.53906 11.6895-2.53906Q12.0605-2.53906 12.29-2.76855Q12.5195-2.99805 12.5195-3.36914L12.5195-6.25L15.4004-6.25Q15.7715-6.25 16.001-6.47461Q16.2305-6.69922 16.2305-7.05078Q16.2305-7.42188 16.001-7.65137Q15.7715-7.88086 15.4004-7.88086L12.5195-7.88086L12.5195-10.752Q12.5195-11.1328 12.29-11.3623Q12.0605-11.5918 11.6895-11.5918Q11.3379-11.5918 11.1133-11.3574Q10.8887-11.123 10.8887-10.752L10.8887-7.88086L8.01758-7.88086Q7.63672-7.88086 7.40723-7.65137Q7.17773-7.42188 7.17773-7.05078Z"/>
  </g>
  <g transform="matrix(1 0 0 1 305.646 1933)">
   <path d="M14.9707 5.66406Q17.0605 5.66406 18.96 5.01465Q20.8594 4.36523 22.4512 3.19336Q24.043 2.02148 25.2197 0.429688Q26.3965-1.16211 27.0459-3.06641Q27.6953-4.9707 27.6953-7.05078Q27.6953-9.14062 27.0459-11.04Q26.3965-12.9395 25.2197-14.5312Q24.043-16.123 22.4512-17.2998Q20.8594-18.4766 18.9551-19.126Q17.0508-19.7754 14.9609-19.7754Q12.8711-19.7754 10.9717-19.126Q9.07227-18.4766 7.48535-17.2998Q5.89844-16.123 4.72168-14.5312Q3.54492-12.9395 2.90039-11.04Q2.25586-9.14062 2.25586-7.05078Q2.25586-4.9707 2.90527-3.06641Q3.55469-1.16211 4.72656 0.429688Q5.89844 2.02148 7.49023 3.19336Q9.08203 4.36523 10.9814 5.01465Q12.8809 5.66406 14.9707 5.66406ZM14.9707 3.84766Q13.1641 3.84766 11.5283 3.2959Q9.89258 2.74414 8.53516 1.74805Q7.17773 0.751953 6.17676-0.610352Q5.17578-1.97266 4.62891-3.6084Q4.08203-5.24414 4.08203-7.05078Q4.08203-8.86719 4.62891-10.5029Q5.17578-12.1387 6.17188-13.501Q7.16797-14.8633 8.52539-15.8594Q9.88281-16.8555 11.5186-17.4023Q13.1543-17.9492 14.9609-17.9492Q16.7773-17.9492 18.4131-17.4023Q20.0488-16.8555 21.4111-15.8594Q22.7734-14.8633 23.7695-13.501Q24.7656-12.1387 25.3174-10.5029Q25.8691-8.86719 25.8691-7.05078Q25.8789-5.24414 25.332-3.6084Q24.7852-1.97266 23.7842-0.610352Q22.7832 0.751953 21.4209 1.74805Q20.0586 2.74414 18.4229 3.2959Q16.7871 3.84766 14.9707 3.84766ZM9.19922-7.05078Q9.19922-6.66992 9.45801-6.4209Q9.7168-6.17188 10.1172-6.17188L14.0625-6.17188L14.0625-2.2168Q14.0625-1.81641 14.3115-1.55762Q14.5605-1.29883 14.9512-1.29883Q15.3516-1.29883 15.6104-1.55273Q15.8691-1.80664 15.8691-2.2168L15.8691-6.17188L19.8242-6.17188Q20.2246-6.17188 20.4785-6.4209Q20.7324-6.66992 20.7324-7.05078Q20.7324-7.46094 20.4785-7.71484Q20.2246-7.96875 19.8242-7.96875L15.8691-7.96875L15.8691-11.9141Q15.8691-12.3242 15.6104-12.583Q15.3516-12.8418 14.9512-12.8418Q14.5605-12.8418 14.3115-12.583Q14.0625-12.3242 14.0625-11.9141L14.0625-7.96875L10.1172-7.96875Q9.70703-7.96875 9.45312-7.71484Q9.19922-7.46094 9.19922-7.05078Z"/>
  </g>
  <text style="stroke:none;fill:black;font-family:sans-serif;font-size:13;font-weight:bold;" transform="matrix(1 0 0 1 263 1953)">Design Variations</text>
  <text style="stroke:none;fill:black;font-family:sans-serif;font-size:13;" transform="matrix(1 0 0 1 263 1971)">Symbols are supported in up to nine weights and three scales.</text>
  <text style="stroke:none;fill:black;font-family:sans-serif;font-size:13;" transform="matrix(1 0 0 1 263 1989)">For optimal layout with text and other symbols, vertically align</text>
  <text style="stroke:none;fill:black;font-family:sans-serif;font-size:13;" transform="matrix(1 0 0 1 263 2007)">symbols with the adjacent text.</text>
  <line style="fill:none;stroke:#00AEEF;stroke-width:0.5;opacity:1.0;" x1="776" x2="776" y1="1919" y2="1933"/>
  <g transform="matrix(1 0 0 1 776 1933)">
   <path d="M3.31055 0.15625Q3.70117 0.15625 3.91602-0.00976562Q4.13086-0.175781 4.26758-0.585938L5.52734-4.0332L11.2891-4.0332L12.5488-0.585938Q12.6855-0.175781 12.9004-0.00976562Q13.1152 0.15625 13.4961 0.15625Q13.8867 0.15625 14.1162-0.0585938Q14.3457-0.273438 14.3457-0.644531Q14.3457-0.869141 14.2383-1.17188L9.6582-13.3691Q9.48242-13.8184 9.17969-14.043Q8.87695-14.2676 8.4082-14.2676Q7.5-14.2676 7.17773-13.3789L2.59766-1.16211Q2.49023-0.859375 2.49023-0.634766Q2.49023-0.263672 2.70996-0.0537109Q2.92969 0.15625 3.31055 0.15625ZM6.00586-5.51758L8.37891-12.0898L8.42773-12.0898L10.8008-5.51758Z"/>
  </g>
  <line style="fill:none;stroke:#00AEEF;stroke-width:0.5;opacity:1.0;" x1="793.197" x2="793.197" y1="1919" y2="1933"/>
  <text style="stroke:none;fill:black;font-family:sans-serif;font-size:13;font-weight:bold;" transform="matrix(1 0 0 1 776 1953)">Margins</text>
  <text style="stroke:none;fill:black;font-family:sans-serif;font-size:13;" transform="matrix(1 0 0 1 776 1971)">Leading and trailing margins on the left and right side of each symbol</text>
  <text style="stroke:none;fill:black;font-family:sans-serif;font-size:13;" transform="matrix(1 0 0 1 776 1989)">can be adjusted by modifying the x-location of the margin guidelines.</text>
  <text style="stroke:none;fill:black;font-family:sans-serif;font-size:13;" transform="matrix(1 0 0 1 776 2007)">Modifications are automatically applied proportionally to all</text>
  <text style="stroke:none;fill:black;font-family:sans-serif;font-size:13;" transform="matrix(1 0 0 1 776 2025)">scales and weights.</text>
  <g transform="matrix(1 0 0 1 1289 1933)">
   <path d="M2.8418 1.86523L4.54102 3.57422Q5.18555 4.22852 5.90332 4.17969Q6.62109 4.13086 7.31445 3.35938L18.0078-8.42773L17.041-9.4043L6.42578 2.27539Q6.16211 2.57812 5.89355 2.61719Q5.625 2.65625 5.27344 2.30469L4.10156 1.14258Q3.75 0.791016 3.79395 0.522461Q3.83789 0.253906 4.14062-0.0195312L15.6152-10.8203L14.6387-11.7871L3.04688-0.898438Q2.30469-0.214844 2.25098 0.498047Q2.19727 1.21094 2.8418 1.86523ZM9.25781-16.3281Q8.94531-16.0254 8.90625-15.6348Q8.86719-15.2441 9.04297-14.9512Q9.21875-14.6777 9.55566-14.541Q9.89258-14.4043 10.3809-14.5215Q11.4746-14.7754 12.5977-14.7314Q13.7207-14.6875 14.7949-13.9844L14.209-12.5293Q13.9551-11.9043 14.0674-11.4404Q14.1797-10.9766 14.5801-10.5664L16.875-8.25195Q17.2363-7.88086 17.5781-7.82227Q17.9199-7.76367 18.3398-7.8418L19.4043-8.03711L20.0684-7.36328L20.0293-6.80664Q20-6.43555 20.1221-6.12305Q20.2441-5.81055 20.6055-5.44922L21.3672-4.70703Q21.7285-4.3457 22.1533-4.33105Q22.5781-4.31641 22.9297-4.66797L25.8398-7.58789Q26.1914-7.93945 26.1816-8.35449Q26.1719-8.76953 25.8105-9.13086L25.0391-9.89258Q24.6875-10.2539 24.3799-10.3857Q24.0723-10.5176 23.7109-10.4883L23.1348-10.4395L22.4902-11.0742L22.7344-12.1973Q22.832-12.6172 22.6953-12.9834Q22.5586-13.3496 22.1191-13.7891L19.9219-15.9766Q18.6719-17.2168 17.2607-17.8369Q15.8496-18.457 14.4189-18.4814Q12.9883-18.5059 11.665-17.959Q10.3418-17.4121 9.25781-16.3281ZM10.752-15.957Q11.6602-16.6211 12.7002-16.9043Q13.7402-17.1875 14.8047-17.085Q15.8691-16.9824 16.8701-16.5137Q17.8711-16.0449 18.7012-15.2051L21.1328-12.793Q21.3086-12.6172 21.3525-12.4512Q21.3965-12.2852 21.3379-12.0312L21.0156-10.5469L22.5195-9.0625L23.5059-9.12109Q23.6914-9.13086 23.7891-9.09668Q23.8867-9.0625 24.0332-8.91602L24.6094-8.33984L22.168-5.89844L21.5918-6.47461Q21.4453-6.62109 21.4062-6.71875Q21.3672-6.81641 21.377-7.01172L21.4453-7.98828L19.9512-9.47266L18.4277-9.21875Q18.1836-9.16992 18.042-9.2041Q17.9004-9.23828 17.7148-9.41406L15.7129-11.416Q15.5176-11.5918 15.4932-11.7529Q15.4688-11.9141 15.5859-12.1875L16.4648-14.2773Q15.293-15.3711 13.8281-15.791Q12.3633-16.2109 10.8398-15.7617Q10.7227-15.7324 10.6885-15.8057Q10.6543-15.8789 10.752-15.957Z"/>
  </g>
  <text style="stroke:none;fill:black;font-family:sans-serif;font-size:13;font-weight:bold;" transform="matrix(1 0 0 1 1289 1953)">Exporting</text>
  <text style="stroke:none;fill:black;font-family:sans-serif;font-size:13;" transform="matrix(1 0 0 1 1289 1971)">Symbols should be outlined when exporting to ensure the</text>
  <text style="stroke:none;fill:black;font-family:sans-serif;font-size:13;" transform="matrix(1 0 0 1 1289 1989)">design is preserved when submitting to Xcode.</text>
  <text id="template-version" style="stroke:none;fill:black;font-family:sans-serif;font-size:13;text-anchor:end;" transform="matrix(1 0 0 1 3036 1933)">Template v.3.0</text>
  <text style="stroke:none;fill:black;font-family:sans-serif;font-size:13;text-anchor:end;" transform="matrix(1 0 0 1 3036 1951)">Requires Xcode 13 or greater</text>
  <text id="descriptive-name" style="stroke:none;fill:black;font-family:sans-serif;font-size:13;text-anchor:end;" transform="matrix(1 0 0 1 3036 1969)">Generated from lock.rectangle.stack.fill</text>
  <text style="stroke:none;fill:black;font-family:sans-serif;font-size:13;text-anchor:end;" transform="matrix(1 0 0 1 3036 1987)">Typeset at 100 points</text>
  <text style="stroke:none;fill:black;font-family:sans-serif;font-size:13;" transform="matrix(1 0 0 1 263 726)">Small</text>
  <text style="stroke:none;fill:black;font-family:sans-serif;font-size:13;" transform="matrix(1 0 0 1 263 1156)">Medium</text>
  <text style="stroke:none;fill:black;font-family:sans-serif;font-size:13;" transform="matrix(1 0 0 1 263 1586)">Large</text>
 </g>
 <g id="Guides">
  <g id="H-reference" style="fill:#27AAE1;stroke:none;" transform="matrix(1 0 0 1 339 696)">
   <path d="M0.993347 0L3.6377 0L29.3282-67.1326L30.0301-67.1326L30.0301-70.459L28.1227-70.459ZM11.6882-24.4797L46.9818-24.4797L46.2311-26.7288L12.4382-26.7288ZM55.1193 0L57.7637 0L30.6381-70.459L29.4327-70.459L29.4327-67.1326Z"/>
  </g>
  <line id="Baseline-S" style="fill:none;stroke:#27AAE1;opacity:1;stroke-width:0.5;" x1="263" x2="3036" y1="696" y2="696"/>
  <line id="Capline-S" style="fill:none;stroke:#27AAE1;opacity:1;stroke-width:0.5;" x1="263" x2="3036" y1="625.541" y2="625.541"/>
  <g id="H-reference" style="fill:#27AAE1;stroke:none;" transform="matrix(1 0 0 1 339 1126)">
   <path d="M0.993347 0L3.6377 0L29.3282-67.1326L30.0301-67.1326L30.0301-70.459L28.1227-70.459ZM11.6882-24.4797L46.9818-24.4797L46.2311-26.7288L12.4382-26.7288ZM55.1193 0L57.7637 0L30.6381-70.459L29.4327-70.459L29.4327-67.1326Z"/>
  </g>
  <line id="Baseline-M" style="fill:none;stroke:#27AAE1;opacity:1;stroke-width:0.5;" x1="263" x2="3036" y1="1126" y2="1126"/>
  <line id="Capline-M" style="fill:none;stroke:#27AAE1;opacity:1;stroke-width:0.5;" x1="263" x2="3036" y1="1055.54" y2="1055.54"/>
  <g id="H-reference" style="fill:#27AAE1;stroke:none;" transform="matrix(1 0 0 1 339 1556)">
   <path d="M0.993347 0L3.6377 0L29.3282-67.1326L30.0301-67.1326L30.0301-70.459L28.1227-70.459ZM11.6882-24.4797L46.9818-24.4797L46.2311-26.7288L12.4382-26.7288ZM55.1193 0L57.7637 0L30.6381-70.459L29.4327-70.459L29.4327-67.1326Z"/>
  </g>
  <line id="Baseline-L" style="fill:none;stroke:#27AAE1;opacity:1;stroke-width:0.5;" x1="263" x2="3036" y1="1556" y2="1556"/>
  <line id="Capline-L" style="fill:none;stroke:#27AAE1;opacity:1;stroke-width:0.5;" x1="263" x2="3036" y1="1485.54" y2="1485.54"/>
  <line id="left-margin-Ultralight-S" style="fill:none;stroke:#00AEEF;stroke-width:0.5;opacity:1.0;" x1="510.171" x2="510.171" y1="600.785" y2="720.121"/>
  <line id="right-margin-Ultralight-S" style="fill:none;stroke:#00AEEF;stroke-width:0.5;opacity:1.0;" x1="609.252" x2="609.252" y1="600.785" y2="720.121"/>
  <line id="left-margin-Thin-S" style="fill:none;stroke:#00AEEF;stroke-width:0.5;opacity:1.0;" x1="807.015" x2="807.015" y1="600.785" y2="720.121"/>
  <line id="right-margin-Thin-S" style="fill:none;stroke:#00AEEF;stroke-width:0.5;opacity:1.0;" x1="905.829" x2="905.829" y1="600.785" y2="720.121"/>
  <line id="left-margin-Light-S" style="fill:none;stroke:#00AEEF;stroke-width:0.5;opacity:1.0;" x1="1103.99" x2="1103.99" y1="600.785" y2="720.121"/>
  <line id="right-margin-Light-S" style="fill:none;stroke:#00AEEF;stroke-width:0.5;opacity:1.0;" x1="1202.28" x2="1202.28" y1="600.785" y2="720.121"/>
  <line id="left-margin-Regular-S" style="fill:none;stroke:#00AEEF;stroke-width:0.5;opacity:1.0;" x1="1400.89" x2="1400.89" y1="600.785" y2="720.121"/>
  <line id="right-margin-Regular-S" style="fill:none;stroke:#00AEEF;stroke-width:0.5;opacity:1.0;" x1="1498.79" x2="1498.79" y1="600.785" y2="720.121"/>
  <line id="left-margin-Medium-S" style="fill:none;stroke:#00AEEF;stroke-width:0.5;opacity:1.0;" x1="1697.24" x2="1697.24" y1="600.785" y2="720.121"/>
  <line id="right-margin-Medium-S" style="fill:none;stroke:#00AEEF;stroke-width:0.5;opacity:1.0;" x1="1795.87" x2="1795.87" y1="600.785" y2="720.121"/>
  <line id="left-margin-Semibold-S" style="fill:none;stroke:#00AEEF;stroke-width:0.5;opacity:1.0;" x1="1993.67" x2="1993.67" y1="600.785" y2="720.121"/>
  <line id="right-margin-Semibold-S" style="fill:none;stroke:#00AEEF;stroke-width:0.5;opacity:1.0;" x1="2092.86" x2="2092.86" y1="600.785" y2="720.121"/>
  <line id="left-margin-Bold-S" style="fill:none;stroke:#00AEEF;stroke-width:0.5;opacity:1.0;" x1="2290.01" x2="2290.01" y1="600.785" y2="720.121"/>
  <line id="right-margin-Bold-S" style="fill:none;stroke:#00AEEF;stroke-width:0.5;opacity:1.0;" x1="2389.94" x2="2389.94" y1="600.785" y2="720.121"/>
  <line id="left-margin-Heavy-S" style="fill:none;stroke:#00AEEF;stroke-width:0.5;opacity:1.0;" x1="2586.19" x2="2586.19" y1="600.785" y2="720.121"/>
  <line id="right-margin-Heavy-S" style="fill:none;stroke:#00AEEF;stroke-width:0.5;opacity:1.0;" x1="2687.19" x2="2687.19" y1="600.785" y2="720.121"/>
  <line id="left-margin-Black-S" style="fill:none;stroke:#00AEEF;stroke-width:0.5;opacity:1.0;" x1="2882.42" x2="2882.42" y1="600.785" y2="720.121"/>
  <line id="right-margin-Black-S" style="fill:none;stroke:#00AEEF;stroke-width:0.5;opacity:1.0;" x1="2984.38" x2="2984.38" y1="600.785" y2="720.121"/>
  <line id="left-margin-Ultralight-M" style="fill:none;stroke:#00AEEF;stroke-width:0.5;opacity:1.0;" x1="496.453" x2="496.453" y1="1030.79" y2="1150.12"/>
  <line id="right-margin-Ultralight-M" style="fill:none;stroke:#00AEEF;stroke-width:0.5;opacity:1.0;" x1="622.969" x2="622.969" y1="1030.79" y2="1150.12"/>
  <line id="left-margin-Thin-M" style="fill:none;stroke:#00AEEF;stroke-width:0.5;opacity:1.0;" x1="793.308" x2="793.308" y1="1030.79" y2="1150.12"/>
  <line id="right-margin-Thin-M" style="fill:none;stroke:#00AEEF;stroke-width:0.5;opacity:1.0;" x1="919.536" x2="919.536" y1="1030.79" y2="1150.12"/>
  <line id="left-margin-Light-M" style="fill:none;stroke:#00AEEF;stroke-width:0.5;opacity:1.0;" x1="1090.3" x2="1090.3" y1="1030.79" y2="1150.12"/>
  <line id="right-margin-Light-M" style="fill:none;stroke:#00AEEF;stroke-width:0.5;opacity:1.0;" x1="1215.97" x2="1215.97" y1="1030.79" y2="1150.12"/>
  <line id="left-margin-Regular-M" style="fill:none;stroke:#00AEEF;stroke-width:0.5;opacity:1.0;" x1="1387.22" x2="1387.22" y1="1030.79" y2="1150.12"/>
  <line id="right-margin-Regular-M" style="fill:none;stroke:#00AEEF;stroke-width:0.5;opacity:1.0;" x1="1512.47" x2="1512.47" y1="1030.79" y2="1150.12"/>
  <line id="left-margin-Medium-M" style="fill:none;stroke:#00AEEF;stroke-width:0.5;opacity:1.0;" x1="1683.53" x2="1683.53" y1="1030.79" y2="1150.12"/>
  <line id="right-margin-Medium-M" style="fill:none;stroke:#00AEEF;stroke-width:0.5;opacity:1.0;" x1="1809.58" x2="1809.58" y1="1030.79" y2="1150.12"/>
  <line id="left-margin-Semibold-M" style="fill:none;stroke:#00AEEF;stroke-width:0.5;opacity:1.0;" x1="1979.94" x2="1979.94" y1="1030.79" y2="1150.12"/>
  <line id="right-margin-Semibold-M" style="fill:none;stroke:#00AEEF;stroke-width:0.5;opacity:1.0;" x1="2106.6" x2="2106.6" y1="1030.79" y2="1150.12"/>
  <line id="left-margin-Bold-M" style="fill:none;stroke:#00AEEF;stroke-width:0.5;opacity:1.0;" x1="2276.24" x2="2276.24" y1="1030.79" y2="1150.12"/>
  <line id="right-margin-Bold-M" style="fill:none;stroke:#00AEEF;stroke-width:0.5;opacity:1.0;" x1="2403.71" x2="2403.71" y1="1030.79" y2="1150.12"/>
  <line id="left-margin-Heavy-M" style="fill:none;stroke:#00AEEF;stroke-width:0.5;opacity:1.0;" x1="2572.37" x2="2572.37" y1="1030.79" y2="1150.12"/>
  <line id="right-margin-Heavy-M" style="fill:none;stroke:#00AEEF;stroke-width:0.5;opacity:1.0;" x1="2701.01" x2="2701.01" y1="1030.79" y2="1150.12"/>
  <line id="left-margin-Black-M" style="fill:none;stroke:#00AEEF;stroke-width:0.5;opacity:1.0;" x1="2868.56" x2="2868.56" y1="1030.79" y2="1150.12"/>
  <line id="right-margin-Black-M" style="fill:none;stroke:#00AEEF;stroke-width:0.5;opacity:1.0;" x1="2998.24" x2="2998.24" y1="1030.79" y2="1150.12"/>
  <line id="left-margin-Ultralight-L" style="fill:none;stroke:#00AEEF;stroke-width:0.5;opacity:1.0;" x1="478.028" x2="478.028" y1="1460.79" y2="1580.12"/>
  <line id="right-margin-Ultralight-L" style="fill:none;stroke:#00AEEF;stroke-width:0.5;opacity:1.0;" x1="641.395" x2="641.395" y1="1460.79" y2="1580.12"/>
  <line id="left-margin-Thin-L" style="fill:none;stroke:#00AEEF;stroke-width:0.5;opacity:1.0;" x1="774.903" x2="774.903" y1="1460.79" y2="1580.12"/>
  <line id="right-margin-Thin-L" style="fill:none;stroke:#00AEEF;stroke-width:0.5;opacity:1.0;" x1="937.942" x2="937.942" y1="1460.79" y2="1580.12"/>
  <line id="left-margin-Light-L" style="fill:none;stroke:#00AEEF;stroke-width:0.5;opacity:1.0;" x1="1071.93" x2="1071.93" y1="1460.79" y2="1580.12"/>
  <line id="right-margin-Light-L" style="fill:none;stroke:#00AEEF;stroke-width:0.5;opacity:1.0;" x1="1234.33" x2="1234.33" y1="1460.79" y2="1580.12"/>
  <line id="left-margin-Regular-L" style="fill:none;stroke:#00AEEF;stroke-width:0.5;opacity:1.0;" x1="1368.89" x2="1368.89" y1="1460.79" y2="1580.12"/>
  <line id="right-margin-Regular-L" style="fill:none;stroke:#00AEEF;stroke-width:0.5;opacity:1.0;" x1="1530.8" x2="1530.8" y1="1460.79" y2="1580.12"/>
  <line id="left-margin-Medium-L" style="fill:none;stroke:#00AEEF;stroke-width:0.5;opacity:1.0;" x1="1665.23" x2="1665.23" y1="1460.79" y2="1580.12"/>
  <line id="right-margin-Medium-L" style="fill:none;stroke:#00AEEF;stroke-width:0.5;opacity:1.0;" x1="1827.88" x2="1827.88" y1="1460.79" y2="1580.12"/>
  <line id="left-margin-Semibold-L" style="fill:none;stroke:#00AEEF;stroke-width:0.5;opacity:1.0;" x1="1961.66" x2="1961.66" y1="1460.79" y2="1580.12"/>
  <line id="right-margin-Semibold-L" style="fill:none;stroke:#00AEEF;stroke-width:0.5;opacity:1.0;" x1="2124.88" x2="2124.88" y1="1460.79" y2="1580.12"/>
  <line id="left-margin-Bold-L" style="fill:none;stroke:#00AEEF;stroke-width:0.5;opacity:1.0;" x1="2258" x2="2258" y1="1460.79" y2="1580.12"/>
  <line id="right-margin-Bold-L" style="fill:none;stroke:#00AEEF;stroke-width:0.5;opacity:1.0;" x1="2421.96" x2="2421.96" y1="1460.79" y2="1580.12"/>
  <line id="left-margin-Heavy-L" style="fill:none;stroke:#00AEEF;stroke-width:0.5;opacity:1.0;" x1="2554.17" x2="2554.17" y1="1460.79" y2="1580.12"/>
  <line id="right-margin-Heavy-L" style="fill:none;stroke:#00AEEF;stroke-width:0.5;opacity:1.0;" x1="2719.21" x2="2719.21" y1="1460.79" y2="1580.12"/>
  <line id="left-margin-Black-L" style="fill:none;stroke:#00AEEF;stroke-width:0.5;opacity:1.0;" x1="2850.39" x2="2850.39" y1="1460.79" y2="1580.12"/>
  <line id="right-margin-Black-L" style="fill:none;stroke:#00AEEF;stroke-width:0.5;opacity:1.0;" x1="3016.41" x2="3016.41" y1="1460.79" y2="1580.12"/>
 </g>
 <g id="Symbols">
  <g id="Black-L" transform="matrix(1 0 0 1 2850.39 1556)">
   <path class="hierarchical-0:tertiary SFSymbolsPreview8E8E8E" d="M39.0625 40.2832L127.002 40.2832Q137.988 40.2832 143.97 34.3262Q149.951 28.3691 149.951 17.3828L149.951-46.2402Q149.951-57.1289 143.97-63.1104Q137.988-69.0918 127.002-69.0918L39.0625-69.0918Q28.0273-69.0918 22.0459-63.1104Q16.0645-57.1289 16.0645-46.2402L16.0645 17.3828Q16.0645 28.3691 22.0459 34.3262Q28.0273 40.2832 39.0625 40.2832ZM30.1758-79.6387L135.84-79.6387Q135.254-84.9121 132.129-87.9395Q129.004-90.9668 122.803-90.9668L43.2617-90.9668Q37.0605-90.9668 33.9355-87.9395Q30.8105-84.9121 30.1758-79.6387ZM42.627-100.488L123.438-100.488Q122.998-105.469 119.873-108.179Q116.748-110.889 111.475-110.889L54.5898-110.889Q49.3164-110.889 46.1914-108.179Q43.0664-105.469 42.627-100.488Z"/>
   <path class="hierarchical-1:primary SFSymbolsPreview212121" d="M59.6191 10.4492L59.6191-13.8184Q59.6191-16.9434 60.8154-18.7744Q62.0117-20.6055 64.3555-21.2402L64.3555-27.4414Q64.3555-33.6914 66.6992-38.3789Q69.043-43.0664 73.2666-45.6787Q77.4902-48.291 83.0566-48.291Q88.6719-48.291 92.8955-45.6787Q97.1191-43.0664 99.4873-38.3789Q101.855-33.6914 101.855-27.4414L101.855-21.1426Q104.15-20.6055 105.322-18.7744Q106.494-16.9434 106.494-13.8184L106.494 10.4492Q106.494 14.502 104.663 16.4062Q102.832 18.3105 99.1211 18.3105L67.0898 18.3105Q63.3301 18.3105 61.4746 16.4062Q59.6191 14.502 59.6191 10.4492ZM75.293-21.582L90.8203-21.582L90.8203-27.9297Q90.8203-32.373 88.6963-34.9365Q86.5723-37.5 83.0078-37.5Q79.4922-37.5 77.3926-34.9121Q75.293-32.3242 75.293-27.9297Z"/>
  </g>
  <g id="Heavy-L" transform="matrix(1 0 0 1 2554.17 1556)">
   <path class="hierarchical-0:tertiary SFSymbolsPreview8E8E8E" d="M37.9883 38.3789L127.1 38.3789Q137.646 38.3789 143.311 32.7393Q148.975 27.0996 148.975 16.5527L148.975-47.168Q148.975-57.6172 143.311-63.2812Q137.646-68.9453 127.1-68.9453L37.9883-68.9453Q27.3926-68.9453 21.7285-63.2812Q16.0645-57.6172 16.0645-47.168L16.0645 16.5527Q16.0645 27.0996 21.7285 32.7393Q27.3926 38.3789 37.9883 38.3789ZM29.7852-79.4922L135.303-79.4922Q134.717-84.375 131.86-87.1826Q129.004-89.9902 123.34-89.9902L41.7969-89.9902Q36.084-89.9902 33.252-87.1826Q30.4199-84.375 29.7852-79.4922ZM42.2852-99.3652L122.803-99.3652Q122.412-103.955 119.556-106.47Q116.699-108.984 111.816-108.984L53.2715-108.984Q48.3887-108.984 45.5322-106.47Q42.6758-103.955 42.2852-99.3652Z"/>
   <path class="hierarchical-1:primary SFSymbolsPreview212121" d="M59.1309 9.76562L59.1309-14.8926Q59.1309-18.1152 60.4004-19.9219Q61.6699-21.7285 64.1602-22.2656L64.1602-28.9062Q64.1602-35.0586 66.4551-39.6484Q68.75-44.2383 72.9248-46.8018Q77.0996-49.3652 82.5684-49.3652Q88.0859-49.3652 92.2363-46.8018Q96.3867-44.2383 98.7061-39.6484Q101.025-35.0586 101.025-28.9062L101.025-22.2168Q103.467-21.7285 104.736-19.9219Q106.006-18.1152 106.006-14.8926L106.006 9.76562Q106.006 13.7207 104.199 15.6006Q102.393 17.4805 98.7793 17.4805L66.4062 17.4805Q62.7441 17.4805 60.9375 15.6006Q59.1309 13.7207 59.1309 9.76562ZM73.9258-22.5586L91.1621-22.5586L91.1621-29.3945Q91.1621-34.1797 88.7939-36.9873Q86.4258-39.7949 82.5195-39.7949Q78.6133-39.7949 76.2695-36.9629Q73.9258-34.1309 73.9258-29.3945Z"/>
  </g>
  <g id="Bold-L" transform="matrix(1 0 0 1 2258 1556)">
   <path class="hierarchical-0:tertiary SFSymbolsPreview8E8E8E" d="M36.8164 36.2793L127.197 36.2793Q137.256 36.2793 142.578 30.9814Q147.9 25.6836 147.9 15.625L147.9-48.2422Q147.9-58.2031 142.578-63.501Q137.256-68.7988 127.197-68.7988L36.8164-68.7988Q26.709-68.7988 21.3867-63.501Q16.0645-58.2031 16.0645-48.2422L16.0645 15.625Q16.0645 25.6836 21.3867 30.9814Q26.709 36.2793 36.8164 36.2793ZM29.3457-79.3945L134.668-79.3945Q134.082-83.8379 131.543-86.3525Q129.004-88.8672 123.926-88.8672L40.1367-88.8672Q35.0098-88.8672 32.4707-86.3525Q29.9316-83.8379 29.3457-79.3945ZM41.9434-98.0957L122.119-98.0957Q121.777-102.295 119.238-104.565Q116.699-106.836 112.207-106.836L51.8555-106.836Q47.3633-106.836 44.7998-104.565Q42.2363-102.295 41.9434-98.0957Z"/>
   <path class="hierarchical-1:primary SFSymbolsPreview212121" d="M58.6426 9.0332L58.6426-16.1133Q58.6426-19.4336 59.9854-21.2402Q61.3281-23.0469 64.0137-23.4375L64.0137-30.5176Q64.0137-36.5723 66.2842-41.0889Q68.5547-45.6055 72.6318-48.1201Q76.709-50.6348 82.0801-50.6348Q87.4512-50.6348 91.5283-48.1201Q95.6055-45.6055 97.876-41.0889Q100.146-36.5723 100.146-30.5176L100.146-23.3887Q102.783-23.0469 104.126-21.2402Q105.469-19.4336 105.469-16.1133L105.469 9.0332Q105.469 12.8906 103.735 14.7217Q102.002 16.5527 98.4375 16.5527L65.7715 16.5527Q62.1582 16.5527 60.4004 14.7217Q58.6426 12.8906 58.6426 9.0332ZM72.5098-23.6328L91.6016-23.6328L91.6016-31.0547Q91.6016-36.1816 88.9893-39.2578Q86.377-42.334 82.0312-42.334Q77.7344-42.334 75.1221-39.2578Q72.5098-36.1816 72.5098-31.0547Z"/>
  </g>
  <g id="Semibold-L" transform="matrix(1 0 0 1 1961.66 1556)">
   <path class="hierarchical-0:tertiary SFSymbolsPreview8E8E8E" d="M35.9863 34.8145L127.246 34.8145Q137.012 34.8145 142.09 29.7363Q147.168 24.6582 147.168 14.9902L147.168-48.9258Q147.168-58.5449 142.09-63.623Q137.012-68.7012 127.246-68.7012L35.9863-68.7012Q26.1719-68.7012 21.1182-63.6475Q16.0645-58.5938 16.0645-48.9258L16.0645 14.9902Q16.0645 24.707 21.1182 29.7607Q26.1719 34.8145 35.9863 34.8145ZM29.0527-79.248L134.229-79.248Q133.643-83.3984 131.323-85.7422Q129.004-88.0859 124.316-88.0859L38.9648-88.0859Q34.2773-88.0859 31.9336-85.7422Q29.5898-83.3984 29.0527-79.248ZM41.6504-97.2168L121.631-97.2168Q121.338-101.123 118.994-103.247Q116.65-105.371 112.451-105.371L50.8301-105.371Q46.6309-105.371 44.2871-103.247Q41.9434-101.123 41.6504-97.2168Z"/>
   <path class="hierarchical-1:primary SFSymbolsPreview212121" d="M58.252 8.44727L58.252-16.9922Q58.252-20.4102 59.6436-22.1924Q61.0352-23.9746 63.8672-24.2676L63.8672-31.6895Q63.8672-37.6465 66.0889-42.0898Q68.3105-46.5332 72.3389-49.0234Q76.3672-51.5137 81.6406-51.5137Q86.9629-51.5137 90.9668-49.0234Q94.9707-46.5332 97.2412-42.0898Q99.5117-37.6465 99.5117-31.6895L99.5117-24.2188Q102.246-23.9746 103.662-22.1924Q105.078-20.4102 105.078-16.9922L105.078 8.44727Q105.078 12.2559 103.345 14.0625Q101.611 15.8691 98.1445 15.8691L65.2344 15.8691Q61.7188 15.8691 59.9854 14.0625Q58.252 12.2559 58.252 8.44727ZM71.4355-24.4141L91.8457-24.4141L91.8457-32.2266Q91.8457-37.6465 89.0381-40.8936Q86.2305-44.1406 81.6406-44.1406Q77.002-44.1406 74.2188-40.8691Q71.4355-37.5977 71.4355-32.2266Z"/>
  </g>
  <g id="Medium-L" transform="matrix(1 0 0 1 1665.23 1556)">
   <path class="hierarchical-0:tertiary SFSymbolsPreview8E8E8E" d="M35.4004 33.7402L127.295 33.7402Q136.768 33.7402 141.675 28.833Q146.582 23.9258 146.582 14.502L146.582-49.4629Q146.582-58.8379 141.675-63.7207Q136.768-68.6035 127.295-68.6035L35.4004-68.6035Q25.8301-68.6035 20.9473-63.7451Q16.0645-58.8867 16.0645-49.4629L16.0645 14.502Q16.0645 23.9746 20.9473 28.8574Q25.8301 33.7402 35.4004 33.7402ZM28.8086-79.1992L133.936-79.1992Q133.35-83.1055 131.177-85.3027Q129.004-87.5 124.609-87.5L38.0859-87.5Q33.6914-87.5 31.5186-85.3027Q29.3457-83.1055 28.8086-79.1992ZM41.4551-96.582L121.289-96.582Q120.996-100.244 118.823-102.246Q116.65-104.248 112.695-104.248L50.0488-104.248Q46.0938-104.248 43.8965-102.246Q41.6992-100.244 41.4551-96.582Z"/>
   <path class="hierarchical-1:primary SFSymbolsPreview212121" d="M57.959 8.10547L57.959-17.627Q57.959-21.0449 59.3994-22.8271Q60.8398-24.6094 63.7207-24.8535L63.7207-32.5195Q63.7207-38.4277 65.9424-42.8223Q68.1641-47.2168 72.1436-49.6826Q76.123-52.1484 81.3477-52.1484Q86.6211-52.1484 90.5762-49.6826Q94.5312-47.2168 96.7529-42.8223Q98.9746-38.4277 98.9746-32.5195L98.9746-24.8047Q101.855-24.6094 103.296-22.8271Q104.736-21.0449 104.736-17.627L104.736 8.10547Q104.736 11.8164 103.052 13.5986Q101.367 15.3809 97.9004 15.3809L64.8438 15.3809Q61.3281 15.3809 59.6436 13.5986Q57.959 11.8164 57.959 8.10547ZM70.6055-24.9512L92.041-24.9512L92.041-33.1055Q92.041-38.6719 89.0869-42.041Q86.1328-45.4102 81.3477-45.4102Q76.5137-45.4102 73.5596-42.0166Q70.6055-38.623 70.6055-33.1055Z"/>
  </g>
  <g id="Regular-L" transform="matrix(1 0 0 1 1368.89 1556)">
   <path class="hierarchical-0:tertiary SFSymbolsPreview8E8E8E" d="M34.5703 32.2754L127.344 32.2754Q136.523 32.2754 141.187 27.6123Q145.85 22.9492 145.85 13.8672L145.85-50.1953Q145.85-59.2285 141.187-63.8672Q136.523-68.5059 127.344-68.5059L34.5703-68.5059Q25.3418-68.5059 20.7031-63.8916Q16.0645-59.2773 16.0645-50.1953L16.0645 13.8672Q16.0645 22.998 20.7031 27.6367Q25.3418 32.2754 34.5703 32.2754ZM28.5156-79.1016L133.496-79.1016Q132.91-82.7148 130.957-84.7412Q129.004-86.7676 125-86.7676L36.9629-86.7676Q32.959-86.7676 31.0059-84.7412Q29.0527-82.7148 28.5156-79.1016ZM41.2109-95.7031L120.801-95.7031Q120.557-99.1211 118.579-100.952Q116.602-102.783 112.939-102.783L49.0723-102.783Q45.3613-102.783 43.3838-100.952Q41.4062-99.1211 41.2109-95.7031Z"/>
   <path class="hierarchical-1:primary SFSymbolsPreview212121" d="M57.6172 7.56836L57.6172-18.457Q57.6172-21.9727 59.1064-23.7305Q60.5957-25.4883 63.623-25.6348L63.623-33.6426Q63.623-39.4531 65.7959-43.7988Q67.9688-48.1445 71.8994-50.5615Q75.8301-52.9785 81.0059-52.9785Q86.1816-52.9785 90.0879-50.5615Q93.9941-48.1445 96.1914-43.7988Q98.3887-39.4531 98.3887-33.6426L98.3887-25.6348Q101.367-25.4883 102.881-23.7305Q104.395-21.9727 104.395-18.457L104.395 7.56836Q104.395 11.2305 102.734 12.9883Q101.074 14.7461 97.6562 14.7461L64.3555 14.7461Q60.9375 14.7461 59.2773 12.9883Q57.6172 11.2305 57.6172 7.56836ZM69.6289-25.6836L92.334-25.6836L92.334-34.2285Q92.334-40.0391 89.209-43.6035Q86.084-47.168 81.0059-47.168Q75.8789-47.168 72.7539-43.6035Q69.6289-40.0391 69.6289-34.2285Z"/>
  </g>
  <g id="Light-L" transform="matrix(1 0 0 1 1071.93 1556)">
   <path class="hierarchical-0:tertiary SFSymbolsPreview8E8E8E" d="M33.7402 30.957L128.662 30.957Q137.402 30.957 141.87 26.4648Q146.338 21.9727 146.338 13.3301L146.338-51.6602Q146.338-60.2539 141.87-64.7217Q137.402-69.1895 128.662-69.1895L33.7402-69.1895Q24.9512-69.1895 20.5078-64.7461Q16.0645-60.3027 16.0645-51.6602L16.0645 13.3301Q16.0645 22.0215 20.5078 26.4893Q24.9512 30.957 33.7402 30.957ZM29.0527-80.3223L133.398-80.3223Q133.008-83.0566 131.494-84.6924Q129.98-86.3281 126.953-86.3281L35.4492-86.3281Q32.4707-86.3281 30.9326-84.6924Q29.3945-83.0566 29.0527-80.3223ZM41.3574-95.8496L121.094-95.8496Q120.947-98.4375 119.385-99.9512Q117.822-101.465 115.039-101.465L47.4121-101.465Q44.5801-101.465 43.042-99.9512Q41.5039-98.4375 41.3574-95.8496Z"/>
   <path class="hierarchical-1:primary SFSymbolsPreview212121" d="M57.959 6.5918L57.959-19.6289Q57.959-23.291 59.5459-25.0488Q61.1328-26.8066 64.3555-26.9531L64.3555-35.4492Q64.3555-41.0156 66.4795-45.166Q68.6035-49.3164 72.4121-51.6113Q76.2207-53.9062 81.25-53.9062Q86.2793-53.9062 90.0635-51.6113Q93.8477-49.3164 95.9717-45.166Q98.0957-41.0156 98.0957-35.4492L98.0957-26.9531Q101.318-26.8066 102.905-25.0488Q104.492-23.291 104.492-19.6289L104.492 6.5918Q104.492 10.3516 102.808 12.1094Q101.123 13.8672 97.6562 13.8672L64.7949 13.8672Q61.377 13.8672 59.668 12.1094Q57.959 10.3516 57.959 6.5918ZM69.3359-26.9531L93.1152-26.9531L93.1152-35.8398Q93.1152-41.7969 89.8193-45.4346Q86.5234-49.0723 81.25-49.0723Q75.8789-49.0723 72.6074-45.4346Q69.3359-41.7969 69.3359-35.8398Z"/>
  </g>
  <g id="Thin-L" transform="matrix(1 0 0 1 774.903 1556)">
   <path class="hierarchical-0:tertiary SFSymbolsPreview8E8E8E" d="M32.6172 29.1992L130.42 29.1992Q138.574 29.1992 142.773 24.9512Q146.973 20.7031 146.973 12.6953L146.973-53.5645Q146.973-61.5723 142.773-65.8203Q138.574-70.0684 130.42-70.0684L32.6172-70.0684Q24.4629-70.0684 20.2637-65.8691Q16.0645-61.6699 16.0645-53.5645L16.0645 12.6953Q16.0645 20.8008 20.2637 25Q24.4629 29.1992 32.6172 29.1992ZM29.7852-81.9336L133.301-81.9336Q133.203-83.5449 132.227-84.668Q131.25-85.791 129.59-85.791L33.4961-85.791Q31.7871-85.791 30.835-84.668Q29.8828-83.5449 29.7852-81.9336ZM41.6016-95.9961L121.484-95.9961Q121.436-97.5586 120.459-98.6328Q119.482-99.707 117.871-99.707L45.2148-99.707Q43.5547-99.707 42.5781-98.6328Q41.6016-97.5586 41.6016-95.9961Z"/>
   <path class="hierarchical-1:primary SFSymbolsPreview212121" d="M58.4473 5.27344L58.4473-21.1914Q58.4473-25.0977 60.1562-26.8555Q61.8652-28.6133 65.3809-28.6621L65.3809-37.8906Q65.3809-43.0664 67.4072-46.9727Q69.4336-50.8789 73.0713-53.0273Q76.709-55.1758 81.543-55.1758Q86.4258-55.1758 90.0635-53.0273Q93.7012-50.8789 95.7275-46.9727Q97.7539-43.0664 97.7539-37.8906L97.7539-28.6621Q101.27-28.6133 102.979-26.8555Q104.688-25.0977 104.688-21.1914L104.688 5.27344Q104.688 9.13086 102.954 10.9131Q101.221 12.6953 97.6562 12.6953L65.4785 12.6953Q61.9629 12.6953 60.2051 10.9131Q58.4473 9.13086 58.4473 5.27344ZM68.9453-28.6621L94.1406-28.6621L94.1406-37.9883Q94.1406-44.1406 90.6738-47.876Q87.207-51.6113 81.543-51.6113Q75.8789-51.6113 72.4121-47.876Q68.9453-44.1406 68.9453-37.9883Z"/>
  </g>
  <g id="Ultralight-L" transform="matrix(1 0 0 1 478.028 1556)">
   <path class="hierarchical-0:tertiary SFSymbolsPreview8E8E8E" d="M32.0312 28.3203L131.348 28.3203Q139.16 28.3203 143.237 24.1699Q147.314 20.0195 147.314 12.3047L147.314-54.541Q147.314-62.2559 143.237-66.4062Q139.16-70.5566 131.348-70.5566L32.0312-70.5566Q24.2188-70.5566 20.1416-66.4551Q16.0645-62.3535 16.0645-54.541L16.0645 12.3047Q16.0645 20.1172 20.1416 24.2188Q24.2188 28.3203 32.0312 28.3203ZM30.127-82.7637L133.203-82.7637Q133.252-83.7402 132.593-84.6191Q131.934-85.498 130.908-85.498L32.4707-85.498Q31.4453-85.498 30.7617-84.6191Q30.0781-83.7402 30.127-82.7637ZM41.6992-96.0938L121.68-96.0938Q121.68-97.1191 120.996-97.9736Q120.312-98.8281 119.287-98.8281L44.0918-98.8281Q43.0664-98.8281 42.3828-97.9736Q41.6992-97.1191 41.6992-96.0938Z"/>
   <path class="hierarchical-1:primary SFSymbolsPreview212121" d="M58.6426 4.63867L58.6426-21.9727Q58.6426-25.9277 60.4248-27.71Q62.207-29.4922 65.8691-29.541L65.8691-39.0625Q65.8691-44.0918 67.8467-47.8516Q69.8242-51.6113 73.3887-53.6865Q76.9531-55.7617 81.6895-55.7617Q86.4258-55.7617 89.9902-53.6865Q93.5547-51.6113 95.5322-47.8516Q97.5098-44.0918 97.5098-39.0625L97.5098-29.541Q101.172-29.4922 102.954-27.71Q104.736-25.9277 104.736-21.9727L104.736 4.63867Q104.736 8.59375 102.954 10.376Q101.172 12.1582 97.6074 12.1582L65.7227 12.1582Q62.207 12.1582 60.4248 10.376Q58.6426 8.59375 58.6426 4.63867ZM68.7012-29.4922L94.6289-29.4922L94.6289-39.0137Q94.6289-45.2637 91.04-49.0723Q87.4512-52.8809 81.6895-52.8809Q75.8789-52.8809 72.29-49.0723Q68.7012-45.2637 68.7012-39.0137Z"/>
  </g>
  <g id="Black-M" transform="matrix(1 0 0 1 2868.56 1126)">
   <path class="hierarchical-0:tertiary SFSymbolsPreview8E8E8E" d="M30.8594 24.4629L98.7793 24.4629Q107.52 24.4629 112.378 19.6289Q117.236 14.7949 117.236 6.05469L117.236-43.457Q117.236-52.1484 112.378-56.9824Q107.52-61.8164 98.7793-61.8164L30.8594-61.8164Q22.1191-61.8164 17.2852-56.9824Q12.4512-52.1484 12.4512-43.457L12.4512 6.05469Q12.4512 14.7949 17.2852 19.6289Q22.1191 24.4629 30.8594 24.4629ZM23.9258-70.166L105.762-70.166Q105.322-74.2676 102.808-76.709Q100.293-79.1504 95.3613-79.1504L34.2773-79.1504Q29.3945-79.1504 26.8555-76.709Q24.3164-74.2676 23.9258-70.166ZM33.3496-86.8164L96.2891-86.8164Q95.9473-90.7227 93.4326-92.8955Q90.918-95.0684 86.8164-95.0684L42.8711-95.0684Q38.7695-95.0684 36.2549-92.8955Q33.7402-90.7227 33.3496-86.8164Z"/>
   <path class="hierarchical-1:primary SFSymbolsPreview212121" d="M46.7285 0.390625L46.7285-18.1152Q46.7285-22.9004 50.293-23.9746L50.293-28.5645Q50.293-35.8398 54.3213-40.2832Q58.3496-44.7266 64.8926-44.7266Q71.4355-44.7266 75.4883-40.2832Q79.541-35.8398 79.541-28.5645L79.541-23.877Q83.0078-22.9004 83.0078-18.1152L83.0078 0.390625Q83.0078 6.64062 77.0996 6.64062L52.6855 6.64062Q46.7285 6.64062 46.7285 0.390625ZM59.375-24.3164L70.3613-24.3164L70.3613-28.8574Q70.3613-32.0801 68.8477-33.9111Q67.334-35.7422 64.7949-35.7422Q62.3047-35.7422 60.8398-33.8867Q59.375-32.0312 59.375-28.8574Z"/>
  </g>
  <g id="Heavy-M" transform="matrix(1 0 0 1 2572.37 1126)">
   <path class="hierarchical-0:tertiary SFSymbolsPreview8E8E8E" d="M30.0293 22.9004L98.584 22.9004Q106.982 22.9004 111.597 18.335Q116.211 13.7695 116.211 5.37109L116.211-44.043Q116.211-52.3926 111.597-56.958Q106.982-61.5234 98.584-61.5234L30.0293-61.5234Q21.582-61.5234 17.0166-56.958Q12.4512-52.3926 12.4512-44.043L12.4512 5.37109Q12.4512 13.7695 17.0166 18.335Q21.582 22.9004 30.0293 22.9004ZM23.4375-69.7754L105.225-69.7754Q104.736-73.6816 102.417-75.9766Q100.098-78.2715 95.459-78.2715L33.1543-78.2715Q28.5645-78.2715 26.1963-75.9766Q23.8281-73.6816 23.4375-69.7754ZM33.0078-85.6934L95.6055-85.6934Q95.3125-89.4043 92.9688-91.4307Q90.625-93.457 86.6699-93.457L41.9434-93.457Q38.0371-93.457 35.6934-91.4307Q33.3496-89.4043 33.0078-85.6934Z"/>
   <path class="hierarchical-1:primary SFSymbolsPreview212121" d="M46.1914-0.0488281L46.1914-18.8965Q46.1914-23.7793 49.9512-24.707L49.9512-29.5898Q49.9512-36.8164 53.9307-41.2109Q57.9102-45.6055 64.3555-45.6055Q70.8008-45.6055 74.8047-41.2109Q78.8086-36.8164 78.8086-29.5898L78.8086-24.6094Q82.4707-23.7793 82.4707-18.8965L82.4707-0.0488281Q82.4707 6.00586 76.7578 6.00586L51.9531 6.00586Q46.1914 6.00586 46.1914-0.0488281ZM58.1543-24.9512L70.5566-24.9512L70.5566-29.9316Q70.5566-33.4473 68.8477-35.498Q67.1387-37.5488 64.2578-37.5488Q61.4746-37.5488 59.8145-35.4736Q58.1543-33.3984 58.1543-29.9316Z"/>
  </g>
  <g id="Bold-M" transform="matrix(1 0 0 1 2276.24 1126)">
   <path class="hierarchical-0:tertiary SFSymbolsPreview8E8E8E" d="M29.1016 21.1426L98.3887 21.1426Q106.445 21.1426 110.742 16.8701Q115.039 12.5977 115.039 4.58984L115.039-44.7266Q115.039-52.7344 110.742-56.9824Q106.445-61.2305 98.3887-61.2305L29.1016-61.2305Q20.9961-61.2305 16.7236-56.9824Q12.4512-52.7344 12.4512-44.7266L12.4512 4.58984Q12.4512 12.6465 16.7236 16.8945Q20.9961 21.1426 29.1016 21.1426ZM22.8516-69.3359L104.639-69.3359Q104.15-73.0469 102.026-75.1709Q99.9023-77.2949 95.6055-77.2949L31.8848-77.2949Q27.6367-77.2949 25.4883-75.1709Q23.3398-73.0469 22.8516-69.3359ZM32.6172-84.4238L94.873-84.4238Q94.5801-87.9395 92.4561-89.8193Q90.332-91.6992 86.5723-91.6992L40.918-91.6992Q37.207-91.6992 35.0586-89.8193Q32.9102-87.9395 32.6172-84.4238Z"/>
   <path class="hierarchical-1:primary SFSymbolsPreview212121" d="M45.6055-0.585938L45.6055-19.8242Q45.6055-24.8535 49.6094-25.5371L49.6094-30.7617Q49.6094-37.8906 53.5156-42.2363Q57.4219-46.582 63.7695-46.582Q70.1172-46.582 74.0479-42.2363Q77.9785-37.8906 77.9785-30.7617L77.9785-25.4883Q81.9336-24.8535 81.9336-19.8242L81.9336-0.585938Q81.9336 5.32227 76.416 5.32227L51.1719 5.32227Q45.6055 5.32227 45.6055-0.585938ZM56.7871-25.7324L70.752-25.7324L70.752-31.2012Q70.752-35.0098 68.8477-37.2803Q66.9434-39.5508 63.7207-39.5508Q60.5957-39.5508 58.6914-37.2803Q56.7871-35.0098 56.7871-31.2012Z"/>
  </g>
  <g id="Semibold-M" transform="matrix(1 0 0 1 1979.94 1126)">
   <path class="hierarchical-0:tertiary SFSymbolsPreview8E8E8E" d="M28.418 19.9219L98.1934 19.9219Q106.006 19.9219 110.107 15.8691Q114.209 11.8164 114.209 4.05273L114.209-45.166Q114.209-52.9297 110.107-56.9824Q106.006-61.0352 98.1934-61.0352L28.418-61.0352Q20.6055-61.0352 16.5283-56.9824Q12.4512-52.9297 12.4512-45.166L12.4512 4.05273Q12.4512 11.8164 16.5283 15.8691Q20.6055 19.9219 28.418 19.9219ZM22.4609-69.043L104.248-69.043Q103.711-72.6074 101.709-74.585Q99.707-76.5625 95.6543-76.5625L31.0059-76.5625Q26.9531-76.5625 24.9512-74.585Q22.9492-72.6074 22.4609-69.043ZM32.3242-83.5449L94.3359-83.5449Q94.0918-86.9141 92.0898-88.6963Q90.0879-90.4785 86.4258-90.4785L40.1855-90.4785Q36.6211-90.4785 34.5947-88.6963Q32.5684-86.9141 32.3242-83.5449Z"/>
   <path class="hierarchical-1:primary SFSymbolsPreview212121" d="M45.2148-0.878906L45.2148-20.459Q45.2148-25.5371 49.3652-26.0742L49.3652-31.543Q49.3652-38.623 53.2227-42.9443Q57.0801-47.2656 63.3789-47.2656Q69.6777-47.2656 73.5596-42.9443Q77.4414-38.623 77.4414-31.543L77.4414-26.0254Q81.543-25.5371 81.543-20.459L81.543-0.878906Q81.543 4.83398 76.1719 4.83398L50.5859 4.83398Q45.2148 4.83398 45.2148-0.878906ZM55.8105-26.2207L70.8984-26.2207L70.8984-32.0312Q70.8984-36.084 68.8477-38.501Q66.7969-40.918 63.3301-40.918Q59.9609-40.918 57.8857-38.4766Q55.8105-36.0352 55.8105-32.0312Z"/>
  </g>
  <g id="Medium-M" transform="matrix(1 0 0 1 1683.53 1126)">
   <path class="hierarchical-0:tertiary SFSymbolsPreview8E8E8E" d="M27.9297 18.9941L98.0957 18.9941Q105.713 18.9941 109.644 15.0879Q113.574 11.1816 113.574 3.66211L113.574-45.5566Q113.574-53.0762 109.644-56.958Q105.713-60.8398 98.0957-60.8398L27.9297-60.8398Q20.2637-60.8398 16.3574-56.958Q12.4512-53.0762 12.4512-45.5566L12.4512 3.66211Q12.4512 11.2305 16.3574 15.1123Q20.2637 18.9941 27.9297 18.9941ZM22.168-68.7988L103.906-68.7988Q103.369-72.2656 101.489-74.1699Q99.6094-76.0742 95.7031-76.0742L30.3711-76.0742Q26.4648-76.0742 24.5605-74.1699Q22.6562-72.2656 22.168-68.7988ZM32.1289-82.9102L93.9453-82.9102Q93.7012-86.1816 91.7969-87.8662Q89.8926-89.5508 86.377-89.5508L39.6484-89.5508Q36.1816-89.5508 34.2529-87.8662Q32.3242-86.1816 32.1289-82.9102Z"/>
   <path class="hierarchical-1:primary SFSymbolsPreview212121" d="M44.873-1.17188L44.873-20.8984Q44.873-26.0742 49.1211-26.5137L49.1211-32.1777Q49.1211-39.209 52.9785-43.4814Q56.8359-47.7539 63.0371-47.7539Q69.2383-47.7539 73.0957-43.4814Q76.9531-39.209 76.9531-32.1777L76.9531-26.4648Q81.25-26.0742 81.25-20.8984L81.25-1.17188Q81.25 4.49219 75.9277 4.49219L50.1465 4.49219Q44.873 4.49219 44.873-1.17188ZM55.0781-26.6113L70.9961-26.6113L70.9961-32.7148Q70.9961-36.8652 68.8232-39.4287Q66.6504-41.9922 63.0371-41.9922Q59.4238-41.9922 57.251-39.4287Q55.0781-36.8652 55.0781-32.7148Z"/>
  </g>
  <g id="Regular-M" transform="matrix(1 0 0 1 1387.22 1126)">
   <path class="hierarchical-0:tertiary SFSymbolsPreview8E8E8E" d="M27.2949 17.8223L97.9492 17.8223Q105.322 17.8223 109.058 14.1113Q112.793 10.4004 112.793 3.125L112.793-45.9961Q112.793-53.2715 109.058-56.958Q105.322-60.6445 97.9492-60.6445L27.2949-60.6445Q19.873-60.6445 16.1621-56.958Q12.4512-53.2715 12.4512-45.9961L12.4512 3.125Q12.4512 10.4492 16.1621 14.1357Q19.873 17.8223 27.2949 17.8223ZM21.7773-68.5059L103.516-68.5059Q102.93-71.8262 101.196-73.6084Q99.4629-75.3906 95.8008-75.3906L29.4922-75.3906Q25.8301-75.3906 24.0723-73.6084Q22.3145-71.8262 21.7773-68.5059ZM31.8359-82.0312L93.457-82.0312Q93.2129-85.1562 91.4551-86.7432Q89.6973-88.3301 86.2793-88.3301L38.9648-88.3301Q35.5957-88.3301 33.8135-86.7432Q32.0312-85.1562 31.8359-82.0312Z"/>
   <path class="hierarchical-1:primary SFSymbolsPreview212121" d="M44.4824-1.51367L44.4824-21.5332Q44.4824-26.7578 48.877-27.0508L48.877-32.959Q48.877-39.9414 52.6855-44.1895Q56.4941-48.4375 62.6465-48.4375Q68.7988-48.4375 72.6074-44.1895Q76.416-39.9414 76.416-32.959L76.416-27.0508Q80.8594-26.7578 80.8594-21.5332L80.8594-1.51367Q80.8594 4.00391 75.6836 4.00391L49.6094 4.00391Q44.4824 4.00391 44.4824-1.51367ZM54.1504-27.0996L71.1426-27.0996L71.1426-33.5449Q71.1426-37.9395 68.8232-40.6494Q66.5039-43.3594 62.6465-43.3594Q58.8379-43.3594 56.4941-40.6494Q54.1504-37.9395 54.1504-33.5449Z"/>
  </g>
  <g id="Light-M" transform="matrix(1 0 0 1 1090.3 1126)">
   <path class="hierarchical-0:tertiary SFSymbolsPreview8E8E8E" d="M26.5137 16.6504L99.1211 16.6504Q106.104 16.6504 109.668 13.0859Q113.232 9.52148 113.232 2.63672L113.232-47.3145Q113.232-54.1504 109.668-57.6904Q106.104-61.2305 99.1211-61.2305L26.5137-61.2305Q19.5312-61.2305 15.9912-57.7148Q12.4512-54.1992 12.4512-47.3145L12.4512 2.63672Q12.4512 9.61914 15.9912 13.1348Q19.5312 16.6504 26.5137 16.6504ZM22.2656-69.6289L103.418-69.6289Q103.027-72.168 101.685-73.584Q100.342-75 97.5586-75L28.125-75Q25.3906-75 24.0234-73.584Q22.6562-72.168 22.2656-69.6289ZM31.9824-82.1289L93.7012-82.1289Q93.5547-84.5703 92.1875-85.8643Q90.8203-87.1582 88.1836-87.1582L37.5-87.1582Q34.9121-87.1582 33.5205-85.8643Q32.1289-84.5703 31.9824-82.1289Z"/>
   <path class="hierarchical-1:primary SFSymbolsPreview212121" d="M44.7754-2.39258L44.7754-22.6074Q44.7754-28.0273 49.5117-28.2227L49.5117-34.5703Q49.5117-41.2109 53.1982-45.2393Q56.8848-49.2676 62.8418-49.2676Q68.7988-49.2676 72.4854-45.2393Q76.1719-41.2109 76.1719-34.5703L76.1719-28.2227Q80.957-28.0273 80.957-22.6074L80.957-2.39258Q80.957 3.22266 75.6836 3.22266L50 3.22266Q44.7754 3.22266 44.7754-2.39258ZM53.8574-28.2227L71.8262-28.2227L71.8262-34.9609Q71.8262-39.502 69.3604-42.2852Q66.8945-45.0684 62.8418-45.0684Q58.8379-45.0684 56.3477-42.2852Q53.8574-39.502 53.8574-34.9609Z"/>
  </g>
  <g id="Thin-M" transform="matrix(1 0 0 1 793.308 1126)">
   <path class="hierarchical-0:tertiary SFSymbolsPreview8E8E8E" d="M25.4883 15.0879L100.732 15.0879Q107.129 15.0879 110.449 11.7188Q113.77 8.34961 113.77 2.05078L113.77-49.0234Q113.77-55.3223 110.449-58.6914Q107.129-62.0605 100.732-62.0605L25.4883-62.0605Q19.0918-62.0605 15.7715-58.7402Q12.4512-55.4199 12.4512-49.0234L12.4512 2.05078Q12.4512 8.49609 15.7715 11.792Q19.0918 15.0879 25.4883 15.0879ZM22.9492-71.0938L103.32-71.0938Q103.174-72.5586 102.319-73.5352Q101.465-74.5117 99.9023-74.5117L26.3672-74.5117Q24.7559-74.5117 23.9014-73.5352Q23.0469-72.5586 22.9492-71.0938ZM32.1777-82.3242L94.043-82.3242Q94.043-83.7402 93.1641-84.668Q92.2852-85.5957 90.7227-85.5957L35.498-85.5957Q33.9844-85.5957 33.1055-84.668Q32.2266-83.7402 32.1777-82.3242Z"/>
   <path class="hierarchical-1:primary SFSymbolsPreview212121" d="M45.166-3.56445L45.166-24.0234Q45.166-29.6875 50.3906-29.7363L50.3906-36.7188Q50.3906-42.9199 53.9062-46.6553Q57.4219-50.3906 63.1348-50.3906Q68.7988-50.3906 72.29-46.6553Q75.7812-42.9199 75.7812-36.7188L75.7812-29.7363Q81.1035-29.6875 81.1035-24.0234L81.1035-3.56445Q81.1035 2.19727 75.6836 2.19727L50.5859 2.19727Q45.166 2.19727 45.166-3.56445ZM53.5156-29.7363L72.7051-29.7363L72.7051-36.8652Q72.7051-41.5527 70.0684-44.458Q67.4316-47.3633 63.1348-47.3633Q58.8379-47.3633 56.1768-44.458Q53.5156-41.5527 53.5156-36.8652Z"/>
  </g>
  <g id="Ultralight-M" transform="matrix(1 0 0 1 496.453 1126)">
   <path class="hierarchical-0:tertiary SFSymbolsPreview8E8E8E" d="M25 14.2578L101.514 14.2578Q107.666 14.2578 110.864 11.0107Q114.062 7.76367 114.062 1.70898L114.062-49.9023Q114.062-55.957 110.864-59.2041Q107.666-62.4512 101.514-62.4512L25-62.4512Q18.8965-62.4512 15.6738-59.2529Q12.4512-56.0547 12.4512-49.9023L12.4512 1.70898Q12.4512 7.91016 15.6738 11.084Q18.8965 14.2578 25 14.2578ZM23.291-71.8262L103.223-71.8262Q103.271-72.8027 102.661-73.5352Q102.051-74.2676 101.074-74.2676L25.4395-74.2676Q24.4629-74.2676 23.877-73.5352Q23.291-72.8027 23.291-71.8262ZM32.2754-82.373L94.2383-82.373Q94.2383-83.3496 93.6279-84.0576Q93.0176-84.7656 91.9922-84.7656L34.5215-84.7656Q33.4961-84.7656 32.8857-84.0576Q32.2754-83.3496 32.2754-82.373Z"/>
   <path class="hierarchical-1:primary SFSymbolsPreview212121" d="M45.4102-4.15039L45.4102-24.707Q45.4102-30.5176 50.8789-30.5176L50.8789-37.8418Q50.8789-43.75 54.3213-47.3389Q57.7637-50.9277 63.2812-50.9277Q68.8477-50.9277 72.2656-47.3389Q75.6836-43.75 75.6836-37.8418L75.6836-30.5176Q81.2012-30.5176 81.2012-24.707L81.2012-4.15039Q81.2012 1.70898 75.6836 1.70898L50.8789 1.70898Q45.4102 1.70898 45.4102-4.15039ZM53.3691-30.5176L73.1934-30.5176L73.1934-37.793Q73.1934-42.627 70.4834-45.5566Q67.7734-48.4863 63.2812-48.4863Q58.8379-48.4863 56.1035-45.5566Q53.3691-42.627 53.3691-37.793Z"/>
  </g>
  <g id="Black-S" transform="matrix(1 0 0 1 2882.42 696)">
   <path class="hierarchical-0:tertiary SFSymbolsPreview8E8E8E" d="M24.4141 11.9629L77.5391 11.9629Q84.4727 11.9629 88.3301 8.10547Q92.1875 4.24805 92.1875-2.68555L92.1875-41.5527Q92.1875-48.4375 88.3301-52.3193Q84.4727-56.2012 77.5391-56.2012L24.4141-56.2012Q17.4805-56.2012 13.623-52.3193Q9.76562-48.4375 9.76562-41.5527L9.76562-2.68555Q9.76562 4.24805 13.623 8.10547Q17.4805 11.9629 24.4141 11.9629ZM18.9453-62.793L83.0078-62.793Q82.7148-66.0156 80.7129-67.9443Q78.7109-69.873 74.8047-69.873L27.1484-69.873Q23.291-69.873 21.2646-67.9443Q19.2383-66.0156 18.9453-62.793ZM26.2695-75.9766L75.6836-75.9766Q75.3906-79.0527 73.3887-80.7861Q71.3867-82.5195 68.1641-82.5195L33.7891-82.5195Q30.5664-82.5195 28.5645-80.7861Q26.5625-79.0527 26.2695-75.9766Z"/>
   <path class="hierarchical-1:primary SFSymbolsPreview212121" d="M36.7676-7.22656L36.7676-21.6309Q36.7676-25.3418 39.502-26.2207L39.502-29.7852Q39.502-35.4492 42.6758-38.9404Q45.8496-42.4316 50.9766-42.4316Q56.1523-42.4316 59.3262-38.9404Q62.5-35.4492 62.5-29.7852L62.5-26.1719Q65.1855-25.3418 65.1855-21.6309L65.1855-7.22656Q65.1855-2.24609 60.498-2.24609L41.5039-2.24609Q36.7676-2.24609 36.7676-7.22656ZM46.875-26.5137L55.0781-26.5137L55.0781-29.9805Q55.0781-32.4219 53.9551-33.7891Q52.832-35.1562 50.9277-35.1562Q49.0723-35.1562 47.9736-33.7646Q46.875-32.373 46.875-29.9805Z"/>
  </g>
  <g id="Heavy-S" transform="matrix(1 0 0 1 2586.19 696)">
   <path class="hierarchical-0:tertiary SFSymbolsPreview8E8E8E" d="M23.7793 10.7422L77.1973 10.7422Q83.9355 10.7422 87.5732 7.10449Q91.2109 3.4668 91.2109-3.22266L91.2109-41.8945Q91.2109-48.5352 87.5732-52.1973Q83.9355-55.8594 77.1973-55.8594L23.7793-55.8594Q17.0898-55.8594 13.4277-52.1973Q9.76562-48.5352 9.76562-41.8945L9.76562-3.22266Q9.76562 3.4668 13.4277 7.10449Q17.0898 10.7422 23.7793 10.7422ZM18.457-62.3047L82.5684-62.3047Q82.2266-65.4785 80.3223-67.334Q78.418-69.1895 74.6582-69.1895L26.3672-69.1895Q22.6074-69.1895 20.7031-67.334Q18.7988-65.4785 18.457-62.3047ZM25.9277-75L75.0488-75Q74.8047-78.0273 72.9004-79.6631Q70.9961-81.2988 67.8223-81.2988L33.2031-81.2988Q30.0293-81.2988 28.125-79.6631Q26.2207-78.0273 25.9277-75Z"/>
   <path class="hierarchical-1:primary SFSymbolsPreview212121" d="M36.2793-7.4707L36.2793-22.168Q36.2793-25.9766 39.1602-26.709L39.1602-30.4688Q39.1602-36.1328 42.2852-39.5996Q45.4102-43.0664 50.4883-43.0664Q55.6152-43.0664 58.7646-39.5996Q61.9141-36.1328 61.9141-30.4688L61.9141-26.6602Q64.7461-25.9766 64.7461-22.168L64.7461-7.4707Q64.7461-2.68555 60.2051-2.68555L40.8203-2.68555Q36.2793-2.68555 36.2793-7.4707ZM45.8496-26.9531L55.1758-26.9531L55.1758-30.7617Q55.1758-33.3984 53.8818-34.9365Q52.5879-36.4746 50.4883-36.4746Q48.3887-36.4746 47.1191-34.9121Q45.8496-33.3496 45.8496-30.7617Z"/>
  </g>
  <g id="Bold-S" transform="matrix(1 0 0 1 2290.01 696)">
   <path class="hierarchical-0:tertiary SFSymbolsPreview8E8E8E" d="M23.0957 9.42383L76.8555 9.42383Q83.3008 9.42383 86.7432 6.00586Q90.1855 2.58789 90.1855-3.80859L90.1855-42.2852Q90.1855-48.6816 86.7432-52.0996Q83.3008-55.5176 76.8555-55.5176L23.0957-55.5176Q16.6016-55.5176 13.1836-52.0996Q9.76562-48.6816 9.76562-42.2852L9.76562-3.80859Q9.76562 2.63672 13.1836 6.03027Q16.6016 9.42383 23.0957 9.42383ZM17.9199-61.8164L82.0801-61.8164Q81.6895-64.8926 79.9072-66.6504Q78.125-68.4082 74.5117-68.4082L25.4883-68.4082Q21.875-68.4082 20.0928-66.6504Q18.3105-64.8926 17.9199-61.8164ZM25.5859-73.9258L74.4141-73.9258Q74.1699-76.8555 72.3633-78.418Q70.5566-79.9805 67.4316-79.9805L32.5195-79.9805Q29.3945-79.9805 27.6123-78.418Q25.8301-76.8555 25.5859-73.9258Z"/>
   <path class="hierarchical-1:primary SFSymbolsPreview212121" d="M35.7422-7.8125L35.7422-22.8027Q35.7422-26.6602 38.7695-27.2461L38.7695-31.2012Q38.7695-36.8652 41.8701-40.332Q44.9707-43.7988 50-43.7988Q55.0293-43.7988 58.1543-40.332Q61.2793-36.8652 61.2793-31.2012L61.2793-27.1973Q64.2578-26.6602 64.2578-22.8027L64.2578-7.8125Q64.2578-3.17383 59.9121-3.17383L40.0879-3.17383Q35.7422-3.17383 35.7422-7.8125ZM44.7266-27.3926L55.2734-27.3926L55.2734-31.5918Q55.2734-34.5215 53.833-36.2549Q52.3926-37.9883 50-37.9883Q47.6074-37.9883 46.167-36.2305Q44.7266-34.4727 44.7266-31.5918Z"/>
  </g>
  <g id="Semibold-S" transform="matrix(1 0 0 1 1993.67 696)">
   <path class="hierarchical-0:tertiary SFSymbolsPreview8E8E8E" d="M22.6074 8.49609L76.6113 8.49609Q82.8613 8.49609 86.1328 5.24902Q89.4043 2.00195 89.4043-4.19922L89.4043-42.5293Q89.4043-48.7793 86.1328-52.0264Q82.8613-55.2734 76.6113-55.2734L22.6074-55.2734Q16.2598-55.2734 13.0127-52.0264Q9.76562-48.7793 9.76562-42.5293L9.76562-4.19922Q9.76562 2.00195 13.0127 5.24902Q16.2598 8.49609 22.6074 8.49609ZM17.5293-61.4258L81.7383-61.4258Q81.2988-64.502 79.5898-66.1621Q77.8809-67.8223 74.4141-67.8223L24.8535-67.8223Q21.3379-67.8223 19.6289-66.1621Q17.9199-64.502 17.5293-61.4258ZM25.293-73.1445L73.9258-73.1445Q73.6816-76.0254 71.9727-77.5146Q70.2637-79.0039 67.1875-79.0039L32.0801-79.0039Q28.9551-79.0039 27.2705-77.5146Q25.5859-76.0254 25.293-73.1445Z"/>
   <path class="hierarchical-1:primary SFSymbolsPreview212121" d="M35.3516-8.05664L35.3516-23.291Q35.3516-27.1484 38.4766-27.6367L38.4766-31.7871Q38.4766-37.4512 41.5527-40.8936Q44.6289-44.3359 49.6094-44.3359Q54.5898-44.3359 57.6904-40.8936Q60.791-37.4512 60.791-31.7871L60.791-27.6367Q63.8672-27.1484 63.8672-23.291L63.8672-8.05664Q63.8672-3.56445 59.668-3.56445L39.5508-3.56445Q35.3516-3.56445 35.3516-8.05664ZM43.9453-27.7832L55.2734-27.7832L55.2734-32.2266Q55.2734-35.3027 53.7354-37.1826Q52.1973-39.0625 49.6094-39.0625Q47.0703-39.0625 45.5078-37.1826Q43.9453-35.3027 43.9453-32.2266Z"/>
  </g>
  <g id="Medium-S" transform="matrix(1 0 0 1 1697.24 696)">
   <path class="hierarchical-0:tertiary SFSymbolsPreview8E8E8E" d="M22.2656 7.8125L76.416 7.8125Q82.5684 7.8125 85.7178 4.66309Q88.8672 1.51367 88.8672-4.54102L88.8672-42.7734Q88.8672-48.8281 85.7178-51.9531Q82.5684-55.0781 76.416-55.0781L22.2656-55.0781Q16.0156-55.0781 12.8906-51.9531Q9.76562-48.8281 9.76562-42.7734L9.76562-4.54102Q9.76562 1.5625 12.8906 4.6875Q16.0156 7.8125 22.2656 7.8125ZM17.2363-61.1328L81.4941-61.1328Q81.0059-64.1602 79.3457-65.7959Q77.6855-67.4316 74.3164-67.4316L24.3652-67.4316Q20.9473-67.4316 19.3115-65.7959Q17.6758-64.1602 17.2363-61.1328ZM25.0977-72.5586L73.584-72.5586Q73.3398-75.3906 71.6797-76.8555Q70.0195-78.3203 66.9434-78.3203L31.6895-78.3203Q28.6621-78.3203 27.002-76.8555Q25.3418-75.3906 25.0977-72.5586Z"/>
   <path class="hierarchical-1:primary SFSymbolsPreview212121" d="M35.0586-8.20312L35.0586-23.584Q35.0586-27.4902 38.2324-27.8809L38.2324-32.1289Q38.2324-37.793 41.3086-41.2598Q44.3848-44.7266 49.3652-44.7266Q54.2969-44.7266 57.373-41.2598Q60.4492-37.793 60.4492-32.1289L60.4492-27.8809Q63.5742-27.4902 63.5742-23.584L63.5742-8.20312Q63.5742-3.80859 59.5215-3.80859L39.1602-3.80859Q35.0586-3.80859 35.0586-8.20312ZM43.3105-27.9785L55.3223-27.9785L55.3223-32.666Q55.3223-35.8887 53.6865-37.8418Q52.0508-39.7949 49.3164-39.7949Q46.6309-39.7949 44.9707-37.8174Q43.3105-35.8398 43.3105-32.666Z"/>
  </g>
  <g id="Regular-S" transform="matrix(1 0 0 1 1400.89 696)">
   <path class="hierarchical-0:tertiary SFSymbolsPreview8E8E8E" d="M21.7773 6.88477L76.1719 6.88477Q82.1289 6.88477 85.1318 3.90625Q88.1348 0.927734 88.1348-4.93164L88.1348-43.0176Q88.1348-48.9258 85.1318-51.8799Q82.1289-54.834 76.1719-54.834L21.7773-54.834Q15.7227-54.834 12.7441-51.8799Q9.76562-48.9258 9.76562-43.0176L9.76562-4.93164Q9.76562 0.976562 12.7441 3.93066Q15.7227 6.88477 21.7773 6.88477ZM16.8457-60.791L81.1523-60.791Q80.6152-63.7695 79.0527-65.332Q77.4902-66.8945 74.2188-66.8945L23.7793-66.8945Q20.459-66.8945 18.8965-65.332Q17.334-63.7695 16.8457-60.791ZM24.8535-71.8262L73.0957-71.8262Q72.9004-74.6094 71.3135-76.001Q69.7266-77.3926 66.6992-77.3926L31.25-77.3926Q28.2227-77.3926 26.6602-76.001Q25.0977-74.6094 24.8535-71.8262Z"/>
   <path class="hierarchical-1:primary SFSymbolsPreview212121" d="M34.668-8.39844L34.668-24.0234Q34.668-27.9785 37.9395-28.2715L37.9395-32.666Q37.9395-38.3301 40.9912-41.7725Q44.043-45.2148 48.9746-45.2148Q53.8574-45.2148 56.9092-41.7725Q59.9609-38.3301 59.9609-32.666L59.9609-28.2715Q63.2324-27.9785 63.2324-24.0234L63.2324-8.39844Q63.2324-4.15039 59.2773-4.15039L38.623-4.15039Q34.668-4.15039 34.668-8.39844ZM42.5293-28.3203L55.3711-28.3203L55.3711-33.252Q55.3711-36.6211 53.6133-38.7207Q51.8555-40.8203 48.9746-40.8203Q46.0938-40.8203 44.3115-38.7207Q42.5293-36.6211 42.5293-33.252Z"/>
  </g>
  <g id="Light-S" transform="matrix(1 0 0 1 1103.99 696)">
   <path class="hierarchical-0:tertiary SFSymbolsPreview8E8E8E" d="M21.0938 5.85938L77.2461 5.85938Q82.8125 5.85938 85.6689 3.00293Q88.5254 0.146484 88.5254-5.37109L88.5254-44.1895Q88.5254-49.707 85.6689-52.5391Q82.8125-55.3711 77.2461-55.3711L21.0938-55.3711Q15.4297-55.3711 12.5977-52.5635Q9.76562-49.7559 9.76562-44.1895L9.76562-5.37109Q9.76562 0.244141 12.5977 3.05176Q15.4297 5.85938 21.0938 5.85938ZM17.2852-61.7676L81.0547-61.7676Q80.7129-64.0625 79.4922-65.3076Q78.2715-66.5527 75.7812-66.5527L22.6074-66.5527Q20.0684-66.5527 18.8477-65.3076Q17.627-64.0625 17.2852-61.7676ZM25-71.9238L73.3398-71.9238Q73.1934-74.0723 71.9482-75.2197Q70.7031-76.3672 68.3594-76.3672L29.9316-76.3672Q27.6367-76.3672 26.3916-75.2197Q25.1465-74.0723 25-71.9238Z"/>
   <path class="hierarchical-1:primary SFSymbolsPreview212121" d="M34.9609-9.17969L34.9609-24.9512Q34.9609-29.1016 38.5742-29.2969L38.5742-34.1309Q38.5742-39.4531 41.5039-42.7002Q44.4336-45.9473 49.1699-45.9473Q53.9062-45.9473 56.8359-42.7002Q59.7656-39.4531 59.7656-34.1309L59.7656-29.2969Q63.3789-29.1016 63.3789-24.9512L63.3789-9.17969Q63.3789-4.83398 59.2773-4.83398L39.0137-4.83398Q34.9609-4.83398 34.9609-9.17969ZM42.2852-29.3457L56.0059-29.3457L56.0059-34.5215Q56.0059-37.9883 54.126-40.1611Q52.2461-42.334 49.1699-42.334Q46.0938-42.334 44.1895-40.1611Q42.2852-37.9883 42.2852-34.5215Z"/>
  </g>
  <g id="Thin-S" transform="matrix(1 0 0 1 807.015 696)">
   <path class="hierarchical-0:tertiary SFSymbolsPreview8E8E8E" d="M20.2148 4.49219L78.6133 4.49219Q83.7402 4.49219 86.4014 1.80664Q89.0625-0.878906 89.0625-5.9082L89.0625-45.7031Q89.0625-50.7812 86.4014-53.4424Q83.7402-56.1035 78.6133-56.1035L20.2148-56.1035Q15.0391-56.1035 12.4023-53.4668Q9.76562-50.8301 9.76562-45.7031L9.76562-5.9082Q9.76562-0.78125 12.4023 1.85547Q15.0391 4.49219 20.2148 4.49219ZM17.8711-63.0371L80.957-63.0371Q80.8105-64.4043 80.0537-65.2588Q79.2969-66.1133 77.7832-66.1133L20.9961-66.1133Q19.5312-66.1133 18.75-65.2588Q17.9688-64.4043 17.8711-63.0371ZM25.1465-72.0703L73.6328-72.0703Q73.584-73.3887 72.8027-74.1943Q72.0215-75 70.6055-75L28.1738-75Q26.8066-75 26.0254-74.1943Q25.2441-73.3887 25.1465-72.0703Z"/>
   <path class="hierarchical-1:primary SFSymbolsPreview212121" d="M35.3027-10.2051L35.3027-26.1719Q35.3027-30.5664 39.3066-30.6641L39.3066-36.0352Q39.3066-40.9668 42.0898-43.9453Q44.873-46.9238 49.4141-46.9238Q53.9062-46.9238 56.665-43.9453Q59.4238-40.9668 59.4238-36.0352L59.4238-30.6641Q63.4766-30.5664 63.4766-26.1719L63.4766-10.2051Q63.4766-5.76172 59.2773-5.76172L39.502-5.76172Q35.3027-5.76172 35.3027-10.2051ZM41.9922-30.6641L56.7871-30.6641L56.7871-36.1816Q56.7871-39.8438 54.7363-42.0898Q52.6855-44.3359 49.4141-44.3359Q46.0449-44.3359 44.0186-42.0898Q41.9922-39.8438 41.9922-36.1816Z"/>
  </g>
  <g id="Ultralight-S" transform="matrix(1 0 0 1 510.171 696)">
   <path class="hierarchical-0:tertiary SFSymbolsPreview8E8E8E" d="M19.7266 3.80859L79.3457 3.80859Q84.2285 3.80859 86.7676 1.2207Q89.3066-1.36719 89.3066-6.20117L89.3066-46.5332Q89.3066-51.3184 86.7676-53.8818Q84.2285-56.4453 79.3457-56.4453L19.7266-56.4453Q14.8438-56.4453 12.3047-53.9062Q9.76562-51.3672 9.76562-46.5332L9.76562-6.20117Q9.76562-1.26953 12.3047 1.26953Q14.8438 3.80859 19.7266 3.80859ZM18.1641-63.7207L80.9082-63.7207Q80.9082-64.5996 80.3467-65.2588Q79.7852-65.918 78.8574-65.918L20.2148-65.918Q19.2871-65.918 18.7256-65.2588Q18.1641-64.5996 18.1641-63.7207ZM25.2441-72.168L73.7793-72.168Q73.7793-72.998 73.2178-73.6572Q72.6562-74.3164 71.7285-74.3164L27.2949-74.3164Q26.416-74.3164 25.8545-73.6572Q25.293-72.998 25.2441-72.168Z"/>
   <path class="hierarchical-1:primary SFSymbolsPreview212121" d="M35.498-10.6934L35.498-26.7578Q35.498-31.25 39.7461-31.2988L39.7461-36.9629Q39.7461-41.6504 42.4561-44.5068Q45.166-47.3633 49.5117-47.3633Q53.9062-47.3633 56.5918-44.5068Q59.2773-41.6504 59.2773-36.9629L59.2773-31.2988Q63.5742-31.25 63.5742-26.7578L63.5742-10.6934Q63.5742-6.15234 59.2773-6.15234L39.7949-6.15234Q35.498-6.15234 35.498-10.6934ZM41.7969-31.2988L57.1777-31.2988L57.1777-37.0117Q57.1777-40.7227 55.0781-43.0176Q52.9785-45.3125 49.5117-45.3125Q46.0449-45.3125 43.9209-43.0176Q41.7969-40.7227 41.7969-37.0117Z"/>
  </g>
 </g>
</svg>
