<?xml version="1.0" encoding="UTF-8"?>
<!--Generator: Apple Native CoreSVG 175-->
<!DOCTYPE svg
PUBLIC "-//W3C//DTD SVG 1.1//EN"
       "http://www.w3.org/Graphics/SVG/1.1/DTD/svg11.dtd">
<svg version="1.1" xmlns="http://www.w3.org/2000/svg" xmlns:xlink="http://www.w3.org/1999/xlink" width="3300" height="2200">
 <!--glyph: "uni1002ED.medium", point size: 100.0, font version: "17.0d12e1", template writer version: "65.1"-->
 <g id="Notes">
  <rect height="2200" id="artboard" style="fill:white;opacity:1" width="3300" x="0" y="0"/>
  <line style="fill:none;stroke:black;opacity:1;stroke-width:0.5;" x1="263" x2="3036" y1="292" y2="292"/>
  <text style="stroke:none;fill:black;font-family:sans-serif;font-size:13;font-weight:bold;" transform="matrix(1 0 0 1 263 322)">Weight/Scale Variations</text>
  <text style="stroke:none;fill:black;font-family:sans-serif;font-size:13;text-anchor:middle;" transform="matrix(1 0 0 1 559.711 322)">Ultralight</text>
  <text style="stroke:none;fill:black;font-family:sans-serif;font-size:13;text-anchor:middle;" transform="matrix(1 0 0 1 856.422 322)">Thin</text>
  <text style="stroke:none;fill:black;font-family:sans-serif;font-size:13;text-anchor:middle;" transform="matrix(1 0 0 1 1153.13 322)">Light</text>
  <text style="stroke:none;fill:black;font-family:sans-serif;font-size:13;text-anchor:middle;" transform="matrix(1 0 0 1 1449.84 322)">Regular</text>
  <text style="stroke:none;fill:black;font-family:sans-serif;font-size:13;text-anchor:middle;" transform="matrix(1 0 0 1 1746.56 322)">Medium</text>
  <text style="stroke:none;fill:black;font-family:sans-serif;font-size:13;text-anchor:middle;" transform="matrix(1 0 0 1 2043.27 322)">Semibold</text>
  <text style="stroke:none;fill:black;font-family:sans-serif;font-size:13;text-anchor:middle;" transform="matrix(1 0 0 1 2339.98 322)">Bold</text>
  <text style="stroke:none;fill:black;font-family:sans-serif;font-size:13;text-anchor:middle;" transform="matrix(1 0 0 1 2636.69 322)">Heavy</text>
  <text style="stroke:none;fill:black;font-family:sans-serif;font-size:13;text-anchor:middle;" transform="matrix(1 0 0 1 2933.4 322)">Black</text>
  <line style="fill:none;stroke:black;opacity:1;stroke-width:0.5;" x1="263" x2="3036" y1="1903" y2="1903"/>
  <g transform="matrix(1 0 0 1 263 1933)">
   <path d="M9.24805 0.830078Q10.8691 0.830078 12.2949 0.214844Q13.7207-0.400391 14.8096-1.49414Q15.8984-2.58789 16.5186-4.01367Q17.1387-5.43945 17.1387-7.05078Q17.1387-8.66211 16.5186-10.0879Q15.8984-11.5137 14.8047-12.6074Q13.7109-13.7012 12.2852-14.3164Q10.8594-14.9316 9.23828-14.9316Q7.62695-14.9316 6.20117-14.3164Q4.77539-13.7012 3.69141-12.6074Q2.60742-11.5137 1.9873-10.0879Q1.36719-8.66211 1.36719-7.05078Q1.36719-5.43945 1.9873-4.01367Q2.60742-2.58789 3.69629-1.49414Q4.78516-0.400391 6.21094 0.214844Q7.63672 0.830078 9.24805 0.830078ZM9.24805-0.654297Q7.91992-0.654297 6.7627-1.14746Q5.60547-1.64062 4.73145-2.51953Q3.85742-3.39844 3.36426-4.56055Q2.87109-5.72266 2.87109-7.05078Q2.87109-8.37891 3.35938-9.54102Q3.84766-10.7031 4.72168-11.582Q5.5957-12.4609 6.75293-12.9541Q7.91016-13.4473 9.23828-13.4473Q10.5762-13.4473 11.7334-12.9541Q12.8906-12.4609 13.7695-11.582Q14.6484-10.7031 15.1465-9.54102Q15.6445-8.37891 15.6445-7.05078Q15.6445-5.72266 15.1514-4.56055Q14.6582-3.39844 13.7842-2.51953Q12.9102-1.64062 11.748-1.14746Q10.5859-0.654297 9.24805-0.654297ZM5.6543-7.05078Q5.6543-6.72852 5.85938-6.52832Q6.06445-6.32812 6.40625-6.32812L8.51562-6.32812L8.51562-4.20898Q8.51562-3.88672 8.71094-3.67676Q8.90625-3.4668 9.23828-3.4668Q9.56055-3.4668 9.77051-3.67676Q9.98047-3.88672 9.98047-4.20898L9.98047-6.32812L12.0898-6.32812Q12.4219-6.32812 12.627-6.52832Q12.832-6.72852 12.832-7.05078Q12.832-7.38281 12.627-7.58789Q12.4219-7.79297 12.0898-7.79297L9.98047-7.79297L9.98047-9.90234Q9.98047-10.2344 9.77051-10.4443Q9.56055-10.6543 9.23828-10.6543Q8.90625-10.6543 8.71094-10.4443Q8.51562-10.2344 8.51562-9.90234L8.51562-7.79297L6.40625-7.79297Q6.06445-7.79297 5.85938-7.58789Q5.6543-7.38281 5.6543-7.05078Z"/>
  </g>
  <g transform="matrix(1 0 0 1 281.867 1933)">
   <path d="M11.709 2.91016Q13.75 2.91016 15.5518 2.12891Q17.3535 1.34766 18.7305-0.0292969Q20.1074-1.40625 20.8887-3.20801Q21.6699-5.00977 21.6699-7.05078Q21.6699-9.0918 20.8887-10.8936Q20.1074-12.6953 18.7305-14.0723Q17.3535-15.4492 15.5469-16.2305Q13.7402-17.0117 11.6992-17.0117Q9.6582-17.0117 7.85645-16.2305Q6.05469-15.4492 4.68262-14.0723Q3.31055-12.6953 2.5293-10.8936Q1.74805-9.0918 1.74805-7.05078Q1.74805-5.00977 2.5293-3.20801Q3.31055-1.40625 4.6875-0.0292969Q6.06445 1.34766 7.86621 2.12891Q9.66797 2.91016 11.709 2.91016ZM11.709 1.25Q9.98047 1.25 8.47656 0.605469Q6.97266-0.0390625 5.83496-1.17676Q4.69727-2.31445 4.05762-3.81836Q3.41797-5.32227 3.41797-7.05078Q3.41797-8.7793 4.05762-10.2832Q4.69727-11.7871 5.83008-12.9297Q6.96289-14.0723 8.4668-14.7119Q9.9707-15.3516 11.6992-15.3516Q13.4277-15.3516 14.9316-14.7119Q16.4355-14.0723 17.5781-12.9297Q18.7207-11.7871 19.3652-10.2832Q20.0098-8.7793 20.0098-7.05078Q20.0098-5.32227 19.3701-3.81836Q18.7305-2.31445 17.5928-1.17676Q16.4551-0.0390625 14.9463 0.605469Q13.4375 1.25 11.709 1.25ZM7.17773-7.05078Q7.17773-6.69922 7.41211-6.47461Q7.64648-6.25 8.01758-6.25L10.8887-6.25L10.8887-3.36914Q10.8887-2.99805 11.1133-2.76855Q11.3379-2.53906 11.6895-2.53906Q12.0605-2.53906 12.29-2.76855Q12.5195-2.99805 12.5195-3.36914L12.5195-6.25L15.4004-6.25Q15.7715-6.25 16.001-6.47461Q16.2305-6.69922 16.2305-7.05078Q16.2305-7.42188 16.001-7.65137Q15.7715-7.88086 15.4004-7.88086L12.5195-7.88086L12.5195-10.752Q12.5195-11.1328 12.29-11.3623Q12.0605-11.5918 11.6895-11.5918Q11.3379-11.5918 11.1133-11.3574Q10.8887-11.123 10.8887-10.752L10.8887-7.88086L8.01758-7.88086Q7.63672-7.88086 7.40723-7.65137Q7.17773-7.42188 7.17773-7.05078Z"/>
  </g>
  <g transform="matrix(1 0 0 1 305.646 1933)">
   <path d="M14.9707 5.66406Q17.0605 5.66406 18.96 5.01465Q20.8594 4.36523 22.4512 3.19336Q24.043 2.02148 25.2197 0.429688Q26.3965-1.16211 27.0459-3.06641Q27.6953-4.9707 27.6953-7.05078Q27.6953-9.14062 27.0459-11.04Q26.3965-12.9395 25.2197-14.5312Q24.043-16.123 22.4512-17.2998Q20.8594-18.4766 18.9551-19.126Q17.0508-19.7754 14.9609-19.7754Q12.8711-19.7754 10.9717-19.126Q9.07227-18.4766 7.48535-17.2998Q5.89844-16.123 4.72168-14.5312Q3.54492-12.9395 2.90039-11.04Q2.25586-9.14062 2.25586-7.05078Q2.25586-4.9707 2.90527-3.06641Q3.55469-1.16211 4.72656 0.429688Q5.89844 2.02148 7.49023 3.19336Q9.08203 4.36523 10.9814 5.01465Q12.8809 5.66406 14.9707 5.66406ZM14.9707 3.84766Q13.1641 3.84766 11.5283 3.2959Q9.89258 2.74414 8.53516 1.74805Q7.17773 0.751953 6.17676-0.610352Q5.17578-1.97266 4.62891-3.6084Q4.08203-5.24414 4.08203-7.05078Q4.08203-8.86719 4.62891-10.5029Q5.17578-12.1387 6.17188-13.501Q7.16797-14.8633 8.52539-15.8594Q9.88281-16.8555 11.5186-17.4023Q13.1543-17.9492 14.9609-17.9492Q16.7773-17.9492 18.4131-17.4023Q20.0488-16.8555 21.4111-15.8594Q22.7734-14.8633 23.7695-13.501Q24.7656-12.1387 25.3174-10.5029Q25.8691-8.86719 25.8691-7.05078Q25.8789-5.24414 25.332-3.6084Q24.7852-1.97266 23.7842-0.610352Q22.7832 0.751953 21.4209 1.74805Q20.0586 2.74414 18.4229 3.2959Q16.7871 3.84766 14.9707 3.84766ZM9.19922-7.05078Q9.19922-6.66992 9.45801-6.4209Q9.7168-6.17188 10.1172-6.17188L14.0625-6.17188L14.0625-2.2168Q14.0625-1.81641 14.3115-1.55762Q14.5605-1.29883 14.9512-1.29883Q15.3516-1.29883 15.6104-1.55273Q15.8691-1.80664 15.8691-2.2168L15.8691-6.17188L19.8242-6.17188Q20.2246-6.17188 20.4785-6.4209Q20.7324-6.66992 20.7324-7.05078Q20.7324-7.46094 20.4785-7.71484Q20.2246-7.96875 19.8242-7.96875L15.8691-7.96875L15.8691-11.9141Q15.8691-12.3242 15.6104-12.583Q15.3516-12.8418 14.9512-12.8418Q14.5605-12.8418 14.3115-12.583Q14.0625-12.3242 14.0625-11.9141L14.0625-7.96875L10.1172-7.96875Q9.70703-7.96875 9.45312-7.71484Q9.19922-7.46094 9.19922-7.05078Z"/>
  </g>
  <text style="stroke:none;fill:black;font-family:sans-serif;font-size:13;font-weight:bold;" transform="matrix(1 0 0 1 263 1953)">Design Variations</text>
  <text style="stroke:none;fill:black;font-family:sans-serif;font-size:13;" transform="matrix(1 0 0 1 263 1971)">Symbols are supported in up to nine weights and three scales.</text>
  <text style="stroke:none;fill:black;font-family:sans-serif;font-size:13;" transform="matrix(1 0 0 1 263 1989)">For optimal layout with text and other symbols, vertically align</text>
  <text style="stroke:none;fill:black;font-family:sans-serif;font-size:13;" transform="matrix(1 0 0 1 263 2007)">symbols with the adjacent text.</text>
  <line style="fill:none;stroke:#00AEEF;stroke-width:0.5;opacity:1.0;" x1="776" x2="776" y1="1919" y2="1933"/>
  <g transform="matrix(1 0 0 1 776 1933)">
   <path d="M3.31055 0.15625Q3.70117 0.15625 3.91602-0.00976562Q4.13086-0.175781 4.26758-0.585938L5.52734-4.0332L11.2891-4.0332L12.5488-0.585938Q12.6855-0.175781 12.9004-0.00976562Q13.1152 0.15625 13.4961 0.15625Q13.8867 0.15625 14.1162-0.0585938Q14.3457-0.273438 14.3457-0.644531Q14.3457-0.869141 14.2383-1.17188L9.6582-13.3691Q9.48242-13.8184 9.17969-14.043Q8.87695-14.2676 8.4082-14.2676Q7.5-14.2676 7.17773-13.3789L2.59766-1.16211Q2.49023-0.859375 2.49023-0.634766Q2.49023-0.263672 2.70996-0.0537109Q2.92969 0.15625 3.31055 0.15625ZM6.00586-5.51758L8.37891-12.0898L8.42773-12.0898L10.8008-5.51758Z"/>
  </g>
  <line style="fill:none;stroke:#00AEEF;stroke-width:0.5;opacity:1.0;" x1="793.197" x2="793.197" y1="1919" y2="1933"/>
  <text style="stroke:none;fill:black;font-family:sans-serif;font-size:13;font-weight:bold;" transform="matrix(1 0 0 1 776 1953)">Margins</text>
  <text style="stroke:none;fill:black;font-family:sans-serif;font-size:13;" transform="matrix(1 0 0 1 776 1971)">Leading and trailing margins on the left and right side of each symbol</text>
  <text style="stroke:none;fill:black;font-family:sans-serif;font-size:13;" transform="matrix(1 0 0 1 776 1989)">can be adjusted by modifying the x-location of the margin guidelines.</text>
  <text style="stroke:none;fill:black;font-family:sans-serif;font-size:13;" transform="matrix(1 0 0 1 776 2007)">Modifications are automatically applied proportionally to all</text>
  <text style="stroke:none;fill:black;font-family:sans-serif;font-size:13;" transform="matrix(1 0 0 1 776 2025)">scales and weights.</text>
  <g transform="matrix(1 0 0 1 1289 1933)">
   <path d="M2.8418 1.86523L4.54102 3.57422Q5.18555 4.22852 5.90332 4.17969Q6.62109 4.13086 7.31445 3.35938L18.0078-8.42773L17.041-9.4043L6.42578 2.27539Q6.16211 2.57812 5.89355 2.61719Q5.625 2.65625 5.27344 2.30469L4.10156 1.14258Q3.75 0.791016 3.79395 0.522461Q3.83789 0.253906 4.14062-0.0195312L15.6152-10.8203L14.6387-11.7871L3.04688-0.898438Q2.30469-0.214844 2.25098 0.498047Q2.19727 1.21094 2.8418 1.86523ZM9.25781-16.3281Q8.94531-16.0254 8.90625-15.6348Q8.86719-15.2441 9.04297-14.9512Q9.21875-14.6777 9.55566-14.541Q9.89258-14.4043 10.3809-14.5215Q11.4746-14.7754 12.5977-14.7314Q13.7207-14.6875 14.7949-13.9844L14.209-12.5293Q13.9551-11.9043 14.0674-11.4404Q14.1797-10.9766 14.5801-10.5664L16.875-8.25195Q17.2363-7.88086 17.5781-7.82227Q17.9199-7.76367 18.3398-7.8418L19.4043-8.03711L20.0684-7.36328L20.0293-6.80664Q20-6.43555 20.1221-6.12305Q20.2441-5.81055 20.6055-5.44922L21.3672-4.70703Q21.7285-4.3457 22.1533-4.33105Q22.5781-4.31641 22.9297-4.66797L25.8398-7.58789Q26.1914-7.93945 26.1816-8.35449Q26.1719-8.76953 25.8105-9.13086L25.0391-9.89258Q24.6875-10.2539 24.3799-10.3857Q24.0723-10.5176 23.7109-10.4883L23.1348-10.4395L22.4902-11.0742L22.7344-12.1973Q22.832-12.6172 22.6953-12.9834Q22.5586-13.3496 22.1191-13.7891L19.9219-15.9766Q18.6719-17.2168 17.2607-17.8369Q15.8496-18.457 14.4189-18.4814Q12.9883-18.5059 11.665-17.959Q10.3418-17.4121 9.25781-16.3281ZM10.752-15.957Q11.6602-16.6211 12.7002-16.9043Q13.7402-17.1875 14.8047-17.085Q15.8691-16.9824 16.8701-16.5137Q17.8711-16.0449 18.7012-15.2051L21.1328-12.793Q21.3086-12.6172 21.3525-12.4512Q21.3965-12.2852 21.3379-12.0312L21.0156-10.5469L22.5195-9.0625L23.5059-9.12109Q23.6914-9.13086 23.7891-9.09668Q23.8867-9.0625 24.0332-8.91602L24.6094-8.33984L22.168-5.89844L21.5918-6.47461Q21.4453-6.62109 21.4062-6.71875Q21.3672-6.81641 21.377-7.01172L21.4453-7.98828L19.9512-9.47266L18.4277-9.21875Q18.1836-9.16992 18.042-9.2041Q17.9004-9.23828 17.7148-9.41406L15.7129-11.416Q15.5176-11.5918 15.4932-11.7529Q15.4688-11.9141 15.5859-12.1875L16.4648-14.2773Q15.293-15.3711 13.8281-15.791Q12.3633-16.2109 10.8398-15.7617Q10.7227-15.7324 10.6885-15.8057Q10.6543-15.8789 10.752-15.957Z"/>
  </g>
  <text style="stroke:none;fill:black;font-family:sans-serif;font-size:13;font-weight:bold;" transform="matrix(1 0 0 1 1289 1953)">Exporting</text>
  <text style="stroke:none;fill:black;font-family:sans-serif;font-size:13;" transform="matrix(1 0 0 1 1289 1971)">Symbols should be outlined when exporting to ensure the</text>
  <text style="stroke:none;fill:black;font-family:sans-serif;font-size:13;" transform="matrix(1 0 0 1 1289 1989)">design is preserved when submitting to Xcode.</text>
  <text id="template-version" style="stroke:none;fill:black;font-family:sans-serif;font-size:13;text-anchor:end;" transform="matrix(1 0 0 1 3036 1933)">Template v.3.0</text>
  <text style="stroke:none;fill:black;font-family:sans-serif;font-size:13;text-anchor:end;" transform="matrix(1 0 0 1 3036 1951)">Requires Xcode 13 or greater</text>
  <text id="descriptive-name" style="stroke:none;fill:black;font-family:sans-serif;font-size:13;text-anchor:end;" transform="matrix(1 0 0 1 3036 1969)">Generated from eye</text>
  <text style="stroke:none;fill:black;font-family:sans-serif;font-size:13;text-anchor:end;" transform="matrix(1 0 0 1 3036 1987)">Typeset at 100 points</text>
  <text style="stroke:none;fill:black;font-family:sans-serif;font-size:13;" transform="matrix(1 0 0 1 263 726)">Small</text>
  <text style="stroke:none;fill:black;font-family:sans-serif;font-size:13;" transform="matrix(1 0 0 1 263 1156)">Medium</text>
  <text style="stroke:none;fill:black;font-family:sans-serif;font-size:13;" transform="matrix(1 0 0 1 263 1586)">Large</text>
 </g>
 <g id="Guides">
  <g id="H-reference" style="fill:#27AAE1;stroke:none;" transform="matrix(1 0 0 1 339 696)">
   <path d="M0.993347 0L3.6377 0L29.3282-67.1326L30.0301-67.1326L30.0301-70.459L28.1227-70.459ZM11.6882-24.4797L46.9818-24.4797L46.2311-26.7288L12.4382-26.7288ZM55.1193 0L57.7637 0L30.6381-70.459L29.4327-70.459L29.4327-67.1326Z"/>
  </g>
  <line id="Baseline-S" style="fill:none;stroke:#27AAE1;opacity:1;stroke-width:0.5;" x1="263" x2="3036" y1="696" y2="696"/>
  <line id="Capline-S" style="fill:none;stroke:#27AAE1;opacity:1;stroke-width:0.5;" x1="263" x2="3036" y1="625.541" y2="625.541"/>
  <g id="H-reference" style="fill:#27AAE1;stroke:none;" transform="matrix(1 0 0 1 339 1126)">
   <path d="M0.993347 0L3.6377 0L29.3282-67.1326L30.0301-67.1326L30.0301-70.459L28.1227-70.459ZM11.6882-24.4797L46.9818-24.4797L46.2311-26.7288L12.4382-26.7288ZM55.1193 0L57.7637 0L30.6381-70.459L29.4327-70.459L29.4327-67.1326Z"/>
  </g>
  <line id="Baseline-M" style="fill:none;stroke:#27AAE1;opacity:1;stroke-width:0.5;" x1="263" x2="3036" y1="1126" y2="1126"/>
  <line id="Capline-M" style="fill:none;stroke:#27AAE1;opacity:1;stroke-width:0.5;" x1="263" x2="3036" y1="1055.54" y2="1055.54"/>
  <g id="H-reference" style="fill:#27AAE1;stroke:none;" transform="matrix(1 0 0 1 339 1556)">
   <path d="M0.993347 0L3.6377 0L29.3282-67.1326L30.0301-67.1326L30.0301-70.459L28.1227-70.459ZM11.6882-24.4797L46.9818-24.4797L46.2311-26.7288L12.4382-26.7288ZM55.1193 0L57.7637 0L30.6381-70.459L29.4327-70.459L29.4327-67.1326Z"/>
  </g>
  <line id="Baseline-L" style="fill:none;stroke:#27AAE1;opacity:1;stroke-width:0.5;" x1="263" x2="3036" y1="1556" y2="1556"/>
  <line id="Capline-L" style="fill:none;stroke:#27AAE1;opacity:1;stroke-width:0.5;" x1="263" x2="3036" y1="1485.54" y2="1485.54"/>
  <line id="left-margin-Ultralight-S" style="fill:none;stroke:#00AEEF;stroke-width:0.5;opacity:1.0;" x1="502.132" x2="502.132" y1="600.785" y2="720.121"/>
  <line id="right-margin-Ultralight-S" style="fill:none;stroke:#00AEEF;stroke-width:0.5;opacity:1.0;" x1="617.29" x2="617.29" y1="600.785" y2="720.121"/>
  <line id="left-margin-Thin-S" style="fill:none;stroke:#00AEEF;stroke-width:0.5;opacity:1.0;" x1="798.151" x2="798.151" y1="600.785" y2="720.121"/>
  <line id="right-margin-Thin-S" style="fill:none;stroke:#00AEEF;stroke-width:0.5;opacity:1.0;" x1="914.694" x2="914.694" y1="600.785" y2="720.121"/>
  <line id="left-margin-Light-S" style="fill:none;stroke:#00AEEF;stroke-width:0.5;opacity:1.0;" x1="1093.51" x2="1093.51" y1="600.785" y2="720.121"/>
  <line id="right-margin-Light-S" style="fill:none;stroke:#00AEEF;stroke-width:0.5;opacity:1.0;" x1="1212.76" x2="1212.76" y1="600.785" y2="720.121"/>
  <line id="left-margin-Regular-S" style="fill:none;stroke:#00AEEF;stroke-width:0.5;opacity:1.0;" x1="1389.2" x2="1389.2" y1="600.785" y2="720.121"/>
  <line id="right-margin-Regular-S" style="fill:none;stroke:#00AEEF;stroke-width:0.5;opacity:1.0;" x1="1510.49" x2="1510.49" y1="600.785" y2="720.121"/>
  <line id="left-margin-Medium-S" style="fill:none;stroke:#00AEEF;stroke-width:0.5;opacity:1.0;" x1="1685.71" x2="1685.71" y1="600.785" y2="720.121"/>
  <line id="right-margin-Medium-S" style="fill:none;stroke:#00AEEF;stroke-width:0.5;opacity:1.0;" x1="1807.4" x2="1807.4" y1="600.785" y2="720.121"/>
  <line id="left-margin-Semibold-S" style="fill:none;stroke:#00AEEF;stroke-width:0.5;opacity:1.0;" x1="1982.27" x2="1982.27" y1="600.785" y2="720.121"/>
  <line id="right-margin-Semibold-S" style="fill:none;stroke:#00AEEF;stroke-width:0.5;opacity:1.0;" x1="2104.26" x2="2104.26" y1="600.785" y2="720.121"/>
  <line id="left-margin-Bold-S" style="fill:none;stroke:#00AEEF;stroke-width:0.5;opacity:1.0;" x1="2278.78" x2="2278.78" y1="600.785" y2="720.121"/>
  <line id="right-margin-Bold-S" style="fill:none;stroke:#00AEEF;stroke-width:0.5;opacity:1.0;" x1="2401.17" x2="2401.17" y1="600.785" y2="720.121"/>
  <line id="left-margin-Heavy-S" style="fill:none;stroke:#00AEEF;stroke-width:0.5;opacity:1.0;" x1="2575.21" x2="2575.21" y1="600.785" y2="720.121"/>
  <line id="right-margin-Heavy-S" style="fill:none;stroke:#00AEEF;stroke-width:0.5;opacity:1.0;" x1="2698.17" x2="2698.17" y1="600.785" y2="720.121"/>
  <line id="left-margin-Black-S" style="fill:none;stroke:#00AEEF;stroke-width:0.5;opacity:1.0;" x1="2871.66" x2="2871.66" y1="600.785" y2="720.121"/>
  <line id="right-margin-Black-S" style="fill:none;stroke:#00AEEF;stroke-width:0.5;opacity:1.0;" x1="2995.14" x2="2995.14" y1="600.785" y2="720.121"/>
  <line id="left-margin-Ultralight-M" style="fill:none;stroke:#00AEEF;stroke-width:0.5;opacity:1.0;" x1="486.5" x2="486.5" y1="1030.79" y2="1150.12"/>
  <line id="right-margin-Ultralight-M" style="fill:none;stroke:#00AEEF;stroke-width:0.5;opacity:1.0;" x1="632.922" x2="632.922" y1="1030.79" y2="1150.12"/>
  <line id="left-margin-Thin-M" style="fill:none;stroke:#00AEEF;stroke-width:0.5;opacity:1.0;" x1="782.427" x2="782.427" y1="1030.79" y2="1150.12"/>
  <line id="right-margin-Thin-M" style="fill:none;stroke:#00AEEF;stroke-width:0.5;opacity:1.0;" x1="930.417" x2="930.417" y1="1030.79" y2="1150.12"/>
  <line id="left-margin-Light-M" style="fill:none;stroke:#00AEEF;stroke-width:0.5;opacity:1.0;" x1="1077.61" x2="1077.61" y1="1030.79" y2="1150.12"/>
  <line id="right-margin-Light-M" style="fill:none;stroke:#00AEEF;stroke-width:0.5;opacity:1.0;" x1="1228.66" x2="1228.66" y1="1030.79" y2="1150.12"/>
  <line id="left-margin-Regular-M" style="fill:none;stroke:#00AEEF;stroke-width:0.5;opacity:1.0;" x1="1373.16" x2="1373.16" y1="1030.79" y2="1150.12"/>
  <line id="right-margin-Regular-M" style="fill:none;stroke:#00AEEF;stroke-width:0.5;opacity:1.0;" x1="1526.53" x2="1526.53" y1="1030.79" y2="1150.12"/>
  <line id="left-margin-Medium-M" style="fill:none;stroke:#00AEEF;stroke-width:0.5;opacity:1.0;" x1="1669.51" x2="1669.51" y1="1030.79" y2="1150.12"/>
  <line id="right-margin-Medium-M" style="fill:none;stroke:#00AEEF;stroke-width:0.5;opacity:1.0;" x1="1823.6" x2="1823.6" y1="1030.79" y2="1150.12"/>
  <line id="left-margin-Semibold-M" style="fill:none;stroke:#00AEEF;stroke-width:0.5;opacity:1.0;" x1="1965.95" x2="1965.95" y1="1030.79" y2="1150.12"/>
  <line id="right-margin-Semibold-M" style="fill:none;stroke:#00AEEF;stroke-width:0.5;opacity:1.0;" x1="2120.59" x2="2120.59" y1="1030.79" y2="1150.12"/>
  <line id="left-margin-Bold-M" style="fill:none;stroke:#00AEEF;stroke-width:0.5;opacity:1.0;" x1="2262.29" x2="2262.29" y1="1030.79" y2="1150.12"/>
  <line id="right-margin-Bold-M" style="fill:none;stroke:#00AEEF;stroke-width:0.5;opacity:1.0;" x1="2417.66" x2="2417.66" y1="1030.79" y2="1150.12"/>
  <line id="left-margin-Heavy-M" style="fill:none;stroke:#00AEEF;stroke-width:0.5;opacity:1.0;" x1="2558.47" x2="2558.47" y1="1030.79" y2="1150.12"/>
  <line id="right-margin-Heavy-M" style="fill:none;stroke:#00AEEF;stroke-width:0.5;opacity:1.0;" x1="2714.9" x2="2714.9" y1="1030.79" y2="1150.12"/>
  <line id="left-margin-Black-M" style="fill:none;stroke:#00AEEF;stroke-width:0.5;opacity:1.0;" x1="2854.71" x2="2854.71" y1="1030.79" y2="1150.12"/>
  <line id="right-margin-Black-M" style="fill:none;stroke:#00AEEF;stroke-width:0.5;opacity:1.0;" x1="3012.09" x2="3012.09" y1="1030.79" y2="1150.12"/>
  <line id="left-margin-Ultralight-L" style="fill:none;stroke:#00AEEF;stroke-width:0.5;opacity:1.0;" x1="465.526" x2="465.526" y1="1460.79" y2="1580.12"/>
  <line id="right-margin-Ultralight-L" style="fill:none;stroke:#00AEEF;stroke-width:0.5;opacity:1.0;" x1="653.896" x2="653.896" y1="1460.79" y2="1580.12"/>
  <line id="left-margin-Thin-L" style="fill:none;stroke:#00AEEF;stroke-width:0.5;opacity:1.0;" x1="761.37" x2="761.37" y1="1460.79" y2="1580.12"/>
  <line id="right-margin-Thin-L" style="fill:none;stroke:#00AEEF;stroke-width:0.5;opacity:1.0;" x1="951.474" x2="951.474" y1="1460.79" y2="1580.12"/>
  <line id="left-margin-Light-L" style="fill:none;stroke:#00AEEF;stroke-width:0.5;opacity:1.0;" x1="1056.39" x2="1056.39" y1="1460.79" y2="1580.12"/>
  <line id="right-margin-Light-L" style="fill:none;stroke:#00AEEF;stroke-width:0.5;opacity:1.0;" x1="1249.88" x2="1249.88" y1="1460.79" y2="1580.12"/>
  <line id="left-margin-Regular-L" style="fill:none;stroke:#00AEEF;stroke-width:0.5;opacity:1.0;" x1="1351.82" x2="1351.82" y1="1460.79" y2="1580.12"/>
  <line id="right-margin-Regular-L" style="fill:none;stroke:#00AEEF;stroke-width:0.5;opacity:1.0;" x1="1547.87" x2="1547.87" y1="1460.79" y2="1580.12"/>
  <line id="left-margin-Medium-L" style="fill:none;stroke:#00AEEF;stroke-width:0.5;opacity:1.0;" x1="1647.94" x2="1647.94" y1="1460.79" y2="1580.12"/>
  <line id="right-margin-Medium-L" style="fill:none;stroke:#00AEEF;stroke-width:0.5;opacity:1.0;" x1="1845.17" x2="1845.17" y1="1460.79" y2="1580.12"/>
  <line id="left-margin-Semibold-L" style="fill:none;stroke:#00AEEF;stroke-width:0.5;opacity:1.0;" x1="1944.2" x2="1944.2" y1="1460.79" y2="1580.12"/>
  <line id="right-margin-Semibold-L" style="fill:none;stroke:#00AEEF;stroke-width:0.5;opacity:1.0;" x1="2142.33" x2="2142.33" y1="1460.79" y2="1580.12"/>
  <line id="left-margin-Bold-L" style="fill:none;stroke:#00AEEF;stroke-width:0.5;opacity:1.0;" x1="2240.32" x2="2240.32" y1="1460.79" y2="1580.12"/>
  <line id="right-margin-Bold-L" style="fill:none;stroke:#00AEEF;stroke-width:0.5;opacity:1.0;" x1="2439.64" x2="2439.64" y1="1460.79" y2="1580.12"/>
  <line id="left-margin-Heavy-L" style="fill:none;stroke:#00AEEF;stroke-width:0.5;opacity:1.0;" x1="2536.17" x2="2536.17" y1="1460.79" y2="1580.12"/>
  <line id="right-margin-Heavy-L" style="fill:none;stroke:#00AEEF;stroke-width:0.5;opacity:1.0;" x1="2737.21" x2="2737.21" y1="1460.79" y2="1580.12"/>
  <line id="left-margin-Black-L" style="fill:none;stroke:#00AEEF;stroke-width:0.5;opacity:1.0;" x1="2832.11" x2="2832.11" y1="1460.79" y2="1580.12"/>
  <line id="right-margin-Black-L" style="fill:none;stroke:#00AEEF;stroke-width:0.5;opacity:1.0;" x1="3034.69" x2="3034.69" y1="1460.79" y2="1580.12"/>
 </g>
 <g id="Symbols">
  <g id="Black-L" transform="matrix(1 0 0 1 2832.11 1556)">
   <path d="M101.27 21.2891Q114.893 21.2891 126.709 18.0908Q138.525 14.8926 148.364 9.59473Q158.203 4.29688 165.894-2.02637Q173.584-8.34961 178.882-14.7217Q184.18-21.0938 186.938-26.4893Q189.697-31.8848 189.697-35.1074Q189.697-38.3789 186.938-43.75Q184.18-49.1211 178.882-55.4932Q173.584-61.8652 165.894-68.1885Q158.203-74.5117 148.364-79.8096Q138.525-85.1074 126.709-88.3057Q114.893-91.5039 101.27-91.5039Q87.8906-91.5039 76.1719-88.3057Q64.4531-85.1074 54.6143-79.8096Q44.7754-74.5117 37.0361-68.1885Q29.2969-61.8652 23.9014-55.4932Q18.5059-49.1211 15.6982-43.75Q12.8906-38.3789 12.8906-35.1074Q12.8906-31.8848 15.6982-26.4893Q18.5059-21.0938 23.9014-14.7217Q29.2969-8.34961 37.0361-2.02637Q44.7754 4.29688 54.6143 9.59473Q64.4531 14.8926 76.1719 18.0908Q87.8906 21.2891 101.27 21.2891ZM101.27 1.5625Q92.2852 1.5625 84.1797-0.512695Q76.0742-2.58789 69.0918-6.05469Q62.1094-9.52148 56.4941-13.6475Q50.8789-17.7734 46.875-21.9238Q42.8711-26.0742 40.7471-29.5654Q38.623-33.0566 38.623-35.1074Q38.623-36.8164 40.7471-40.1367Q42.8711-43.457 46.875-47.6074Q50.8789-51.7578 56.4941-55.9814Q62.1094-60.2051 69.0918-63.7939Q76.0742-67.3828 84.1797-69.5801Q92.2852-71.7773 101.27-71.7773Q110.254-71.7773 118.359-69.5801Q126.465-67.3828 133.472-63.7939Q140.479-60.2051 146.094-55.9814Q151.709-51.7578 155.713-47.6074Q159.717-43.457 161.841-40.1367Q163.965-36.8164 163.965-35.1074Q163.965-33.0566 161.841-29.5654Q159.717-26.0742 155.713-21.9238Q151.709-17.7734 146.094-13.6475Q140.479-9.52148 133.472-6.05469Q126.465-2.58789 118.359-0.512695Q110.254 1.5625 101.27 1.5625ZM101.318-5.66406Q107.52-5.66406 112.842-7.9834Q118.164-10.3027 122.192-14.3799Q126.221-18.457 128.491-23.8037Q130.762-29.1504 130.762-35.1074Q130.762-41.2598 128.491-46.582Q126.221-51.9043 122.192-55.9326Q118.164-59.9609 112.842-62.2314Q107.52-64.502 101.318-64.502Q95.166-64.502 89.8193-62.2314Q84.4727-59.9609 80.4199-55.957Q76.3672-51.9531 74.0967-46.6064Q71.8262-41.2598 71.8262-35.1074Q71.8262-29.1504 74.1211-23.8037Q76.416-18.457 80.4443-14.3799Q84.4727-10.3027 89.8193-7.9834Q95.166-5.66406 101.318-5.66406ZM101.221-26.5137Q98.877-26.5137 96.9482-27.6855Q95.0195-28.8574 93.8721-30.835Q92.7246-32.8125 92.7246-35.1074Q92.7246-37.4512 93.8721-39.4043Q95.0195-41.3574 96.9482-42.5293Q98.877-43.7012 101.221-43.7012Q103.613-43.7012 105.566-42.5293Q107.52-41.3574 108.691-39.4043Q109.863-37.4512 109.863-35.1074Q109.863-32.8125 108.691-30.835Q107.52-28.8574 105.566-27.6855Q103.613-26.5137 101.221-26.5137Z"/>
  </g>
  <g id="Heavy-L" transform="matrix(1 0 0 1 2536.17 1556)">
   <path d="M100.509 20.6207Q113.879 20.6207 125.539 17.4629Q137.2 14.3051 146.952 9.07631Q156.705 3.8475 164.361-2.40097Q172.017-8.64944 177.315-14.9464Q182.613-21.2433 185.383-26.5812Q188.153-31.9191 188.153-35.1303Q188.153-38.3789 185.383-43.6981Q182.613-49.0173 177.309-55.3146Q172.005-61.6119 164.349-67.86Q156.693-74.1081 146.935-79.3312Q137.177-84.5543 125.522-87.7121Q113.867-90.8699 100.509-90.8699Q87.3718-90.8699 75.7973-87.7121Q64.2227-84.5543 54.4643-79.3312Q44.706-74.1081 37.0071-67.86Q29.3083-61.6119 23.9185-55.3146Q18.5287-49.0173 15.7097-43.6981Q12.8906-38.3789 12.8906-35.1303Q12.8906-31.9191 15.704-26.5812Q18.5173-21.2433 23.9071-14.9464Q29.2969-8.64944 36.9957-2.40097Q44.6945 3.8475 54.4529 9.07631Q64.2113 14.3051 75.7858 17.4629Q87.3604 20.6207 100.509 20.6207ZM100.509 3.51028Q91.1446 3.51028 82.6645 1.29662Q74.1844-0.917053 66.8617-4.58527Q59.539-8.25348 53.6301-12.616Q47.7211-16.9785 43.504-21.3535Q39.2868-25.7286 37.0419-29.3755Q34.7969-33.0223 34.7969-35.1303Q34.7969-36.9087 37.0419-40.4018Q39.2868-43.895 43.504-48.2643Q47.7211-52.6337 53.6301-57.0934Q59.539-61.5532 66.8617-65.3381Q74.1844-69.1231 82.6645-71.447Q91.1446-73.7709 100.509-73.7709Q109.874-73.7709 118.348-71.447Q126.822-69.1231 134.169-65.3381Q141.516-61.5532 147.419-57.0934Q153.323-52.6337 157.54-48.2643Q161.757-43.895 164.002-40.4018Q166.247-36.9087 166.247-35.1303Q166.247-33.0223 164.002-29.3755Q161.757-25.7286 157.54-21.3535Q153.323-16.9785 147.419-12.616Q141.516-8.25348 134.169-4.58527Q126.822-0.917053 118.348 1.29662Q109.874 3.51028 100.509 3.51028ZM100.546-4.31595Q107.012-4.31595 112.594-6.74477Q118.176-9.17358 122.4-13.435Q126.624-17.6964 129.004-23.2849Q131.384-28.8734 131.384-35.1303Q131.384-41.571 129.004-47.1466Q126.624-52.7222 122.4-56.9408Q118.176-61.1595 112.594-63.5281Q107.012-65.8966 100.546-65.8966Q94.1055-65.8966 88.4998-63.5281Q82.8941-61.1595 78.651-56.9595Q74.408-52.7596 72.0337-47.1653Q69.6594-41.571 69.6594-35.1303Q69.6709-28.8734 72.0695-23.2849Q74.4682-17.6964 78.6869-13.435Q82.9056-9.17358 88.5056-6.74477Q94.1055-4.31595 100.546-4.31595ZM100.483-25.8797Q97.9317-25.8797 95.8416-27.1381Q93.7515-28.3966 92.5064-30.518Q91.2613-32.6393 91.2613-35.1303Q91.2613-37.6701 92.5064-39.7732Q93.7515-41.8762 95.8416-43.1343Q97.9317-44.3924 100.483-44.3924Q103.049-44.3924 105.157-43.1343Q107.266-41.8762 108.53-39.7732Q109.794-37.6701 109.794-35.1303Q109.794-32.6393 108.53-30.518Q107.266-28.3966 105.157-27.1381Q103.049-25.8797 100.483-25.8797Z"/>
  </g>
  <g id="Bold-L" transform="matrix(1 0 0 1 2240.32 1556)">
   <path d="M99.6582 19.873Q112.744 19.873 124.231 16.7603Q135.718 13.6475 145.374 8.49609Q155.029 3.34473 162.646-2.81982Q170.264-8.98438 175.562-15.1978Q180.859-21.4111 183.643-26.6846Q186.426-31.958 186.426-35.1562Q186.426-38.3789 183.643-43.6401Q180.859-48.9014 175.549-55.1147Q170.239-61.3281 162.622-67.4927Q155.005-73.6572 145.337-78.7964Q135.669-83.9355 124.194-87.0483Q112.72-90.1611 99.6582-90.1611Q86.792-90.1611 75.3784-87.0483Q63.9648-83.9355 54.2969-78.7964Q44.6289-73.6572 36.9751-67.4927Q29.3213-61.3281 23.938-55.1147Q18.5547-48.9014 15.7227-43.6401Q12.8906-38.3789 12.8906-35.1562Q12.8906-31.958 15.7104-26.6846Q18.5303-21.4111 23.9136-15.1978Q29.2969-8.98438 36.9507-2.81982Q44.6045 3.34473 54.2725 8.49609Q63.9404 13.6475 75.354 16.7603Q86.7676 19.873 99.6582 19.873ZM99.6582 5.68848Q89.8682 5.68848 80.9692 3.32031Q72.0703 0.952148 64.3677-2.94189Q56.665-6.83594 50.4272-11.4624Q44.1895-16.0889 39.7339-20.7153Q35.2783-25.3418 32.8979-29.1626Q30.5176-32.9834 30.5176-35.1562Q30.5176-37.0117 32.8979-40.6982Q35.2783-44.3848 39.7339-48.999Q44.1895-53.6133 50.4272-58.3374Q56.665-63.0615 64.3677-67.0654Q72.0703-71.0693 80.9692-73.5352Q89.8682-76.001 99.6582-76.001Q109.448-76.001 118.335-73.5352Q127.222-71.0693 134.949-67.0654Q142.676-63.0615 148.901-58.3374Q155.127-53.6133 159.583-48.999Q164.038-44.3848 166.418-40.6982Q168.799-37.0117 168.799-35.1562Q168.799-32.9834 166.418-29.1626Q164.038-25.3418 159.583-20.7153Q155.127-16.0889 148.901-11.4624Q142.676-6.83594 134.949-2.94189Q127.222 0.952148 118.335 3.32031Q109.448 5.68848 99.6582 5.68848ZM99.6826-2.80762Q106.445-2.80762 112.317-5.35889Q118.188-7.91016 122.632-12.3779Q127.075-16.8457 129.578-22.7051Q132.08-28.5645 132.08-35.1562Q132.08-41.9189 129.578-47.7783Q127.075-53.6377 122.632-58.0688Q118.188-62.5 112.317-64.978Q106.445-67.4561 99.6826-67.4561Q92.9199-67.4561 87.0239-64.978Q81.1279-62.5 76.6724-58.0811Q72.2168-53.6621 69.7266-47.7905Q67.2363-41.9189 67.2363-35.1562Q67.2607-28.5645 69.7754-22.7051Q72.29-16.8457 76.7212-12.3779Q81.1523-7.91016 87.0361-5.35889Q92.9199-2.80762 99.6826-2.80762ZM99.6582-25.1709Q96.875-25.1709 94.6045-26.5259Q92.334-27.8809 90.979-30.1636Q89.624-32.4463 89.624-35.1562Q89.624-37.915 90.979-40.1855Q92.334-42.4561 94.6045-43.811Q96.875-45.166 99.6582-45.166Q102.417-45.166 104.7-43.811Q106.982-42.4561 108.35-40.1855Q109.717-37.915 109.717-35.1562Q109.717-32.4463 108.35-30.1636Q106.982-27.8809 104.7-26.5259Q102.417-25.1709 99.6582-25.1709Z"/>
  </g>
  <g id="Semibold-L" transform="matrix(1 0 0 1 1944.2 1556)">
   <path d="M99.0715 19.3573Q111.962 19.3573 123.329 16.2758Q134.695 13.1943 144.285 8.09631Q153.874 2.99835 161.465-3.1086Q169.055-9.21555 174.353-15.3709Q179.651-21.5263 182.443-26.7555Q185.235-31.9847 185.235-35.1738Q185.235-38.3789 182.443-43.6001Q179.651-48.8213 174.336-54.977Q169.022-61.1328 161.431-67.2394Q153.841-73.3459 144.235-78.4275Q134.629-83.5091 123.279-86.5906Q111.929-89.6721 99.0715-89.6721Q86.3922-89.6721 75.0896-86.5906Q63.7871-83.5091 54.1813-78.4275Q44.5755-73.3459 36.953-67.2394Q29.3304-61.1328 23.9513-54.977Q18.5722-48.8213 15.7314-43.6001Q12.8906-38.3789 12.8906-35.1738Q12.8906-31.9847 15.715-26.7555Q18.5394-21.5263 23.9182-15.3709Q29.2969-9.21555 36.9194-3.1086Q44.5419 2.99835 54.1477 8.09631Q63.7535 13.1943 75.0561 16.2758Q86.3586 19.3573 99.0715 19.3573ZM99.0715 7.1907Q88.9885 7.1907 79.8008 4.71573Q70.6131 2.24075 62.648-1.80893Q54.6829-5.85861 48.2185-10.667Q41.7542-15.4755 37.1342-20.2755Q32.5142-25.0755 30.0407-29.0161Q27.5673-32.9567 27.5673-35.1738Q27.5673-37.0827 30.0407-40.9027Q32.5142-44.7227 37.1342-49.5056Q41.7542-54.2885 48.2185-59.1949Q54.6829-64.1014 62.648-68.2564Q70.6131-72.4113 79.8008-74.9748Q88.9885-77.5383 99.0715-77.5383Q109.155-77.5383 118.326-74.9748Q127.497-72.4113 135.486-68.2564Q143.475-64.1014 149.923-59.1949Q156.371-54.2885 160.991-49.5056Q165.611-44.7227 168.085-40.9027Q170.558-37.0827 170.558-35.1738Q170.558-32.9567 168.085-29.0161Q165.611-25.0755 160.991-20.2755Q156.371-15.4755 149.923-10.667Q143.475-5.85861 135.486-1.80893Q127.497 2.24075 118.326 4.71573Q109.155 7.1907 99.0715 7.1907ZM99.0875-1.76773Q106.054-1.76773 112.126-4.40331Q118.198-7.03888 122.792-11.6489Q127.386-16.259 129.973-22.3049Q132.56-28.3508 132.56-35.1738Q132.56-42.1593 129.973-48.214Q127.386-54.2686 122.792-58.8463Q118.198-63.4239 112.126-65.9775Q106.054-68.531 99.0875-68.531Q92.1021-68.531 86.0062-65.9775Q79.9103-63.4239 75.3082-58.8539Q70.7062-54.2839 68.1358-48.2216Q65.5655-42.1593 65.5655-35.1738Q65.5991-28.3508 68.1934-22.3049Q70.7878-16.259 75.3658-11.6489Q79.9438-7.03888 86.0229-4.40331Q92.1021-1.76773 99.0875-1.76773ZM99.0898-24.6819Q96.1464-24.6819 93.7515-26.1036Q91.3567-27.5253 89.9261-29.9191Q88.4956-32.3128 88.4956-35.1738Q88.4956-38.0836 89.9261-40.4697Q91.3567-42.8558 93.7515-44.2776Q96.1464-45.6993 99.0898-45.6993Q101.981-45.6993 104.384-44.2776Q106.787-42.8558 108.225-40.4697Q109.663-38.0836 109.663-35.1738Q109.663-32.3128 108.225-29.9191Q106.787-27.5253 104.384-26.1036Q101.981-24.6819 99.0898-24.6819Z"/>
  </g>
  <g id="Medium-L" transform="matrix(1 0 0 1 1647.94 1556)">
   <path d="M98.6267 18.9667Q111.369 18.9667 122.645 15.9084Q133.921 12.8502 143.46 7.79266Q152.998 2.73514 160.569-3.32756Q168.139-9.39026 173.437-15.5022Q178.735-21.6141 181.533-26.8093Q184.332-32.0045 184.332-35.1875Q184.332-38.3789 181.533-43.5699Q178.735-48.761 173.417-54.8725Q168.098-60.984 160.528-67.0471Q152.958-73.1102 143.399-78.1479Q133.841-83.1856 122.585-86.2438Q111.329-89.3021 98.6267-89.3021Q86.0886-89.3021 74.8703-86.2438Q63.652-83.1856 54.0936-78.1479Q44.5351-73.1102 36.9358-67.0471Q29.3365-60.984 23.9613-54.8725Q18.586-48.761 15.7383-43.5699Q12.8906-38.3789 12.8906-35.1875Q12.8906-32.0045 15.7181-26.8093Q18.5455-21.6141 23.9212-15.5022Q29.2969-9.39026 36.8961-3.32756Q44.4954 2.73514 54.0539 7.79266Q63.6124 12.8502 74.8306 15.9084Q86.0489 18.9667 98.6267 18.9667ZM98.6267 8.32901Q88.3209 8.32901 78.9143 5.77354Q69.5076 3.21808 61.3441-0.949478Q53.1807-5.11703 46.5443-10.0639Q39.9078-15.0108 35.1635-19.9421Q30.4192-24.8734 27.8744-28.9051Q25.3296-32.9369 25.3296-35.1875Q25.3296-37.1368 27.8744-41.0576Q30.4192-44.9783 35.1635-49.8898Q39.9078-54.8012 46.5443-59.8454Q53.1807-64.8895 61.3441-69.1593Q69.5076-73.4291 78.9143-76.0666Q88.3209-78.7041 98.6267-78.7041Q108.932-78.7041 118.319-76.0666Q127.706-73.4291 135.894-69.1593Q144.082-64.8895 150.698-59.8454Q157.314-54.8012 162.059-49.8898Q166.804-44.9783 169.348-41.0576Q171.893-37.1368 171.893-35.1875Q171.893-32.9369 169.348-28.9051Q166.804-24.8734 162.059-19.9421Q157.314-15.0108 150.698-10.0639Q144.082-5.11703 135.894-0.949478Q127.706 3.21808 118.319 5.77354Q108.932 8.32901 98.6267 8.32901ZM98.6359-0.979614Q105.758-0.979614 111.981-3.67928Q118.204-6.37894 122.913-11.0966Q127.622-15.8142 130.273-22.0016Q132.924-28.1891 132.924-35.1875Q132.924-42.3409 130.273-48.5439Q127.622-54.747 122.913-59.436Q118.204-64.1251 111.981-66.7358Q105.758-69.3466 98.6359-69.3466Q91.4825-69.3466 85.2348-66.7358Q78.9871-64.1251 74.2737-59.4406Q69.5602-54.7562 66.9296-48.5485Q64.299-42.3409 64.299-35.1875Q64.3387-28.1891 66.9941-22.0016Q69.6495-15.8142 74.3385-11.0966Q79.0276-6.37894 85.2551-3.67928Q91.4825-0.979614 98.6359-0.979614ZM98.658-24.3118Q95.594-24.3118 93.1046-25.7839Q90.6151-27.256 89.1273-29.734Q87.6396-32.2121 87.6396-35.1875Q87.6396-38.2118 89.1273-40.6857Q90.6151-43.1595 93.1046-44.6316Q95.594-46.1037 98.658-46.1037Q101.651-46.1037 104.145-44.6316Q106.638-43.1595 108.131-40.6857Q109.623-38.2118 109.623-35.1875Q109.623-32.2121 108.131-29.734Q106.638-27.256 104.145-25.7839Q101.651-24.3118 98.658-24.3118Z"/>
  </g>
  <g id="Regular-L" transform="matrix(1 0 0 1 1351.82 1556)">
   <path d="M98.0469 18.457Q110.596 18.457 121.753 15.4297Q132.91 12.4023 142.383 7.39746Q151.855 2.39258 159.399-3.61328Q166.943-9.61914 172.241-15.6738Q177.539-21.7285 180.347-26.8799Q183.154-32.0312 183.154-35.2051Q183.154-38.3789 180.347-43.5303Q177.539-48.6816 172.217-54.7363Q166.895-60.791 159.351-66.7969Q151.807-72.8027 142.31-77.7832Q132.812-82.7637 121.68-85.791Q110.547-88.8184 98.0469-88.8184Q85.6934-88.8184 74.585-85.791Q63.4766-82.7637 53.9795-77.7832Q44.4824-72.8027 36.9141-66.7969Q29.3457-60.791 23.9746-54.7363Q18.6035-48.6816 15.7471-43.5303Q12.8906-38.3789 12.8906-35.2051Q12.8906-32.0312 15.7227-26.8799Q18.5547-21.7285 23.9258-15.6738Q29.2969-9.61914 36.8652-3.61328Q44.4336 2.39258 53.9307 7.39746Q63.4277 12.4023 74.5361 15.4297Q85.6445 18.457 98.0469 18.457ZM98.0469 9.81445Q87.4512 9.81445 77.7588 7.15332Q68.0664 4.49219 59.6436 0.170898Q51.2207-4.15039 44.3604-9.27734Q37.5-14.4043 32.5928-19.5068Q27.6855-24.6094 25.0488-28.7598Q22.4121-32.9102 22.4121-35.2051Q22.4121-37.207 25.0488-41.2598Q27.6855-45.3125 32.5928-50.3906Q37.5-55.4688 44.3604-60.6934Q51.2207-65.918 59.6436-70.3369Q68.0664-74.7559 77.7588-77.4902Q87.4512-80.2246 98.0469-80.2246Q108.643-80.2246 118.311-77.4902Q127.979-74.7559 136.426-70.3369Q144.873-65.918 151.709-60.6934Q158.545-55.4688 163.452-50.3906Q168.359-45.3125 170.996-41.2598Q173.633-37.207 173.633-35.2051Q173.633-32.9102 170.996-28.7598Q168.359-24.6094 163.452-19.5068Q158.545-14.4043 151.709-9.27734Q144.873-4.15039 136.426 0.170898Q127.979 4.49219 118.311 7.15332Q108.643 9.81445 98.0469 9.81445ZM98.0469 0.0488281Q105.371 0.0488281 111.792-2.73438Q118.213-5.51758 123.071-10.376Q127.93-15.2344 130.664-21.6064Q133.398-27.9785 133.398-35.2051Q133.398-42.5781 130.664-48.9746Q127.93-55.3711 123.071-60.2051Q118.213-65.0391 111.792-67.7246Q105.371-70.4102 98.0469-70.4102Q90.6738-70.4102 84.2285-67.7246Q77.7832-65.0391 72.9248-60.2051Q68.0664-55.3711 65.3564-48.9746Q62.6465-42.5781 62.6465-35.2051Q62.6953-27.9785 65.4297-21.6064Q68.1641-15.2344 72.998-10.376Q77.832-5.51758 84.2529-2.73438Q90.6738 0.0488281 98.0469 0.0488281ZM98.0957-23.8281Q94.873-23.8281 92.2607-25.3662Q89.6484-26.9043 88.0859-29.4922Q86.5234-32.0801 86.5234-35.2051Q86.5234-38.3789 88.0859-40.9668Q89.6484-43.5547 92.2607-45.0928Q94.873-46.6309 98.0957-46.6309Q101.221-46.6309 103.833-45.0928Q106.445-43.5547 108.008-40.9668Q109.57-38.3789 109.57-35.2051Q109.57-32.0801 108.008-29.4922Q106.445-26.9043 103.833-25.3662Q101.221-23.8281 98.0957-23.8281Z"/>
  </g>
  <g id="Light-L" transform="matrix(1 0 0 1 1056.39 1556)">
   <path d="M96.7606 17.9726Q109.022 17.9726 119.982 14.9681Q130.943 11.9637 140.279 7.00417Q149.615 2.04468 157.061-3.91579Q164.507-9.87625 169.759-15.8779Q175.011-21.8796 177.804-26.9783Q180.596-32.077 180.596-35.2051Q180.596-38.3331 177.796-43.4242Q174.996-48.5153 169.719-54.517Q164.442-60.5186 156.982-66.4791Q149.521-72.4396 140.168-77.3823Q130.814-82.325 119.886-85.3294Q108.958-88.3339 96.7606-88.3339Q84.6489-88.3339 73.7373-85.3294Q62.8258-82.325 53.4725-77.3823Q44.1193-72.4396 36.6417-66.4791Q29.1641-60.5186 23.8537-54.517Q18.5432-48.5153 15.7169-43.4242Q12.8906-38.3331 12.8906-35.2051Q12.8906-32.077 15.6925-26.9783Q18.4944-21.8796 23.7896-15.8779Q29.0848-9.87625 36.5547-3.91579Q44.0247 2.04468 53.3779 7.00417Q62.7312 11.9637 73.658 14.9681Q84.5848 17.9726 96.7606 17.9726ZM96.7606 11.116Q85.862 11.116 75.9956 8.38699Q66.1293 5.65796 57.6229 1.21536Q49.1165-3.22723 42.2485-8.51288Q35.3806-13.7985 30.4962-19.0376Q25.6119-24.2767 22.9977-28.5557Q20.3835-32.8346 20.3835-35.2051Q20.3835-37.3734 22.9977-41.5928Q25.6119-45.8122 30.4962-51.049Q35.3806-56.2859 42.2485-61.6318Q49.1165-66.9777 57.6229-71.4874Q66.1293-75.9972 75.9956-78.7769Q85.862-81.5567 96.7606-81.5567Q107.644-81.5567 117.493-78.7769Q127.343-75.9972 135.866-71.4874Q144.389-66.9777 151.247-61.6318Q158.106-56.2859 162.991-51.049Q167.875-45.8122 170.489-41.5928Q173.103-37.3734 173.103-35.2051Q173.103-32.8346 170.489-28.5557Q167.875-24.2767 162.991-19.0376Q158.106-13.7985 151.247-8.51288Q144.389-3.22723 135.866 1.21536Q127.343 5.65796 117.493 8.38699Q107.644 11.116 96.7606 11.116ZM96.7606 0.0183105Q104.039 0.0183105 110.445-2.76489Q116.85-5.5481 121.716-10.4065Q126.582-15.2649 129.34-21.6293Q132.097-27.9938 132.097-35.2051Q132.097-42.5629 129.34-48.9517Q126.582-55.3406 121.716-60.1669Q116.85-64.9933 110.445-67.6865Q104.039-70.3796 96.7606-70.3796Q89.402-70.3796 82.9643-67.6865Q76.5266-64.9933 71.6682-60.1669Q66.8098-55.3406 64.0923-48.9517Q61.3747-42.5629 61.3899-35.2051Q61.4388-27.9938 64.1808-21.6293Q66.9228-15.2649 71.7567-10.4065Q76.5907-5.5481 82.9964-2.76489Q89.402 0.0183105 96.7606 0.0183105ZM96.8239-24.2218Q93.7225-24.2218 91.1934-25.7069Q88.6642-27.1919 87.1471-29.6814Q85.63-32.1709 85.63-35.2051Q85.63-38.2729 87.1471-40.7623Q88.6642-43.2518 91.1934-44.7292Q93.7225-46.2067 96.8239-46.2067Q99.8436-46.2067 102.357-44.7292Q104.871-43.2518 106.373-40.7623Q107.875-38.2729 107.875-35.2051Q107.875-32.1709 106.373-29.6814Q104.871-27.1919 102.357-25.7069Q99.8436-24.2218 96.8239-24.2218Z"/>
  </g>
  <g id="Thin-L" transform="matrix(1 0 0 1 761.37 1556)">
   <path d="M95.0584 17.3325Q106.94 17.3325 117.64 14.3578Q128.34 11.3831 137.496 6.48346Q146.652 1.58386 153.968-4.31633Q161.283-10.2165 166.476-16.1484Q171.668-22.0802 174.441-27.1084Q177.213-32.1365 177.213-35.2051Q177.213-38.2736 174.423-43.2842Q171.633-48.2948 166.416-54.2267Q161.199-60.1585 153.849-66.0587Q146.498-71.9589 137.335-76.8517Q128.172-81.7444 117.514-84.7191Q106.856-87.6938 95.0584-87.6938Q83.268-87.6938 72.6166-84.7191Q61.9652-81.7444 52.8019-76.8517Q43.6386-71.9589 36.2812-66.0587Q28.9238-60.1585 23.6935-54.2267Q18.4631-48.2948 15.6769-43.2842Q12.8906-38.2736 12.8906-35.2051Q12.8906-32.1365 15.6525-27.1084Q18.4143-22.0802 23.6095-16.1484Q28.8048-10.2165 36.1446-4.31633Q43.4845 1.58386 52.6474 6.48346Q61.8103 11.3831 72.4972 14.3578Q83.1841 17.3325 95.0584 17.3325ZM95.0584 12.838Q83.7601 12.838 73.6633 10.0185Q63.5666 7.1991 54.9503 2.59666Q46.3341-2.00577 39.4562-7.50198Q32.5783-12.9982 27.7237-18.417Q22.8691-23.8358 20.2854-28.2852Q17.7017-32.7347 17.7017-35.2051Q17.7017-37.5938 20.2854-42.0334Q22.8691-46.4729 27.7237-51.9199Q32.5783-57.3669 39.4562-62.8727Q46.3341-68.3784 54.9503-73.0083Q63.5666-77.6382 73.6633-80.4783Q83.7601-83.3183 95.0584-83.3183Q106.322-83.3183 116.412-80.4783Q126.502-77.6382 135.125-73.0083Q143.748-68.3784 150.637-62.8727Q157.526-57.3669 162.38-51.9199Q167.235-46.4729 169.818-42.0334Q172.402-37.5938 172.402-35.2051Q172.402-32.7347 169.818-28.2852Q167.235-23.8358 162.38-18.417Q157.526-12.9982 150.637-7.50198Q143.748-2.00577 135.125 2.59666Q126.502 7.1991 116.412 10.0185Q106.322 12.838 95.0584 12.838ZM95.0584-0.0213623Q102.277-0.0213623 108.663-2.80457Q115.049-5.58777 119.925-10.4462Q124.801-15.3046 127.588-21.6591Q130.375-28.0136 130.375-35.2051Q130.375-42.543 127.588-48.922Q124.801-55.3009 119.925-60.1173Q115.049-64.9338 108.663-67.6369Q102.277-70.34 95.0584-70.34Q87.7205-70.34 81.2931-67.6369Q74.8657-64.9338 70.0073-60.1173Q65.1489-55.3009 62.421-48.922Q59.6931-42.543 59.729-35.2051Q59.7778-28.0136 62.5298-21.6591Q65.2817-15.3046 70.1157-10.4462Q74.9496-5.58777 81.3351-2.80457Q87.7205-0.0213623 95.0584-0.0213623ZM95.1424-24.7421Q92.2012-24.7421 89.7823-26.157Q87.3634-27.5719 85.9062-29.9313Q84.449-32.2906 84.449-35.2051Q84.449-38.1325 85.9062-40.4919Q87.3634-42.8513 89.7823-44.249Q92.2012-45.6467 95.1424-45.6467Q98.0217-45.6467 100.406-44.249Q102.789-42.8513 104.211-40.4919Q105.633-38.1325 105.633-35.2051Q105.633-32.2906 104.211-29.9313Q102.789-27.5719 100.406-26.157Q98.0217-24.7421 95.1424-24.7421Z"/>
  </g>
  <g id="Ultralight-L" transform="matrix(1 0 0 1 465.526 1556)">
   <path d="M94.1872 17.0036Q105.873 17.0036 116.44 14.0446Q127.007 11.0855 136.071 6.21681Q145.135 1.34811 152.383-4.52156Q159.632-10.3912 164.794-16.2868Q169.955-22.1825 172.718-27.1751Q175.48-32.1678 175.48-35.2051Q175.48-38.2423 172.695-43.2121Q169.91-48.1819 164.724-54.0779Q159.538-59.9739 152.244-65.8436Q144.95-71.7133 135.884-76.58Q126.818-81.4468 116.298-84.4059Q105.779-87.365 94.1872-87.365Q82.56-87.365 72.0421-84.4059Q61.5242-81.4468 52.4586-76.58Q43.3929-71.7133 36.097-65.8436Q28.801-59.9739 23.6115-54.0779Q18.4219-48.1819 15.6563-43.2121Q12.8906-38.2423 12.8906-35.2051Q12.8906-32.1678 15.6319-27.1751Q18.3731-22.1825 23.5172-16.2868Q28.6613-10.3912 35.9344-4.52156Q43.2076 1.34811 52.2732 6.21681Q61.3388 11.0855 71.9025 14.0446Q82.4661 17.0036 94.1872 17.0036ZM94.1872 13.7199Q82.6828 13.7199 72.4686 10.8543Q62.2543 7.98874 53.5816 3.30429Q44.9089-1.38016 38.0257-6.98395Q31.1424-12.5877 26.3035-18.0992Q21.4645-23.6107 18.8957-28.1467Q16.3269-32.6828 16.3269-35.2051Q16.3269-37.7068 18.8957-42.2588Q21.4645-46.8109 26.3035-52.3659Q31.1424-57.9208 38.0257-63.5086Q44.9089-69.0964 53.5816-73.7881Q62.2543-78.4798 72.4686-81.3503Q82.6828-84.2209 94.1872-84.2209Q105.646-84.2209 115.858-81.3503Q126.071-78.4798 134.745-73.7881Q143.42-69.0964 150.324-63.5086Q157.228-57.9208 162.067-52.3659Q166.906-46.8109 169.475-42.2588Q172.044-37.7068 172.044-35.2051Q172.044-32.6828 169.475-28.1467Q166.906-23.6107 162.067-18.0992Q157.228-12.5877 150.324-6.98395Q143.42-1.38016 134.745 3.30429Q126.071 7.98874 115.858 10.8543Q105.646 13.7199 94.1872 13.7199ZM94.1872-0.0419617Q101.375-0.0419617 107.75-2.82516Q114.126-5.60837 119.007-10.4668Q123.888-15.3252 126.691-21.6747Q129.493-28.0243 129.493-35.2051Q129.493-42.5323 126.691-48.9063Q123.888-55.2803 119.007-60.0914Q114.126-64.9025 107.75-67.6109Q101.375-70.3194 94.1872-70.3194Q86.8591-70.3194 80.4367-67.6109Q74.0143-64.9025 69.1559-60.0914Q64.2975-55.2803 61.5646-48.9063Q58.8318-42.5323 58.8776-35.2051Q58.9264-28.0243 61.6833-21.6747Q64.4402-15.3252 69.2741-10.4668Q74.1081-5.60837 80.4836-2.82516Q86.8591-0.0419617 94.1872-0.0419617ZM94.281-25.0092Q91.4223-25.0092 89.0594-26.3882Q86.6966-27.7672 85.2703-30.0598Q83.844-32.3524 83.844-35.2051Q83.844-38.0608 85.2703-40.3538Q86.6966-42.6468 89.0594-44.0029Q91.4223-45.359 94.281-45.359Q97.0886-45.359 99.4057-44.0029Q101.723-42.6468 103.104-40.3538Q104.485-38.0608 104.485-35.2051Q104.485-32.3524 103.104-30.0598Q101.723-27.7672 99.4057-26.3882Q97.0886-25.0092 94.281-25.0092Z"/>
  </g>
  <g id="Black-M" transform="matrix(1 0 0 1 2854.71 1126)">
   <path d="M78.6621 8.98438Q89.3555 8.98438 98.584 6.46973Q107.812 3.95508 115.454-0.195312Q123.096-4.3457 129.053-9.30176Q135.01-14.2578 139.111-19.2383Q143.213-24.2188 145.312-28.418Q147.412-32.6172 147.412-35.1562Q147.412-37.6465 145.312-41.8457Q143.213-46.0449 139.111-51.0254Q135.01-56.0059 129.053-60.9619Q123.096-65.918 115.454-70.0439Q107.812-74.1699 98.584-76.6846Q89.3555-79.1992 78.6621-79.1992Q68.2129-79.1992 59.0576-76.6846Q49.9023-74.1699 42.2363-70.0439Q34.5703-65.918 28.5889-60.9619Q22.6074-56.0059 18.457-51.0254Q14.3066-46.0449 12.1338-41.8457Q9.96094-37.6465 9.96094-35.1562Q9.96094-32.6172 12.1338-28.418Q14.3066-24.2188 18.457-19.2383Q22.6074-14.2578 28.5889-9.30176Q34.5703-4.3457 42.2363-0.195312Q49.9023 3.95508 59.0576 6.46973Q68.2129 8.98438 78.6621 8.98438ZM78.6621-7.91016Q71.9238-7.91016 65.8936-9.44824Q59.8633-10.9863 54.7119-13.5254Q49.5605-16.0645 45.459-19.1162Q41.3574-22.168 38.4521-25.2441Q35.5469-28.3203 34.0088-30.9326Q32.4707-33.5449 32.4707-35.1562Q32.4707-36.4746 34.0088-38.9404Q35.5469-41.4062 38.4521-44.4824Q41.3574-47.5586 45.459-50.6836Q49.5605-53.8086 54.7119-56.4453Q59.8633-59.082 65.8936-60.6934Q71.9238-62.3047 78.6621-62.3047Q85.4004-62.3047 91.4307-60.6934Q97.4609-59.082 102.612-56.4453Q107.764-53.8086 111.89-50.6836Q116.016-47.5586 118.921-44.4824Q121.826-41.4062 123.364-38.9404Q124.902-36.4746 124.902-35.1562Q124.902-33.5449 123.364-30.9326Q121.826-28.3203 118.921-25.2441Q116.016-22.168 111.89-19.1162Q107.764-16.0645 102.612-13.5254Q97.4609-10.9863 91.4307-9.44824Q85.4004-7.91016 78.6621-7.91016ZM78.7109-13.4766Q83.252-13.4766 87.1826-15.1855Q91.1133-16.8945 94.0674-19.8975Q97.0215-22.9004 98.6816-26.8066Q100.342-30.7129 100.342-35.1562Q100.342-39.6484 98.6816-43.5547Q97.0215-47.4609 94.0674-50.415Q91.1133-53.3691 87.1826-55.0293Q83.252-56.6895 78.7109-56.6895Q74.2188-56.6895 70.2881-55.0293Q66.3574-53.3691 63.3789-50.415Q60.4004-47.4609 58.7402-43.5547Q57.0801-39.6484 57.0801-35.1562Q57.0801-30.7129 58.7402-26.8066Q60.4004-22.9004 63.3789-19.8975Q66.3574-16.8945 70.2881-15.1855Q74.2188-13.4766 78.7109-13.4766ZM78.6133-29.1504Q76.1719-29.1504 74.4873-30.9326Q72.8027-32.7148 72.8027-35.1562Q72.8027-37.5488 74.4873-39.3066Q76.1719-41.0645 78.6133-41.0645Q81.1035-41.0645 82.8613-39.3066Q84.6191-37.5488 84.6191-35.1562Q84.6191-32.7148 82.8613-30.9326Q81.1035-29.1504 78.6133-29.1504Z"/>
  </g>
  <g id="Heavy-M" transform="matrix(1 0 0 1 2558.47 1126)">
   <path d="M78.2013 8.43124Q88.6986 8.43124 97.8176 5.95131Q106.937 3.47137 114.526-0.615692Q122.116-4.70276 128.056-9.59549Q133.996-14.4882 138.109-19.4054Q142.222-24.3225 144.344-28.4813Q146.467-32.6401 146.467-35.1677Q146.467-37.6579 144.344-41.8167Q142.222-45.9755 138.109-50.8926Q133.996-55.8098 128.056-60.7025Q122.116-65.5952 114.521-69.6636Q106.925-73.732 97.8062-76.2119Q88.6871-78.6919 78.2013-78.6919Q67.9245-78.6919 58.873-76.2119Q49.8215-73.732 42.2073-69.6636Q34.5932-65.5952 28.6232-60.7025Q22.6532-55.8098 18.4914-50.8926Q14.3295-45.9755 12.1452-41.8167Q9.96094-37.6579 9.96094-35.1677Q9.96094-32.6401 12.1452-28.4813Q14.3295-24.3225 18.4914-19.4054Q22.6532-14.4882 28.6175-9.59549Q34.5818-4.70276 42.1959-0.615692Q49.81 3.47137 58.8615 5.95131Q67.9131 8.43124 78.2013 8.43124ZM78.2013-6.29654Q71.1517-6.29654 64.793-7.94411Q58.4343-9.59167 52.9659-12.3096Q47.4976-15.0276 43.1194-18.2808Q38.7413-21.534 35.6171-24.7887Q32.4928-28.0434 30.8338-30.7884Q29.1748-33.5335 29.1748-35.1677Q29.1748-36.5204 30.8338-39.119Q32.4928-41.7175 35.6171-44.9837Q38.7413-48.2498 43.1194-51.5709Q47.4976-54.892 52.9659-57.7072Q58.4343-60.5225 64.793-62.2433Q71.1517-63.9641 78.2013-63.9641Q85.2394-63.9641 91.592-62.2433Q97.9446-60.5225 103.413-57.7072Q108.881-54.892 113.284-51.5709Q117.686-48.2498 120.805-44.9837Q123.923-41.7175 125.589-39.119Q127.254-36.5204 127.254-35.1677Q127.254-33.5335 125.589-30.7884Q123.923-28.0434 120.805-24.7887Q117.686-21.534 113.284-18.2808Q108.881-15.0276 103.413-12.3096Q97.9446-9.59167 91.592-7.94411Q85.2394-6.29654 78.2013-6.29654ZM78.2387-12.1513Q83.0444-12.1513 87.2231-13.9641Q91.4017-15.7768 94.5457-18.964Q97.6898-22.1512 99.4595-26.3054Q101.229-30.4596 101.229-35.1677Q101.229-39.9483 99.4595-44.1078Q97.6898-48.2674 94.5457-51.4061Q91.4017-54.5448 87.2231-56.3087Q83.0444-58.0727 78.2387-58.0727Q73.4467-58.0727 69.268-56.3087Q65.0894-54.5448 61.9267-51.4061Q58.7639-48.2674 56.9942-44.1078Q55.2246-39.9483 55.2246-35.1677Q55.2361-30.4596 57.0057-26.3054Q58.7753-22.1512 61.9385-18.964Q65.1016-15.7768 69.2741-13.9641Q73.4467-12.1513 78.2387-12.1513ZM78.1639-28.4355Q75.3998-28.4355 73.4791-30.431Q71.5584-32.4265 71.5584-35.1677Q71.5584-37.883 73.4791-39.854Q75.3998-41.8251 78.1639-41.8251Q80.954-41.8251 82.9308-39.854Q84.9075-37.883 84.9075-35.1677Q84.9075-32.4265 82.9308-30.431Q80.954-28.4355 78.1639-28.4355Z"/>
  </g>
  <g id="Bold-M" transform="matrix(1 0 0 1 2262.29 1126)">
   <path d="M77.6855 7.8125Q87.9639 7.8125 96.9604 5.37109Q105.957 2.92969 113.489-1.08643Q121.021-5.10254 126.941-9.92432Q132.861-14.7461 136.987-19.5923Q141.113-24.4385 143.262-28.5522Q145.41-32.666 145.41-35.1807Q145.41-37.6709 143.262-41.7847Q141.113-45.8984 136.987-50.7446Q132.861-55.5908 126.941-60.4126Q121.021-65.2344 113.477-69.2383Q105.933-73.2422 96.936-75.6836Q87.9395-78.125 77.6855-78.125Q67.6025-78.125 58.667-75.6836Q49.7314-73.2422 42.1753-69.2383Q34.6191-65.2344 28.6621-60.4126Q22.7051-55.5908 18.5303-50.7446Q14.3555-45.8984 12.1582-41.7847Q9.96094-37.6709 9.96094-35.1807Q9.96094-32.666 12.1582-28.5522Q14.3555-24.4385 18.5303-19.5923Q22.7051-14.7461 28.6499-9.92432Q34.5947-5.10254 42.1509-1.08643Q49.707 2.92969 58.6426 5.37109Q67.5781 7.8125 77.6855 7.8125ZM77.6855-4.49219Q70.2881-4.49219 63.562-6.26221Q56.8359-8.03223 51.0132-10.9497Q45.1904-13.8672 40.5029-17.3462Q35.8154-20.8252 32.4463-24.2798Q29.0771-27.7344 27.2827-30.6274Q25.4883-33.5205 25.4883-35.1807Q25.4883-36.5723 27.2827-39.3188Q29.0771-42.0654 32.4463-45.5444Q35.8154-49.0234 40.5029-52.5635Q45.1904-56.1035 51.0132-59.1187Q56.8359-62.1338 63.562-63.9771Q70.2881-65.8203 77.6855-65.8203Q85.0586-65.8203 91.7725-63.9771Q98.4863-62.1338 104.309-59.1187Q110.132-56.1035 114.844-52.5635Q119.556-49.0234 122.913-45.5444Q126.27-42.0654 128.076-39.3188Q129.883-36.5723 129.883-35.1807Q129.883-33.5205 128.076-30.6274Q126.27-27.7344 122.913-24.2798Q119.556-20.8252 114.844-17.3462Q110.132-13.8672 104.309-10.9497Q98.4863-8.03223 91.7725-6.26221Q85.0586-4.49219 77.6855-4.49219ZM77.71-10.6689Q82.8125-10.6689 87.2681-12.5977Q91.7236-14.5264 95.0806-17.9199Q98.4375-21.3135 100.33-25.7446Q102.222-30.1758 102.222-35.1807Q102.222-40.2832 100.33-44.7266Q98.4375-49.1699 95.0806-52.5146Q91.7236-55.8594 87.2681-57.7393Q82.8125-59.6191 77.71-59.6191Q72.583-59.6191 68.1274-57.7393Q63.6719-55.8594 60.3027-52.5146Q56.9336-49.1699 55.0415-44.7266Q53.1494-40.2832 53.1494-35.1807Q53.1738-30.1758 55.0659-25.7446Q56.958-21.3135 60.3271-17.9199Q63.6963-14.5264 68.1396-12.5977Q72.583-10.6689 77.71-10.6689ZM77.6611-27.6367Q74.5361-27.6367 72.3511-29.8706Q70.166-32.1045 70.166-35.1807Q70.166-38.2568 72.3511-40.4663Q74.5361-42.6758 77.6611-42.6758Q80.7861-42.6758 83.0078-40.4663Q85.2295-38.2568 85.2295-35.1807Q85.2295-32.1045 83.0078-29.8706Q80.7861-27.6367 77.6611-27.6367Z"/>
  </g>
  <g id="Semibold-M" transform="matrix(1 0 0 1 1965.95 1126)">
   <path d="M77.33 7.38602Q87.4573 7.38602 96.3696 4.97131Q105.282 2.55661 112.774-1.41068Q120.265-5.37796 126.172-10.1509Q132.079-14.9239 136.214-19.7212Q140.349-24.5186 142.515-28.6011Q144.682-32.6836 144.682-35.1898Q144.682-37.6801 142.515-41.7625Q140.349-45.845 136.214-50.6424Q132.079-55.4398 126.172-60.2127Q120.265-64.9857 112.757-68.9449Q105.248-72.9042 96.336-75.3189Q87.4237-77.7336 77.33-77.7336Q67.3805-77.7336 58.5247-75.3189Q49.6689-72.9042 42.1528-68.9449Q34.6367-64.9857 28.6888-60.2127Q22.7409-55.4398 18.557-50.6424Q14.373-45.845 12.167-41.7625Q9.96094-37.6801 9.96094-35.1898Q9.96094-32.6836 12.167-28.6011Q14.373-24.5186 18.557-19.7212Q22.7409-14.9239 28.6724-10.1509Q34.6039-5.37796 42.12-1.41068Q49.6361 2.55661 58.4915 4.97131Q67.347 7.38602 77.33 7.38602ZM77.33-3.24783Q69.693-3.24783 62.7136-5.10254Q55.7343-6.95724 49.667-10.0124Q43.5997-13.0676 38.699-16.7019Q33.7982-20.3362 30.2601-23.9285Q26.722-27.5208 24.8344-30.5161Q22.9469-33.5114 22.9469-35.1898Q22.9469-36.6081 24.8344-39.4569Q26.722-42.3058 30.2601-45.9312Q33.7982-49.5567 38.699-53.2478Q43.5997-56.9389 49.667-60.0918Q55.7343-63.2446 62.7136-65.1722Q69.693-67.0998 77.33-67.0998Q84.9342-67.0998 91.8968-65.1722Q98.8594-63.2446 104.927-60.0918Q110.994-56.9389 115.919-53.2478Q120.844-49.5567 124.366-45.9312Q127.887-42.3058 129.791-39.4569Q131.696-36.6081 131.696-35.1898Q131.696-33.5114 129.791-30.5161Q127.887-27.5208 124.366-23.9285Q120.844-20.3362 115.919-16.7019Q110.994-13.0676 104.927-10.0124Q98.8594-6.95724 91.8968-5.10254Q84.9342-3.24783 77.33-3.24783ZM77.3453-9.64661Q82.6523-9.64661 87.299-11.6554Q91.9456-13.6642 95.4494-17.2001Q98.9532-20.7359 100.93-25.3582Q102.906-29.9805 102.906-35.1898Q102.906-40.5144 100.93-45.153Q98.9532-49.7917 95.4494-53.2787Q91.9456-56.7657 87.299-58.7257Q82.6523-60.6857 77.3453-60.6857Q71.9879-60.6857 67.3412-58.7257Q62.6945-56.7657 59.1831-53.2787Q55.6717-49.7917 53.6953-45.153Q51.7189-40.5144 51.7189-35.1898Q51.7517-29.9805 53.7285-25.3582Q55.7053-20.7359 59.2163-17.2001Q62.7274-13.6642 67.3576-11.6554Q71.9879-9.64661 77.3453-9.64661ZM77.3148-27.0859Q73.941-27.0859 71.5736-29.4842Q69.2062-31.8825 69.2062-35.1898Q69.2062-38.5147 71.5736-40.8886Q73.941-43.2625 77.3148-43.2625Q80.6709-43.2625 83.0612-40.8886Q85.4515-38.5147 85.4515-35.1898Q85.4515-31.8825 83.0612-29.4842Q80.6709-27.0859 77.3148-27.0859Z"/>
  </g>
  <g id="Medium-M" transform="matrix(1 0 0 1 1669.51 1126)">
   <path d="M77.0607 7.06253Q87.0735 7.06253 95.9213 4.66805Q104.769 2.27356 112.231-1.65672Q119.692-5.58701 125.589-10.323Q131.487-15.0589 135.628-19.8189Q139.77-24.5789 141.949-28.6381Q144.129-32.6973 144.129-35.1959Q144.129-37.6862 141.949-41.7454Q139.77-45.8046 135.628-50.565Q131.487-55.3253 125.589-60.0613Q119.692-64.7972 112.211-68.7229Q104.729-72.6486 95.8813-75.0431Q87.0331-77.4376 77.0607-77.4376Q67.2119-77.4376 58.4171-75.0431Q49.6223-72.6486 42.1364-68.7229Q34.6504-64.7972 28.709-60.0613Q22.7676-55.3253 18.5772-50.565Q14.3867-45.8046 12.1738-41.7454Q9.96094-37.6862 9.96094-35.1959Q9.96094-32.6973 12.1738-28.6381Q14.3867-24.5789 18.5772-19.8189Q22.7676-15.0589 28.6888-10.323Q34.61-5.58701 42.0959-1.65672Q49.5819 2.27356 58.3771 4.66805Q67.1722 7.06253 77.0607 7.06253ZM77.0607-2.30484Q69.2413-2.30484 62.0697-4.22325Q54.8981-6.14166 48.6458-9.30138Q42.3935-12.4611 37.331-16.2136Q32.2685-19.9661 28.6026-23.6626Q24.9367-27.359 22.9782-30.4321Q21.0197-33.5052 21.0197-35.1959Q21.0197-36.6348 22.9782-39.5611Q24.9367-42.4873 28.6026-46.2242Q32.2685-49.9611 37.331-53.7666Q42.3935-57.5722 48.6458-60.8295Q54.8981-64.0869 62.0697-66.0786Q69.2413-68.0702 77.0607-68.0702Q84.8396-68.0702 91.991-66.0786Q99.1425-64.0869 105.395-60.8295Q111.648-57.5722 116.735-53.7666Q121.822-49.9611 125.467-46.2242Q129.113-42.4873 131.092-39.5611Q133.07-36.6348 133.07-35.1959Q133.07-33.5052 131.092-30.4321Q129.113-27.359 125.467-23.6626Q121.822-19.9661 116.735-16.2136Q111.648-12.4611 105.395-9.30138Q99.1425-6.14166 91.991-4.22325Q84.8396-2.30484 77.0607-2.30484ZM77.0691-8.87222Q82.531-8.87222 87.3226-10.9413Q92.1143-13.0104 95.7291-16.6542Q99.3439-20.298 101.384-25.0648Q103.425-29.8317 103.425-35.1959Q103.425-40.6891 101.384-45.4765Q99.3439-50.264 95.7291-53.8586Q92.1143-57.4532 87.3226-59.4738Q82.531-61.4944 77.0691-61.4944Q71.5363-61.4944 66.7446-59.4738Q61.953-57.4532 58.334-53.8586Q54.715-50.264 52.6745-45.4765Q50.634-40.6891 50.634-35.1959Q50.6737-29.8317 52.7142-25.0648Q54.7546-20.298 58.374-16.6542Q61.9934-13.0104 66.7648-10.9413Q71.5363-8.87222 77.0691-8.87222ZM77.0515-26.6678Q73.4894-26.6678 70.9839-29.1908Q68.4784-31.7139 68.4784-35.1959Q68.4784-38.71 70.9839-41.2086Q73.4894-43.7073 77.0515-43.7073Q80.5832-43.7073 83.1017-41.2086Q85.6201-38.71 85.6201-35.1959Q85.6201-31.7139 83.1017-29.1908Q80.5832-26.6678 77.0515-26.6678Z"/>
  </g>
  <g id="Regular-M" transform="matrix(1 0 0 1 1373.16 1126)">
   <path d="M76.709 6.64062Q86.5723 6.64062 95.3369 4.27246Q104.102 1.9043 111.523-1.97754Q118.945-5.85938 124.829-10.5469Q130.713-15.2344 134.863-19.9463Q139.014-24.6582 141.211-28.6865Q143.408-32.7148 143.408-35.2051Q143.408-37.6953 141.211-41.7236Q139.014-45.752 134.863-50.4639Q130.713-55.1758 124.829-59.8633Q118.945-64.5508 111.499-68.4326Q104.053-72.3145 95.2881-74.6826Q86.5234-77.0508 76.709-77.0508Q66.9922-77.0508 58.2764-74.6826Q49.5605-72.3145 42.1143-68.4326Q34.668-64.5508 28.7354-59.8633Q22.8027-55.1758 18.6035-50.4639Q14.4043-45.752 12.1826-41.7236Q9.96094-37.6953 9.96094-35.2051Q9.96094-32.7148 12.1826-28.6865Q14.4043-24.6582 18.6035-19.9463Q22.8027-15.2344 28.7109-10.5469Q34.6191-5.85938 42.0654-1.97754Q49.5117 1.9043 58.2275 4.27246Q66.9434 6.64062 76.709 6.64062ZM76.709-1.07422Q68.6523-1.07422 61.2305-3.07617Q53.8086-5.07812 47.3145-8.37402Q40.8203-11.6699 35.5469-15.5762Q30.2734-19.4824 26.4404-23.3154Q22.6074-27.1484 20.5566-30.3223Q18.5059-33.4961 18.5059-35.2051Q18.5059-36.6699 20.5566-39.6973Q22.6074-42.7246 26.4404-46.6064Q30.2734-50.4883 35.5469-54.4434Q40.8203-58.3984 47.3145-61.792Q53.8086-65.1855 61.2305-67.2607Q68.6523-69.3359 76.709-69.3359Q84.7168-69.3359 92.1143-67.2607Q99.5117-65.1855 106.006-61.792Q112.5-58.3984 117.798-54.4434Q123.096-50.4883 126.904-46.6064Q130.713-42.7246 132.788-39.6973Q134.863-36.6699 134.863-35.2051Q134.863-33.4961 132.788-30.3223Q130.713-27.1484 126.904-23.3154Q123.096-19.4824 117.798-15.5762Q112.5-11.6699 106.006-8.37402Q99.5117-5.07812 92.1143-3.07617Q84.7168-1.07422 76.709-1.07422ZM76.709-7.86133Q82.373-7.86133 87.3535-10.0098Q92.334-12.1582 96.0938-15.9424Q99.8535-19.7266 101.978-24.6826Q104.102-29.6387 104.102-35.2051Q104.102-40.918 101.978-45.8984Q99.8535-50.8789 96.0938-54.6143Q92.334-58.3496 87.3535-60.4492Q82.373-62.5488 76.709-62.5488Q70.9473-62.5488 65.9668-60.4492Q60.9863-58.3496 57.2266-54.6143Q53.4668-50.8789 51.3428-45.8984Q49.2188-40.918 49.2188-35.2051Q49.2676-29.6387 51.3916-24.6826Q53.5156-19.7266 57.2754-15.9424Q61.0352-12.1582 65.9912-10.0098Q70.9473-7.86133 76.709-7.86133ZM76.709-26.123Q72.9004-26.123 70.2148-28.8086Q67.5293-31.4941 67.5293-35.2051Q67.5293-38.9648 70.2148-41.626Q72.9004-44.2871 76.709-44.2871Q80.4688-44.2871 83.1543-41.626Q85.8398-38.9648 85.8398-35.2051Q85.8398-31.4941 83.1543-28.8086Q80.4688-26.123 76.709-26.123Z"/>
  </g>
  <g id="Light-M" transform="matrix(1 0 0 1 1077.61 1126)">
   <path d="M75.5432 6.21643Q85.1646 6.21643 93.7477 3.87115Q102.331 1.52588 109.631-2.32582Q116.932-6.17752 122.733-10.8196Q128.533-15.4617 132.638-20.1283Q136.743-24.7948 138.918-28.7777Q141.093-32.7606 141.093-35.2051Q141.093-37.6495 138.91-41.6252Q136.728-45.6009 132.615-50.2674Q128.503-54.9339 122.695-59.576Q116.887-64.2181 109.569-68.0695Q102.251-71.9208 93.676-74.2664Q85.1006-76.6121 75.5432-76.6121Q66.0538-76.6121 57.5119-74.2664Q48.97-71.9208 41.6527-68.0695Q34.3353-64.2181 28.4935-59.576Q22.6517-54.9339 18.5051-50.2674Q14.3585-45.6009 12.1597-41.6252Q9.96094-37.6495 9.96094-35.2051Q9.96094-32.7606 12.1525-28.7777Q14.344-24.7948 18.4826-20.1283Q22.6212-15.4617 28.4386-10.8196Q34.256-6.17752 41.5737-2.32582Q48.8914 1.52588 57.4406 3.87115Q65.9897 6.21643 75.5432 6.21643ZM75.5432 0.106812Q67.2295 0.106812 59.6561-1.96342Q52.0828-4.03366 45.5132-7.44324Q38.9435-10.8528 33.6548-14.8876Q28.3661-18.9224 24.556-22.8916Q20.7458-26.8608 18.7176-30.1407Q16.6893-33.4206 16.6893-35.2051Q16.6893-36.821 18.7176-39.9998Q20.7458-43.1786 24.556-47.1889Q28.3661-51.1993 33.6548-55.2757Q38.9435-59.3521 45.5132-62.8212Q52.0828-66.2903 59.6561-68.4109Q67.2295-70.5315 75.5432-70.5315Q83.8234-70.5315 91.3876-68.4109Q98.9517-66.2903 105.514-62.8212Q112.076-59.3521 117.389-55.2757Q122.702-51.1993 126.488-47.1889Q130.274-43.1786 132.327-39.9998Q134.379-36.821 134.379-35.2051Q134.379-33.4206 132.327-30.1407Q130.274-26.8608 126.488-22.8916Q122.702-18.9224 117.389-14.8876Q112.076-10.8528 105.514-7.44324Q98.9517-4.03366 91.3876-1.96342Q83.8234 0.106812 75.5432 0.106812ZM75.5432-7.89185Q81.1775-7.89185 86.1504-10.0403Q91.1232-12.1887 94.8906-15.9653Q98.658-19.7418 100.79-24.6902Q102.921-29.6387 102.921-35.2051Q102.921-40.9027 100.79-45.8679Q98.658-50.8331 94.8906-54.5685Q91.1232-58.3038 86.1504-60.4034Q81.1775-62.5031 75.5432-62.5031Q69.812-62.5031 64.8392-60.4034Q59.8663-58.3038 56.0989-54.5685Q52.3315-50.8331 50.2151-45.8679Q48.0988-40.9027 48.0988-35.2051Q48.1476-29.6387 50.2716-24.6902Q52.3956-19.7418 56.1554-15.9653Q59.9152-12.1887 64.8636-10.0403Q69.812-7.89185 75.5432-7.89185ZM75.5737-26.5015Q71.9017-26.5015 69.3142-29.0661Q66.7267-31.6307 66.7267-35.2051Q66.7267-38.8283 69.3142-41.3685Q71.9017-43.9087 75.5737-43.9087Q79.1824-43.9087 81.7543-41.3685Q84.3262-38.8283 84.3262-35.2051Q84.3262-31.6307 81.7543-29.0661Q79.1824-26.5015 75.5737-26.5015Z"/>
  </g>
  <g id="Thin-M" transform="matrix(1 0 0 1 782.427 1126)">
   <path d="M74.0021 5.65643Q83.3031 5.65643 91.6458 3.34091Q99.9886 1.02539 107.129-2.78625Q114.27-6.5979 119.96-11.1797Q125.651-15.7616 129.696-20.3682Q133.74-24.9748 135.885-28.8975Q138.029-32.8201 138.029-35.2051Q138.029-37.59 135.867-41.4951Q133.705-45.4002 129.643-50.0069Q125.581-54.6135 119.872-59.1953Q114.164-63.7772 107.017-67.5888Q99.8695-71.4005 91.5443-73.716Q83.2191-76.0315 74.0021-76.0315Q64.8125-76.0315 56.501-73.716Q48.1895-71.4005 41.0419-67.5888Q33.8943-63.7772 28.1727-59.1953Q22.451-54.6135 18.375-50.0069Q14.299-45.4002 12.13-41.4951Q9.96094-37.59 9.96094-35.2051Q9.96094-32.8201 12.1124-28.8975Q14.2639-24.9748 18.3224-20.3682Q22.3808-15.7616 28.0781-11.1797Q33.7753-6.5979 40.9229-2.78625Q48.0705 1.02539 56.3995 3.34091Q64.7285 5.65643 74.0021 5.65643ZM74.0021 1.66779Q65.3481 1.66779 57.5745-0.492477Q49.8009-2.65274 43.1309-6.21223Q36.4609-9.77173 31.1523-13.9767Q25.8438-18.1816 22.0634-22.3312Q18.2831-26.4809 16.2853-29.9007Q14.2876-33.3206 14.2876-35.2051Q14.2876-37.0216 16.2853-40.4003Q18.2831-43.779 22.0634-47.9599Q25.8438-52.1408 31.1523-56.377Q36.4609-60.6133 43.1309-64.1827Q49.8009-67.7521 57.5745-69.9326Q65.3481-72.113 74.0021-72.113Q82.6424-72.113 90.4266-69.9326Q98.2109-67.7521 104.863-64.1827Q111.516-60.6133 116.849-56.377Q122.182-52.1408 125.938-47.9599Q129.694-43.779 131.716-40.4003Q133.739-37.0216 133.739-35.2051Q133.739-33.3206 131.716-29.9007Q129.694-26.4809 125.938-22.3312Q122.182-18.1816 116.849-13.9767Q111.516-9.77173 104.863-6.21223Q98.2109-2.65274 90.4266-0.492477Q82.6424 1.66779 74.0021 1.66779ZM74.0021-7.93152Q79.5959-7.93152 84.5589-10.08Q89.5218-12.2284 93.2991-15.995Q97.0764-19.7617 99.218-24.7002Q101.36-29.6387 101.36-35.2051Q101.36-40.8829 99.218-45.8282Q97.0764-50.7736 93.2991-54.509Q89.5218-58.2443 84.5589-60.3439Q79.5959-62.4435 74.0021-62.4435Q68.3105-62.4435 63.3476-60.3439Q58.3847-58.2443 54.6074-54.509Q50.8301-50.7736 48.7236-45.8282Q46.6171-40.8829 46.6171-35.2051Q46.666-29.6387 48.79-24.7002Q50.914-19.7617 54.6738-15.995Q58.4335-12.2284 63.372-10.08Q68.3105-7.93152 74.0021-7.93152ZM74.0723-27.002Q70.5803-27.002 68.1232-29.4064Q65.6662-31.8108 65.6662-35.2051Q65.6662-38.6482 68.1232-41.0282Q70.5803-43.4082 74.0723-43.4082Q77.4803-43.4082 79.9023-41.0282Q82.3242-38.6482 82.3242-35.2051Q82.3242-31.8108 79.9023-29.4064Q77.4803-27.002 74.0723-27.002Z"/>
  </g>
  <g id="Ultralight-M" transform="matrix(1 0 0 1 486.5 1126)">
   <path d="M73.2124 5.3688Q82.3494 5.3688 90.5689 3.06892Q98.7885 0.769043 105.847-3.022Q112.906-6.81305 118.54-11.3644Q124.174-15.9157 128.188-20.4914Q132.202-25.0671 134.332-28.9593Q136.461-32.8514 136.461-35.2051Q136.461-37.5587 134.309-41.4284Q132.157-45.298 128.12-49.8737Q124.083-54.4495 118.426-59.0008Q112.769-63.5521 105.709-67.3428Q98.6488-71.1334 90.4518-73.4337Q82.2548-75.7339 73.2124-75.7339Q64.1769-75.7339 55.9834-73.4337Q47.7898-71.1334 40.7295-67.3428Q33.6693-63.5521 28.009-59.0008Q22.3488-54.4495 18.3083-49.8737Q14.2677-45.298 12.1143-41.4284Q9.96094-37.5587 9.96094-35.2051Q9.96094-32.8514 12.0918-28.9593Q14.2227-25.0671 18.2404-20.4914Q22.258-15.9157 27.8938-11.3644Q33.5297-6.81305 40.5899-3.022Q47.6501 0.769043 55.8662 3.06892Q64.0823 5.3688 73.2124 5.3688ZM73.2124 2.46811Q64.3837 2.46811 56.5079 0.261688Q48.632-1.94473 41.9109-5.58128Q35.1898-9.21783 29.871-13.5101Q24.5522-17.8024 20.787-22.044Q17.0219-26.2856 15.0394-29.7771Q13.0569-33.2687 13.0569-35.2051Q13.0569-37.1239 15.0394-40.6055Q17.0219-44.0872 20.787-48.3547Q24.5522-52.6222 29.871-56.9408Q35.1898-61.2595 41.9109-64.88Q48.632-68.5005 56.5079-70.7119Q64.3837-72.9233 73.2124-72.9233Q82.0374-72.9233 89.9345-70.7119Q97.8317-68.5005 104.53-64.88Q111.228-61.2595 116.572-56.9408Q121.915-52.6222 125.656-48.3547Q129.396-44.0872 131.403-40.6055Q133.41-37.1239 133.41-35.2051Q133.41-33.2687 131.403-29.7771Q129.396-26.2856 125.656-22.044Q121.915-17.8024 116.572-13.5101Q111.228-9.21783 104.53-5.58128Q97.8317-1.94473 89.9345 0.261688Q82.0374 2.46811 73.2124 2.46811ZM73.2124-7.95212Q78.7857-7.95212 83.7433-10.1006Q88.7009-12.249 92.4835-16.0107Q96.2662-19.7723 98.4127-24.7055Q100.559-29.6387 100.559-35.2051Q100.559-40.8722 98.4127-45.8073Q96.2662-50.7423 92.4835-54.4777Q88.7009-58.213 83.7433-60.3127Q78.7857-62.4123 73.2124-62.4123Q67.5415-62.4123 62.5839-60.3127Q57.6263-58.213 53.8437-54.4777Q50.061-50.7423 47.9599-45.8073Q45.8588-40.8722 45.8588-35.2051Q45.9076-29.6387 48.0316-24.7055Q50.1556-19.7723 53.9154-16.0107Q57.6752-12.249 62.6083-10.1006Q67.5415-7.95212 73.2124-7.95212ZM73.3032-27.2583Q69.9036-27.2583 67.5129-29.5807Q65.1222-31.9031 65.1222-35.2051Q65.1222-38.5559 67.5129-40.8539Q69.9036-43.1519 73.3032-43.1519Q76.609-43.1519 78.9539-40.8539Q81.2988-38.5559 81.2988-35.2051Q81.2988-31.9031 78.9539-29.5807Q76.609-27.2583 73.3032-27.2583Z"/>
  </g>
  <g id="Black-S" transform="matrix(1 0 0 1 2871.66 696)">
   <path d="M61.7188-0.439453Q71.7773-0.439453 80.2002-3.22266Q88.623-6.00586 95.2148-10.3516Q101.807-14.6973 106.372-19.5312Q110.938-24.3652 113.306-28.5645Q115.674-32.7637 115.674-35.1562Q115.674-37.5 113.306-41.6992Q110.938-45.8984 106.372-50.7324Q101.807-55.5664 95.2148-59.9121Q88.623-64.2578 80.2002-67.041Q71.7773-69.8242 61.7188-69.8242Q51.8066-69.8242 43.457-67.041Q35.1074-64.2578 28.4912-59.9121Q21.875-55.5664 17.2607-50.7324Q12.6465-45.8984 10.2295-41.6992Q7.8125-37.5 7.8125-35.1562Q7.8125-32.7637 10.2295-28.5645Q12.6465-24.3652 17.2607-19.5312Q21.875-14.6973 28.4912-10.3516Q35.1074-6.00586 43.457-3.22266Q51.8066-0.439453 61.7188-0.439453ZM61.7188-14.2578Q55.4688-14.2578 50.0732-15.918Q44.6777-17.5781 40.3076-20.166Q35.9375-22.7539 32.8125-25.6348Q29.6875-28.5156 28.0273-31.0791Q26.3672-33.6426 26.3672-35.1562Q26.3672-36.377 28.0273-38.8428Q29.6875-41.3086 32.8125-44.2383Q35.9375-47.168 40.3076-49.8535Q44.6777-52.5391 50.0732-54.2725Q55.4688-56.0059 61.7188-56.0059Q67.9688-56.0059 73.3887-54.2725Q78.8086-52.5391 83.1787-49.8535Q87.5488-47.168 90.6738-44.2383Q93.7988-41.3086 95.459-38.8428Q97.1191-36.377 97.1191-35.1562Q97.1191-33.6426 95.459-31.0791Q93.7988-28.5156 90.6738-25.6348Q87.5488-22.7539 83.1787-20.166Q78.8086-17.5781 73.3887-15.918Q67.9688-14.2578 61.7188-14.2578ZM61.7676-18.6035Q66.4062-18.6035 70.1416-20.874Q73.877-23.1445 76.0742-26.9043Q78.2715-30.6641 78.2715-35.1562Q78.2715-39.7461 76.0742-43.457Q73.877-47.168 70.1416-49.3896Q66.4062-51.6113 61.7676-51.6113Q57.1777-51.6113 53.418-49.4141Q49.6582-47.2168 47.4365-43.4814Q45.2148-39.7461 45.2148-35.1562Q45.2148-30.6641 47.4365-26.9043Q49.6582-23.1445 53.418-20.874Q57.1777-18.6035 61.7676-18.6035ZM61.6699-30.7129Q59.8633-30.7129 58.6182-32.0312Q57.373-33.3496 57.373-35.1562Q57.373-36.9629 58.6182-38.2568Q59.8633-39.5508 61.6699-39.5508Q63.5254-39.5508 64.8193-38.2568Q66.1133-36.9629 66.1133-35.1562Q66.1133-33.3496 64.8193-32.0312Q63.5254-30.7129 61.6699-30.7129Z"/>
  </g>
  <g id="Heavy-S" transform="matrix(1 0 0 1 2575.21 696)">
   <path d="M61.4655-0.854492Q71.3737-0.854492 79.7218-3.59726Q88.0699-6.34003 94.6445-10.6281Q101.219-14.9162 105.796-19.6869Q110.373-24.4576 112.764-28.6221Q115.155-32.7866 115.155-35.1677Q115.155-37.5229 112.764-41.6817Q110.373-45.8405 105.796-50.6111Q101.219-55.3818 94.6445-59.6699Q88.0699-63.958 79.7218-66.7011Q71.3737-69.4443 61.4655-69.4443Q51.7029-69.4443 43.4223-66.7011Q35.1418-63.958 28.5431-59.6699Q21.9444-55.3818 17.3183-50.6111Q12.6923-45.8405 10.2524-41.6817Q7.8125-37.5229 7.8125-35.1677Q7.8125-32.7866 10.2524-28.6221Q12.6923-24.4576 17.3183-19.6869Q21.9444-14.9162 28.5431-10.6281Q35.1418-6.34003 43.4223-3.59726Q51.7029-0.854492 61.4655-0.854492ZM61.4655-13.0249Q54.95-13.0249 49.2317-14.806Q43.5135-16.5871 38.8382-19.3535Q34.1629-22.1199 30.7842-25.1854Q27.4055-28.2509 25.5898-30.9467Q23.774-33.6426 23.774-35.1677Q23.774-36.3998 25.5898-38.9984Q27.4055-41.597 30.7842-44.7109Q34.1629-47.8249 38.8382-50.6889Q43.5135-53.553 49.2317-55.4134Q54.95-57.2739 61.4655-57.2739Q67.9802-57.2739 73.7171-55.4134Q79.454-53.553 84.1297-50.6889Q88.8054-47.8249 92.1837-44.7109Q95.562-41.597 97.3721-38.9984Q99.1821-36.3998 99.1821-35.1677Q99.1821-33.6426 97.3721-30.9467Q95.562-28.2509 92.1837-25.1854Q88.8054-22.1199 84.1297-19.3535Q79.454-16.5871 73.7171-14.806Q67.9802-13.0249 61.4655-13.0249ZM61.5028-17.4629Q66.4642-17.4629 70.4643-19.8887Q74.4644-22.3145 76.823-26.3393Q79.1817-30.3642 79.1817-35.1677Q79.1817-40.0917 76.823-44.0735Q74.4644-48.0553 70.4643-50.4269Q66.4642-52.7985 61.5028-52.7985Q56.5788-52.7985 52.5539-50.4456Q48.5291-48.0927 46.1517-44.0922Q43.7744-40.0917 43.7744-35.1677Q43.7859-30.3642 46.1632-26.3393Q48.5405-22.3145 52.5597-19.8887Q56.5788-17.4629 61.5028-17.4629ZM61.4281-30.056Q59.333-30.056 57.869-31.5704Q56.4049-33.0849 56.4049-35.1677Q56.4049-37.2627 57.869-38.7581Q59.333-40.2534 61.4281-40.2534Q63.5597-40.2534 65.0555-38.7581Q66.5512-37.2627 66.5512-35.1677Q66.5512-33.0849 65.0555-31.5704Q63.5597-30.056 61.4281-30.056Z"/>
  </g>
  <g id="Bold-S" transform="matrix(1 0 0 1 2278.78 696)">
   <path d="M61.1816-1.31836Q70.9229-1.31836 79.187-4.01611Q87.4512-6.71387 94.0063-10.9375Q100.562-15.1611 105.151-19.8608Q109.741-24.5605 112.158-28.6865Q114.575-32.8125 114.575-35.1807Q114.575-37.5488 112.158-41.6626Q109.741-45.7764 105.151-50.4761Q100.562-55.1758 94.0063-59.3994Q87.4512-63.623 79.187-66.3208Q70.9229-69.0186 61.1816-69.0186Q51.5869-69.0186 43.3838-66.3208Q35.1807-63.623 28.6011-59.3994Q22.0215-55.1758 17.3828-50.4761Q12.7441-45.7764 10.2783-41.6626Q7.8125-37.5488 7.8125-35.1807Q7.8125-32.8125 10.2783-28.6865Q12.7441-24.5605 17.3828-19.8608Q22.0215-15.1611 28.6011-10.9375Q35.1807-6.71387 43.3838-4.01611Q51.5869-1.31836 61.1816-1.31836ZM61.1816-11.6455Q54.3701-11.6455 48.291-13.562Q42.2119-15.4785 37.1948-18.4448Q32.1777-21.4111 28.5156-24.6826Q24.8535-27.9541 22.8638-30.7983Q20.874-33.6426 20.874-35.1807Q20.874-36.4258 22.8638-39.1724Q24.8535-41.9189 28.5156-45.2393Q32.1777-48.5596 37.1948-51.6235Q42.2119-54.6875 48.291-56.6895Q54.3701-58.6914 61.1816-58.6914Q67.9932-58.6914 74.0845-56.6895Q80.1758-54.6875 85.1929-51.6235Q90.21-48.5596 93.8721-45.2393Q97.5342-41.9189 99.5117-39.1724Q101.489-36.4258 101.489-35.1807Q101.489-33.6426 99.5117-30.7983Q97.5342-27.9541 93.8721-24.6826Q90.21-21.4111 85.1929-18.4448Q80.1758-15.4785 74.0845-13.562Q67.9932-11.6455 61.1816-11.6455ZM61.2061-16.1865Q66.5283-16.1865 70.8252-18.7866Q75.1221-21.3867 77.6611-25.708Q80.2002-30.0293 80.2002-35.1807Q80.2002-40.4785 77.6611-44.7632Q75.1221-49.0479 70.8252-51.5869Q66.5283-54.126 61.2061-54.126Q55.9082-54.126 51.5869-51.5991Q47.2656-49.0723 44.7144-44.7754Q42.1631-40.4785 42.1631-35.1807Q42.1875-30.0293 44.7388-25.708Q47.29-21.3867 51.5991-18.7866Q55.9082-16.1865 61.2061-16.1865ZM61.1572-29.3213Q58.7402-29.3213 57.0312-31.0547Q55.3223-32.7881 55.3223-35.1807Q55.3223-37.5977 57.0312-39.3188Q58.7402-41.04 61.1572-41.04Q63.5986-41.04 65.3198-39.3188Q67.041-37.5977 67.041-35.1807Q67.041-32.7881 65.3198-31.0547Q63.5986-29.3213 61.1572-29.3213Z"/>
  </g>
  <g id="Semibold-S" transform="matrix(1 0 0 1 1982.27 696)">
   <path d="M60.9863-1.63803Q70.6116-1.63803 78.8181-4.30489Q87.0247-6.97174 93.5665-11.1507Q100.108-15.3297 104.707-19.9806Q109.306-24.6315 111.74-28.7308Q114.175-32.83 114.175-35.1898Q114.175-37.5664 111.74-41.6492Q109.306-45.7321 104.707-50.383Q100.108-55.0339 93.5665-59.2129Q87.0247-63.3919 78.8181-66.0587Q70.6116-68.7256 60.9863-68.7256Q51.5068-68.7256 43.3571-66.0587Q35.2074-63.3919 28.6411-59.2129Q22.0749-55.0339 17.4274-50.383Q12.78-45.7321 10.2962-41.6492Q7.8125-37.5664 7.8125-35.1898Q7.8125-32.83 10.2962-28.7308Q12.78-24.6315 17.4274-19.9806Q22.0749-15.3297 28.6411-11.1507Q35.2074-6.97174 43.3571-4.30489Q51.5068-1.63803 60.9863-1.63803ZM60.9863-10.6949Q53.9703-10.6949 47.6425-12.7045Q41.3147-14.7141 36.0619-17.8181Q30.809-20.9221 26.9516-24.3359Q23.0942-27.7496 20.9843-30.6961Q18.8744-33.6426 18.8744-35.1898Q18.8744-36.4433 20.9843-39.2921Q23.0942-42.141 26.9516-45.6036Q30.809-49.0662 36.0619-52.2678Q41.3147-55.4695 47.6425-57.5691Q53.9703-59.6687 60.9863-59.6687Q68.0023-59.6687 74.3378-57.5691Q80.6732-55.4695 85.9261-52.2678Q91.1789-49.0662 95.0363-45.6036Q98.8937-42.141 100.987-39.2921Q103.08-36.4433 103.08-35.1898Q103.08-33.6426 100.987-30.6961Q98.8937-27.7496 95.0363-24.3359Q91.1789-20.9221 85.9261-17.8181Q80.6732-14.7141 74.3378-12.7045Q68.0023-10.6949 60.9863-10.6949ZM61.0016-15.3069Q66.5726-15.3069 71.0739-18.0267Q75.5753-20.7466 78.2387-25.2724Q80.9021-29.7981 80.9021-35.1898Q80.9021-40.7448 78.2387-45.2385Q75.5753-49.7322 71.0739-52.3869Q66.5726-55.0415 61.0016-55.0415Q55.4459-55.0415 50.9201-52.3945Q46.3943-49.7475 43.7233-45.2461Q41.0522-40.7448 41.0522-35.1898Q41.0858-29.7981 43.7569-25.2724Q46.4279-20.7466 50.9369-18.0267Q55.4459-15.3069 61.0016-15.3069ZM60.9703-28.8147Q58.3313-28.8147 56.4537-30.6992Q54.5761-32.5836 54.5761-35.1898Q54.5761-37.8288 56.4537-39.7057Q58.3313-41.5825 60.9703-41.5825Q63.6253-41.5825 65.5022-39.7057Q67.379-37.8288 67.379-35.1898Q67.379-32.5836 65.5022-30.6992Q63.6253-28.8147 60.9703-28.8147Z"/>
  </g>
  <g id="Medium-S" transform="matrix(1 0 0 1 1685.71 696)">
   <path d="M60.8376-1.88065Q70.3758-1.88065 78.5385-4.52385Q86.7012-7.16705 93.2331-11.3125Q99.765-15.4579 104.37-20.0718Q108.975-24.6857 111.423-28.7647Q113.872-32.8438 113.872-35.1959Q113.872-37.5801 111.423-41.6393Q108.975-45.6985 104.37-50.312Q99.765-54.9255 93.2331-59.0714Q86.7012-63.2172 78.5385-65.86Q70.3758-68.5028 60.8376-68.5028Q51.4465-68.5028 43.3369-65.86Q35.2272-63.2172 28.6713-59.0714Q22.1153-54.9255 17.461-50.312Q12.8067-45.6985 10.3096-41.6393Q7.8125-37.5801 7.8125-35.1959Q7.8125-32.8438 10.3096-28.7647Q12.8067-24.6857 17.461-20.0718Q22.1153-15.4579 28.6713-11.3125Q35.2272-7.16705 43.3369-4.52385Q51.4465-1.88065 60.8376-1.88065ZM60.8376-9.97391Q53.6667-9.97391 47.15-12.0544Q40.6334-14.135 35.2024-17.3435Q29.7714-20.5521 25.7656-24.0734Q21.7598-27.5948 19.5591-30.6187Q17.3584-33.6426 17.3584-35.1959Q17.3584-36.4571 19.5591-39.3833Q21.7598-42.3096 25.7656-45.8797Q29.7714-49.4499 35.2024-52.7561Q40.6334-56.0623 47.15-58.2363Q53.6667-60.4103 60.8376-60.4103Q68.0084-60.4103 74.5296-58.2363Q81.0509-56.0623 86.4819-52.7561Q91.9128-49.4499 95.919-45.8797Q99.9252-42.3096 102.106-39.3833Q104.286-36.4571 104.286-35.1959Q104.286-33.6426 102.106-30.6187Q99.9252-27.5948 95.919-24.0734Q91.9128-20.5521 86.4819-17.3435Q81.0509-14.135 74.5296-12.0544Q68.0084-9.97391 60.8376-9.97391ZM60.8467-14.6393Q66.6061-14.6393 71.2627-17.4503Q75.9193-20.2614 78.677-24.9424Q81.4346-29.6234 81.4346-35.1959Q81.4346-40.947 78.677-45.599Q75.9193-50.251 71.2627-52.993Q66.6061-55.735 60.8467-55.735Q55.0957-55.735 50.415-52.9976Q45.7344-50.2602 42.9722-45.6036Q40.21-40.947 40.21-35.1959Q40.2496-29.6234 43.0119-24.9424Q45.7741-20.2614 50.4349-17.4503Q55.0957-14.6393 60.8467-14.6393ZM60.8292-28.4309Q58.0215-28.4309 56.0158-30.4298Q54.01-32.4287 54.01-35.1959Q54.01-38.0035 56.0158-39.9982Q58.0215-41.993 60.8292-41.993Q63.6452-41.993 65.6399-39.9982Q67.6346-38.0035 67.6346-35.1959Q67.6346-32.4287 65.6399-30.4298Q63.6452-28.4309 60.8292-28.4309Z"/>
  </g>
  <g id="Regular-S" transform="matrix(1 0 0 1 1389.2 696)">
   <path d="M60.6445-2.19727Q70.0684-2.19727 78.1738-4.80957Q86.2793-7.42188 92.7979-11.5234Q99.3164-15.625 103.931-20.1904Q108.545-24.7559 111.011-28.8086Q113.477-32.8613 113.477-35.2051Q113.477-37.5977 111.011-41.626Q108.545-45.6543 103.931-50.2197Q99.3164-54.7852 92.7979-58.8867Q86.2793-62.9883 78.1738-65.6006Q70.0684-68.2129 60.6445-68.2129Q51.3672-68.2129 43.3105-65.6006Q35.2539-62.9883 28.7109-58.8867Q22.168-54.7852 17.5049-50.2197Q12.8418-45.6543 10.3271-41.626Q7.8125-37.5977 7.8125-35.2051Q7.8125-32.8613 10.3271-28.8086Q12.8418-24.7559 17.5049-20.1904Q22.168-15.625 28.7109-11.5234Q35.2539-7.42188 43.3105-4.80957Q51.3672-2.19727 60.6445-2.19727ZM60.6445-9.0332Q53.2715-9.0332 46.5088-11.2061Q39.7461-13.3789 34.082-16.7236Q28.418-20.0684 24.2188-23.7305Q20.0195-27.3926 17.7002-30.5176Q15.3809-33.6426 15.3809-35.2051Q15.3809-36.4746 17.7002-39.502Q20.0195-42.5293 24.2188-46.2402Q28.418-49.9512 34.082-53.3936Q39.7461-56.8359 46.5088-59.1064Q53.2715-61.377 60.6445-61.377Q68.0176-61.377 74.7803-59.1064Q81.543-56.8359 87.207-53.3936Q92.8711-49.9512 97.0703-46.2402Q101.27-42.5293 103.564-39.502Q105.859-36.4746 105.859-35.2051Q105.859-33.6426 103.564-30.5176Q101.27-27.3926 97.0703-23.7305Q92.8711-20.0684 87.207-16.7236Q81.543-13.3789 74.7803-11.2061Q68.0176-9.0332 60.6445-9.0332ZM60.6445-13.7695Q66.6504-13.7695 71.5088-16.6992Q76.3672-19.6289 79.248-24.5117Q82.1289-29.3945 82.1289-35.2051Q82.1289-41.2109 79.248-46.0693Q76.3672-50.9277 71.5088-53.7842Q66.6504-56.6406 60.6445-56.6406Q54.6387-56.6406 49.7559-53.7842Q44.873-50.9277 41.9922-46.0693Q39.1113-41.2109 39.1113-35.2051Q39.1602-29.3945 42.041-24.5117Q44.9219-19.6289 49.7803-16.6992Q54.6387-13.7695 60.6445-13.7695ZM60.6445-27.9297Q57.6172-27.9297 55.4443-30.0781Q53.2715-32.2266 53.2715-35.2051Q53.2715-38.2324 55.4443-40.3809Q57.6172-42.5293 60.6445-42.5293Q63.6719-42.5293 65.8203-40.3809Q67.9688-38.2324 67.9688-35.2051Q67.9688-32.2266 65.8203-30.0781Q63.6719-27.9297 60.6445-27.9297Z"/>
  </g>
  <g id="Light-S" transform="matrix(1 0 0 1 1093.51 696)">
   <path d="M59.6306-2.59094Q68.782-2.59094 76.7132-5.17273Q84.6443-7.75452 91.0419-11.8183Q97.4396-15.8821 101.993-20.3945Q106.547-24.9069 108.99-28.8994Q111.433-32.8918 111.433-35.2051Q111.433-37.5519 108.982-41.5276Q106.532-45.5032 101.97-50.0156Q97.4091-54.528 91.0042-58.5918Q84.5993-62.6556 76.683-65.2374Q68.7668-67.8192 59.6306-67.8192Q50.5798-67.8192 42.6975-65.2374Q34.8152-62.6556 28.3932-58.5918Q21.9711-54.528 17.3763-50.0156Q12.7815-45.5032 10.297-41.5276Q7.8125-37.5519 7.8125-35.2051Q7.8125-32.8918 10.2894-28.8994Q12.7663-24.9069 17.3534-20.3945Q21.9406-15.8821 28.355-11.8183Q34.7694-7.75452 42.667-5.17273Q50.5646-2.59094 59.6306-2.59094ZM59.6306-8.004Q51.9547-8.004 45.0558-10.2524Q38.1569-12.5008 32.4398-15.9817Q26.7227-19.4626 22.5388-23.2685Q18.3548-27.0744 16.0656-30.3207Q13.7764-33.567 13.7764-35.2051Q13.7764-36.6409 16.0656-39.8197Q18.3548-42.9985 22.5388-46.8456Q26.7227-50.6927 32.4398-54.2412Q38.1569-57.7896 45.0558-60.1131Q51.9547-62.4367 59.6306-62.4367Q67.2913-62.4367 74.1901-60.1131Q81.089-57.7896 86.8061-54.2412Q92.5232-50.6927 96.7072-46.8456Q100.891-42.9985 103.163-39.8197Q105.435-36.6409 105.435-35.2051Q105.435-33.567 103.163-30.3207Q100.891-27.0744 96.7072-23.2685Q92.5232-19.4626 86.8061-15.9817Q81.089-12.5008 74.1901-10.2524Q67.2913-8.004 59.6306-8.004ZM59.6306-13.8Q65.5754-13.8 70.4414-16.7221Q75.3075-19.6442 78.2036-24.5193Q81.0997-29.3945 81.0997-35.2051Q81.0997-41.1804 78.2036-46.0388Q75.3075-50.8972 70.4414-53.7537Q65.5754-56.6101 59.6306-56.6101Q53.64-56.6101 48.7572-53.7537Q43.8744-50.8972 40.9935-46.0388Q38.1126-41.1804 38.1271-35.2051Q38.176-29.3945 41.0568-24.5193Q43.9377-19.6442 48.7888-16.7221Q53.64-13.8 59.6306-13.8ZM59.6458-28.2478Q56.739-28.2478 54.657-30.2979Q52.5749-32.3479 52.5749-35.2051Q52.5749-38.1111 54.657-40.1539Q56.739-42.1967 59.6458-42.1967Q62.5366-42.1967 64.5866-40.1539Q66.6367-38.1111 66.6367-35.2051Q66.6367-32.3479 64.5866-30.2979Q62.5366-28.2478 59.6458-28.2478Z"/>
  </g>
  <g id="Thin-S" transform="matrix(1 0 0 1 798.151 696)">
   <path d="M58.2893-3.11127Q67.0799-3.11127 74.7814-5.65338Q82.4829-8.1955 88.7199-12.2089Q94.957-16.2224 99.4308-20.665Q103.905-25.1076 106.318-29.0195Q108.73-32.9315 108.73-35.2051Q108.73-37.4924 106.3-41.3975Q103.87-45.3026 99.3782-49.7452Q94.8868-54.1878 88.6318-58.2012Q82.3769-62.2147 74.7108-64.7568Q67.0448-67.2989 58.2893-67.2989Q49.5392-67.2989 41.8869-64.7568Q34.2346-62.2147 27.9728-58.2012Q21.711-54.1878 17.2062-49.7452Q12.7014-45.3026 10.257-41.3975Q7.8125-37.4924 7.8125-35.2051Q7.8125-32.9315 10.2394-29.0195Q12.6663-25.1076 17.1535-20.665Q21.6408-16.2224 27.8851-12.2089Q34.1293-8.1955 41.8167-5.65338Q49.5041-3.11127 58.2893-3.11127ZM58.2893-6.64291Q50.2129-6.64291 43.1339-8.99124Q36.055-11.3396 30.2677-15.0009Q24.4804-18.6623 20.3163-22.6582Q16.1522-26.6541 13.9034-30.0606Q11.6547-33.4671 11.6547-35.2051Q11.6547-36.8614 13.9034-40.2401Q16.1522-43.6188 20.3163-47.6463Q24.4804-51.6739 30.2677-55.3623Q36.055-59.0508 43.1339-61.4441Q50.2129-63.8374 58.2893-63.8374Q66.33-63.8374 73.4093-61.4441Q80.4886-59.0508 86.2755-55.3623Q92.0624-51.6739 96.2265-47.6463Q100.391-43.6188 102.633-40.2401Q104.875-36.8614 104.875-35.2051Q104.875-33.4671 102.633-30.0606Q100.391-26.6541 96.2265-22.6582Q92.0624-18.6623 86.2755-15.0009Q80.4886-11.3396 73.4093-8.99124Q66.33-6.64291 58.2893-6.64291ZM58.2893-13.8397Q64.1541-13.8397 69.0304-16.7519Q73.9067-19.664 76.8227-24.5293Q79.7386-29.3945 79.7386-35.2051Q79.7386-41.1407 76.8227-45.9991Q73.9067-50.8575 69.0304-53.714Q64.1541-56.5704 58.2893-56.5704Q52.3186-56.5704 47.4358-53.714Q42.5529-50.8575 39.6721-45.9991Q36.7912-41.1407 36.8263-35.2051Q36.8752-29.3945 39.756-24.5293Q42.6369-19.664 47.4777-16.7519Q52.3186-13.8397 58.2893-13.8397ZM58.3244-28.6682Q55.5779-28.6682 53.616-30.5882Q51.6541-32.5081 51.6541-35.2051Q51.6541-37.9509 53.616-39.8533Q55.5779-41.7557 58.3244-41.7557Q61.0352-41.7557 62.9551-39.8533Q64.875-37.9509 64.875-35.2051Q64.875-32.5081 62.9551-30.5882Q61.0352-28.6682 58.3244-28.6682Z"/>
  </g>
  <g id="Ultralight-S" transform="matrix(1 0 0 1 502.132 696)">
   <path d="M57.6019-3.3783Q66.2086-3.3783 73.7919-5.89943Q81.3751-8.42056 87.5305-12.4088Q93.6859-16.3971 98.1182-20.8035Q102.551-25.2098 104.948-29.081Q107.346-32.9521 107.346-35.2051Q107.346-37.4611 104.926-41.3307Q102.505-45.2003 98.0503-49.6067Q93.5951-54.0131 87.4168-58.0013Q81.2386-61.9896 73.7007-64.5107Q66.1629-67.0319 57.6019-67.0319Q49.0059-67.0319 41.4715-64.5107Q33.9371-61.9896 27.7573-58.0013Q21.5775-54.0131 17.1188-49.6067Q12.6602-45.2003 10.2364-41.3307Q7.8125-37.4611 7.8125-35.2051Q7.8125-32.9521 10.2135-29.081Q12.6144-25.2098 17.0506-20.8035Q21.4867-16.3971 27.6436-12.4088Q33.8005-8.42056 41.3803-5.89943Q48.9601-3.3783 57.6019-3.3783ZM57.6019-5.94559Q49.321-5.94559 42.1494-8.34541Q34.9777-10.7452 29.155-14.4985Q23.3322-18.2518 19.1784-22.3454Q15.0246-26.4389 12.796-29.9271Q10.5675-33.4152 10.5675-35.2051Q10.5675-36.9743 12.796-40.4556Q15.0246-43.9369 19.1784-48.0564Q23.3322-52.1759 29.155-55.9364Q34.9777-59.697 42.1494-62.1262Q49.321-64.5554 57.6019-64.5554Q65.8379-64.5554 73.0091-62.1262Q80.1804-59.697 86.0035-55.9364Q91.8266-52.1759 95.9805-48.0564Q100.134-43.9369 102.361-40.4556Q104.588-36.9743 104.588-35.2051Q104.588-33.4152 102.361-29.9271Q100.134-26.4389 95.9805-22.3454Q91.8266-18.2518 86.0035-14.4985Q80.1804-10.7452 73.0091-8.34541Q65.8379-5.94559 57.6019-5.94559ZM57.6019-13.8603Q63.4262-13.8603 68.3075-16.7675Q73.1888-19.6747 76.115-24.5346Q79.0413-29.3945 79.0413-35.2051Q79.0413-41.1201 76.115-45.9785Q73.1888-50.8369 68.3075-53.6934Q63.4262-56.5498 57.6019-56.5498Q51.6418-56.5498 46.759-53.6934Q41.8762-50.8369 38.9954-45.9785Q36.1145-41.1201 36.1595-35.2051Q36.2083-29.3945 39.0892-24.5346Q41.9701-19.6747 46.806-16.7675Q51.6418-13.8603 57.6019-13.8603ZM57.6477-28.8834Q54.9835-28.8834 53.083-30.7365Q51.1826-32.5897 51.1826-35.2051Q51.1826-37.8693 53.083-39.6999Q54.9835-41.5306 57.6477-41.5306Q60.2661-41.5306 62.1193-39.6999Q63.9725-37.8693 63.9725-35.2051Q63.9725-32.5897 62.1193-30.7365Q60.2661-28.8834 57.6477-28.8834Z"/>
  </g>
 </g>
</svg>
