<?xml version="1.0" encoding="UTF-8"?>
<!--Generator: Apple Native CoreSVG 175-->
<!DOCTYPE svg
PUBLIC "-//W3C//DTD SVG 1.1//EN"
       "http://www.w3.org/Graphics/SVG/1.1/DTD/svg11.dtd">
<svg version="1.1" xmlns="http://www.w3.org/2000/svg" xmlns:xlink="http://www.w3.org/1999/xlink" width="3300" height="2200">
 <!--glyph: "uni1007D6.medium", point size: 100.0, font version: "17.0d12e1", template writer version: "65.1"-->
 <g id="Notes">
  <rect height="2200" id="artboard" style="fill:white;opacity:1" width="3300" x="0" y="0"/>
  <line style="fill:none;stroke:black;opacity:1;stroke-width:0.5;" x1="263" x2="3036" y1="292" y2="292"/>
  <text style="stroke:none;fill:black;font-family:sans-serif;font-size:13;font-weight:bold;" transform="matrix(1 0 0 1 263 322)">Weight/Scale Variations</text>
  <text style="stroke:none;fill:black;font-family:sans-serif;font-size:13;text-anchor:middle;" transform="matrix(1 0 0 1 559.711 322)">Ultralight</text>
  <text style="stroke:none;fill:black;font-family:sans-serif;font-size:13;text-anchor:middle;" transform="matrix(1 0 0 1 856.422 322)">Thin</text>
  <text style="stroke:none;fill:black;font-family:sans-serif;font-size:13;text-anchor:middle;" transform="matrix(1 0 0 1 1153.13 322)">Light</text>
  <text style="stroke:none;fill:black;font-family:sans-serif;font-size:13;text-anchor:middle;" transform="matrix(1 0 0 1 1449.84 322)">Regular</text>
  <text style="stroke:none;fill:black;font-family:sans-serif;font-size:13;text-anchor:middle;" transform="matrix(1 0 0 1 1746.56 322)">Medium</text>
  <text style="stroke:none;fill:black;font-family:sans-serif;font-size:13;text-anchor:middle;" transform="matrix(1 0 0 1 2043.27 322)">Semibold</text>
  <text style="stroke:none;fill:black;font-family:sans-serif;font-size:13;text-anchor:middle;" transform="matrix(1 0 0 1 2339.98 322)">Bold</text>
  <text style="stroke:none;fill:black;font-family:sans-serif;font-size:13;text-anchor:middle;" transform="matrix(1 0 0 1 2636.69 322)">Heavy</text>
  <text style="stroke:none;fill:black;font-family:sans-serif;font-size:13;text-anchor:middle;" transform="matrix(1 0 0 1 2933.4 322)">Black</text>
  <line style="fill:none;stroke:black;opacity:1;stroke-width:0.5;" x1="263" x2="3036" y1="1903" y2="1903"/>
  <g transform="matrix(1 0 0 1 263 1933)">
   <path d="M9.24805 0.830078Q10.8691 0.830078 12.2949 0.214844Q13.7207-0.400391 14.8096-1.49414Q15.8984-2.58789 16.5186-4.01367Q17.1387-5.43945 17.1387-7.05078Q17.1387-8.66211 16.5186-10.0879Q15.8984-11.5137 14.8047-12.6074Q13.7109-13.7012 12.2852-14.3164Q10.8594-14.9316 9.23828-14.9316Q7.62695-14.9316 6.20117-14.3164Q4.77539-13.7012 3.69141-12.6074Q2.60742-11.5137 1.9873-10.0879Q1.36719-8.66211 1.36719-7.05078Q1.36719-5.43945 1.9873-4.01367Q2.60742-2.58789 3.69629-1.49414Q4.78516-0.400391 6.21094 0.214844Q7.63672 0.830078 9.24805 0.830078ZM9.24805-0.654297Q7.91992-0.654297 6.7627-1.14746Q5.60547-1.64062 4.73145-2.51953Q3.85742-3.39844 3.36426-4.56055Q2.87109-5.72266 2.87109-7.05078Q2.87109-8.37891 3.35938-9.54102Q3.84766-10.7031 4.72168-11.582Q5.5957-12.4609 6.75293-12.9541Q7.91016-13.4473 9.23828-13.4473Q10.5762-13.4473 11.7334-12.9541Q12.8906-12.4609 13.7695-11.582Q14.6484-10.7031 15.1465-9.54102Q15.6445-8.37891 15.6445-7.05078Q15.6445-5.72266 15.1514-4.56055Q14.6582-3.39844 13.7842-2.51953Q12.9102-1.64062 11.748-1.14746Q10.5859-0.654297 9.24805-0.654297ZM5.6543-7.05078Q5.6543-6.72852 5.85938-6.52832Q6.06445-6.32812 6.40625-6.32812L8.51562-6.32812L8.51562-4.20898Q8.51562-3.88672 8.71094-3.67676Q8.90625-3.4668 9.23828-3.4668Q9.56055-3.4668 9.77051-3.67676Q9.98047-3.88672 9.98047-4.20898L9.98047-6.32812L12.0898-6.32812Q12.4219-6.32812 12.627-6.52832Q12.832-6.72852 12.832-7.05078Q12.832-7.38281 12.627-7.58789Q12.4219-7.79297 12.0898-7.79297L9.98047-7.79297L9.98047-9.90234Q9.98047-10.2344 9.77051-10.4443Q9.56055-10.6543 9.23828-10.6543Q8.90625-10.6543 8.71094-10.4443Q8.51562-10.2344 8.51562-9.90234L8.51562-7.79297L6.40625-7.79297Q6.06445-7.79297 5.85938-7.58789Q5.6543-7.38281 5.6543-7.05078Z"/>
  </g>
  <g transform="matrix(1 0 0 1 281.867 1933)">
   <path d="M11.709 2.91016Q13.75 2.91016 15.5518 2.12891Q17.3535 1.34766 18.7305-0.0292969Q20.1074-1.40625 20.8887-3.20801Q21.6699-5.00977 21.6699-7.05078Q21.6699-9.0918 20.8887-10.8936Q20.1074-12.6953 18.7305-14.0723Q17.3535-15.4492 15.5469-16.2305Q13.7402-17.0117 11.6992-17.0117Q9.6582-17.0117 7.85645-16.2305Q6.05469-15.4492 4.68262-14.0723Q3.31055-12.6953 2.5293-10.8936Q1.74805-9.0918 1.74805-7.05078Q1.74805-5.00977 2.5293-3.20801Q3.31055-1.40625 4.6875-0.0292969Q6.06445 1.34766 7.86621 2.12891Q9.66797 2.91016 11.709 2.91016ZM11.709 1.25Q9.98047 1.25 8.47656 0.605469Q6.97266-0.0390625 5.83496-1.17676Q4.69727-2.31445 4.05762-3.81836Q3.41797-5.32227 3.41797-7.05078Q3.41797-8.7793 4.05762-10.2832Q4.69727-11.7871 5.83008-12.9297Q6.96289-14.0723 8.4668-14.7119Q9.9707-15.3516 11.6992-15.3516Q13.4277-15.3516 14.9316-14.7119Q16.4355-14.0723 17.5781-12.9297Q18.7207-11.7871 19.3652-10.2832Q20.0098-8.7793 20.0098-7.05078Q20.0098-5.32227 19.3701-3.81836Q18.7305-2.31445 17.5928-1.17676Q16.4551-0.0390625 14.9463 0.605469Q13.4375 1.25 11.709 1.25ZM7.17773-7.05078Q7.17773-6.69922 7.41211-6.47461Q7.64648-6.25 8.01758-6.25L10.8887-6.25L10.8887-3.36914Q10.8887-2.99805 11.1133-2.76855Q11.3379-2.53906 11.6895-2.53906Q12.0605-2.53906 12.29-2.76855Q12.5195-2.99805 12.5195-3.36914L12.5195-6.25L15.4004-6.25Q15.7715-6.25 16.001-6.47461Q16.2305-6.69922 16.2305-7.05078Q16.2305-7.42188 16.001-7.65137Q15.7715-7.88086 15.4004-7.88086L12.5195-7.88086L12.5195-10.752Q12.5195-11.1328 12.29-11.3623Q12.0605-11.5918 11.6895-11.5918Q11.3379-11.5918 11.1133-11.3574Q10.8887-11.123 10.8887-10.752L10.8887-7.88086L8.01758-7.88086Q7.63672-7.88086 7.40723-7.65137Q7.17773-7.42188 7.17773-7.05078Z"/>
  </g>
  <g transform="matrix(1 0 0 1 305.646 1933)">
   <path d="M14.9707 5.66406Q17.0605 5.66406 18.96 5.01465Q20.8594 4.36523 22.4512 3.19336Q24.043 2.02148 25.2197 0.429688Q26.3965-1.16211 27.0459-3.06641Q27.6953-4.9707 27.6953-7.05078Q27.6953-9.14062 27.0459-11.04Q26.3965-12.9395 25.2197-14.5312Q24.043-16.123 22.4512-17.2998Q20.8594-18.4766 18.9551-19.126Q17.0508-19.7754 14.9609-19.7754Q12.8711-19.7754 10.9717-19.126Q9.07227-18.4766 7.48535-17.2998Q5.89844-16.123 4.72168-14.5312Q3.54492-12.9395 2.90039-11.04Q2.25586-9.14062 2.25586-7.05078Q2.25586-4.9707 2.90527-3.06641Q3.55469-1.16211 4.72656 0.429688Q5.89844 2.02148 7.49023 3.19336Q9.08203 4.36523 10.9814 5.01465Q12.8809 5.66406 14.9707 5.66406ZM14.9707 3.84766Q13.1641 3.84766 11.5283 3.2959Q9.89258 2.74414 8.53516 1.74805Q7.17773 0.751953 6.17676-0.610352Q5.17578-1.97266 4.62891-3.6084Q4.08203-5.24414 4.08203-7.05078Q4.08203-8.86719 4.62891-10.5029Q5.17578-12.1387 6.17188-13.501Q7.16797-14.8633 8.52539-15.8594Q9.88281-16.8555 11.5186-17.4023Q13.1543-17.9492 14.9609-17.9492Q16.7773-17.9492 18.4131-17.4023Q20.0488-16.8555 21.4111-15.8594Q22.7734-14.8633 23.7695-13.501Q24.7656-12.1387 25.3174-10.5029Q25.8691-8.86719 25.8691-7.05078Q25.8789-5.24414 25.332-3.6084Q24.7852-1.97266 23.7842-0.610352Q22.7832 0.751953 21.4209 1.74805Q20.0586 2.74414 18.4229 3.2959Q16.7871 3.84766 14.9707 3.84766ZM9.19922-7.05078Q9.19922-6.66992 9.45801-6.4209Q9.7168-6.17188 10.1172-6.17188L14.0625-6.17188L14.0625-2.2168Q14.0625-1.81641 14.3115-1.55762Q14.5605-1.29883 14.9512-1.29883Q15.3516-1.29883 15.6104-1.55273Q15.8691-1.80664 15.8691-2.2168L15.8691-6.17188L19.8242-6.17188Q20.2246-6.17188 20.4785-6.4209Q20.7324-6.66992 20.7324-7.05078Q20.7324-7.46094 20.4785-7.71484Q20.2246-7.96875 19.8242-7.96875L15.8691-7.96875L15.8691-11.9141Q15.8691-12.3242 15.6104-12.583Q15.3516-12.8418 14.9512-12.8418Q14.5605-12.8418 14.3115-12.583Q14.0625-12.3242 14.0625-11.9141L14.0625-7.96875L10.1172-7.96875Q9.70703-7.96875 9.45312-7.71484Q9.19922-7.46094 9.19922-7.05078Z"/>
  </g>
  <text style="stroke:none;fill:black;font-family:sans-serif;font-size:13;font-weight:bold;" transform="matrix(1 0 0 1 263 1953)">Design Variations</text>
  <text style="stroke:none;fill:black;font-family:sans-serif;font-size:13;" transform="matrix(1 0 0 1 263 1971)">Symbols are supported in up to nine weights and three scales.</text>
  <text style="stroke:none;fill:black;font-family:sans-serif;font-size:13;" transform="matrix(1 0 0 1 263 1989)">For optimal layout with text and other symbols, vertically align</text>
  <text style="stroke:none;fill:black;font-family:sans-serif;font-size:13;" transform="matrix(1 0 0 1 263 2007)">symbols with the adjacent text.</text>
  <line style="fill:none;stroke:#00AEEF;stroke-width:0.5;opacity:1.0;" x1="776" x2="776" y1="1919" y2="1933"/>
  <g transform="matrix(1 0 0 1 776 1933)">
   <path d="M3.31055 0.15625Q3.70117 0.15625 3.91602-0.00976562Q4.13086-0.175781 4.26758-0.585938L5.52734-4.0332L11.2891-4.0332L12.5488-0.585938Q12.6855-0.175781 12.9004-0.00976562Q13.1152 0.15625 13.4961 0.15625Q13.8867 0.15625 14.1162-0.0585938Q14.3457-0.273438 14.3457-0.644531Q14.3457-0.869141 14.2383-1.17188L9.6582-13.3691Q9.48242-13.8184 9.17969-14.043Q8.87695-14.2676 8.4082-14.2676Q7.5-14.2676 7.17773-13.3789L2.59766-1.16211Q2.49023-0.859375 2.49023-0.634766Q2.49023-0.263672 2.70996-0.0537109Q2.92969 0.15625 3.31055 0.15625ZM6.00586-5.51758L8.37891-12.0898L8.42773-12.0898L10.8008-5.51758Z"/>
  </g>
  <line style="fill:none;stroke:#00AEEF;stroke-width:0.5;opacity:1.0;" x1="793.197" x2="793.197" y1="1919" y2="1933"/>
  <text style="stroke:none;fill:black;font-family:sans-serif;font-size:13;font-weight:bold;" transform="matrix(1 0 0 1 776 1953)">Margins</text>
  <text style="stroke:none;fill:black;font-family:sans-serif;font-size:13;" transform="matrix(1 0 0 1 776 1971)">Leading and trailing margins on the left and right side of each symbol</text>
  <text style="stroke:none;fill:black;font-family:sans-serif;font-size:13;" transform="matrix(1 0 0 1 776 1989)">can be adjusted by modifying the x-location of the margin guidelines.</text>
  <text style="stroke:none;fill:black;font-family:sans-serif;font-size:13;" transform="matrix(1 0 0 1 776 2007)">Modifications are automatically applied proportionally to all</text>
  <text style="stroke:none;fill:black;font-family:sans-serif;font-size:13;" transform="matrix(1 0 0 1 776 2025)">scales and weights.</text>
  <g transform="matrix(1 0 0 1 1289 1933)">
   <path d="M2.8418 1.86523L4.54102 3.57422Q5.18555 4.22852 5.90332 4.17969Q6.62109 4.13086 7.31445 3.35938L18.0078-8.42773L17.041-9.4043L6.42578 2.27539Q6.16211 2.57812 5.89355 2.61719Q5.625 2.65625 5.27344 2.30469L4.10156 1.14258Q3.75 0.791016 3.79395 0.522461Q3.83789 0.253906 4.14062-0.0195312L15.6152-10.8203L14.6387-11.7871L3.04688-0.898438Q2.30469-0.214844 2.25098 0.498047Q2.19727 1.21094 2.8418 1.86523ZM9.25781-16.3281Q8.94531-16.0254 8.90625-15.6348Q8.86719-15.2441 9.04297-14.9512Q9.21875-14.6777 9.55566-14.541Q9.89258-14.4043 10.3809-14.5215Q11.4746-14.7754 12.5977-14.7314Q13.7207-14.6875 14.7949-13.9844L14.209-12.5293Q13.9551-11.9043 14.0674-11.4404Q14.1797-10.9766 14.5801-10.5664L16.875-8.25195Q17.2363-7.88086 17.5781-7.82227Q17.9199-7.76367 18.3398-7.8418L19.4043-8.03711L20.0684-7.36328L20.0293-6.80664Q20-6.43555 20.1221-6.12305Q20.2441-5.81055 20.6055-5.44922L21.3672-4.70703Q21.7285-4.3457 22.1533-4.33105Q22.5781-4.31641 22.9297-4.66797L25.8398-7.58789Q26.1914-7.93945 26.1816-8.35449Q26.1719-8.76953 25.8105-9.13086L25.0391-9.89258Q24.6875-10.2539 24.3799-10.3857Q24.0723-10.5176 23.7109-10.4883L23.1348-10.4395L22.4902-11.0742L22.7344-12.1973Q22.832-12.6172 22.6953-12.9834Q22.5586-13.3496 22.1191-13.7891L19.9219-15.9766Q18.6719-17.2168 17.2607-17.8369Q15.8496-18.457 14.4189-18.4814Q12.9883-18.5059 11.665-17.959Q10.3418-17.4121 9.25781-16.3281ZM10.752-15.957Q11.6602-16.6211 12.7002-16.9043Q13.7402-17.1875 14.8047-17.085Q15.8691-16.9824 16.8701-16.5137Q17.8711-16.0449 18.7012-15.2051L21.1328-12.793Q21.3086-12.6172 21.3525-12.4512Q21.3965-12.2852 21.3379-12.0312L21.0156-10.5469L22.5195-9.0625L23.5059-9.12109Q23.6914-9.13086 23.7891-9.09668Q23.8867-9.0625 24.0332-8.91602L24.6094-8.33984L22.168-5.89844L21.5918-6.47461Q21.4453-6.62109 21.4062-6.71875Q21.3672-6.81641 21.377-7.01172L21.4453-7.98828L19.9512-9.47266L18.4277-9.21875Q18.1836-9.16992 18.042-9.2041Q17.9004-9.23828 17.7148-9.41406L15.7129-11.416Q15.5176-11.5918 15.4932-11.7529Q15.4688-11.9141 15.5859-12.1875L16.4648-14.2773Q15.293-15.3711 13.8281-15.791Q12.3633-16.2109 10.8398-15.7617Q10.7227-15.7324 10.6885-15.8057Q10.6543-15.8789 10.752-15.957Z"/>
  </g>
  <text style="stroke:none;fill:black;font-family:sans-serif;font-size:13;font-weight:bold;" transform="matrix(1 0 0 1 1289 1953)">Exporting</text>
  <text style="stroke:none;fill:black;font-family:sans-serif;font-size:13;" transform="matrix(1 0 0 1 1289 1971)">Symbols should be outlined when exporting to ensure the</text>
  <text style="stroke:none;fill:black;font-family:sans-serif;font-size:13;" transform="matrix(1 0 0 1 1289 1989)">design is preserved when submitting to Xcode.</text>
  <text id="template-version" style="stroke:none;fill:black;font-family:sans-serif;font-size:13;text-anchor:end;" transform="matrix(1 0 0 1 3036 1933)">Template v.3.0</text>
  <text style="stroke:none;fill:black;font-family:sans-serif;font-size:13;text-anchor:end;" transform="matrix(1 0 0 1 3036 1951)">Requires Xcode 13 or greater</text>
  <text id="descriptive-name" style="stroke:none;fill:black;font-family:sans-serif;font-size:13;text-anchor:end;" transform="matrix(1 0 0 1 3036 1969)">Generated from key.fill</text>
  <text style="stroke:none;fill:black;font-family:sans-serif;font-size:13;text-anchor:end;" transform="matrix(1 0 0 1 3036 1987)">Typeset at 100 points</text>
  <text style="stroke:none;fill:black;font-family:sans-serif;font-size:13;" transform="matrix(1 0 0 1 263 726)">Small</text>
  <text style="stroke:none;fill:black;font-family:sans-serif;font-size:13;" transform="matrix(1 0 0 1 263 1156)">Medium</text>
  <text style="stroke:none;fill:black;font-family:sans-serif;font-size:13;" transform="matrix(1 0 0 1 263 1586)">Large</text>
 </g>
 <g id="Guides">
  <g id="H-reference" style="fill:#27AAE1;stroke:none;" transform="matrix(1 0 0 1 339 696)">
   <path d="M0.993347 0L3.6377 0L29.3282-67.1326L30.0301-67.1326L30.0301-70.459L28.1227-70.459ZM11.6882-24.4797L46.9818-24.4797L46.2311-26.7288L12.4382-26.7288ZM55.1193 0L57.7637 0L30.6381-70.459L29.4327-70.459L29.4327-67.1326Z"/>
  </g>
  <line id="Baseline-S" style="fill:none;stroke:#27AAE1;opacity:1;stroke-width:0.5;" x1="263" x2="3036" y1="696" y2="696"/>
  <line id="Capline-S" style="fill:none;stroke:#27AAE1;opacity:1;stroke-width:0.5;" x1="263" x2="3036" y1="625.541" y2="625.541"/>
  <g id="H-reference" style="fill:#27AAE1;stroke:none;" transform="matrix(1 0 0 1 339 1126)">
   <path d="M0.993347 0L3.6377 0L29.3282-67.1326L30.0301-67.1326L30.0301-70.459L28.1227-70.459ZM11.6882-24.4797L46.9818-24.4797L46.2311-26.7288L12.4382-26.7288ZM55.1193 0L57.7637 0L30.6381-70.459L29.4327-70.459L29.4327-67.1326Z"/>
  </g>
  <line id="Baseline-M" style="fill:none;stroke:#27AAE1;opacity:1;stroke-width:0.5;" x1="263" x2="3036" y1="1126" y2="1126"/>
  <line id="Capline-M" style="fill:none;stroke:#27AAE1;opacity:1;stroke-width:0.5;" x1="263" x2="3036" y1="1055.54" y2="1055.54"/>
  <g id="H-reference" style="fill:#27AAE1;stroke:none;" transform="matrix(1 0 0 1 339 1556)">
   <path d="M0.993347 0L3.6377 0L29.3282-67.1326L30.0301-67.1326L30.0301-70.459L28.1227-70.459ZM11.6882-24.4797L46.9818-24.4797L46.2311-26.7288L12.4382-26.7288ZM55.1193 0L57.7637 0L30.6381-70.459L29.4327-70.459L29.4327-67.1326Z"/>
  </g>
  <line id="Baseline-L" style="fill:none;stroke:#27AAE1;opacity:1;stroke-width:0.5;" x1="263" x2="3036" y1="1556" y2="1556"/>
  <line id="Capline-L" style="fill:none;stroke:#27AAE1;opacity:1;stroke-width:0.5;" x1="263" x2="3036" y1="1485.54" y2="1485.54"/>
  <line id="left-margin-Ultralight-S" style="fill:none;stroke:#00AEEF;stroke-width:0.5;opacity:1.0;" x1="526.961" x2="526.961" y1="600.785" y2="720.121"/>
  <line id="right-margin-Ultralight-S" style="fill:none;stroke:#00AEEF;stroke-width:0.5;opacity:1.0;" x1="592.462" x2="592.462" y1="600.785" y2="720.121"/>
  <line id="left-margin-Thin-S" style="fill:none;stroke:#00AEEF;stroke-width:0.5;opacity:1.0;" x1="823.272" x2="823.272" y1="600.785" y2="720.121"/>
  <line id="right-margin-Thin-S" style="fill:none;stroke:#00AEEF;stroke-width:0.5;opacity:1.0;" x1="889.573" x2="889.573" y1="600.785" y2="720.121"/>
  <line id="left-margin-Light-S" style="fill:none;stroke:#00AEEF;stroke-width:0.5;opacity:1.0;" x1="1119.2" x2="1119.2" y1="600.785" y2="720.121"/>
  <line id="right-margin-Light-S" style="fill:none;stroke:#00AEEF;stroke-width:0.5;opacity:1.0;" x1="1187.06" x2="1187.06" y1="600.785" y2="720.121"/>
  <line id="left-margin-Regular-S" style="fill:none;stroke:#00AEEF;stroke-width:0.5;opacity:1.0;" x1="1415.32" x2="1415.32" y1="600.785" y2="720.121"/>
  <line id="right-margin-Regular-S" style="fill:none;stroke:#00AEEF;stroke-width:0.5;opacity:1.0;" x1="1484.37" x2="1484.37" y1="600.785" y2="720.121"/>
  <line id="left-margin-Medium-S" style="fill:none;stroke:#00AEEF;stroke-width:0.5;opacity:1.0;" x1="1711.49" x2="1711.49" y1="600.785" y2="720.121"/>
  <line id="right-margin-Medium-S" style="fill:none;stroke:#00AEEF;stroke-width:0.5;opacity:1.0;" x1="1781.62" x2="1781.62" y1="600.785" y2="720.121"/>
  <line id="left-margin-Semibold-S" style="fill:none;stroke:#00AEEF;stroke-width:0.5;opacity:1.0;" x1="2007.78" x2="2007.78" y1="600.785" y2="720.121"/>
  <line id="right-margin-Semibold-S" style="fill:none;stroke:#00AEEF;stroke-width:0.5;opacity:1.0;" x1="2078.75" x2="2078.75" y1="600.785" y2="720.121"/>
  <line id="left-margin-Bold-S" style="fill:none;stroke:#00AEEF;stroke-width:0.5;opacity:1.0;" x1="2303.94" x2="2303.94" y1="600.785" y2="720.121"/>
  <line id="right-margin-Bold-S" style="fill:none;stroke:#00AEEF;stroke-width:0.5;opacity:1.0;" x1="2376.01" x2="2376.01" y1="600.785" y2="720.121"/>
  <line id="left-margin-Heavy-S" style="fill:none;stroke:#00AEEF;stroke-width:0.5;opacity:1.0;" x1="2599.85" x2="2599.85" y1="600.785" y2="720.121"/>
  <line id="right-margin-Heavy-S" style="fill:none;stroke:#00AEEF;stroke-width:0.5;opacity:1.0;" x1="2673.52" x2="2673.52" y1="600.785" y2="720.121"/>
  <line id="left-margin-Black-S" style="fill:none;stroke:#00AEEF;stroke-width:0.5;opacity:1.0;" x1="2895.85" x2="2895.85" y1="600.785" y2="720.121"/>
  <line id="right-margin-Black-S" style="fill:none;stroke:#00AEEF;stroke-width:0.5;opacity:1.0;" x1="2970.95" x2="2970.95" y1="600.785" y2="720.121"/>
  <line id="left-margin-Ultralight-M" style="fill:none;stroke:#00AEEF;stroke-width:0.5;opacity:1.0;" x1="518.059" x2="518.059" y1="1030.79" y2="1150.12"/>
  <line id="right-margin-Ultralight-M" style="fill:none;stroke:#00AEEF;stroke-width:0.5;opacity:1.0;" x1="601.364" x2="601.364" y1="1030.79" y2="1150.12"/>
  <line id="left-margin-Thin-M" style="fill:none;stroke:#00AEEF;stroke-width:0.5;opacity:1.0;" x1="814.324" x2="814.324" y1="1030.79" y2="1150.12"/>
  <line id="right-margin-Thin-M" style="fill:none;stroke:#00AEEF;stroke-width:0.5;opacity:1.0;" x1="898.521" x2="898.521" y1="1030.79" y2="1150.12"/>
  <line id="left-margin-Light-M" style="fill:none;stroke:#00AEEF;stroke-width:0.5;opacity:1.0;" x1="1110.16" x2="1110.16" y1="1030.79" y2="1150.12"/>
  <line id="right-margin-Light-M" style="fill:none;stroke:#00AEEF;stroke-width:0.5;opacity:1.0;" x1="1196.1" x2="1196.1" y1="1030.79" y2="1150.12"/>
  <line id="left-margin-Regular-M" style="fill:none;stroke:#00AEEF;stroke-width:0.5;opacity:1.0;" x1="1406.22" x2="1406.22" y1="1030.79" y2="1150.12"/>
  <line id="right-margin-Regular-M" style="fill:none;stroke:#00AEEF;stroke-width:0.5;opacity:1.0;" x1="1493.47" x2="1493.47" y1="1030.79" y2="1150.12"/>
  <line id="left-margin-Medium-M" style="fill:none;stroke:#00AEEF;stroke-width:0.5;opacity:1.0;" x1="1702.21" x2="1702.21" y1="1030.79" y2="1150.12"/>
  <line id="right-margin-Medium-M" style="fill:none;stroke:#00AEEF;stroke-width:0.5;opacity:1.0;" x1="1790.9" x2="1790.9" y1="1030.79" y2="1150.12"/>
  <line id="left-margin-Semibold-M" style="fill:none;stroke:#00AEEF;stroke-width:0.5;opacity:1.0;" x1="1998.37" x2="1998.37" y1="1030.79" y2="1150.12"/>
  <line id="right-margin-Semibold-M" style="fill:none;stroke:#00AEEF;stroke-width:0.5;opacity:1.0;" x1="2088.16" x2="2088.16" y1="1030.79" y2="1150.12"/>
  <line id="left-margin-Bold-M" style="fill:none;stroke:#00AEEF;stroke-width:0.5;opacity:1.0;" x1="2294.36" x2="2294.36" y1="1030.79" y2="1150.12"/>
  <line id="right-margin-Bold-M" style="fill:none;stroke:#00AEEF;stroke-width:0.5;opacity:1.0;" x1="2385.6" x2="2385.6" y1="1030.79" y2="1150.12"/>
  <line id="left-margin-Heavy-M" style="fill:none;stroke:#00AEEF;stroke-width:0.5;opacity:1.0;" x1="2590.02" x2="2590.02" y1="1030.79" y2="1150.12"/>
  <line id="right-margin-Heavy-M" style="fill:none;stroke:#00AEEF;stroke-width:0.5;opacity:1.0;" x1="2683.36" x2="2683.36" y1="1030.79" y2="1150.12"/>
  <line id="left-margin-Black-M" style="fill:none;stroke:#00AEEF;stroke-width:0.5;opacity:1.0;" x1="2885.79" x2="2885.79" y1="1030.79" y2="1150.12"/>
  <line id="right-margin-Black-M" style="fill:none;stroke:#00AEEF;stroke-width:0.5;opacity:1.0;" x1="2981.01" x2="2981.01" y1="1030.79" y2="1150.12"/>
  <line id="left-margin-Ultralight-L" style="fill:none;stroke:#00AEEF;stroke-width:0.5;opacity:1.0;" x1="506.174" x2="506.174" y1="1460.79" y2="1580.12"/>
  <line id="right-margin-Ultralight-L" style="fill:none;stroke:#00AEEF;stroke-width:0.5;opacity:1.0;" x1="613.248" x2="613.248" y1="1460.79" y2="1580.12"/>
  <line id="left-margin-Thin-L" style="fill:none;stroke:#00AEEF;stroke-width:0.5;opacity:1.0;" x1="802.383" x2="802.383" y1="1460.79" y2="1580.12"/>
  <line id="right-margin-Thin-L" style="fill:none;stroke:#00AEEF;stroke-width:0.5;opacity:1.0;" x1="910.461" x2="910.461" y1="1460.79" y2="1580.12"/>
  <line id="left-margin-Light-L" style="fill:none;stroke:#00AEEF;stroke-width:0.5;opacity:1.0;" x1="1098.11" x2="1098.11" y1="1460.79" y2="1580.12"/>
  <line id="right-margin-Light-L" style="fill:none;stroke:#00AEEF;stroke-width:0.5;opacity:1.0;" x1="1208.15" x2="1208.15" y1="1460.79" y2="1580.12"/>
  <line id="left-margin-Regular-L" style="fill:none;stroke:#00AEEF;stroke-width:0.5;opacity:1.0;" x1="1394.08" x2="1394.08" y1="1460.79" y2="1580.12"/>
  <line id="right-margin-Regular-L" style="fill:none;stroke:#00AEEF;stroke-width:0.5;opacity:1.0;" x1="1505.61" x2="1505.61" y1="1460.79" y2="1580.12"/>
  <line id="left-margin-Medium-L" style="fill:none;stroke:#00AEEF;stroke-width:0.5;opacity:1.0;" x1="1689.94" x2="1689.94" y1="1460.79" y2="1580.12"/>
  <line id="right-margin-Medium-L" style="fill:none;stroke:#00AEEF;stroke-width:0.5;opacity:1.0;" x1="1803.17" x2="1803.17" y1="1460.79" y2="1580.12"/>
  <line id="left-margin-Semibold-L" style="fill:none;stroke:#00AEEF;stroke-width:0.5;opacity:1.0;" x1="1986" x2="1986" y1="1460.79" y2="1580.12"/>
  <line id="right-margin-Semibold-L" style="fill:none;stroke:#00AEEF;stroke-width:0.5;opacity:1.0;" x1="2100.53" x2="2100.53" y1="1460.79" y2="1580.12"/>
  <line id="left-margin-Bold-L" style="fill:none;stroke:#00AEEF;stroke-width:0.5;opacity:1.0;" x1="2281.85" x2="2281.85" y1="1460.79" y2="1580.12"/>
  <line id="right-margin-Bold-L" style="fill:none;stroke:#00AEEF;stroke-width:0.5;opacity:1.0;" x1="2398.11" x2="2398.11" y1="1460.79" y2="1580.12"/>
  <line id="left-margin-Heavy-L" style="fill:none;stroke:#00AEEF;stroke-width:0.5;opacity:1.0;" x1="2577.31" x2="2577.31" y1="1460.79" y2="1580.12"/>
  <line id="right-margin-Heavy-L" style="fill:none;stroke:#00AEEF;stroke-width:0.5;opacity:1.0;" x1="2696.07" x2="2696.07" y1="1460.79" y2="1580.12"/>
  <line id="left-margin-Black-L" style="fill:none;stroke:#00AEEF;stroke-width:0.5;opacity:1.0;" x1="2872.9" x2="2872.9" y1="1460.79" y2="1580.12"/>
  <line id="right-margin-Black-L" style="fill:none;stroke:#00AEEF;stroke-width:0.5;opacity:1.0;" x1="2993.9" x2="2993.9" y1="1460.79" y2="1580.12"/>
 </g>
 <g id="Symbols">
  <g id="Black-L" transform="matrix(1 0 0 1 2872.9 1556)">
   <path d="M60.498-116.553Q51.2207-116.553 43.1641-113.135Q35.1074-109.717 29.0039-103.613Q22.9004-97.5098 19.4824-89.4775Q16.0645-81.4453 16.0645-72.2168Q16.0645-63.5742 19.1406-55.7861Q22.2168-47.998 27.9053-41.8457Q33.5938-35.6934 41.3574-32.0312L41.3574 25.6836Q41.3574 27.6367 42.0898 29.6387Q42.8223 31.6406 44.4336 33.1055L56.4941 43.9453Q58.3984 45.6055 61.2305 45.6543Q64.0625 45.7031 66.2109 43.5547L85.8887 23.9258Q88.2812 21.4844 88.2568 18.2129Q88.2324 14.9414 85.791 12.5L77.3438 3.95508L90.3809-9.13086Q92.6758-11.4746 92.7002-14.7949Q92.7246-18.1152 90.332-20.5078L78.7109-32.1777Q91.3574-38.8184 98.1445-49.2432Q104.932-59.668 104.932-72.2168Q104.932-81.3965 101.489-89.4531Q98.0469-97.5098 91.9678-103.589Q85.8887-109.668 77.832-113.11Q69.7754-116.553 60.498-116.553ZM60.498-78.9551Q56.0547-78.9551 52.8809-82.1045Q49.707-85.2539 49.707-89.6973Q49.707-94.1895 52.8809-97.3389Q56.0547-100.488 60.498-100.488Q63.4766-100.488 65.918-99.0234Q68.3594-97.5586 69.8242-95.1172Q71.2891-92.6758 71.2891-89.6973Q71.2891-85.2539 68.1152-82.1045Q64.9414-78.9551 60.498-78.9551Z"/>
  </g>
  <g id="Heavy-L" transform="matrix(1 0 0 1 2577.31 1556)">
   <path d="M59.3803-115.446Q50.3334-115.446 42.4786-112.115Q34.6237-108.783 28.6755-102.835Q22.7272-96.8872 19.3958-89.0568Q16.0645-81.2263 16.0645-72.2282Q16.0645-63.6551 19.1578-55.9589Q22.2511-48.2628 27.9572-42.2489Q33.6632-36.235 41.4383-32.7461L41.4383 25.9834Q41.4383 27.729 42.0898 29.4773Q42.7414 31.2256 44.1689 32.5523L55.8258 43.2884Q57.4646 44.7411 59.9224 44.8013Q62.3802 44.8616 64.2403 43.0016L83.9409 23.3383Q85.9879 21.254 85.9634 18.4837Q85.939 15.7135 83.8661 13.6406L74.4743 4.19693L88.4674-9.82208Q90.4053-11.8088 90.424-14.6164Q90.4427-17.424 88.3842-19.471L75.4959-32.431Q88.6147-38.8527 95.6554-49.2313Q102.696-59.61 102.696-72.2282Q102.696-81.1775 99.3401-89.0266Q95.9839-96.8758 90.0547-102.805Q84.1255-108.734 76.2707-112.09Q68.4158-115.446 59.3803-115.446ZM59.3803-77.7107Q54.9019-77.7107 51.7166-80.8773Q48.5313-84.0439 48.5313-88.5216Q48.5313-93.0489 51.7109-96.2154Q54.8904-99.382 59.3803-99.382Q62.3703-99.382 64.8289-97.9057Q67.2874-96.4294 68.758-93.9705Q70.2286-91.5115 70.2286-88.5216Q70.2286-84.0439 67.0376-80.8773Q63.8466-77.7107 59.3803-77.7107Z"/>
  </g>
  <g id="Bold-L" transform="matrix(1 0 0 1 2281.85 1556)">
   <path d="M58.1299-114.209Q49.3408-114.209 41.7114-110.974Q34.082-107.739 28.3081-101.965Q22.5342-96.1914 19.2993-88.5864Q16.0645-80.9814 16.0645-72.2412Q16.0645-63.7451 19.1772-56.1523Q22.29-48.5596 28.0151-42.7002Q33.7402-36.8408 41.5283-33.5449L41.5283 26.3184Q41.5283 27.832 42.0898 29.2969Q42.6514 30.7617 43.8721 31.9336L55.0781 42.5537Q56.4209 43.7744 58.4595 43.8477Q60.498 43.9209 62.0361 42.3828L81.7627 22.6807Q83.4229 20.9961 83.3984 18.7866Q83.374 16.5771 81.7139 14.917L71.2646 4.46777L86.3281-10.5957Q87.8662-12.1826 87.8784-14.4165Q87.8906-16.6504 86.2061-18.3105L71.8994-32.7148Q85.5469-38.8916 92.8711-49.2188Q100.195-59.5459 100.195-72.2412Q100.195-80.9326 96.936-88.5498Q93.6768-96.167 87.915-101.929Q82.1533-107.69 74.5239-110.95Q66.8945-114.209 58.1299-114.209ZM58.1299-76.3184Q53.6133-76.3184 50.415-79.5044Q47.2168-82.6904 47.2168-87.207Q47.2168-91.7725 50.4028-94.9585Q53.5889-98.1445 58.1299-98.1445Q61.1328-98.1445 63.6108-96.6553Q66.0889-95.166 67.5659-92.688Q69.043-90.21 69.043-87.207Q69.043-82.6904 65.8325-79.5044Q62.6221-76.3184 58.1299-76.3184Z"/>
  </g>
  <g id="Semibold-L" transform="matrix(1 0 0 1 1986 1556)">
   <path d="M57.2678-113.356Q48.6565-113.356 41.1827-110.188Q33.709-107.019 28.0548-101.365Q22.4007-95.7115 19.2326-88.2622Q16.0645-80.8128 16.0645-72.2504Q16.0645-63.8077 19.1906-56.2859Q22.3167-48.764 28.0552-43.0111Q33.7936-37.2581 41.5909-34.0958L41.5909 26.5495Q41.5909 27.903 42.0898 29.1725Q42.5888 30.442 43.6676 31.5071L54.5624 42.0471Q55.7007 43.1076 57.4505 43.19Q59.2003 43.2724 60.5164 41.9563L80.2605 22.2275Q81.6544 20.8183 81.6299 18.9953Q81.6055 17.1722 80.2299 15.7967L69.0521 4.65469L84.8526-11.129Q86.1153-12.4405 86.1233-14.2788Q86.1313-16.1171 84.7038-17.511L69.4199-32.9102Q83.432-38.9183 90.9515-49.21Q98.4711-59.5016 98.4711-72.2504Q98.4711-80.764 95.2785-88.221Q92.086-95.6779 86.4399-101.324Q80.7938-106.97 73.3196-110.163Q65.8455-113.356 57.2678-113.356ZM57.2678-75.3586Q52.7245-75.3586 49.5174-78.558Q46.3104-81.7574 46.3104-86.3007Q46.3104-90.8928 49.501-94.0922Q52.6917-97.2916 57.2678-97.2916Q60.2798-97.2916 62.7712-95.7932Q65.2626-94.2947 66.7439-91.8037Q68.2251-89.3127 68.2251-86.3007Q68.2251-81.7574 65.0013-78.558Q61.7775-75.3586 57.2678-75.3586Z"/>
  </g>
  <g id="Medium-L" transform="matrix(1 0 0 1 1689.94 1556)">
   <path d="M56.6139-112.709Q48.1377-112.709 40.7818-109.591Q33.4259-106.474 27.8629-100.911Q22.3-95.3476 19.1822-88.0161Q16.0645-80.6847 16.0645-72.2565Q16.0645-63.8542 19.2005-56.3866Q22.3366-48.9189 28.0853-43.2472Q33.8341-37.5755 41.6374-34.5139L41.6374 26.7242Q41.6374 27.9572 42.0898 29.0783Q42.5423 30.1994 43.5127 31.1836L54.1718 41.6634Q55.1552 42.6025 56.686 42.6914Q58.2169 42.7803 59.3643 41.6328L79.1222 21.8834Q80.3131 20.6833 80.2887 19.1536Q80.2643 17.6239 79.1046 16.4642L67.3737 4.79584L83.7341-11.5334Q84.7878-12.6358 84.7923-14.1743Q84.7969-15.7127 83.5655-16.9044L67.54-33.0589Q81.8283-38.9381 89.4962-49.2031Q97.1642-59.4681 97.1642-72.2565Q97.1642-80.6358 94.022-87.9719Q90.8798-95.3079 85.321-100.866Q79.7623-106.425 72.4064-109.567Q65.0505-112.709 56.6139-112.709ZM56.6139-74.6307Q52.0508-74.6307 48.8369-77.8404Q45.623-81.0501 45.623-85.6133Q45.623-90.2252 48.8167-93.4349Q52.0103-96.6446 56.6139-96.6446Q59.6329-96.6446 62.1342-95.1397Q64.6355-93.6348 66.1205-91.1331Q67.6056-88.6314 67.6056-85.6133Q67.6056-81.0501 64.3715-77.8404Q61.1374-74.6307 56.6139-74.6307Z"/>
  </g>
  <g id="Regular-L" transform="matrix(1 0 0 1 1394.08 1556)">
   <path d="M55.7617-111.865Q47.4609-111.865 40.2588-108.813Q33.0566-105.762 27.6123-100.317Q22.168-94.873 19.1162-87.6953Q16.0645-80.5176 16.0645-72.2656Q16.0645-63.916 19.2139-56.5186Q22.3633-49.1211 28.125-43.5547Q33.8867-37.9883 41.6992-35.0586L41.6992 26.9531Q41.6992 28.0273 42.0898 28.9551Q42.4805 29.8828 43.3105 30.7617L53.6621 41.1621Q54.4434 41.9434 55.6885 42.041Q56.9336 42.1387 57.8613 41.2109L77.6367 21.4355Q78.5645 20.5078 78.54 19.3604Q78.5156 18.2129 77.6367 17.334L65.1855 4.98047L82.2754-12.0605Q83.0566-12.8906 83.0566-14.0381Q83.0566-15.1855 82.0801-16.1133L65.0879-33.252Q79.7363-38.9648 87.5977-49.1943Q95.459-59.4238 95.459-72.2656Q95.459-80.4688 92.3828-87.6465Q89.3066-94.8242 83.8623-100.269Q78.418-105.713 71.2158-108.789Q64.0137-111.865 55.7617-111.865ZM55.7617-73.6816Q51.1719-73.6816 47.9492-76.9043Q44.7266-80.127 44.7266-84.7168Q44.7266-89.3555 47.9248-92.5781Q51.123-95.8008 55.7617-95.8008Q58.7891-95.8008 61.3037-94.2871Q63.8184-92.7734 65.3076-90.2588Q66.7969-87.7441 66.7969-84.7168Q66.7969-80.127 63.5498-76.9043Q60.3027-73.6816 55.7617-73.6816Z"/>
  </g>
  <g id="Light-L" transform="matrix(1 0 0 1 1098.11 1556)">
   <path d="M55.0201-110.972Q46.8857-110.972 39.8121-107.981Q32.7385-104.99 27.4002-99.6513Q22.0619-94.313 19.0632-87.2639Q16.0645-80.2147 16.0645-72.1146Q16.0645-63.8855 19.191-56.5941Q22.3175-49.3027 28.0266-43.8194Q33.7357-38.3362 41.4574-35.4973L41.4574 26.2115Q41.4574 27.1492 41.8098 28.0315Q42.1623 28.9139 42.9626 29.7325L53.1326 39.9513Q53.8986 40.7021 54.977 40.7772Q56.0555 40.8524 56.9077 40.0002L76.4412 20.4666Q77.2324 19.6602 77.2156 18.6867Q77.1988 17.7132 76.4412 16.9403L63.8382 4.42047L81.0341-12.7113Q81.694-13.4354 81.694-14.4165Q81.694-15.3976 80.854-16.2041L63.5895-33.5846Q78.2532-39.1769 86.1145-49.2775Q93.9758-59.3781 93.9758-72.1146Q93.9758-80.1659 90.9599-87.215Q87.944-94.2642 82.5981-99.6025Q77.2522-104.941 70.1862-107.956Q63.1203-110.972 55.0201-110.972ZM55.0201-73.2124Q50.5211-73.2124 47.3591-76.3897Q44.1971-79.567 44.1971-84.0508Q44.1971-88.5834 47.3347-91.7454Q50.4723-94.9074 55.0201-94.9074Q58.0017-94.9074 60.4633-93.4242Q62.925-91.9411 64.3841-89.4794Q65.8432-87.0178 65.8432-84.0508Q65.8432-79.567 62.6644-76.3897Q59.4856-73.2124 55.0201-73.2124Z"/>
  </g>
  <g id="Thin-L" transform="matrix(1 0 0 1 802.383 1556)">
   <path d="M54.039-109.791Q46.125-109.791 39.2216-106.88Q32.3181-103.969 27.1198-98.7705Q21.9215-93.5722 18.993-86.6932Q16.0645-79.8141 16.0645-71.9139Q16.0645-63.8458 19.1612-56.6944Q22.258-49.543 27.8965-44.17Q33.535-38.797 41.1369-36.0779L41.1369 25.2304Q41.1369 25.988 41.4394 26.8105Q41.7419 27.6329 42.5018 28.3714L52.4315 38.3499Q53.1776 39.061 54.0359 39.1056Q54.8943 39.1502 55.6465 38.3987L74.8596 19.1856Q75.4707 18.5394 75.4639 17.7959Q75.457 17.0525 74.8596 16.42L62.0567 3.67966L79.393-13.5719Q79.8927-14.1563 79.8927-14.917Q79.8927-15.6776 79.2328-16.3239L61.6074-34.0256Q76.2909-39.4569 84.1522-49.3877Q92.0135-59.3185 92.0135-71.9139Q92.0135-79.7653 89.0781-86.6444Q86.1427-93.5234 80.9269-98.7217Q75.7111-103.92 68.8251-106.855Q61.9392-109.791 54.039-109.791ZM54.039-72.5922Q49.6605-72.5922 46.5782-75.7092Q43.4959-78.8261 43.4959-83.1703Q43.4959-87.5626 46.5538-90.6445Q49.6117-93.7263 54.039-93.7263Q56.9611-93.7263 59.3525-92.2832Q61.7439-90.8401 63.163-88.4483Q64.5821-86.0565 64.5821-83.1703Q64.5821-78.8261 61.4933-75.7092Q58.4045-72.5922 54.039-72.5922Z"/>
  </g>
  <g id="Ultralight-L" transform="matrix(1 0 0 1 506.174 1556)">
   <path d="M53.537-109.186Q45.7352-109.186 38.9191-106.316Q32.103-103.446 26.9764-98.3196Q21.8498-93.1931 18.9571-86.4014Q16.0645-79.6097 16.0645-71.8117Q16.0645-63.8252 19.1456-56.7455Q22.2267-49.6658 27.8297-44.3493Q33.4328-39.0327 40.9729-36.3754L40.9729 24.7284Q40.9729 25.3937 41.2498 26.1852Q41.5268 26.9768 42.2661 27.6741L52.0729 37.529Q52.8084 38.2195 53.5542 38.2492Q54.2999 38.279 55.0003 37.5778L74.0494 18.5295Q74.5682 17.9649 74.5667 17.3397Q74.5651 16.7145 74.0494 16.153L61.1443 3.30048L78.5515-14.0129Q78.9696-14.5256 78.9696-15.1733Q78.9696-15.8211 78.4019-16.3857L60.5927-34.2506Q75.2861-39.6004 83.1474-49.4438Q91.0088-59.2873 91.0088-71.8117Q91.0088-79.5609 88.1142-86.3525Q85.2196-93.1442 80.0705-98.2708Q74.9214-103.397 68.1278-106.292Q61.3342-109.186 53.537-109.186ZM53.537-72.274Q49.2195-72.274 46.1784-75.3605Q43.1374-78.447 43.1374-82.7187Q43.1374-87.0399 46.154-90.0806Q49.1707-93.1213 53.537-93.1213Q56.4278-93.1213 58.7833-91.6985Q61.1389-90.2756 62.5374-87.92Q63.9359-85.5644 63.9359-82.7187Q63.9359-78.447 60.8932-75.3605Q57.8506-72.274 53.537-72.274Z"/>
  </g>
  <g id="Black-M" transform="matrix(1 0 0 1 2885.79 1126)">
   <path d="M47.6074-98.9258Q40.2344-98.9258 33.8623-96.2158Q27.4902-93.5059 22.6807-88.6719Q17.8711-83.8379 15.1611-77.4902Q12.4512-71.1426 12.4512-63.8184Q12.4512-57.1289 14.8193-51.0254Q17.1875-44.9219 21.5576-40.0879Q25.9277-35.2539 31.8848-32.2754L31.8848 11.4746Q31.8848 13.1348 32.5195 14.8682Q33.1543 16.6016 34.5215 17.8223L44.1895 26.2695Q45.8496 27.7344 48.3154 27.7588Q50.7812 27.7832 52.6855 25.9277L67.8223 10.791Q69.9219 8.64258 69.8975 5.71289Q69.873 2.7832 67.7246 0.634766L61.9141-5.22461L71.2402-14.5996Q73.3398-16.748 73.3398-19.6777Q73.3398-22.6074 71.2402-24.7559L63.2324-32.7637Q72.6562-38.0371 77.71-46.1182Q82.7637-54.1992 82.7637-63.8184Q82.7637-71.0938 80.0293-77.4658Q77.2949-83.8379 72.4854-88.6475Q67.6758-93.457 61.3037-96.1914Q54.9316-98.9258 47.6074-98.9258ZM47.6074-70.0195Q44.1895-70.0195 41.7725-72.4365Q39.3555-74.8535 39.3555-78.2227Q39.3555-81.6406 41.7725-84.0576Q44.1895-86.4746 47.6074-86.4746Q50.9766-86.4746 53.3936-84.0576Q55.8105-81.6406 55.8105-78.2227Q55.8105-74.8535 53.3936-72.4365Q50.9766-70.0195 47.6074-70.0195Z"/>
  </g>
  <g id="Heavy-M" transform="matrix(1 0 0 1 2590.02 1126)">
   <path d="M46.6736-98.027Q39.4966-98.027 33.2973-95.3918Q27.0981-92.7567 22.4155-88.0554Q17.733-83.3542 15.0921-77.1736Q12.4512-70.993 12.4512-63.8641Q12.4512-57.2098 14.8422-51.181Q17.2333-45.1523 21.6324-40.4278Q26.0315-35.7033 32.0229-32.8743L32.0229 11.924Q32.0229 13.4117 32.5829 14.9086Q33.1429 16.4055 34.3369 17.4995L43.6478 25.8896Q45.0661 27.1584 47.1977 27.1999Q49.3294 27.2415 50.9682 25.6393L66.1858 10.4225Q67.9741 8.5968 67.9497 6.12793Q67.9253 3.65906 66.111 1.83334L59.4017-4.879L69.6381-15.1413Q71.4149-16.9556 71.4092-19.4241Q71.4035-21.8925 69.6152-23.719L60.4202-32.9369Q70.2934-38.0257 75.5894-46.0896Q80.8853-54.1534 80.8853-63.8641Q80.8853-70.9442 78.2257-77.1431Q75.5661-83.342 70.8836-88.0249Q66.201-92.7078 59.996-95.3674Q53.791-98.027 46.6736-98.027ZM46.6736-68.9018Q43.2098-68.9018 40.7642-71.3474Q38.3186-73.793 38.3186-77.2202Q38.3186-80.6839 40.7585-83.1299Q43.1984-85.5759 46.6736-85.5759Q50.0893-85.5759 52.541-83.1242Q54.9927-80.6725 54.9927-77.2202Q54.9927-73.793 52.541-71.3474Q50.0893-68.9018 46.6736-68.9018Z"/>
  </g>
  <g id="Bold-M" transform="matrix(1 0 0 1 2294.36 1126)">
   <path d="M45.6299-97.0215Q38.6719-97.0215 32.666-94.4702Q26.6602-91.9189 22.1191-87.3657Q17.5781-82.8125 15.0146-76.8188Q12.4512-70.8252 12.4512-63.916Q12.4512-57.2998 14.8682-51.355Q17.2852-45.4102 21.7163-40.8081Q26.1475-36.2061 32.1777-33.5449L32.1777 12.4268Q32.1777 13.7207 32.6538 14.9536Q33.1299 16.1865 34.1309 17.1387L43.042 25.4639Q44.1895 26.5137 45.9473 26.5747Q47.7051 26.6357 49.0479 25.3174L64.3555 10.0098Q65.7959 8.54492 65.7715 6.5918Q65.7471 4.63867 64.3066 3.17383L56.5918-4.49219L67.8467-15.7471Q69.2627-17.1875 69.2505-19.1406Q69.2383-21.0938 67.7979-22.5586L57.2754-33.1299Q67.6514-38.0127 73.2178-46.0571Q78.7842-54.1016 78.7842-63.916Q78.7842-70.7764 76.2085-76.7822Q73.6328-82.7881 69.0918-87.3291Q64.5508-91.8701 58.5327-94.4458Q52.5146-97.0215 45.6299-97.0215ZM45.6299-67.6514Q42.1143-67.6514 39.6362-70.1294Q37.1582-72.6074 37.1582-76.0986Q37.1582-79.6143 39.624-82.0923Q42.0898-84.5703 45.6299-84.5703Q49.0967-84.5703 51.5869-82.0801Q54.0771-79.5898 54.0771-76.0986Q54.0771-72.6074 51.5869-70.1294Q49.0967-67.6514 45.6299-67.6514Z"/>
  </g>
  <g id="Semibold-M" transform="matrix(1 0 0 1 1998.37 1126)">
   <path d="M44.9097-96.328Q38.1035-96.328 32.2308-93.8347Q26.358-91.3414 21.9147-86.8904Q17.4713-82.4394 14.9612-76.5747Q12.4512-70.71 12.4512-63.9519Q12.4512-57.3624 14.8861-51.4751Q17.321-45.5879 21.7743-41.0702Q26.2276-36.5524 32.2845-34.0073L32.2845 12.7731Q32.2845 13.9343 32.7026 14.9849Q33.1207 16.0355 33.989 16.89L42.6247 25.1709Q43.5852 26.0696 45.0851 26.144Q46.5851 26.2184 47.7234 25.0954L63.0936 9.72519Q64.2937 8.50906 64.2693 6.91147Q64.2448 5.31387 63.0623 4.09775L54.6547-4.22592L66.6115-16.1644Q67.7788-17.3477 67.762-18.9453Q67.7452-20.5429 66.5451-21.759L55.1071-33.2634Q65.8295-38.0035 71.5824-46.0346Q77.3354-54.0657 77.3354-63.9519Q77.3354-70.6612 74.8177-76.5335Q72.3-82.4059 67.8566-86.8492Q63.4132-91.2926 57.5241-93.8103Q51.635-96.328 44.9097-96.328ZM44.9097-66.7892Q41.3589-66.7892 38.8588-69.2894Q36.3586-71.7896 36.3586-75.3258Q36.3586-78.8765 38.842-81.3766Q41.3254-83.8768 44.9097-83.8768Q48.4123-83.8768 50.9293-81.3602Q53.4462-78.8437 53.4462-75.3258Q53.4462-71.7896 50.9293-69.2894Q48.4123-66.7892 44.9097-66.7892Z"/>
  </g>
  <g id="Medium-M" transform="matrix(1 0 0 1 1702.21 1126)">
   <path d="M44.3642-95.8031Q37.6717-95.8031 31.9004-93.3533Q26.1292-90.9035 21.7598-86.5299Q17.3904-82.1564 14.9208-76.3893Q12.4512-70.6223 12.4512-63.9786Q12.4512-57.4089 14.8994-51.5659Q17.3477-45.723 21.8178-41.2693Q26.2878-36.8156 32.3654-34.3575L32.3654 13.0363Q32.3654 14.0961 32.74 15.0085Q33.1146 15.921 33.8806 16.7015L42.3073 24.9481Q43.1267 25.7324 44.4313 25.8167Q45.7359 25.901 46.7194 24.9268L62.1368 9.51004Q63.1554 8.48236 63.131 7.15446Q63.1065 5.82657 62.1193 4.79889L53.1853-4.02374L65.6746-16.4818Q66.6534-17.469 66.6332-18.7969Q66.613-20.1248 65.5945-21.1525L53.463-33.3641Q64.4485-37.9974 70.343-46.0182Q76.2375-54.039 76.2375-63.9786Q76.2375-70.5734 73.7633-76.3447Q71.2891-82.1159 66.9201-86.4853Q62.5511-90.8546 56.7593-93.3289Q50.9674-95.8031 44.3642-95.8031ZM44.3642-66.1354Q40.786-66.1354 38.269-68.6527Q35.7521-71.17 35.7521-74.7391Q35.7521-78.3173 38.2492-80.8346Q40.7463-83.3519 44.3642-83.3519Q47.8935-83.3519 50.4307-80.8147Q52.9678-78.2776 52.9678-74.7391Q52.9678-71.17 50.4307-68.6527Q47.8935-66.1354 44.3642-66.1354Z"/>
  </g>
  <g id="Regular-M" transform="matrix(1 0 0 1 1406.22 1126)">
   <path d="M43.6523-95.1172Q37.1094-95.1172 31.4697-92.7246Q25.8301-90.332 21.5576-86.0596Q17.2852-81.7871 14.8682-76.1475Q12.4512-70.5078 12.4512-64.0137Q12.4512-57.4707 14.917-51.6846Q17.3828-45.8984 21.875-41.5283Q26.3672-37.1582 32.4707-34.8145L32.4707 13.3789Q32.4707 14.3066 32.7881 15.0391Q33.1055 15.7715 33.7402 16.4551L41.8945 24.6582Q42.5293 25.293 43.5791 25.3906Q44.6289 25.4883 45.4102 24.707L60.8887 9.22852Q61.6699 8.44727 61.6455 7.4707Q61.6211 6.49414 60.8887 5.71289L51.2695-3.75977L64.4531-16.8945Q65.1855-17.627 65.1611-18.6035Q65.1367-19.5801 64.3555-20.3613L51.3184-33.4961Q62.6465-37.9883 68.7256-45.9961Q74.8047-54.0039 74.8047-64.0137Q74.8047-70.459 72.3877-76.0986Q69.9707-81.7383 65.6982-86.0107Q61.4258-90.2832 55.7617-92.7002Q50.0977-95.1172 43.6523-95.1172ZM43.6523-65.2832Q40.0391-65.2832 37.5-67.8223Q34.9609-70.3613 34.9609-73.9746Q34.9609-77.5879 37.4756-80.127Q39.9902-82.666 43.6523-82.666Q47.2168-82.666 49.7803-80.1025Q52.3438-77.5391 52.3438-73.9746Q52.3438-70.3613 49.7803-67.8223Q47.2168-65.2832 43.6523-65.2832Z"/>
  </g>
  <g id="Light-M" transform="matrix(1 0 0 1 1110.16 1126)">
   <path d="M42.9863-94.3298Q36.5944-94.3298 31.0684-91.9827Q25.5424-89.6355 21.3608-85.4538Q17.1791-81.2721 14.8151-75.7538Q12.4512-70.2354 12.4512-63.8771Q12.4512-57.4402 14.8941-51.7448Q17.337-46.0495 21.7838-41.7629Q26.2306-37.4763 32.2586-35.2234L32.2586 12.7129Q32.2586 13.5193 32.5382 14.2139Q32.8178 14.9086 33.4373 15.5472L41.4253 23.5687Q42.0296 24.1882 42.9356 24.263Q43.8416 24.3378 44.5473 23.6176L59.7992 8.36563Q60.4591 7.69043 60.4424 6.86531Q60.4256 6.04019 59.7992 5.36499L50.0587-4.25949L63.3484-17.485Q63.9595-18.1114 63.9351-18.9442Q63.9107-19.7769 63.2355-20.4521L49.971-33.799Q61.3144-38.1851 67.4011-46.0793Q73.4879-53.9734 73.4879-63.8771Q73.4879-70.1866 71.1239-75.7126Q68.7599-81.2386 64.5706-85.4202Q60.3813-89.6019 54.8382-91.9659Q49.295-94.3298 42.9863-94.3298ZM42.9863-64.859Q39.4485-64.859 36.9701-67.3527Q34.4917-69.8463 34.4917-73.3841Q34.4917-76.9066 36.9457-79.385Q39.3997-81.8634 42.9863-81.8634Q46.4752-81.8634 48.978-79.3606Q51.4809-76.8578 51.4809-73.3841Q51.4809-69.8463 48.978-67.3527Q46.4752-64.859 42.9863-64.859Z"/>
  </g>
  <g id="Thin-M" transform="matrix(1 0 0 1 814.324 1126)">
   <path d="M42.1059-93.2892Q35.9138-93.2892 30.5382-91.0019Q25.1625-88.7146 21.1006-84.6531Q17.0387-80.5916 14.7449-75.2335Q12.4512-69.8753 12.4512-63.6971Q12.4512-57.4005 14.8643-51.8253Q17.2775-46.2502 21.664-42.0734Q26.0506-37.8967 31.9786-35.7635L31.9786 11.8324Q31.9786 12.4786 32.2083 13.1233Q32.4379 13.768 33.0368 14.3456L40.8051 22.1268Q41.3689 22.7264 42.0849 22.7715Q42.8009 22.8165 43.4067 22.1756L58.3572 7.22504Q58.8577 6.68945 58.8509 6.06461Q58.844 5.43976 58.3572 4.90417L48.4573-4.9202L61.8866-18.2655Q62.3383-18.7523 62.3138-19.3947Q62.2894-20.0371 61.7538-20.5719L48.1895-34.1995Q59.5528-38.4453 65.6494-46.1895Q71.7461-53.9337 71.7461-63.6971Q71.7461-69.8265 69.4523-75.2022Q67.1585-80.5779 63.0795-84.6394Q59.0004-88.7009 53.6175-90.995Q48.2346-93.2892 42.1059-93.2892ZM42.1059-64.299Q38.6681-64.299 36.2698-66.7324Q33.8715-69.1658 33.8715-72.6036Q33.8715-76.0056 36.2453-78.4042Q38.6192-80.8029 42.1059-80.8029Q45.4941-80.8029 47.9172-78.3798Q50.3403-75.9567 50.3403-72.6036Q50.3403-69.1658 47.9172-66.7324Q45.4941-64.299 42.1059-64.299Z"/>
  </g>
  <g id="Ultralight-M" transform="matrix(1 0 0 1 518.059 1126)">
   <path d="M41.6542-92.7559Q35.5652-92.7559 30.2662-90.4995Q24.9672-88.2431 20.9671-84.243Q16.967-80.2429 14.7091-74.9668Q12.4512-69.6907 12.4512-63.6047Q12.4512-57.3799 14.8487-51.8661Q17.2462-46.3524 21.6022-42.2321Q25.9583-38.1119 31.8352-36.0405L31.8352 11.3808Q31.8352 11.9453 32.0389 12.5641Q32.2426 13.1828 32.8323 13.7306L40.4869 21.389Q41.0309 21.978 41.6492 22.0078Q42.2676 22.0375 42.8215 21.4378L57.6195 6.63986Q58.0368 6.17676 58.0353 5.65414Q58.0338 5.13153 57.6195 4.66843L47.6364-5.25818L61.1382-18.6653Q61.5074-19.0804 61.483-19.6255Q61.4586-20.1706 60.9955-20.6337L47.2771-34.404Q58.6502-38.5788 64.7522-46.246Q70.8542-53.9131 70.8542-63.6047Q70.8542-69.6419 68.5959-74.9409Q66.3376-80.2399 62.315-84.24Q58.2924-88.2401 52.9915-90.498Q47.6906-92.7559 41.6542-92.7559ZM41.6542-64.0114Q38.2683-64.0114 35.9108-66.4143Q33.5533-68.8171 33.5533-72.2038Q33.5533-75.5447 35.8864-77.9018Q38.2195-80.2589 41.6542-80.2589Q44.9921-80.2589 47.3736-77.8774Q49.7551-75.4959 49.7551-72.2038Q49.7551-68.8171 47.3736-66.4143Q44.9921-64.0114 41.6542-64.0114Z"/>
  </g>
  <g id="Black-S" transform="matrix(1 0 0 1 2895.85 696)">
   <path d="M37.5488-85.3516Q31.7383-85.3516 26.709-83.2031Q21.6797-81.0547 17.8711-77.2461Q14.0625-73.4375 11.9141-68.4082Q9.76562-63.3789 9.76562-57.6172Q9.76562-49.707 13.8428-43.0176Q17.9199-36.3281 24.9512-32.7637L24.9512 1.17188Q24.9512 2.53906 25.4639 3.97949Q25.9766 5.41992 27.0996 6.39648L34.7656 12.9883Q36.1816 14.209 38.208 14.209Q40.2344 14.209 41.748 12.6953L53.5645 0.878906Q55.3223-0.878906 55.2979-3.2959Q55.2734-5.71289 53.5156-7.51953L49.2188-11.8652L56.25-18.9453Q57.959-20.7031 57.9834-23.1445Q58.0078-25.5859 56.25-27.3438L50.3418-33.252Q57.6172-37.4512 61.4746-43.7744Q65.332-50.0977 65.332-57.6172Q65.332-63.3789 63.1836-68.4082Q61.0352-73.4375 57.2266-77.2461Q53.418-81.0547 48.3887-83.2031Q43.3594-85.3516 37.5488-85.3516ZM37.5488-62.793Q34.9121-62.793 33.0322-64.6729Q31.1523-66.5527 31.1523-69.1895Q31.1523-71.875 33.0322-73.7305Q34.9121-75.5859 37.5488-75.5859Q40.1855-75.5859 42.0654-73.7061Q43.9453-71.8262 43.9453-69.1895Q43.9453-66.5527 42.0654-64.6729Q40.1855-62.793 37.5488-62.793Z"/>
  </g>
  <g id="Heavy-S" transform="matrix(1 0 0 1 2599.85 696)">
   <path d="M36.834-84.6832Q31.1737-84.6832 26.2711-82.5924Q21.3684-80.5016 17.6579-76.791Q13.9473-73.0804 11.8565-68.1835Q9.76562-63.2866 9.76562-57.6752Q9.76562-49.7993 13.8889-43.2022Q18.0122-36.6051 25.0893-33.2245L25.0893 1.64413Q25.0893 2.87323 25.5444 4.11186Q25.9995 5.35049 26.9844 6.2355L34.362 12.8151Q35.5591 13.8519 37.3203 13.8748Q39.0816 13.8977 40.3885 12.5916L52.3087 0.671387Q53.801-0.83313 53.7823-2.87552Q53.7636-4.91791 52.2713-6.4476L47.2252-11.5082L55.0171-19.3375Q56.472-20.8183 56.485-22.8794Q56.498-24.9405 54.9942-26.445L48.1064-33.3672Q55.7503-37.4168 59.8267-43.7401Q63.903-50.0633 63.903-57.6752Q63.903-63.2866 61.8065-68.1835Q59.7099-73.0804 55.9994-76.791Q52.2888-80.5016 47.3862-82.5924Q42.4835-84.6832 36.834-84.6832ZM36.834-61.8942Q34.1515-61.8942 32.2369-63.8027Q30.3223-65.7112 30.3223-68.4059Q30.3223-71.1372 32.2311-73.0274Q34.14-74.9176 36.834-74.9176Q39.5172-74.9176 41.4318-73.003Q43.3464-71.0884 43.3464-68.4059Q43.3464-65.7112 41.4318-63.8027Q39.5172-61.8942 36.834-61.8942Z"/>
  </g>
  <g id="Bold-S" transform="matrix(1 0 0 1 2303.94 696)">
   <path d="M36.0352-83.9355Q30.542-83.9355 25.7812-81.9092Q21.0205-79.8828 17.4194-76.2817Q13.8184-72.6807 11.792-67.9321Q9.76562-63.1836 9.76562-57.7393Q9.76562-49.9023 13.9404-43.4082Q18.1152-36.9141 25.2441-33.7402L25.2441 2.17285Q25.2441 3.24707 25.6348 4.26025Q26.0254 5.27344 26.8555 6.05469L33.9111 12.6221Q34.8633 13.4521 36.3281 13.501Q37.793 13.5498 38.8672 12.4756L50.9033 0.439453Q52.0996-0.78125 52.0874-2.40479Q52.0752-4.02832 50.8789-5.24902L44.9951-11.1084L53.6377-19.7754Q54.8096-20.9473 54.8096-22.583Q54.8096-24.2188 53.5889-25.4395L45.6055-33.4961Q53.6621-37.3779 57.9834-43.7012Q62.3047-50.0244 62.3047-57.7393Q62.3047-63.1836 60.2661-67.9321Q58.2275-72.6807 54.6265-76.2817Q51.0254-79.8828 46.2646-81.9092Q41.5039-83.9355 36.0352-83.9355ZM36.0352-60.8887Q33.3008-60.8887 31.3477-62.8296Q29.3945-64.7705 29.3945-67.5293Q29.3945-70.3125 31.3354-72.2412Q33.2764-74.1699 36.0352-74.1699Q38.7695-74.1699 40.7227-72.2168Q42.6758-70.2637 42.6758-67.5293Q42.6758-64.7705 40.7227-62.8296Q38.7695-60.8887 36.0352-60.8887Z"/>
  </g>
  <g id="Semibold-S" transform="matrix(1 0 0 1 2007.78 696)">
   <path d="M35.4843-83.4198Q30.1064-83.4198 25.4433-81.4381Q20.7802-79.4563 17.255-75.9308Q13.7299-72.4052 11.7477-67.7589Q9.76562-63.1126 9.76562-57.7835Q9.76562-49.9733 13.9759-43.5505Q18.1862-37.1277 25.351-34.0958L25.351 2.53754Q25.351 3.50494 25.6969 4.36249Q26.0429 5.22003 26.767 5.93033L33.5999 12.4886Q34.3834 13.1767 35.6438 13.2431Q36.9041 13.3095 37.8181 12.3955L49.9344 0.279236Q50.9262-0.745392 50.9186-2.08015Q50.9109-3.41492 49.9191-4.42276L43.4578-10.833L52.6871-20.0775Q53.6629-21.0358 53.6541-22.3785Q53.6453-23.7213 52.6199-24.7459L43.8812-33.5846Q52.2224-37.3512 56.7127-43.6745Q61.203-49.9977 61.203-57.7835Q61.203-63.1126 59.2041-67.7589Q57.2052-72.4052 53.6797-75.9308Q50.1541-79.4563 45.4914-81.4381Q40.8287-83.4198 35.4843-83.4198ZM35.4843-60.1952Q32.7141-60.1952 30.7343-62.1586Q28.7544-64.122 28.7544-66.925Q28.7544-69.7441 30.7178-71.6991Q32.6813-73.6542 35.4843-73.6542Q38.2538-73.6542 40.2336-71.6747Q42.2134-69.6953 42.2134-66.925Q42.2134-64.122 40.2336-62.1586Q38.2538-60.1952 35.4843-60.1952Z"/>
  </g>
  <g id="Medium-S" transform="matrix(1 0 0 1 1711.49 696)">
   <path d="M35.0662-83.0292Q29.776-83.0292 25.1873-81.081Q20.5986-79.1328 17.1303-75.6645Q13.662-72.1962 11.7138-67.6273Q9.76562-63.0585 9.76562-57.8171Q9.76562-50.0275 14.003-43.6584Q18.2404-37.2894 25.4318-34.3651L25.4318 2.81372Q25.4318 3.70026 25.7442 4.43993Q26.0567 5.1796 26.6991 5.83572L33.3641 12.3878Q34.0195 12.9677 35.125 13.0478Q36.2305 13.1279 37.0232 12.3352L49.2004 0.157928Q50.0374-0.718689 50.0328-1.83449Q50.0282-2.95029 49.1913-3.79562L42.292-10.6239L51.9661-20.3064Q52.7939-21.1037 52.7782-22.2237Q52.7626-23.3437 51.886-24.221L42.5743-33.6525Q51.1307-37.3314 55.7487-43.6546Q60.3668-49.9779 60.3668-57.8171Q60.3668-63.0585 58.3988-67.6273Q56.4308-72.1962 52.9625-75.6645Q49.4942-79.1328 44.9051-81.081Q40.316-83.0292 35.0662-83.0292ZM35.0662-59.6703Q32.2693-59.6703 30.2692-61.6501Q28.2692-63.6299 28.2692-66.4665Q28.2692-69.3123 30.2494-71.2879Q32.2296-73.2635 35.0662-73.2635Q37.8632-73.2635 39.8632-71.2635Q41.8633-69.2635 41.8633-66.4665Q41.8633-63.6299 39.8632-61.6501Q37.8632-59.6703 35.0662-59.6703Z"/>
  </g>
  <g id="Regular-S" transform="matrix(1 0 0 1 1415.32 696)">
   <path d="M34.5215-82.5195Q29.3457-82.5195 24.8535-80.6152Q20.3613-78.7109 16.9678-75.3174Q13.5742-71.9238 11.6699-67.4561Q9.76562-62.9883 9.76562-57.8613Q9.76562-50.0977 14.0381-43.7988Q18.3105-37.5 25.5371-34.7168L25.5371 3.17383Q25.5371 3.95508 25.8057 4.54102Q26.0742 5.12695 26.6113 5.71289L33.0566 12.2559Q33.5449 12.6953 34.4482 12.793Q35.3516 12.8906 35.9863 12.2559L48.2422 0Q48.877-0.683594 48.877-1.51367Q48.877-2.34375 48.2422-2.97852L40.7715-10.3516L51.0254-20.6055Q51.6602-21.1914 51.6357-22.0215Q51.6113-22.8516 50.9277-23.5352L40.8691-33.7402Q49.707-37.3047 54.4922-43.6279Q59.2773-49.9512 59.2773-57.8613Q59.2773-62.9883 57.3486-67.4561Q55.4199-71.9238 52.0264-75.3174Q48.6328-78.7109 44.1406-80.6152Q39.6484-82.5195 34.5215-82.5195ZM34.5215-58.9844Q31.6895-58.9844 29.6631-60.9863Q27.6367-62.9883 27.6367-65.8691Q27.6367-68.75 29.6387-70.752Q31.6406-72.7539 34.5215-72.7539Q37.3535-72.7539 39.3799-70.7275Q41.4062-68.7012 41.4062-65.8691Q41.4062-62.9883 39.3799-60.9863Q37.3535-58.9844 34.5215-58.9844Z"/>
  </g>
  <g id="Light-S" transform="matrix(1 0 0 1 1119.2 696)">
   <path d="M33.931-81.823Q28.8765-81.823 24.498-79.9641Q20.1195-78.1052 16.8015-74.7952Q13.4834-71.4851 11.6245-67.1158Q9.76562-62.7464 9.76562-57.74Q9.76562-50.1129 13.9927-43.935Q18.2198-37.7571 25.3555-35.08L25.3555 2.58331Q25.3555 3.25851 25.5939 3.81432Q25.8324 4.37012 26.339 4.91028L32.6324 11.2869Q33.1062 11.7264 33.8806 11.8015Q34.655 11.8767 35.2295 11.3022L47.2885-0.756836Q47.8172-1.33438 47.8172-2.0359Q47.8172-2.73743 47.2885-3.2814L39.6965-10.7903L50.0565-21.1205Q50.5707-21.6156 50.5535-22.3244Q50.5363-23.0331 49.9588-23.6107L39.6736-33.9973Q48.5413-37.471 53.3188-43.6958Q58.0963-49.9207 58.0963-57.74Q58.0963-62.7464 56.2206-67.1082Q54.3449-71.4699 51.0273-74.7875Q47.7097-78.1052 43.3235-79.9641Q38.9374-81.823 33.931-81.823ZM33.931-58.606Q31.16-58.606 29.1862-60.5701Q27.2125-62.5343 27.2125-65.3397Q27.2125-68.1442 29.1691-70.1008Q31.1256-72.0573 33.931-72.0573Q36.7027-72.0573 38.6761-70.0764Q40.6494-68.0954 40.6494-65.3397Q40.6494-62.5343 38.6761-60.5701Q36.7027-58.606 33.931-58.606Z"/>
  </g>
  <g id="Thin-S" transform="matrix(1 0 0 1 823.272 696)">
   <path d="M33.1505-80.9021Q28.2562-80.9021 24.0276-79.1035Q19.799-77.3048 16.5813-74.1047Q13.3636-70.9045 11.5646-66.6653Q9.76562-62.426 9.76562-57.5798Q9.76562-50.1328 13.9328-44.1151Q18.1-38.0974 25.1152-35.5606L25.1152 1.80283Q25.1152 2.33765 25.3136 2.85339Q25.5119 3.36914 25.9789 3.84979L32.0724 10.006Q32.5256 10.4454 33.1299 10.4904Q33.7341 10.5354 34.2285 10.041L46.0274-1.75781Q46.4165-2.19498 46.4165-2.72636Q46.4165-3.25775 46.0274-3.68195L38.2751-11.3708L48.7755-21.801Q49.1287-22.1756 49.1219-22.7245Q49.115-23.2735 48.6778-23.7106L38.092-34.3376Q47.0001-37.6915 51.7677-43.7862Q56.5353-49.881 56.5353-57.5798Q56.5353-62.426 54.7295-66.6477Q52.9236-70.8694 49.7059-74.0871Q46.4882-77.3048 42.2421-79.1035Q37.9959-80.9021 33.1505-80.9021ZM33.1505-58.1055Q30.4588-58.1055 28.5557-60.0197Q26.6525-61.9339 26.6525-64.6385Q26.6525-67.3439 28.5488-69.2402Q30.4451-71.1365 33.1505-71.1365Q35.8421-71.1365 37.7453-69.2158Q39.6484-67.2951 39.6484-64.6385Q39.6484-61.9339 37.7453-60.0197Q35.8421-58.1055 33.1505-58.1055Z"/>
  </g>
  <g id="Ultralight-S" transform="matrix(1 0 0 1 526.961 696)">
   <path d="M32.7507-80.4306Q27.9381-80.4306 23.7865-78.6625Q19.635-76.8944 16.4684-73.7507Q13.3018-70.607 11.5337-66.4345Q9.76562-62.262 9.76562-57.4982Q9.76562-50.1434 13.9019-44.2078Q18.0382-38.2721 24.9924-35.8063L24.9924 1.40305Q24.9924 1.86615 25.1701 2.3613Q25.3479 2.85645 25.7942 3.30582L31.7848 9.34982Q32.2281 9.78928 32.7454 9.81865Q33.2626 9.84802 33.7158 9.39484L45.3812-2.27051Q45.6985-2.63596 45.6985-3.08037Q45.6985-3.52478 45.3812-3.88641L37.5473-11.6684L48.1194-22.1497Q48.391-22.4632 48.3891-22.9298Q48.3871-23.3963 48.0217-23.7625L37.2818-34.5123Q46.2105-37.8044 50.9727-43.8324Q55.735-49.8604 55.735-57.4982Q55.735-62.262 53.9654-66.4116Q52.1957-70.5612 49.0292-73.7278Q45.8626-76.8944 41.6885-78.6625Q37.5145-80.4306 32.7507-80.4306ZM32.7507-57.8491Q30.1003-57.8491 28.2326-59.7374Q26.3649-61.6257 26.3649-64.2799Q26.3649-66.9334 28.2307-68.7992Q30.0964-70.665 32.7507-70.665Q35.4012-70.665 37.2684-68.7748Q39.1357-66.8846 39.1357-64.2799Q39.1357-61.6257 37.2684-59.7374Q35.4012-57.8491 32.7507-57.8491Z"/>
  </g>
 </g>
</svg>
