<?xml version="1.0" encoding="UTF-8"?>
<!--Generator: Apple Native CoreSVG 175-->
<!DOCTYPE svg
PUBLIC "-//W3C//DTD SVG 1.1//EN"
       "http://www.w3.org/Graphics/SVG/1.1/DTD/svg11.dtd">
<svg version="1.1" xmlns="http://www.w3.org/2000/svg" xmlns:xlink="http://www.w3.org/1999/xlink" width="3300" height="2200">
 <!--glyph: "uni101395.medium", point size: 100.0, font version: "17.3d3e1", template writer version: "65.1"-->
 <style>.hierarchical-0:primary {fill:#212121}
.hierarchical-1:secondary {fill:#4D4D4D}

.SFSymbolsPreview212121 {fill:#212121;opacity:1.0}
.SFSymbolsPreview4D4D4D {fill:#4D4D4D;opacity:1.0}
</style>
 <g id="Notes">
  <rect height="2200" id="artboard" style="fill:white;opacity:1" width="3300" x="0" y="0"/>
  <line style="fill:none;stroke:black;opacity:1;stroke-width:0.5;" x1="263" x2="3036" y1="292" y2="292"/>
  <text style="stroke:none;fill:black;font-family:sans-serif;font-size:13;font-weight:bold;" transform="matrix(1 0 0 1 263 322)">Weight/Scale Variations</text>
  <text style="stroke:none;fill:black;font-family:sans-serif;font-size:13;text-anchor:middle;" transform="matrix(1 0 0 1 559.711 322)">Ultralight</text>
  <text style="stroke:none;fill:black;font-family:sans-serif;font-size:13;text-anchor:middle;" transform="matrix(1 0 0 1 856.422 322)">Thin</text>
  <text style="stroke:none;fill:black;font-family:sans-serif;font-size:13;text-anchor:middle;" transform="matrix(1 0 0 1 1153.13 322)">Light</text>
  <text style="stroke:none;fill:black;font-family:sans-serif;font-size:13;text-anchor:middle;" transform="matrix(1 0 0 1 1449.84 322)">Regular</text>
  <text style="stroke:none;fill:black;font-family:sans-serif;font-size:13;text-anchor:middle;" transform="matrix(1 0 0 1 1746.56 322)">Medium</text>
  <text style="stroke:none;fill:black;font-family:sans-serif;font-size:13;text-anchor:middle;" transform="matrix(1 0 0 1 2043.27 322)">Semibold</text>
  <text style="stroke:none;fill:black;font-family:sans-serif;font-size:13;text-anchor:middle;" transform="matrix(1 0 0 1 2339.98 322)">Bold</text>
  <text style="stroke:none;fill:black;font-family:sans-serif;font-size:13;text-anchor:middle;" transform="matrix(1 0 0 1 2636.69 322)">Heavy</text>
  <text style="stroke:none;fill:black;font-family:sans-serif;font-size:13;text-anchor:middle;" transform="matrix(1 0 0 1 2933.4 322)">Black</text>
  <line style="fill:none;stroke:black;opacity:1;stroke-width:0.5;" x1="263" x2="3036" y1="1903" y2="1903"/>
  <g transform="matrix(1 0 0 1 263 1933)">
   <path d="M9.24805 0.830078Q10.8691 0.830078 12.2949 0.214844Q13.7207-0.400391 14.8096-1.49414Q15.8984-2.58789 16.5186-4.01367Q17.1387-5.43945 17.1387-7.05078Q17.1387-8.66211 16.5186-10.0879Q15.8984-11.5137 14.8047-12.6074Q13.7109-13.7012 12.2852-14.3164Q10.8594-14.9316 9.23828-14.9316Q7.62695-14.9316 6.20117-14.3164Q4.77539-13.7012 3.69141-12.6074Q2.60742-11.5137 1.9873-10.0879Q1.36719-8.66211 1.36719-7.05078Q1.36719-5.43945 1.9873-4.01367Q2.60742-2.58789 3.69629-1.49414Q4.78516-0.400391 6.21094 0.214844Q7.63672 0.830078 9.24805 0.830078ZM9.24805-0.654297Q7.91992-0.654297 6.7627-1.14746Q5.60547-1.64062 4.73145-2.51953Q3.85742-3.39844 3.36426-4.56055Q2.87109-5.72266 2.87109-7.05078Q2.87109-8.37891 3.35938-9.54102Q3.84766-10.7031 4.72168-11.582Q5.5957-12.4609 6.75293-12.9541Q7.91016-13.4473 9.23828-13.4473Q10.5762-13.4473 11.7334-12.9541Q12.8906-12.4609 13.7695-11.582Q14.6484-10.7031 15.1465-9.54102Q15.6445-8.37891 15.6445-7.05078Q15.6445-5.72266 15.1514-4.56055Q14.6582-3.39844 13.7842-2.51953Q12.9102-1.64062 11.748-1.14746Q10.5859-0.654297 9.24805-0.654297ZM5.6543-7.05078Q5.6543-6.72852 5.85938-6.52832Q6.06445-6.32812 6.40625-6.32812L8.51562-6.32812L8.51562-4.20898Q8.51562-3.88672 8.71094-3.67676Q8.90625-3.4668 9.23828-3.4668Q9.56055-3.4668 9.77051-3.67676Q9.98047-3.88672 9.98047-4.20898L9.98047-6.32812L12.0898-6.32812Q12.4219-6.32812 12.627-6.52832Q12.832-6.72852 12.832-7.05078Q12.832-7.38281 12.627-7.58789Q12.4219-7.79297 12.0898-7.79297L9.98047-7.79297L9.98047-9.90234Q9.98047-10.2344 9.77051-10.4443Q9.56055-10.6543 9.23828-10.6543Q8.90625-10.6543 8.71094-10.4443Q8.51562-10.2344 8.51562-9.90234L8.51562-7.79297L6.40625-7.79297Q6.06445-7.79297 5.85938-7.58789Q5.6543-7.38281 5.6543-7.05078Z"/>
  </g>
  <g transform="matrix(1 0 0 1 281.867 1933)">
   <path d="M11.709 2.91016Q13.75 2.91016 15.5518 2.12891Q17.3535 1.34766 18.7305-0.0292969Q20.1074-1.40625 20.8887-3.20801Q21.6699-5.00977 21.6699-7.05078Q21.6699-9.0918 20.8887-10.8936Q20.1074-12.6953 18.7305-14.0723Q17.3535-15.4492 15.5469-16.2305Q13.7402-17.0117 11.6992-17.0117Q9.6582-17.0117 7.85645-16.2305Q6.05469-15.4492 4.68262-14.0723Q3.31055-12.6953 2.5293-10.8936Q1.74805-9.0918 1.74805-7.05078Q1.74805-5.00977 2.5293-3.20801Q3.31055-1.40625 4.6875-0.0292969Q6.06445 1.34766 7.86621 2.12891Q9.66797 2.91016 11.709 2.91016ZM11.709 1.25Q9.98047 1.25 8.47656 0.605469Q6.97266-0.0390625 5.83496-1.17676Q4.69727-2.31445 4.05762-3.81836Q3.41797-5.32227 3.41797-7.05078Q3.41797-8.7793 4.05762-10.2832Q4.69727-11.7871 5.83008-12.9297Q6.96289-14.0723 8.4668-14.7119Q9.9707-15.3516 11.6992-15.3516Q13.4277-15.3516 14.9316-14.7119Q16.4355-14.0723 17.5781-12.9297Q18.7207-11.7871 19.3652-10.2832Q20.0098-8.7793 20.0098-7.05078Q20.0098-5.32227 19.3701-3.81836Q18.7305-2.31445 17.5928-1.17676Q16.4551-0.0390625 14.9463 0.605469Q13.4375 1.25 11.709 1.25ZM7.17773-7.05078Q7.17773-6.69922 7.41211-6.47461Q7.64648-6.25 8.01758-6.25L10.8887-6.25L10.8887-3.36914Q10.8887-2.99805 11.1133-2.76855Q11.3379-2.53906 11.6895-2.53906Q12.0605-2.53906 12.29-2.76855Q12.5195-2.99805 12.5195-3.36914L12.5195-6.25L15.4004-6.25Q15.7715-6.25 16.001-6.47461Q16.2305-6.69922 16.2305-7.05078Q16.2305-7.42188 16.001-7.65137Q15.7715-7.88086 15.4004-7.88086L12.5195-7.88086L12.5195-10.752Q12.5195-11.1328 12.29-11.3623Q12.0605-11.5918 11.6895-11.5918Q11.3379-11.5918 11.1133-11.3574Q10.8887-11.123 10.8887-10.752L10.8887-7.88086L8.01758-7.88086Q7.63672-7.88086 7.40723-7.65137Q7.17773-7.42188 7.17773-7.05078Z"/>
  </g>
  <g transform="matrix(1 0 0 1 305.646 1933)">
   <path d="M14.9707 5.66406Q17.0605 5.66406 18.96 5.01465Q20.8594 4.36523 22.4512 3.19336Q24.043 2.02148 25.2197 0.429688Q26.3965-1.16211 27.0459-3.06641Q27.6953-4.9707 27.6953-7.05078Q27.6953-9.14062 27.0459-11.04Q26.3965-12.9395 25.2197-14.5312Q24.043-16.123 22.4512-17.2998Q20.8594-18.4766 18.9551-19.126Q17.0508-19.7754 14.9609-19.7754Q12.8711-19.7754 10.9717-19.126Q9.07227-18.4766 7.48535-17.2998Q5.89844-16.123 4.72168-14.5312Q3.54492-12.9395 2.90039-11.04Q2.25586-9.14062 2.25586-7.05078Q2.25586-4.9707 2.90527-3.06641Q3.55469-1.16211 4.72656 0.429688Q5.89844 2.02148 7.49023 3.19336Q9.08203 4.36523 10.9814 5.01465Q12.8809 5.66406 14.9707 5.66406ZM14.9707 3.84766Q13.1641 3.84766 11.5283 3.2959Q9.89258 2.74414 8.53516 1.74805Q7.17773 0.751953 6.17676-0.610352Q5.17578-1.97266 4.62891-3.6084Q4.08203-5.24414 4.08203-7.05078Q4.08203-8.86719 4.62891-10.5029Q5.17578-12.1387 6.17188-13.501Q7.16797-14.8633 8.52539-15.8594Q9.88281-16.8555 11.5186-17.4023Q13.1543-17.9492 14.9609-17.9492Q16.7773-17.9492 18.4131-17.4023Q20.0488-16.8555 21.4111-15.8594Q22.7734-14.8633 23.7695-13.501Q24.7656-12.1387 25.3174-10.5029Q25.8691-8.86719 25.8691-7.05078Q25.8789-5.24414 25.332-3.6084Q24.7852-1.97266 23.7842-0.610352Q22.7832 0.751953 21.4209 1.74805Q20.0586 2.74414 18.4229 3.2959Q16.7871 3.84766 14.9707 3.84766ZM9.19922-7.05078Q9.19922-6.66992 9.45801-6.4209Q9.7168-6.17188 10.1172-6.17188L14.0625-6.17188L14.0625-2.2168Q14.0625-1.81641 14.3115-1.55762Q14.5605-1.29883 14.9512-1.29883Q15.3516-1.29883 15.6104-1.55273Q15.8691-1.80664 15.8691-2.2168L15.8691-6.17188L19.8242-6.17188Q20.2246-6.17188 20.4785-6.4209Q20.7324-6.66992 20.7324-7.05078Q20.7324-7.46094 20.4785-7.71484Q20.2246-7.96875 19.8242-7.96875L15.8691-7.96875L15.8691-11.9141Q15.8691-12.3242 15.6104-12.583Q15.3516-12.8418 14.9512-12.8418Q14.5605-12.8418 14.3115-12.583Q14.0625-12.3242 14.0625-11.9141L14.0625-7.96875L10.1172-7.96875Q9.70703-7.96875 9.45312-7.71484Q9.19922-7.46094 9.19922-7.05078Z"/>
  </g>
  <text style="stroke:none;fill:black;font-family:sans-serif;font-size:13;font-weight:bold;" transform="matrix(1 0 0 1 263 1953)">Design Variations</text>
  <text style="stroke:none;fill:black;font-family:sans-serif;font-size:13;" transform="matrix(1 0 0 1 263 1971)">Symbols are supported in up to nine weights and three scales.</text>
  <text style="stroke:none;fill:black;font-family:sans-serif;font-size:13;" transform="matrix(1 0 0 1 263 1989)">For optimal layout with text and other symbols, vertically align</text>
  <text style="stroke:none;fill:black;font-family:sans-serif;font-size:13;" transform="matrix(1 0 0 1 263 2007)">symbols with the adjacent text.</text>
  <line style="fill:none;stroke:#00AEEF;stroke-width:0.5;opacity:1.0;" x1="776" x2="776" y1="1919" y2="1933"/>
  <g transform="matrix(1 0 0 1 776 1933)">
   <path d="M3.31055 0.15625Q3.70117 0.15625 3.91602-0.00976562Q4.13086-0.175781 4.26758-0.585938L5.52734-4.0332L11.2891-4.0332L12.5488-0.585938Q12.6855-0.175781 12.9004-0.00976562Q13.1152 0.15625 13.4961 0.15625Q13.8867 0.15625 14.1162-0.0585938Q14.3457-0.273438 14.3457-0.644531Q14.3457-0.869141 14.2383-1.17188L9.6582-13.3691Q9.48242-13.8184 9.17969-14.043Q8.87695-14.2676 8.4082-14.2676Q7.5-14.2676 7.17773-13.3789L2.59766-1.16211Q2.49023-0.859375 2.49023-0.634766Q2.49023-0.263672 2.70996-0.0537109Q2.92969 0.15625 3.31055 0.15625ZM6.00586-5.51758L8.37891-12.0898L8.42773-12.0898L10.8008-5.51758Z"/>
  </g>
  <line style="fill:none;stroke:#00AEEF;stroke-width:0.5;opacity:1.0;" x1="793.197" x2="793.197" y1="1919" y2="1933"/>
  <text style="stroke:none;fill:black;font-family:sans-serif;font-size:13;font-weight:bold;" transform="matrix(1 0 0 1 776 1953)">Margins</text>
  <text style="stroke:none;fill:black;font-family:sans-serif;font-size:13;" transform="matrix(1 0 0 1 776 1971)">Leading and trailing margins on the left and right side of each symbol</text>
  <text style="stroke:none;fill:black;font-family:sans-serif;font-size:13;" transform="matrix(1 0 0 1 776 1989)">can be adjusted by modifying the x-location of the margin guidelines.</text>
  <text style="stroke:none;fill:black;font-family:sans-serif;font-size:13;" transform="matrix(1 0 0 1 776 2007)">Modifications are automatically applied proportionally to all</text>
  <text style="stroke:none;fill:black;font-family:sans-serif;font-size:13;" transform="matrix(1 0 0 1 776 2025)">scales and weights.</text>
  <g transform="matrix(1 0 0 1 1289 1933)">
   <path d="M2.8418 1.86523L4.54102 3.57422Q5.18555 4.22852 5.90332 4.17969Q6.62109 4.13086 7.31445 3.35938L18.0078-8.42773L17.041-9.4043L6.42578 2.27539Q6.16211 2.57812 5.89355 2.61719Q5.625 2.65625 5.27344 2.30469L4.10156 1.14258Q3.75 0.791016 3.79395 0.522461Q3.83789 0.253906 4.14062-0.0195312L15.6152-10.8203L14.6387-11.7871L3.04688-0.898438Q2.30469-0.214844 2.25098 0.498047Q2.19727 1.21094 2.8418 1.86523ZM9.25781-16.3281Q8.94531-16.0254 8.90625-15.6348Q8.86719-15.2441 9.04297-14.9512Q9.21875-14.6777 9.55566-14.541Q9.89258-14.4043 10.3809-14.5215Q11.4746-14.7754 12.5977-14.7314Q13.7207-14.6875 14.7949-13.9844L14.209-12.5293Q13.9551-11.9043 14.0674-11.4404Q14.1797-10.9766 14.5801-10.5664L16.875-8.25195Q17.2363-7.88086 17.5781-7.82227Q17.9199-7.76367 18.3398-7.8418L19.4043-8.03711L20.0684-7.36328L20.0293-6.80664Q20-6.43555 20.1221-6.12305Q20.2441-5.81055 20.6055-5.44922L21.3672-4.70703Q21.7285-4.3457 22.1533-4.33105Q22.5781-4.31641 22.9297-4.66797L25.8398-7.58789Q26.1914-7.93945 26.1816-8.35449Q26.1719-8.76953 25.8105-9.13086L25.0391-9.89258Q24.6875-10.2539 24.3799-10.3857Q24.0723-10.5176 23.7109-10.4883L23.1348-10.4395L22.4902-11.0742L22.7344-12.1973Q22.832-12.6172 22.6953-12.9834Q22.5586-13.3496 22.1191-13.7891L19.9219-15.9766Q18.6719-17.2168 17.2607-17.8369Q15.8496-18.457 14.4189-18.4814Q12.9883-18.5059 11.665-17.959Q10.3418-17.4121 9.25781-16.3281ZM10.752-15.957Q11.6602-16.6211 12.7002-16.9043Q13.7402-17.1875 14.8047-17.085Q15.8691-16.9824 16.8701-16.5137Q17.8711-16.0449 18.7012-15.2051L21.1328-12.793Q21.3086-12.6172 21.3525-12.4512Q21.3965-12.2852 21.3379-12.0312L21.0156-10.5469L22.5195-9.0625L23.5059-9.12109Q23.6914-9.13086 23.7891-9.09668Q23.8867-9.0625 24.0332-8.91602L24.6094-8.33984L22.168-5.89844L21.5918-6.47461Q21.4453-6.62109 21.4062-6.71875Q21.3672-6.81641 21.377-7.01172L21.4453-7.98828L19.9512-9.47266L18.4277-9.21875Q18.1836-9.16992 18.042-9.2041Q17.9004-9.23828 17.7148-9.41406L15.7129-11.416Q15.5176-11.5918 15.4932-11.7529Q15.4688-11.9141 15.5859-12.1875L16.4648-14.2773Q15.293-15.3711 13.8281-15.791Q12.3633-16.2109 10.8398-15.7617Q10.7227-15.7324 10.6885-15.8057Q10.6543-15.8789 10.752-15.957Z"/>
  </g>
  <text style="stroke:none;fill:black;font-family:sans-serif;font-size:13;font-weight:bold;" transform="matrix(1 0 0 1 1289 1953)">Exporting</text>
  <text style="stroke:none;fill:black;font-family:sans-serif;font-size:13;" transform="matrix(1 0 0 1 1289 1971)">Symbols should be outlined when exporting to ensure the</text>
  <text style="stroke:none;fill:black;font-family:sans-serif;font-size:13;" transform="matrix(1 0 0 1 1289 1989)">design is preserved when submitting to Xcode.</text>
  <text id="template-version" style="stroke:none;fill:black;font-family:sans-serif;font-size:13;text-anchor:end;" transform="matrix(1 0 0 1 3036 1933)">Template v.3.0</text>
  <text style="stroke:none;fill:black;font-family:sans-serif;font-size:13;text-anchor:end;" transform="matrix(1 0 0 1 3036 1951)">Requires Xcode 13 or greater</text>
  <text id="descriptive-name" style="stroke:none;fill:black;font-family:sans-serif;font-size:13;text-anchor:end;" transform="matrix(1 0 0 1 3036 1969)">Generated from key.viewfinder</text>
  <text style="stroke:none;fill:black;font-family:sans-serif;font-size:13;text-anchor:end;" transform="matrix(1 0 0 1 3036 1987)">Typeset at 100 points</text>
  <text style="stroke:none;fill:black;font-family:sans-serif;font-size:13;" transform="matrix(1 0 0 1 263 726)">Small</text>
  <text style="stroke:none;fill:black;font-family:sans-serif;font-size:13;" transform="matrix(1 0 0 1 263 1156)">Medium</text>
  <text style="stroke:none;fill:black;font-family:sans-serif;font-size:13;" transform="matrix(1 0 0 1 263 1586)">Large</text>
 </g>
 <g id="Guides">
  <g id="H-reference" style="fill:#27AAE1;stroke:none;" transform="matrix(1 0 0 1 339 696)">
   <path d="M0.993347 0L3.6377 0L29.3282-67.1326L30.0301-67.1326L30.0301-70.459L28.1227-70.459ZM11.6882-24.4797L46.9818-24.4797L46.2311-26.7288L12.4382-26.7288ZM55.1193 0L57.7637 0L30.6381-70.459L29.4327-70.459L29.4327-67.1326Z"/>
  </g>
  <line id="Baseline-S" style="fill:none;stroke:#27AAE1;opacity:1;stroke-width:0.5;" x1="263" x2="3036" y1="696" y2="696"/>
  <line id="Capline-S" style="fill:none;stroke:#27AAE1;opacity:1;stroke-width:0.5;" x1="263" x2="3036" y1="625.541" y2="625.541"/>
  <g id="H-reference" style="fill:#27AAE1;stroke:none;" transform="matrix(1 0 0 1 339 1126)">
   <path d="M0.993347 0L3.6377 0L29.3282-67.1326L30.0301-67.1326L30.0301-70.459L28.1227-70.459ZM11.6882-24.4797L46.9818-24.4797L46.2311-26.7288L12.4382-26.7288ZM55.1193 0L57.7637 0L30.6381-70.459L29.4327-70.459L29.4327-67.1326Z"/>
  </g>
  <line id="Baseline-M" style="fill:none;stroke:#27AAE1;opacity:1;stroke-width:0.5;" x1="263" x2="3036" y1="1126" y2="1126"/>
  <line id="Capline-M" style="fill:none;stroke:#27AAE1;opacity:1;stroke-width:0.5;" x1="263" x2="3036" y1="1055.54" y2="1055.54"/>
  <g id="H-reference" style="fill:#27AAE1;stroke:none;" transform="matrix(1 0 0 1 339 1556)">
   <path d="M0.993347 0L3.6377 0L29.3282-67.1326L30.0301-67.1326L30.0301-70.459L28.1227-70.459ZM11.6882-24.4797L46.9818-24.4797L46.2311-26.7288L12.4382-26.7288ZM55.1193 0L57.7637 0L30.6381-70.459L29.4327-70.459L29.4327-67.1326Z"/>
  </g>
  <line id="Baseline-L" style="fill:none;stroke:#27AAE1;opacity:1;stroke-width:0.5;" x1="263" x2="3036" y1="1556" y2="1556"/>
  <line id="Capline-L" style="fill:none;stroke:#27AAE1;opacity:1;stroke-width:0.5;" x1="263" x2="3036" y1="1485.54" y2="1485.54"/>
  <line id="left-margin-Ultralight-S" style="fill:none;stroke:#00AEEF;stroke-width:0.5;opacity:1.0;" x1="514.842" x2="514.842" y1="600.785" y2="720.121"/>
  <line id="right-margin-Ultralight-S" style="fill:none;stroke:#00AEEF;stroke-width:0.5;opacity:1.0;" x1="604.58" x2="604.58" y1="600.785" y2="720.121"/>
  <line id="left-margin-Regular-S" style="fill:none;stroke:#00AEEF;stroke-width:0.5;opacity:1.0;" x1="1402.11" x2="1402.11" y1="600.785" y2="720.121"/>
  <line id="right-margin-Regular-S" style="fill:none;stroke:#00AEEF;stroke-width:0.5;opacity:1.0;" x1="1497.57" x2="1497.57" y1="600.785" y2="720.121"/>
  <line id="left-margin-Black-S" style="fill:none;stroke:#00AEEF;stroke-width:0.5;opacity:1.0;" x1="2883.55" x2="2883.55" y1="600.785" y2="720.121"/>
  <line id="right-margin-Black-S" style="fill:none;stroke:#00AEEF;stroke-width:0.5;opacity:1.0;" x1="2983.25" x2="2983.25" y1="600.785" y2="720.121"/>
 </g>
 <g id="Symbols">
  <g id="Black-S" transform="matrix(1 0 0 1 2883.55 696)">
   <path class="hierarchical-0:primary SFSymbolsPreview212121" d="M49.8047-55.7617Q46.3867-55.7617 43.5547-54.1016Q40.7227-52.4414 39.0625-49.6582Q37.4023-46.875 37.4023-43.457Q37.4023-39.8926 39.2334-36.8896Q41.0645-33.8867 44.1895-32.3242L44.1895-17.1387Q44.1895-15.6738 45.166-14.8438L48.5352-11.8652Q49.1699-11.2793 50.0977-11.2793Q51.0254-11.2793 51.709-12.0117L56.9824-17.2852Q57.8125-18.1152 57.7148-19.165Q57.6172-20.2148 56.9336-20.9961L55.0781-22.998L58.1543-26.123Q58.9355-26.9043 58.96-28.0029Q58.9844-29.1016 58.1543-29.8828L55.5664-32.5195Q58.7402-34.375 60.498-37.207Q62.2559-40.0391 62.2559-43.457Q62.2559-46.875 60.5713-49.6582Q58.8867-52.4414 56.0791-54.1016Q53.2715-55.7617 49.8047-55.7617ZM49.8047-49.2188Q51.2207-49.2188 52.2705-48.1934Q53.3203-47.168 53.3203-45.7031Q53.3203-44.3359 52.2705-43.2861Q51.2207-42.2363 49.8047-42.2363Q48.4375-42.2363 47.3877-43.2861Q46.3379-44.3359 46.3379-45.7031Q46.3379-47.168 47.3877-48.1934Q48.4375-49.2188 49.8047-49.2188Z"/>
   <path class="hierarchical-1:secondary SFSymbolsPreview4D4D4D" d="M82.8613-43.9453Q89.9414-43.9453 89.9414-51.0742L89.9414-60.0586Q89.9414-67.2363 85.9131-71.2646Q81.8848-75.293 74.707-75.293L65.7227-75.293Q58.5938-75.293 58.5938-68.2129Q58.5938-61.1328 65.7227-61.1328L72.4609-61.1328Q74.1699-61.1328 74.9756-60.4004Q75.7812-59.668 75.7812-57.8125L75.7812-51.0742Q75.7812-43.9453 82.8613-43.9453ZM65.7227 4.88281L74.707 4.88281Q81.8848 4.88281 85.9131 0.854492Q89.9414-3.17383 89.9414-10.3516L89.9414-19.3359Q89.9414-26.4648 82.8613-26.4648Q75.7812-26.4648 75.7812-19.3359L75.7812-12.5977Q75.7812-10.791 74.9756-10.0342Q74.1699-9.27734 72.4609-9.27734L65.7227-9.27734Q58.5938-9.27734 58.5938-2.19727Q58.5938 4.88281 65.7227 4.88281ZM16.8457-43.9453Q23.9258-43.9453 23.9258-51.0742L23.9258-57.8125Q23.9258-59.668 24.7559-60.4004Q25.5859-61.1328 27.2461-61.1328L33.9844-61.1328Q41.1133-61.1328 41.1133-68.2129Q41.1133-75.293 33.9844-75.293L25-75.293Q17.8223-75.293 13.7939-71.2646Q9.76562-67.2363 9.76562-60.0586L9.76562-51.0742Q9.76562-43.9453 16.8457-43.9453ZM25 4.88281L33.9844 4.88281Q41.1133 4.88281 41.1133-2.19727Q41.1133-9.27734 33.9844-9.27734L27.2461-9.27734Q25.5859-9.27734 24.7559-10.0342Q23.9258-10.791 23.9258-12.5977L23.9258-19.3359Q23.9258-26.4648 16.8457-26.4648Q9.76562-26.4648 9.76562-19.3359L9.76562-10.3516Q9.76562-3.17383 13.7939 0.854492Q17.8223 4.88281 25 4.88281Z"/>
  </g>
  <g id="Regular-S" transform="matrix(1 0 0 1 1402.11 696)">
   <path class="hierarchical-0:primary SFSymbolsPreview212121" d="M47.7539-58.4473Q44.1895-58.4473 41.2842-56.7139Q38.3789-54.9805 36.6699-52.0996Q34.9609-49.2188 34.9609-45.7031Q34.9609-41.6992 37.1582-38.4521Q39.3555-35.2051 43.0176-33.7402L43.0176-14.2578Q43.0664-13.5254 43.6523-12.9395L46.9727-9.57031Q47.3145-9.27734 47.7295-9.27734Q48.1445-9.27734 48.4375-9.57031L54.7363-15.8203Q55.127-16.2109 55.127-16.6504Q55.127-17.0898 54.7363-17.3828L50.9277-21.2402L56.25-26.4648Q56.5918-26.7578 56.543-27.1973Q56.4941-27.6367 56.1523-28.0273L50.9766-33.252Q55.5176-35.1074 57.9834-38.3545Q60.4492-41.6016 60.4492-45.7031Q60.4492-49.2188 58.7402-52.0996Q57.0312-54.9805 54.126-56.7139Q51.2207-58.4473 47.7539-58.4473ZM47.7051-52.3926Q49.3164-52.3926 50.4395-51.2207Q51.5625-50.0488 51.5625-48.4375Q51.5625-46.7773 50.4395-45.6055Q49.3164-44.4336 47.7051-44.4336Q46.0938-44.4336 44.9219-45.6055Q43.75-46.7773 43.75-48.4375Q43.75-50.0488 44.8975-51.2207Q46.0449-52.3926 47.7051-52.3926Z"/>
   <path class="hierarchical-1:secondary SFSymbolsPreview4D4D4D" d="M82.1777-48.2422Q85.6934-48.2422 85.6934-51.8066L85.6934-60.8887Q85.6934-67.041 82.5928-70.1172Q79.4922-73.1934 73.2422-73.1934L64.1602-73.1934Q60.5957-73.1934 60.5957-69.6289Q60.5957-66.1133 64.1602-66.1133L73.1445-66.1133Q75.7812-66.1133 77.2217-64.6973Q78.6621-63.2812 78.6621-60.5469L78.6621-51.8066Q78.6621-48.2422 82.1777-48.2422ZM64.1602 2.7832L73.2422 2.7832Q79.4922 2.7832 82.5928-0.292969Q85.6934-3.36914 85.6934-9.52148L85.6934-18.5547Q85.6934-22.168 82.1777-22.168Q78.6621-22.168 78.6621-18.5547L78.6621-9.86328Q78.6621-7.08008 77.2217-5.68848Q75.7812-4.29688 73.1445-4.29688L64.1602-4.29688Q60.5957-4.29688 60.5957-0.732422Q60.5957 2.7832 64.1602 2.7832ZM13.2812-48.2422Q16.7969-48.2422 16.7969-51.8066L16.7969-60.5469Q16.7969-63.2812 18.2373-64.6973Q19.6777-66.1133 22.3145-66.1133L31.2988-66.1133Q34.8633-66.1133 34.8633-69.6289Q34.8633-73.1934 31.2988-73.1934L22.2168-73.1934Q16.0156-73.1934 12.8906-70.1172Q9.76562-67.041 9.76562-60.8887L9.76562-51.8066Q9.76562-48.2422 13.2812-48.2422ZM22.2168 2.7832L31.2988 2.7832Q34.8633 2.7832 34.8633-0.732422Q34.8633-4.29688 31.2988-4.29688L22.3145-4.29688Q19.6777-4.29688 18.2373-5.68848Q16.7969-7.08008 16.7969-9.86328L16.7969-18.5547Q16.7969-22.168 13.2812-22.168Q9.76562-22.168 9.76562-18.5547L9.76562-9.52148Q9.76562-3.36914 12.8906-0.292969Q16.0156 2.7832 22.2168 2.7832Z"/>
  </g>
  <g id="Ultralight-S" transform="matrix(1 0 0 1 514.842 696)">
   <path class="hierarchical-0:primary SFSymbolsPreview212121" d="M44.9707-58.9844Q41.4551-58.9844 38.6719-57.3242Q35.8887-55.6641 34.2285-52.8809Q32.5684-50.0977 32.5684-46.6309Q32.5684-42.627 34.79-39.4531Q37.0117-36.2793 40.7227-34.9609L40.7227-14.8926Q40.7227-14.4043 41.1621-13.8672L44.4336-10.6445Q44.6777-10.3516 44.8975-10.3516Q45.1172-10.3516 45.4102-10.6445L51.7578-16.8945Q51.9043-17.0898 51.9043-17.2852Q51.9043-17.4805 51.7578-17.6758L47.4609-21.9727L53.1738-27.5879Q53.3203-27.7344 53.2959-27.9785Q53.2715-28.2227 53.125-28.418L47.3145-34.2773Q52.1484-36.0352 54.7119-39.2822Q57.2754-42.5293 57.2754-46.6309Q57.2754-50.0488 55.6152-52.8564Q53.9551-55.6641 51.1719-57.3242Q48.3887-58.9844 44.9707-58.9844ZM44.9707-52.8809Q46.5332-52.8809 47.6318-51.7822Q48.7305-50.6836 48.7305-49.0723Q48.7305-47.5586 47.6318-46.4355Q46.5332-45.3125 44.9707-45.3125Q43.3594-45.3125 42.2363-46.4355Q41.1133-47.5586 41.1133-49.0723Q41.1133-50.6836 42.2119-51.7822Q43.3105-52.8809 44.9707-52.8809Z"/>
   <path class="hierarchical-1:secondary SFSymbolsPreview4D4D4D" d="M78.8574-48.5352Q79.9805-48.5352 79.9805-49.6582L79.9805-60.3027Q79.9805-65.1367 77.4414-67.7002Q74.9023-70.2637 69.9707-70.2637L59.375-70.2637Q58.252-70.2637 58.252-69.1895Q58.252-68.0664 59.375-68.0664L69.873-68.0664Q73.6328-68.0664 75.708-66.0645Q77.7832-64.0625 77.7832-60.2051L77.7832-49.6582Q77.7832-48.5352 78.8574-48.5352ZM59.375-0.0488281L69.9707-0.0488281Q74.9023-0.0488281 77.4414-2.6123Q79.9805-5.17578 79.9805-10.0098L79.9805-20.6543Q79.9805-21.8262 78.8574-21.8262Q77.7832-21.8262 77.7832-20.6543L77.7832-10.1562Q77.7832-6.25 75.708-4.24805Q73.6328-2.24609 69.873-2.24609L59.375-2.24609Q58.252-2.24609 58.252-1.12305Q58.252-0.0488281 59.375-0.0488281ZM10.8887-48.5352Q11.9629-48.5352 11.9629-49.6582L11.9629-60.2051Q11.9629-64.0625 13.9648-66.0645Q15.9668-68.0664 19.873-68.0664L30.3711-68.0664Q31.4941-68.0664 31.4941-69.1895Q31.4941-70.2637 30.3711-70.2637L19.7754-70.2637Q14.8438-70.2637 12.3047-67.7246Q9.76562-65.1855 9.76562-60.3027L9.76562-49.6582Q9.76562-48.5352 10.8887-48.5352ZM19.7754-0.0488281L30.3711-0.0488281Q31.4941-0.0488281 31.4941-1.12305Q31.4941-2.24609 30.3711-2.24609L19.873-2.24609Q15.9668-2.24609 13.9648-4.24805Q11.9629-6.25 11.9629-10.1562L11.9629-20.6543Q11.9629-21.8262 10.8887-21.8262Q9.76562-21.8262 9.76562-20.6543L9.76562-10.0098Q9.76562-5.12695 12.3047-2.58789Q14.8438-0.0488281 19.7754-0.0488281Z"/>
  </g>
 </g>
</svg>
