<?xml version="1.0" encoding="UTF-8"?>
<!--Generator: Apple Native CoreSVG 175-->
<!DOCTYPE svg
PUBLIC "-//W3C//DTD SVG 1.1//EN"
       "http://www.w3.org/Graphics/SVG/1.1/DTD/svg11.dtd">
<svg version="1.1" xmlns="http://www.w3.org/2000/svg" xmlns:xlink="http://www.w3.org/1999/xlink" width="3300" height="2200">
 <!--glyph: "uni1004BA.medium", point size: 100.0, font version: "17.0d12e1", template writer version: "65.1"-->
 <style>.hierarchical-0:secondary {fill:#4D4D4D}
.hierarchical-1:primary {fill:#212121}

.SFSymbolsPreview212121 {fill:#212121;opacity:1.0}
.SFSymbolsPreview4D4D4D {fill:#4D4D4D;opacity:1.0}
</style>
 <g id="Notes">
  <rect height="2200" id="artboard" style="fill:white;opacity:1" width="3300" x="0" y="0"/>
  <line style="fill:none;stroke:black;opacity:1;stroke-width:0.5;" x1="263" x2="3036" y1="292" y2="292"/>
  <text style="stroke:none;fill:black;font-family:sans-serif;font-size:13;font-weight:bold;" transform="matrix(1 0 0 1 263 322)">Weight/Scale Variations</text>
  <text style="stroke:none;fill:black;font-family:sans-serif;font-size:13;text-anchor:middle;" transform="matrix(1 0 0 1 559.711 322)">Ultralight</text>
  <text style="stroke:none;fill:black;font-family:sans-serif;font-size:13;text-anchor:middle;" transform="matrix(1 0 0 1 856.422 322)">Thin</text>
  <text style="stroke:none;fill:black;font-family:sans-serif;font-size:13;text-anchor:middle;" transform="matrix(1 0 0 1 1153.13 322)">Light</text>
  <text style="stroke:none;fill:black;font-family:sans-serif;font-size:13;text-anchor:middle;" transform="matrix(1 0 0 1 1449.84 322)">Regular</text>
  <text style="stroke:none;fill:black;font-family:sans-serif;font-size:13;text-anchor:middle;" transform="matrix(1 0 0 1 1746.56 322)">Medium</text>
  <text style="stroke:none;fill:black;font-family:sans-serif;font-size:13;text-anchor:middle;" transform="matrix(1 0 0 1 2043.27 322)">Semibold</text>
  <text style="stroke:none;fill:black;font-family:sans-serif;font-size:13;text-anchor:middle;" transform="matrix(1 0 0 1 2339.98 322)">Bold</text>
  <text style="stroke:none;fill:black;font-family:sans-serif;font-size:13;text-anchor:middle;" transform="matrix(1 0 0 1 2636.69 322)">Heavy</text>
  <text style="stroke:none;fill:black;font-family:sans-serif;font-size:13;text-anchor:middle;" transform="matrix(1 0 0 1 2933.4 322)">Black</text>
  <line style="fill:none;stroke:black;opacity:1;stroke-width:0.5;" x1="263" x2="3036" y1="1903" y2="1903"/>
  <g transform="matrix(1 0 0 1 263 1933)">
   <path d="M9.24805 0.830078Q10.8691 0.830078 12.2949 0.214844Q13.7207-0.400391 14.8096-1.49414Q15.8984-2.58789 16.5186-4.01367Q17.1387-5.43945 17.1387-7.05078Q17.1387-8.66211 16.5186-10.0879Q15.8984-11.5137 14.8047-12.6074Q13.7109-13.7012 12.2852-14.3164Q10.8594-14.9316 9.23828-14.9316Q7.62695-14.9316 6.20117-14.3164Q4.77539-13.7012 3.69141-12.6074Q2.60742-11.5137 1.9873-10.0879Q1.36719-8.66211 1.36719-7.05078Q1.36719-5.43945 1.9873-4.01367Q2.60742-2.58789 3.69629-1.49414Q4.78516-0.400391 6.21094 0.214844Q7.63672 0.830078 9.24805 0.830078ZM9.24805-0.654297Q7.91992-0.654297 6.7627-1.14746Q5.60547-1.64062 4.73145-2.51953Q3.85742-3.39844 3.36426-4.56055Q2.87109-5.72266 2.87109-7.05078Q2.87109-8.37891 3.35938-9.54102Q3.84766-10.7031 4.72168-11.582Q5.5957-12.4609 6.75293-12.9541Q7.91016-13.4473 9.23828-13.4473Q10.5762-13.4473 11.7334-12.9541Q12.8906-12.4609 13.7695-11.582Q14.6484-10.7031 15.1465-9.54102Q15.6445-8.37891 15.6445-7.05078Q15.6445-5.72266 15.1514-4.56055Q14.6582-3.39844 13.7842-2.51953Q12.9102-1.64062 11.748-1.14746Q10.5859-0.654297 9.24805-0.654297ZM5.6543-7.05078Q5.6543-6.72852 5.85938-6.52832Q6.06445-6.32812 6.40625-6.32812L8.51562-6.32812L8.51562-4.20898Q8.51562-3.88672 8.71094-3.67676Q8.90625-3.4668 9.23828-3.4668Q9.56055-3.4668 9.77051-3.67676Q9.98047-3.88672 9.98047-4.20898L9.98047-6.32812L12.0898-6.32812Q12.4219-6.32812 12.627-6.52832Q12.832-6.72852 12.832-7.05078Q12.832-7.38281 12.627-7.58789Q12.4219-7.79297 12.0898-7.79297L9.98047-7.79297L9.98047-9.90234Q9.98047-10.2344 9.77051-10.4443Q9.56055-10.6543 9.23828-10.6543Q8.90625-10.6543 8.71094-10.4443Q8.51562-10.2344 8.51562-9.90234L8.51562-7.79297L6.40625-7.79297Q6.06445-7.79297 5.85938-7.58789Q5.6543-7.38281 5.6543-7.05078Z"/>
  </g>
  <g transform="matrix(1 0 0 1 281.867 1933)">
   <path d="M11.709 2.91016Q13.75 2.91016 15.5518 2.12891Q17.3535 1.34766 18.7305-0.0292969Q20.1074-1.40625 20.8887-3.20801Q21.6699-5.00977 21.6699-7.05078Q21.6699-9.0918 20.8887-10.8936Q20.1074-12.6953 18.7305-14.0723Q17.3535-15.4492 15.5469-16.2305Q13.7402-17.0117 11.6992-17.0117Q9.6582-17.0117 7.85645-16.2305Q6.05469-15.4492 4.68262-14.0723Q3.31055-12.6953 2.5293-10.8936Q1.74805-9.0918 1.74805-7.05078Q1.74805-5.00977 2.5293-3.20801Q3.31055-1.40625 4.6875-0.0292969Q6.06445 1.34766 7.86621 2.12891Q9.66797 2.91016 11.709 2.91016ZM11.709 1.25Q9.98047 1.25 8.47656 0.605469Q6.97266-0.0390625 5.83496-1.17676Q4.69727-2.31445 4.05762-3.81836Q3.41797-5.32227 3.41797-7.05078Q3.41797-8.7793 4.05762-10.2832Q4.69727-11.7871 5.83008-12.9297Q6.96289-14.0723 8.4668-14.7119Q9.9707-15.3516 11.6992-15.3516Q13.4277-15.3516 14.9316-14.7119Q16.4355-14.0723 17.5781-12.9297Q18.7207-11.7871 19.3652-10.2832Q20.0098-8.7793 20.0098-7.05078Q20.0098-5.32227 19.3701-3.81836Q18.7305-2.31445 17.5928-1.17676Q16.4551-0.0390625 14.9463 0.605469Q13.4375 1.25 11.709 1.25ZM7.17773-7.05078Q7.17773-6.69922 7.41211-6.47461Q7.64648-6.25 8.01758-6.25L10.8887-6.25L10.8887-3.36914Q10.8887-2.99805 11.1133-2.76855Q11.3379-2.53906 11.6895-2.53906Q12.0605-2.53906 12.29-2.76855Q12.5195-2.99805 12.5195-3.36914L12.5195-6.25L15.4004-6.25Q15.7715-6.25 16.001-6.47461Q16.2305-6.69922 16.2305-7.05078Q16.2305-7.42188 16.001-7.65137Q15.7715-7.88086 15.4004-7.88086L12.5195-7.88086L12.5195-10.752Q12.5195-11.1328 12.29-11.3623Q12.0605-11.5918 11.6895-11.5918Q11.3379-11.5918 11.1133-11.3574Q10.8887-11.123 10.8887-10.752L10.8887-7.88086L8.01758-7.88086Q7.63672-7.88086 7.40723-7.65137Q7.17773-7.42188 7.17773-7.05078Z"/>
  </g>
  <g transform="matrix(1 0 0 1 305.646 1933)">
   <path d="M14.9707 5.66406Q17.0605 5.66406 18.96 5.01465Q20.8594 4.36523 22.4512 3.19336Q24.043 2.02148 25.2197 0.429688Q26.3965-1.16211 27.0459-3.06641Q27.6953-4.9707 27.6953-7.05078Q27.6953-9.14062 27.0459-11.04Q26.3965-12.9395 25.2197-14.5312Q24.043-16.123 22.4512-17.2998Q20.8594-18.4766 18.9551-19.126Q17.0508-19.7754 14.9609-19.7754Q12.8711-19.7754 10.9717-19.126Q9.07227-18.4766 7.48535-17.2998Q5.89844-16.123 4.72168-14.5312Q3.54492-12.9395 2.90039-11.04Q2.25586-9.14062 2.25586-7.05078Q2.25586-4.9707 2.90527-3.06641Q3.55469-1.16211 4.72656 0.429688Q5.89844 2.02148 7.49023 3.19336Q9.08203 4.36523 10.9814 5.01465Q12.8809 5.66406 14.9707 5.66406ZM14.9707 3.84766Q13.1641 3.84766 11.5283 3.2959Q9.89258 2.74414 8.53516 1.74805Q7.17773 0.751953 6.17676-0.610352Q5.17578-1.97266 4.62891-3.6084Q4.08203-5.24414 4.08203-7.05078Q4.08203-8.86719 4.62891-10.5029Q5.17578-12.1387 6.17188-13.501Q7.16797-14.8633 8.52539-15.8594Q9.88281-16.8555 11.5186-17.4023Q13.1543-17.9492 14.9609-17.9492Q16.7773-17.9492 18.4131-17.4023Q20.0488-16.8555 21.4111-15.8594Q22.7734-14.8633 23.7695-13.501Q24.7656-12.1387 25.3174-10.5029Q25.8691-8.86719 25.8691-7.05078Q25.8789-5.24414 25.332-3.6084Q24.7852-1.97266 23.7842-0.610352Q22.7832 0.751953 21.4209 1.74805Q20.0586 2.74414 18.4229 3.2959Q16.7871 3.84766 14.9707 3.84766ZM9.19922-7.05078Q9.19922-6.66992 9.45801-6.4209Q9.7168-6.17188 10.1172-6.17188L14.0625-6.17188L14.0625-2.2168Q14.0625-1.81641 14.3115-1.55762Q14.5605-1.29883 14.9512-1.29883Q15.3516-1.29883 15.6104-1.55273Q15.8691-1.80664 15.8691-2.2168L15.8691-6.17188L19.8242-6.17188Q20.2246-6.17188 20.4785-6.4209Q20.7324-6.66992 20.7324-7.05078Q20.7324-7.46094 20.4785-7.71484Q20.2246-7.96875 19.8242-7.96875L15.8691-7.96875L15.8691-11.9141Q15.8691-12.3242 15.6104-12.583Q15.3516-12.8418 14.9512-12.8418Q14.5605-12.8418 14.3115-12.583Q14.0625-12.3242 14.0625-11.9141L14.0625-7.96875L10.1172-7.96875Q9.70703-7.96875 9.45312-7.71484Q9.19922-7.46094 9.19922-7.05078Z"/>
  </g>
  <text style="stroke:none;fill:black;font-family:sans-serif;font-size:13;font-weight:bold;" transform="matrix(1 0 0 1 263 1953)">Design Variations</text>
  <text style="stroke:none;fill:black;font-family:sans-serif;font-size:13;" transform="matrix(1 0 0 1 263 1971)">Symbols are supported in up to nine weights and three scales.</text>
  <text style="stroke:none;fill:black;font-family:sans-serif;font-size:13;" transform="matrix(1 0 0 1 263 1989)">For optimal layout with text and other symbols, vertically align</text>
  <text style="stroke:none;fill:black;font-family:sans-serif;font-size:13;" transform="matrix(1 0 0 1 263 2007)">symbols with the adjacent text.</text>
  <line style="fill:none;stroke:#00AEEF;stroke-width:0.5;opacity:1.0;" x1="776" x2="776" y1="1919" y2="1933"/>
  <g transform="matrix(1 0 0 1 776 1933)">
   <path d="M3.31055 0.15625Q3.70117 0.15625 3.91602-0.00976562Q4.13086-0.175781 4.26758-0.585938L5.52734-4.0332L11.2891-4.0332L12.5488-0.585938Q12.6855-0.175781 12.9004-0.00976562Q13.1152 0.15625 13.4961 0.15625Q13.8867 0.15625 14.1162-0.0585938Q14.3457-0.273438 14.3457-0.644531Q14.3457-0.869141 14.2383-1.17188L9.6582-13.3691Q9.48242-13.8184 9.17969-14.043Q8.87695-14.2676 8.4082-14.2676Q7.5-14.2676 7.17773-13.3789L2.59766-1.16211Q2.49023-0.859375 2.49023-0.634766Q2.49023-0.263672 2.70996-0.0537109Q2.92969 0.15625 3.31055 0.15625ZM6.00586-5.51758L8.37891-12.0898L8.42773-12.0898L10.8008-5.51758Z"/>
  </g>
  <line style="fill:none;stroke:#00AEEF;stroke-width:0.5;opacity:1.0;" x1="793.197" x2="793.197" y1="1919" y2="1933"/>
  <text style="stroke:none;fill:black;font-family:sans-serif;font-size:13;font-weight:bold;" transform="matrix(1 0 0 1 776 1953)">Margins</text>
  <text style="stroke:none;fill:black;font-family:sans-serif;font-size:13;" transform="matrix(1 0 0 1 776 1971)">Leading and trailing margins on the left and right side of each symbol</text>
  <text style="stroke:none;fill:black;font-family:sans-serif;font-size:13;" transform="matrix(1 0 0 1 776 1989)">can be adjusted by modifying the x-location of the margin guidelines.</text>
  <text style="stroke:none;fill:black;font-family:sans-serif;font-size:13;" transform="matrix(1 0 0 1 776 2007)">Modifications are automatically applied proportionally to all</text>
  <text style="stroke:none;fill:black;font-family:sans-serif;font-size:13;" transform="matrix(1 0 0 1 776 2025)">scales and weights.</text>
  <g transform="matrix(1 0 0 1 1289 1933)">
   <path d="M2.8418 1.86523L4.54102 3.57422Q5.18555 4.22852 5.90332 4.17969Q6.62109 4.13086 7.31445 3.35938L18.0078-8.42773L17.041-9.4043L6.42578 2.27539Q6.16211 2.57812 5.89355 2.61719Q5.625 2.65625 5.27344 2.30469L4.10156 1.14258Q3.75 0.791016 3.79395 0.522461Q3.83789 0.253906 4.14062-0.0195312L15.6152-10.8203L14.6387-11.7871L3.04688-0.898438Q2.30469-0.214844 2.25098 0.498047Q2.19727 1.21094 2.8418 1.86523ZM9.25781-16.3281Q8.94531-16.0254 8.90625-15.6348Q8.86719-15.2441 9.04297-14.9512Q9.21875-14.6777 9.55566-14.541Q9.89258-14.4043 10.3809-14.5215Q11.4746-14.7754 12.5977-14.7314Q13.7207-14.6875 14.7949-13.9844L14.209-12.5293Q13.9551-11.9043 14.0674-11.4404Q14.1797-10.9766 14.5801-10.5664L16.875-8.25195Q17.2363-7.88086 17.5781-7.82227Q17.9199-7.76367 18.3398-7.8418L19.4043-8.03711L20.0684-7.36328L20.0293-6.80664Q20-6.43555 20.1221-6.12305Q20.2441-5.81055 20.6055-5.44922L21.3672-4.70703Q21.7285-4.3457 22.1533-4.33105Q22.5781-4.31641 22.9297-4.66797L25.8398-7.58789Q26.1914-7.93945 26.1816-8.35449Q26.1719-8.76953 25.8105-9.13086L25.0391-9.89258Q24.6875-10.2539 24.3799-10.3857Q24.0723-10.5176 23.7109-10.4883L23.1348-10.4395L22.4902-11.0742L22.7344-12.1973Q22.832-12.6172 22.6953-12.9834Q22.5586-13.3496 22.1191-13.7891L19.9219-15.9766Q18.6719-17.2168 17.2607-17.8369Q15.8496-18.457 14.4189-18.4814Q12.9883-18.5059 11.665-17.959Q10.3418-17.4121 9.25781-16.3281ZM10.752-15.957Q11.6602-16.6211 12.7002-16.9043Q13.7402-17.1875 14.8047-17.085Q15.8691-16.9824 16.8701-16.5137Q17.8711-16.0449 18.7012-15.2051L21.1328-12.793Q21.3086-12.6172 21.3525-12.4512Q21.3965-12.2852 21.3379-12.0312L21.0156-10.5469L22.5195-9.0625L23.5059-9.12109Q23.6914-9.13086 23.7891-9.09668Q23.8867-9.0625 24.0332-8.91602L24.6094-8.33984L22.168-5.89844L21.5918-6.47461Q21.4453-6.62109 21.4062-6.71875Q21.3672-6.81641 21.377-7.01172L21.4453-7.98828L19.9512-9.47266L18.4277-9.21875Q18.1836-9.16992 18.042-9.2041Q17.9004-9.23828 17.7148-9.41406L15.7129-11.416Q15.5176-11.5918 15.4932-11.7529Q15.4688-11.9141 15.5859-12.1875L16.4648-14.2773Q15.293-15.3711 13.8281-15.791Q12.3633-16.2109 10.8398-15.7617Q10.7227-15.7324 10.6885-15.8057Q10.6543-15.8789 10.752-15.957Z"/>
  </g>
  <text style="stroke:none;fill:black;font-family:sans-serif;font-size:13;font-weight:bold;" transform="matrix(1 0 0 1 1289 1953)">Exporting</text>
  <text style="stroke:none;fill:black;font-family:sans-serif;font-size:13;" transform="matrix(1 0 0 1 1289 1971)">Symbols should be outlined when exporting to ensure the</text>
  <text style="stroke:none;fill:black;font-family:sans-serif;font-size:13;" transform="matrix(1 0 0 1 1289 1989)">design is preserved when submitting to Xcode.</text>
  <text id="template-version" style="stroke:none;fill:black;font-family:sans-serif;font-size:13;text-anchor:end;" transform="matrix(1 0 0 1 3036 1933)">Template v.3.0</text>
  <text style="stroke:none;fill:black;font-family:sans-serif;font-size:13;text-anchor:end;" transform="matrix(1 0 0 1 3036 1951)">Requires Xcode 13 or greater</text>
  <text id="descriptive-name" style="stroke:none;fill:black;font-family:sans-serif;font-size:13;text-anchor:end;" transform="matrix(1 0 0 1 3036 1969)">Generated from staroflife.circle</text>
  <text style="stroke:none;fill:black;font-family:sans-serif;font-size:13;text-anchor:end;" transform="matrix(1 0 0 1 3036 1987)">Typeset at 100 points</text>
  <text style="stroke:none;fill:black;font-family:sans-serif;font-size:13;" transform="matrix(1 0 0 1 263 726)">Small</text>
  <text style="stroke:none;fill:black;font-family:sans-serif;font-size:13;" transform="matrix(1 0 0 1 263 1156)">Medium</text>
  <text style="stroke:none;fill:black;font-family:sans-serif;font-size:13;" transform="matrix(1 0 0 1 263 1586)">Large</text>
 </g>
 <g id="Guides">
  <g id="H-reference" style="fill:#27AAE1;stroke:none;" transform="matrix(1 0 0 1 339 696)">
   <path d="M0.993347 0L3.6377 0L29.3282-67.1326L30.0301-67.1326L30.0301-70.459L28.1227-70.459ZM11.6882-24.4797L46.9818-24.4797L46.2311-26.7288L12.4382-26.7288ZM55.1193 0L57.7637 0L30.6381-70.459L29.4327-70.459L29.4327-67.1326Z"/>
  </g>
  <line id="Baseline-S" style="fill:none;stroke:#27AAE1;opacity:1;stroke-width:0.5;" x1="263" x2="3036" y1="696" y2="696"/>
  <line id="Capline-S" style="fill:none;stroke:#27AAE1;opacity:1;stroke-width:0.5;" x1="263" x2="3036" y1="625.541" y2="625.541"/>
  <g id="H-reference" style="fill:#27AAE1;stroke:none;" transform="matrix(1 0 0 1 339 1126)">
   <path d="M0.993347 0L3.6377 0L29.3282-67.1326L30.0301-67.1326L30.0301-70.459L28.1227-70.459ZM11.6882-24.4797L46.9818-24.4797L46.2311-26.7288L12.4382-26.7288ZM55.1193 0L57.7637 0L30.6381-70.459L29.4327-70.459L29.4327-67.1326Z"/>
  </g>
  <line id="Baseline-M" style="fill:none;stroke:#27AAE1;opacity:1;stroke-width:0.5;" x1="263" x2="3036" y1="1126" y2="1126"/>
  <line id="Capline-M" style="fill:none;stroke:#27AAE1;opacity:1;stroke-width:0.5;" x1="263" x2="3036" y1="1055.54" y2="1055.54"/>
  <g id="H-reference" style="fill:#27AAE1;stroke:none;" transform="matrix(1 0 0 1 339 1556)">
   <path d="M0.993347 0L3.6377 0L29.3282-67.1326L30.0301-67.1326L30.0301-70.459L28.1227-70.459ZM11.6882-24.4797L46.9818-24.4797L46.2311-26.7288L12.4382-26.7288ZM55.1193 0L57.7637 0L30.6381-70.459L29.4327-70.459L29.4327-67.1326Z"/>
  </g>
  <line id="Baseline-L" style="fill:none;stroke:#27AAE1;opacity:1;stroke-width:0.5;" x1="263" x2="3036" y1="1556" y2="1556"/>
  <line id="Capline-L" style="fill:none;stroke:#27AAE1;opacity:1;stroke-width:0.5;" x1="263" x2="3036" y1="1485.54" y2="1485.54"/>
  <line id="left-margin-Ultralight-S" style="fill:none;stroke:#00AEEF;stroke-width:0.5;opacity:1.0;" x1="515.649" x2="515.649" y1="600.785" y2="720.121"/>
  <line id="right-margin-Ultralight-S" style="fill:none;stroke:#00AEEF;stroke-width:0.5;opacity:1.0;" x1="603.773" x2="603.773" y1="600.785" y2="720.121"/>
  <line id="left-margin-Thin-S" style="fill:none;stroke:#00AEEF;stroke-width:0.5;opacity:1.0;" x1="811.863" x2="811.863" y1="600.785" y2="720.121"/>
  <line id="right-margin-Thin-S" style="fill:none;stroke:#00AEEF;stroke-width:0.5;opacity:1.0;" x1="900.982" x2="900.982" y1="600.785" y2="720.121"/>
  <line id="left-margin-Light-S" style="fill:none;stroke:#00AEEF;stroke-width:0.5;opacity:1.0;" x1="1107.6" x2="1107.6" y1="600.785" y2="720.121"/>
  <line id="right-margin-Light-S" style="fill:none;stroke:#00AEEF;stroke-width:0.5;opacity:1.0;" x1="1198.66" x2="1198.66" y1="600.785" y2="720.121"/>
  <line id="left-margin-Regular-S" style="fill:none;stroke:#00AEEF;stroke-width:0.5;opacity:1.0;" x1="1403.58" x2="1403.58" y1="600.785" y2="720.121"/>
  <line id="right-margin-Regular-S" style="fill:none;stroke:#00AEEF;stroke-width:0.5;opacity:1.0;" x1="1496.11" x2="1496.11" y1="600.785" y2="720.121"/>
  <line id="left-margin-Medium-S" style="fill:none;stroke:#00AEEF;stroke-width:0.5;opacity:1.0;" x1="1699.83" x2="1699.83" y1="600.785" y2="720.121"/>
  <line id="right-margin-Medium-S" style="fill:none;stroke:#00AEEF;stroke-width:0.5;opacity:1.0;" x1="1793.28" x2="1793.28" y1="600.785" y2="720.121"/>
  <line id="left-margin-Semibold-S" style="fill:none;stroke:#00AEEF;stroke-width:0.5;opacity:1.0;" x1="1996.19" x2="1996.19" y1="600.785" y2="720.121"/>
  <line id="right-margin-Semibold-S" style="fill:none;stroke:#00AEEF;stroke-width:0.5;opacity:1.0;" x1="2090.35" x2="2090.35" y1="600.785" y2="720.121"/>
  <line id="left-margin-Bold-S" style="fill:none;stroke:#00AEEF;stroke-width:0.5;opacity:1.0;" x1="2292.43" x2="2292.43" y1="600.785" y2="720.121"/>
  <line id="right-margin-Bold-S" style="fill:none;stroke:#00AEEF;stroke-width:0.5;opacity:1.0;" x1="2387.52" x2="2387.52" y1="600.785" y2="720.121"/>
  <line id="left-margin-Heavy-S" style="fill:none;stroke:#00AEEF;stroke-width:0.5;opacity:1.0;" x1="2588.47" x2="2588.47" y1="600.785" y2="720.121"/>
  <line id="right-margin-Heavy-S" style="fill:none;stroke:#00AEEF;stroke-width:0.5;opacity:1.0;" x1="2684.91" x2="2684.91" y1="600.785" y2="720.121"/>
  <line id="left-margin-Black-S" style="fill:none;stroke:#00AEEF;stroke-width:0.5;opacity:1.0;" x1="2884.57" x2="2884.57" y1="600.785" y2="720.121"/>
  <line id="right-margin-Black-S" style="fill:none;stroke:#00AEEF;stroke-width:0.5;opacity:1.0;" x1="2982.23" x2="2982.23" y1="600.785" y2="720.121"/>
  <line id="left-margin-Ultralight-M" style="fill:none;stroke:#00AEEF;stroke-width:0.5;opacity:1.0;" x1="503.641" x2="503.641" y1="1030.79" y2="1150.12"/>
  <line id="right-margin-Ultralight-M" style="fill:none;stroke:#00AEEF;stroke-width:0.5;opacity:1.0;" x1="615.781" x2="615.781" y1="1030.79" y2="1150.12"/>
  <line id="left-margin-Thin-M" style="fill:none;stroke:#00AEEF;stroke-width:0.5;opacity:1.0;" x1="799.793" x2="799.793" y1="1030.79" y2="1150.12"/>
  <line id="right-margin-Thin-M" style="fill:none;stroke:#00AEEF;stroke-width:0.5;opacity:1.0;" x1="913.051" x2="913.051" y1="1030.79" y2="1150.12"/>
  <line id="left-margin-Light-M" style="fill:none;stroke:#00AEEF;stroke-width:0.5;opacity:1.0;" x1="1095.41" x2="1095.41" y1="1030.79" y2="1150.12"/>
  <line id="right-margin-Light-M" style="fill:none;stroke:#00AEEF;stroke-width:0.5;opacity:1.0;" x1="1210.85" x2="1210.85" y1="1030.79" y2="1150.12"/>
  <line id="left-margin-Regular-M" style="fill:none;stroke:#00AEEF;stroke-width:0.5;opacity:1.0;" x1="1391.3" x2="1391.3" y1="1030.79" y2="1150.12"/>
  <line id="right-margin-Regular-M" style="fill:none;stroke:#00AEEF;stroke-width:0.5;opacity:1.0;" x1="1508.39" x2="1508.39" y1="1030.79" y2="1150.12"/>
  <line id="left-margin-Medium-M" style="fill:none;stroke:#00AEEF;stroke-width:0.5;opacity:1.0;" x1="1687.37" x2="1687.37" y1="1030.79" y2="1150.12"/>
  <line id="right-margin-Medium-M" style="fill:none;stroke:#00AEEF;stroke-width:0.5;opacity:1.0;" x1="1805.74" x2="1805.74" y1="1030.79" y2="1150.12"/>
  <line id="left-margin-Semibold-M" style="fill:none;stroke:#00AEEF;stroke-width:0.5;opacity:1.0;" x1="1983.6" x2="1983.6" y1="1030.79" y2="1150.12"/>
  <line id="right-margin-Semibold-M" style="fill:none;stroke:#00AEEF;stroke-width:0.5;opacity:1.0;" x1="2102.94" x2="2102.94" y1="1030.79" y2="1150.12"/>
  <line id="left-margin-Bold-M" style="fill:none;stroke:#00AEEF;stroke-width:0.5;opacity:1.0;" x1="2279.66" x2="2279.66" y1="1030.79" y2="1150.12"/>
  <line id="right-margin-Bold-M" style="fill:none;stroke:#00AEEF;stroke-width:0.5;opacity:1.0;" x1="2400.29" x2="2400.29" y1="1030.79" y2="1150.12"/>
  <line id="left-margin-Heavy-M" style="fill:none;stroke:#00AEEF;stroke-width:0.5;opacity:1.0;" x1="2575.44" x2="2575.44" y1="1030.79" y2="1150.12"/>
  <line id="right-margin-Heavy-M" style="fill:none;stroke:#00AEEF;stroke-width:0.5;opacity:1.0;" x1="2697.94" x2="2697.94" y1="1030.79" y2="1150.12"/>
  <line id="left-margin-Black-M" style="fill:none;stroke:#00AEEF;stroke-width:0.5;opacity:1.0;" x1="2871.32" x2="2871.32" y1="1030.79" y2="1150.12"/>
  <line id="right-margin-Black-M" style="fill:none;stroke:#00AEEF;stroke-width:0.5;opacity:1.0;" x1="2995.48" x2="2995.48" y1="1030.79" y2="1150.12"/>
  <line id="left-margin-Ultralight-L" style="fill:none;stroke:#00AEEF;stroke-width:0.5;opacity:1.0;" x1="487.603" x2="487.603" y1="1460.79" y2="1580.12"/>
  <line id="right-margin-Ultralight-L" style="fill:none;stroke:#00AEEF;stroke-width:0.5;opacity:1.0;" x1="631.819" x2="631.819" y1="1460.79" y2="1580.12"/>
  <line id="left-margin-Thin-L" style="fill:none;stroke:#00AEEF;stroke-width:0.5;opacity:1.0;" x1="783.689" x2="783.689" y1="1460.79" y2="1580.12"/>
  <line id="right-margin-Thin-L" style="fill:none;stroke:#00AEEF;stroke-width:0.5;opacity:1.0;" x1="929.156" x2="929.156" y1="1460.79" y2="1580.12"/>
  <line id="left-margin-Light-L" style="fill:none;stroke:#00AEEF;stroke-width:0.5;opacity:1.0;" x1="1079.18" x2="1079.18" y1="1460.79" y2="1580.12"/>
  <line id="right-margin-Light-L" style="fill:none;stroke:#00AEEF;stroke-width:0.5;opacity:1.0;" x1="1227.09" x2="1227.09" y1="1460.79" y2="1580.12"/>
  <line id="left-margin-Regular-L" style="fill:none;stroke:#00AEEF;stroke-width:0.5;opacity:1.0;" x1="1374.97" x2="1374.97" y1="1460.79" y2="1580.12"/>
  <line id="right-margin-Regular-L" style="fill:none;stroke:#00AEEF;stroke-width:0.5;opacity:1.0;" x1="1524.72" x2="1524.72" y1="1460.79" y2="1580.12"/>
  <line id="left-margin-Medium-L" style="fill:none;stroke:#00AEEF;stroke-width:0.5;opacity:1.0;" x1="1670.87" x2="1670.87" y1="1460.79" y2="1580.12"/>
  <line id="right-margin-Medium-L" style="fill:none;stroke:#00AEEF;stroke-width:0.5;opacity:1.0;" x1="1822.24" x2="1822.24" y1="1460.79" y2="1580.12"/>
  <line id="left-margin-Semibold-L" style="fill:none;stroke:#00AEEF;stroke-width:0.5;opacity:1.0;" x1="1966.97" x2="1966.97" y1="1460.79" y2="1580.12"/>
  <line id="right-margin-Semibold-L" style="fill:none;stroke:#00AEEF;stroke-width:0.5;opacity:1.0;" x1="2119.57" x2="2119.57" y1="1460.79" y2="1580.12"/>
  <line id="left-margin-Bold-L" style="fill:none;stroke:#00AEEF;stroke-width:0.5;opacity:1.0;" x1="2262.87" x2="2262.87" y1="1460.79" y2="1580.12"/>
  <line id="right-margin-Bold-L" style="fill:none;stroke:#00AEEF;stroke-width:0.5;opacity:1.0;" x1="2417.09" x2="2417.09" y1="1460.79" y2="1580.12"/>
  <line id="left-margin-Heavy-L" style="fill:none;stroke:#00AEEF;stroke-width:0.5;opacity:1.0;" x1="2558.4" x2="2558.4" y1="1460.79" y2="1580.12"/>
  <line id="right-margin-Heavy-L" style="fill:none;stroke:#00AEEF;stroke-width:0.5;opacity:1.0;" x1="2714.98" x2="2714.98" y1="1460.79" y2="1580.12"/>
  <line id="left-margin-Black-L" style="fill:none;stroke:#00AEEF;stroke-width:0.5;opacity:1.0;" x1="2854.05" x2="2854.05" y1="1460.79" y2="1580.12"/>
  <line id="right-margin-Black-L" style="fill:none;stroke:#00AEEF;stroke-width:0.5;opacity:1.0;" x1="3012.75" x2="3012.75" y1="1460.79" y2="1580.12"/>
 </g>
 <g id="Symbols">
  <g id="Black-L" transform="matrix(1 0 0 1 2854.05 1556)">
   <path class="hierarchical-0:secondary SFSymbolsPreview4D4D4D" d="M79.3457 32.8613Q90.5762 32.8613 100.757 29.3945Q110.938 25.9277 119.458 19.6777Q127.979 13.4277 134.229 4.90723Q140.479-3.61328 143.945-13.7939Q147.412-23.9746 147.412-35.2051Q147.412-46.4355 143.945-56.6162Q140.479-66.7969 134.204-75.3174Q127.93-83.8379 119.434-90.1123Q110.938-96.3867 100.732-99.8291Q90.5273-103.271 79.2969-103.271Q68.1152-103.271 57.9102-99.8291Q47.7051-96.3867 39.209-90.1123Q30.7129-83.8379 24.4385-75.3174Q18.1641-66.7969 14.7217-56.6162Q11.2793-46.4355 11.2793-35.2051Q11.2793-23.9746 14.7217-13.7939Q18.1641-3.61328 24.4385 4.90723Q30.7129 13.4277 39.2334 19.6777Q47.7539 25.9277 57.9346 29.3945Q68.1152 32.8613 79.3457 32.8613ZM79.3457 12.4023Q71.4355 12.4023 64.2822 10.0098Q57.1289 7.61719 51.1963 3.24707Q45.2637-1.12305 40.8936-7.08008Q36.5234-13.0371 34.1309-20.166Q31.7383-27.2949 31.7383-35.2051Q31.7383-43.1152 34.1309-50.2686Q36.5234-57.4219 40.8936-63.3545Q45.2637-69.2871 51.1963-73.6572Q57.1289-78.0273 64.2578-80.4199Q71.3867-82.8125 79.2969-82.8125Q87.207-82.8125 94.3604-80.4199Q101.514-78.0273 107.471-73.6572Q113.428-69.2871 117.798-63.3545Q122.168-57.4219 124.561-50.2686Q126.953-43.1152 126.953-35.2051Q126.953-27.2949 124.561-20.166Q122.168-13.0371 117.798-7.08008Q113.428-1.12305 107.495 3.24707Q101.562 7.61719 94.4092 10.0098Q87.2559 12.4023 79.3457 12.4023Z"/>
   <path class="hierarchical-1:primary SFSymbolsPreview212121" d="M51.5137-50Q49.9023-47.0703 50.3662-45.3857Q50.8301-43.7012 53.7598-42.0898L65.6738-35.498L53.7109-28.7109Q50.8789-27.0996 50.415-25.4639Q49.9512-23.8281 51.709-20.8984L52.9297-18.7012Q54.5898-15.8203 56.25-15.4053Q57.9102-14.9902 60.6934-16.6016L72.0215-23.3398L72.0215-9.66797Q72.0215-6.44531 73.291-5.22461Q74.5605-4.00391 78.125-4.00391L80.5176-4.00391Q83.9844-4.00391 85.2539-5.22461Q86.5234-6.44531 86.5234-9.76562L86.5234-23.3398L97.8516-16.6016Q100.684-14.9414 102.368-15.3564Q104.053-15.7715 105.664-18.7012L106.836-20.8984Q108.496-23.877 108.057-25.4883Q107.617-27.0996 104.834-28.7109L92.8711-35.498L104.785-42.0898Q107.715-43.7012 108.203-45.4102Q108.691-47.1191 107.031-50L105.762-52.0508Q104.102-54.9316 102.417-55.4199Q100.732-55.9082 97.8027-54.1504L86.5234-47.3633L86.5234-60.8398Q86.5234-64.0625 85.2539-65.2832Q83.9844-66.5039 80.5176-66.5039L78.125-66.5039Q74.6094-66.5039 73.3154-65.2832Q72.0215-64.0625 72.0215-60.8398L72.0215-47.3633L60.7422-54.1504Q57.8125-55.8594 56.1035-55.3955Q54.3945-54.9316 52.7832-52.0508Z"/>
  </g>
  <g id="Heavy-L" transform="matrix(1 0 0 1 2558.4 1556)">
   <path class="hierarchical-0:secondary SFSymbolsPreview4D4D4D" d="M78.2715 31.7871Q89.3555 31.7871 99.3652 28.3691Q109.375 24.9512 117.749 18.7988Q126.123 12.6465 132.3 4.24805Q138.477-4.15039 141.895-14.1602Q145.312-24.1699 145.312-35.2051Q145.312-46.2402 141.895-56.2744Q138.477-66.3086 132.3-74.6826Q126.123-83.0566 117.749-89.2578Q109.375-95.459 99.3408-98.8525Q89.3066-102.246 78.2227-102.246Q67.2363-102.246 57.2021-98.8525Q47.168-95.459 38.7939-89.2578Q30.4199-83.0566 24.2432-74.6826Q18.0664-66.3086 14.6729-56.2744Q11.2793-46.2402 11.2793-35.2051Q11.2793-24.1699 14.6729-14.1602Q18.0664-4.15039 24.2432 4.24805Q30.4199 12.6465 38.8184 18.7988Q47.2168 24.9512 57.2266 28.3691Q67.2363 31.7871 78.2715 31.7871ZM78.2715 14.0137Q70.1172 14.0137 62.7197 11.5479Q55.3223 9.08203 49.1943 4.56543Q43.0664 0.0488281 38.5498-6.12793Q34.0332-12.3047 31.543-19.6777Q29.0527-27.0508 29.0527-35.2051Q29.0527-43.4082 31.543-50.8057Q34.0332-58.2031 38.5254-64.3311Q43.0176-70.459 49.1699-74.9756Q55.3223-79.4922 62.6953-81.9824Q70.0684-84.4727 78.2227-84.4727Q86.4258-84.4727 93.8232-81.9824Q101.221-79.4922 107.373-74.9756Q113.525-70.459 118.042-64.3311Q122.559-58.2031 125.049-50.8057Q127.539-43.4082 127.539-35.2051Q127.539-27.0508 125.049-19.6777Q122.559-12.3047 118.042-6.12793Q113.525 0.0488281 107.397 4.56543Q101.27 9.08203 93.8721 11.5479Q86.4746 14.0137 78.2715 14.0137Z"/>
   <path class="hierarchical-1:primary SFSymbolsPreview212121" d="M50.2441-50.3418Q48.6816-47.4609 49.1455-45.8008Q49.6094-44.1406 52.4414-42.627L65.332-35.498L52.3926-28.125Q49.6094-26.5137 49.1699-24.9023Q48.7305-23.291 50.4395-20.4102L51.3672-18.7012Q53.0273-15.8203 54.6631-15.4053Q56.2988-14.9902 59.0332-16.6016L71.3379-23.8281L71.3379-9.17969Q71.3379-6.00586 72.6074-4.78516Q73.877-3.56445 77.3438-3.56445L79.248-3.56445Q82.666-3.56445 83.9111-4.78516Q85.1562-6.00586 85.1562-9.22852L85.1562-23.8281L97.4609-16.6016Q100.293-14.9414 101.929-15.3564Q103.564-15.7715 105.127-18.7012L106.055-20.4102Q107.666-23.3398 107.251-24.9268Q106.836-26.5137 104.102-28.125L91.1621-35.498L104.053-42.627Q106.885-44.1406 107.373-45.8252Q107.861-47.5098 106.25-50.3418L105.225-52.0508Q103.613-54.8828 101.953-55.3711Q100.293-55.8594 97.4121-54.1016L85.1562-46.8262L85.1562-61.3281Q85.1562-64.502 83.9111-65.6982Q82.666-66.8945 79.248-66.8945L77.3438-66.8945Q73.877-66.8945 72.6074-65.6982Q71.3379-64.502 71.3379-61.3281L71.3379-46.8262L59.082-54.1016Q56.2012-55.8105 54.5166-55.3467Q52.832-54.8828 51.2695-52.0508Z"/>
  </g>
  <g id="Bold-L" transform="matrix(1 0 0 1 2262.87 1556)">
   <path class="hierarchical-0:secondary SFSymbolsPreview4D4D4D" d="M77.0996 30.6152Q87.9395 30.6152 97.7783 27.2461Q107.617 23.877 115.869 17.8223Q124.121 11.7676 130.176 3.51562Q136.23-4.73633 139.6-14.5752Q142.969-24.4141 142.969-35.2539Q142.969-46.0938 139.6-55.9326Q136.23-65.7715 130.151-73.999Q124.072-82.2266 115.845-88.3057Q107.617-94.3848 97.7539-97.7295Q87.8906-101.074 77.0508-101.074Q66.2598-101.074 56.3965-97.7295Q46.5332-94.3848 38.3301-88.3057Q30.127-82.2266 24.0479-73.999Q17.9688-65.7715 14.624-55.9326Q11.2793-46.0938 11.2793-35.2539Q11.2793-24.4141 14.624-14.5752Q17.9688-4.73633 24.0479 3.51562Q30.127 11.7676 38.3545 17.8223Q46.582 23.877 56.4209 27.2461Q66.2598 30.6152 77.0996 30.6152ZM77.0996 15.8203Q68.6523 15.8203 60.9863 13.2568Q53.3203 10.6934 46.9482 6.00586Q40.5762 1.31836 35.8887-5.07812Q31.2012-11.4746 28.6377-19.1162Q26.0742-26.7578 26.0742-35.2539Q26.0742-43.75 28.6377-51.416Q31.2012-59.082 35.8887-65.4541Q40.5762-71.8262 46.9238-76.4893Q53.2715-81.1523 60.9375-83.7158Q68.6035-86.2793 77.0508-86.2793Q85.5469-86.2793 93.2129-83.7158Q100.879-81.1523 107.275-76.4893Q113.672-71.8262 118.335-65.4541Q122.998-59.082 125.586-51.416Q128.174-43.75 128.174-35.2539Q128.174-26.7578 125.61-19.1162Q123.047-11.4746 118.359-5.07812Q113.672 1.31836 107.3 6.00586Q100.928 10.6934 93.2617 13.2568Q85.5957 15.8203 77.0996 15.8203Z"/>
   <path class="hierarchical-1:primary SFSymbolsPreview212121" d="M48.7793-50.8301Q47.2656-47.998 47.7295-46.3623Q48.1934-44.7266 50.9277-43.2617L64.9414-35.5957L50.8789-27.4902Q48.1445-25.9277 47.7295-24.3408Q47.3145-22.7539 48.9258-19.9219L49.6094-18.7012Q51.2207-15.8691 52.832-15.4541Q54.4434-15.0391 57.1289-16.6504L70.5566-24.4629L70.5566-8.64258Q70.5566-5.51758 71.8018-4.3457Q73.0469-3.17383 76.416-3.17383L77.832-3.17383Q81.1035-3.17383 82.3242-4.3457Q83.5449-5.51758 83.5449-8.69141L83.5449-24.4629L96.9727-16.6504Q99.7559-14.9414 101.392-15.3809Q103.027-15.8203 104.541-18.7012L105.176-19.9219Q106.738-22.8027 106.323-24.3896Q105.908-25.9766 103.271-27.4902L89.209-35.5957L103.174-43.2617Q105.957-44.7266 106.421-46.3623Q106.885-47.998 105.322-50.8301L104.59-52.0508Q103.076-54.9316 101.44-55.3955Q99.8047-55.8594 96.9238-54.1504L83.5449-46.2891L83.5449-61.9629Q83.5449-65.0879 82.3242-66.2598Q81.1035-67.4316 77.832-67.4316L76.416-67.4316Q73.0469-67.4316 71.8018-66.2598Q70.5566-65.0879 70.5566-61.9629L70.5566-46.2891L57.2266-54.1504Q54.3457-55.8105 52.71-55.3711Q51.0742-54.9316 49.5605-52.0508Z"/>
  </g>
  <g id="Semibold-L" transform="matrix(1 0 0 1 1966.97 1556)">
   <path class="hierarchical-0:secondary SFSymbolsPreview4D4D4D" d="M76.2695 29.7852Q86.9629 29.7852 96.6797 26.4648Q106.396 23.1445 114.551 17.1631Q122.705 11.1816 128.687 3.02734Q134.668-5.12695 137.988-14.8438Q141.309-24.5605 141.309-35.2539Q141.309-45.9473 137.988-55.6641Q134.668-65.3809 128.662-73.5107Q122.656-81.6406 114.526-87.6465Q106.396-93.6523 96.6553-96.9727Q86.9141-100.293 76.2207-100.293Q65.5273-100.293 55.8105-96.9727Q46.0938-93.6523 37.9883-87.6465Q29.8828-81.6406 23.877-73.5107Q17.8711-65.3809 14.5752-55.6641Q11.2793-45.9473 11.2793-35.2539Q11.2793-24.5605 14.5996-14.8438Q17.9199-5.12695 23.9014 3.02734Q29.8828 11.1816 38.0127 17.1631Q46.1426 23.1445 55.8594 26.4648Q65.5762 29.7852 76.2695 29.7852ZM76.2695 17.041Q67.627 17.041 59.7656 14.4043Q51.9043 11.7676 45.3857 6.98242Q38.8672 2.19727 34.0576-4.3457Q29.248-10.8887 26.6357-18.7256Q24.0234-26.5625 24.0234-35.2539Q24.0234-43.9453 26.6357-51.8066Q29.248-59.668 34.0332-66.1865Q38.8184-72.7051 45.3369-77.4902Q51.8555-82.2754 59.7168-84.9121Q67.5781-87.5488 76.2207-87.5488Q84.9609-87.5488 92.7979-84.9121Q100.635-82.2754 107.178-77.4902Q113.721-72.7051 118.506-66.1865Q123.291-59.668 125.928-51.8066Q128.564-43.9453 128.564-35.2539Q128.613-26.5625 126.001-18.7256Q123.389-10.8887 118.579-4.3457Q113.77 2.19727 107.227 6.98242Q100.684 11.7676 92.8467 14.4043Q85.0098 17.041 76.2695 17.041Z"/>
   <path class="hierarchical-1:primary SFSymbolsPreview212121" d="M47.7539-51.0742Q46.2891-48.291 46.7285-46.6797Q47.168-45.0684 49.9023-43.6523L64.6484-35.5957L49.8047-27.0508Q47.1191-25.4883 46.7041-23.9258Q46.2891-22.3633 47.9004-19.5312L48.3887-18.7012Q49.9512-15.8691 51.5381-15.4297Q53.125-14.9902 55.8105-16.6016L70.0195-24.8047L70.0195-8.25195Q70.0195-5.17578 71.2402-4.00391Q72.4609-2.83203 75.7324-2.83203L76.8066-2.83203Q80.0293-2.83203 81.2256-4.00391Q82.4219-5.17578 82.4219-8.30078L82.4219-24.8047L96.6309-16.6016Q99.4141-14.9414 101.001-15.3809Q102.588-15.8203 104.102-18.7012L104.541-19.5312Q106.055-22.3633 105.64-23.9502Q105.225-25.5371 102.637-27.0508L87.8418-35.5957L102.588-43.6523Q105.273-45.0684 105.737-46.6797Q106.201-48.291 104.688-51.0742L104.102-52.0508Q102.637-54.8828 101.025-55.3467Q99.4141-55.8105 96.5332-54.1016L82.4219-45.8496L82.4219-62.3535Q82.4219-65.4297 81.2256-66.6016Q80.0293-67.7734 76.8066-67.7734L75.7324-67.7734Q72.4609-67.7734 71.2402-66.6016Q70.0195-65.4297 70.0195-62.3535L70.0195-45.8496L55.9082-54.1016Q53.0273-55.7617 51.416-55.3223Q49.8047-54.8828 48.3398-52.0508Z"/>
  </g>
  <g id="Medium-L" transform="matrix(1 0 0 1 1670.87 1556)">
   <path class="hierarchical-0:secondary SFSymbolsPreview4D4D4D" d="M75.6836 29.1504Q86.2305 29.1504 95.8496 25.8545Q105.469 22.5586 113.55 16.626Q121.631 10.6934 127.563 2.63672Q133.496-5.41992 136.792-15.0635Q140.088-24.707 140.088-35.2539Q140.088-45.8496 136.792-55.4688Q133.496-65.0879 127.539-73.1445Q121.582-81.2012 113.525-87.1582Q105.469-93.1152 95.8252-96.3867Q86.1816-99.6582 75.6348-99.6582Q65.0391-99.6582 55.4199-96.3867Q45.8008-93.1152 37.7441-87.1582Q29.6875-81.2012 23.7549-73.1445Q17.8223-65.0879 14.5508-55.4688Q11.2793-45.8496 11.2793-35.2539Q11.2793-24.707 14.5508-15.0635Q17.8223-5.41992 23.7549 2.63672Q29.6875 10.6934 37.7686 16.626Q45.8496 22.5586 55.4688 25.8545Q65.0879 29.1504 75.6836 29.1504ZM75.6836 18.0176Q66.8457 18.0176 58.8379 15.332Q50.8301 12.6465 44.2139 7.76367Q37.5977 2.88086 32.6904-3.78418Q27.7832-10.4492 25.1221-18.4326Q22.4609-26.416 22.4609-35.2539Q22.4609-44.1406 25.1221-52.124Q27.7832-60.1074 32.666-66.748Q37.5488-73.3887 44.165-78.2715Q50.7812-83.1543 58.7891-85.8154Q66.7969-88.4766 75.6348-88.4766Q84.4727-88.4766 92.4805-85.8154Q100.488-83.1543 107.129-78.2715Q113.77-73.3887 118.652-66.748Q123.535-60.1074 126.221-52.124Q128.906-44.1406 128.906-35.2539Q128.955-26.416 126.294-18.4326Q123.633-10.4492 118.726-3.78418Q113.818 2.88086 107.178 7.76367Q100.537 12.6465 92.5293 15.332Q84.5215 18.0176 75.6836 18.0176Z"/>
   <path class="hierarchical-1:primary SFSymbolsPreview212121" d="M47.0215-51.2695Q45.5566-48.5352 45.9961-46.9482Q46.4355-45.3613 49.0723-43.9453L64.4043-35.5957L49.0234-26.6602Q46.3867-25.1465 45.9717-23.584Q45.5566-22.0215 47.1191-19.2383L47.4609-18.6523Q49.0234-15.8691 50.5859-15.4297Q52.1484-14.9902 54.834-16.6016L69.5801-25.0977L69.5801-7.95898Q69.5801-4.88281 70.8008-3.73535Q72.0215-2.58789 75.2441-2.58789L76.0742-2.58789Q79.248-2.58789 80.4443-3.73535Q81.6406-4.88281 81.6406-7.95898L81.6406-25.0977L96.3867-16.6016Q99.1211-14.8926 100.708-15.3564Q102.295-15.8203 103.76-18.6523L104.102-19.2383Q105.566-22.0215 105.151-23.6084Q104.736-25.1953 102.197-26.6602L86.8164-35.5957L102.1-43.9453Q104.785-45.3613 105.225-46.9482Q105.664-48.5352 104.199-51.2695L103.76-52.002Q102.344-54.8828 100.757-55.3223Q99.1699-55.7617 96.2891-54.1016L81.6406-45.5078L81.6406-62.6465Q81.6406-65.6738 80.4443-66.8457Q79.248-68.0176 76.0742-68.0176L75.2441-68.0176Q72.0215-68.0176 70.8008-66.8457Q69.5801-65.6738 69.5801-62.6465L69.5801-45.5078L54.9316-54.1016Q52.0508-55.7129 50.4639-55.2979Q48.877-54.8828 47.4121-52.002Z"/>
  </g>
  <g id="Regular-L" transform="matrix(1 0 0 1 1374.97 1556)">
   <path class="hierarchical-0:secondary SFSymbolsPreview4D4D4D" d="M74.8535 28.3203Q85.3027 28.3203 94.7998 25.0732Q104.297 21.8262 112.256 15.9668Q120.215 10.1074 126.099 2.14844Q131.982-5.81055 135.229-15.332Q138.477-24.8535 138.477-35.2539Q138.477-45.7031 135.229-55.2002Q131.982-64.6973 126.099-72.6562Q120.215-80.6152 112.256-86.499Q104.297-92.3828 94.7754-95.6299Q85.2539-98.877 74.8047-98.877Q64.3555-98.877 54.8584-95.6299Q45.3613-92.3828 37.4268-86.499Q29.4922-80.6152 23.6084-72.6562Q17.7246-64.6973 14.502-55.2002Q11.2793-45.7031 11.2793-35.2539Q11.2793-24.8535 14.5264-15.332Q17.7734-5.81055 23.6328 2.14844Q29.4922 10.1074 37.4512 15.9668Q45.4102 21.8262 54.9072 25.0732Q64.4043 28.3203 74.8535 28.3203ZM74.8535 19.2383Q65.8203 19.2383 57.6416 16.4795Q49.4629 13.7207 42.6758 8.74023Q35.8887 3.75977 30.8838-3.05176Q25.8789-9.86328 23.1445-18.042Q20.4102-26.2207 20.4102-35.2539Q20.4102-44.3359 23.1445-52.5146Q25.8789-60.6934 30.8594-67.5049Q35.8398-74.3164 42.627-79.2969Q49.4141-84.2773 57.5928-87.0117Q65.7715-89.7461 74.8047-89.7461Q83.8867-89.7461 92.0654-87.0117Q100.244-84.2773 107.056-79.2969Q113.867-74.3164 118.848-67.5049Q123.828-60.6934 126.587-52.5146Q129.346-44.3359 129.346-35.2539Q129.395-26.2207 126.66-18.042Q123.926-9.86328 118.921-3.05176Q113.916 3.75977 107.104 8.74023Q100.293 13.7207 92.1143 16.4795Q83.9355 19.2383 74.8535 19.2383Z"/>
   <path class="hierarchical-1:primary SFSymbolsPreview212121" d="M46.0449-51.5625Q44.6289-48.8281 45.0684-47.2656Q45.5078-45.7031 48.0957-44.3359L64.1602-35.5957L47.998-26.2207Q45.4102-24.707 45.0195-23.1689Q44.6289-21.6309 46.1426-18.8477L46.2891-18.6523Q47.8027-15.8691 49.3652-15.4297Q50.9277-14.9902 53.5645-16.6016L69.0918-25.4883L69.0918-7.56836Q69.0918-4.54102 70.2881-3.39355Q71.4844-2.24609 74.6582-2.24609L75.0977-2.24609Q78.2227-2.24609 79.3945-3.39355Q80.5664-4.54102 80.5664-7.56836L80.5664-25.4883L96.0938-16.6016Q98.8281-14.8926 100.391-15.3564Q101.953-15.8203 103.369-18.6523L103.516-18.8477Q104.932-21.6309 104.541-23.1934Q104.15-24.7559 101.66-26.2207L85.498-35.5957L101.562-44.3359Q104.15-45.7031 104.59-47.2656Q105.029-48.8281 103.613-51.5625L103.369-52.002Q102.002-54.834 100.415-55.2734Q98.8281-55.7129 95.9961-54.0527L80.5664-45.1172L80.5664-63.0371Q80.5664-66.0156 79.3945-67.1631Q78.2227-68.3105 75.0977-68.3105L74.6582-68.3105Q71.4844-68.3105 70.2881-67.1631Q69.0918-66.0156 69.0918-63.0371L69.0918-45.1172L53.6621-54.0527Q50.8301-55.6641 49.2676-55.249Q47.7051-54.834 46.2891-52.002Z"/>
  </g>
  <g id="Light-L" transform="matrix(1 0 0 1 1079.18 1556)">
   <path class="hierarchical-0:secondary SFSymbolsPreview4D4D4D" d="M73.9258 27.3926Q84.2285 27.3926 93.6035 24.1943Q102.979 20.9961 110.815 15.2344Q118.652 9.47266 124.438 1.63574Q130.225-6.20117 133.423-15.5762Q136.621-24.9512 136.621-35.2539Q136.621-45.5566 133.423-54.9316Q130.225-64.3066 124.438-72.1436Q118.652-79.9805 110.815-85.7666Q102.979-91.5527 93.6035-94.751Q84.2285-97.9492 73.877-97.9492Q63.5742-97.9492 54.2236-94.751Q44.873-91.5527 37.0361-85.7666Q29.1992-79.9805 23.4131-72.1436Q17.627-64.3066 14.4531-54.9316Q11.2793-45.5566 11.2793-35.2539Q11.2793-24.9512 14.4775-15.5762Q17.6758-6.20117 23.4375 1.63574Q29.1992 9.47266 37.0361 15.2344Q44.873 20.9961 54.248 24.1943Q63.623 27.3926 73.9258 27.3926ZM73.9258 20.5078Q64.6973 20.5078 56.3232 17.6758Q47.9492 14.8438 40.9912 9.74121Q34.0332 4.63867 28.9307-2.31934Q23.8281-9.27734 21.0205-17.6514Q18.2129-26.0254 18.2129-35.2539Q18.2129-44.5312 21.0205-52.8809Q23.8281-61.2305 28.9307-68.2129Q34.0332-75.1953 40.9912-80.2979Q47.9492-85.4004 56.2988-88.208Q64.6484-91.0156 73.877-91.0156Q83.1543-91.0156 91.5283-88.208Q99.9023-85.4004 106.86-80.2979Q113.818-75.1953 118.945-68.2129Q124.072-61.2305 126.88-52.8809Q129.688-44.5312 129.688-35.2539Q129.736-26.0254 126.929-17.6514Q124.121-9.27734 118.994-2.31934Q113.867 4.63867 106.909 9.74121Q99.9512 14.8438 91.5771 17.6758Q83.2031 20.5078 73.9258 20.5078Z"/>
   <path class="hierarchical-1:primary SFSymbolsPreview212121" d="M45.8008-51.2695Q44.4824-48.6816 44.873-47.2656Q45.2637-45.8496 47.7051-44.5801L64.0625-35.6445L47.6074-26.123Q45.166-24.707 44.8242-23.3154Q44.4824-21.9238 45.8984-19.2871L46.0449-19.0918Q47.4609-16.4551 48.8525-16.0645Q50.2441-15.6738 52.7832-17.1875L68.6035-26.2695L68.6035-8.00781Q68.6035-5.17578 69.6777-4.12598Q70.752-3.07617 73.7305-3.07617L74.1699-3.07617Q77.0996-3.07617 78.1494-4.12598Q79.1992-5.17578 79.1992-8.00781L79.1992-26.2695L95.0684-17.1875Q97.6562-15.625 99.0723-16.0156Q100.488-16.4062 101.807-19.0918L101.953-19.2871Q103.32-21.9238 102.954-23.3154Q102.588-24.707 100.244-26.123L83.7891-35.6445L100.146-44.5801Q102.539-45.8496 102.954-47.29Q103.369-48.7305 102.051-51.2695L101.807-51.6602Q100.537-54.3457 99.0967-54.7363Q97.6562-55.127 95.0195-53.5645L79.1992-44.4824L79.1992-62.7441Q79.1992-65.5273 78.1494-66.5771Q77.0996-67.627 74.1699-67.627L73.7305-67.627Q70.752-67.627 69.6777-66.5771Q68.6035-65.5273 68.6035-62.7441L68.6035-44.4824L52.832-53.5645Q50.1953-55.127 48.7793-54.7363Q47.3633-54.3457 46.0449-51.6602Z"/>
  </g>
  <g id="Thin-L" transform="matrix(1 0 0 1 783.689 1556)">
   <path class="hierarchical-0:secondary SFSymbolsPreview4D4D4D" d="M72.7051 26.1719Q82.8613 26.1719 92.041 23.0469Q101.221 19.9219 108.911 14.2822Q116.602 8.64258 122.266 0.952148Q127.93-6.73828 131.055-15.9424Q134.18-25.1465 134.18-35.2539Q134.18-45.4102 131.055-54.5898Q127.93-63.7695 122.29-71.46Q116.65-79.1504 108.936-84.8145Q101.221-90.4785 92.0166-93.6035Q82.8125-96.7285 72.7051-96.7285Q62.5488-96.7285 53.3691-93.6035Q44.1895-90.4785 36.499-84.8145Q28.8086-79.1504 23.1689-71.46Q17.5293-63.7695 14.4043-54.5898Q11.2793-45.4102 11.2793-35.2539Q11.2793-25.1465 14.4043-15.9424Q17.5293-6.73828 23.1689 0.952148Q28.8086 8.64258 36.5234 14.2822Q44.2383 19.9219 53.418 23.0469Q62.5977 26.1719 72.7051 26.1719ZM72.7051 22.168Q63.2324 22.168 54.6143 19.2627Q45.9961 16.3574 38.8184 11.084Q31.6406 5.81055 26.3428-1.36719Q21.0449-8.54492 18.1641-17.1631Q15.2832-25.7812 15.2832-35.2539Q15.2832-44.7754 18.1641-53.3936Q21.0449-62.0117 26.3428-69.1895Q31.6406-76.3672 38.8184-81.6406Q45.9961-86.9141 54.5898-89.8193Q63.1836-92.7246 72.7051-92.7246Q82.2266-92.7246 90.8203-89.8193Q99.4141-86.9141 106.616-81.6406Q113.818-76.3672 119.092-69.1895Q124.365-62.0117 127.271-53.3936Q130.176-44.7754 130.176-35.2539Q130.176-25.7812 127.271-17.1631Q124.365-8.54492 119.092-1.36719Q113.818 5.81055 106.641 11.084Q99.4629 16.3574 90.8447 19.2627Q82.2266 22.168 72.7051 22.168Z"/>
   <path class="hierarchical-1:primary SFSymbolsPreview212121" d="M45.459-50.8301Q44.2383-48.4863 44.6045-47.2412Q44.9707-45.9961 47.168-44.873L63.8672-35.7422L47.0703-25.9766Q44.873-24.7559 44.5312-23.5107Q44.1895-22.2656 45.5078-19.873L45.7031-19.6777Q46.9238-17.2363 48.1201-16.8945Q49.3164-16.5527 51.6602-18.0176L67.9688-27.2949L67.9688-8.59375Q67.9688-5.95703 68.8965-5.05371Q69.8242-4.15039 72.4609-4.15039L72.9004-4.15039Q75.5859-4.15039 76.4893-5.05371Q77.3926-5.95703 77.3926-8.59375L77.3926-27.2949L93.7012-18.0176Q96.0449-16.5527 97.2656-16.8945Q98.4863-17.2363 99.707-19.6777L99.8535-19.873Q101.123-22.2656 100.781-23.4619Q100.439-24.6582 98.291-25.9766L81.4941-35.7422L98.1934-44.873Q100.439-46.0938 100.781-47.3145Q101.123-48.5352 99.9512-50.8301L99.707-51.2207Q98.5352-53.6133 97.3389-53.9795Q96.1426-54.3457 93.7012-52.8809L77.3926-43.6523L77.3926-62.3047Q77.3926-64.8438 76.4893-65.7471Q75.5859-66.6504 72.9004-66.6504L72.4609-66.6504Q69.8242-66.6504 68.8965-65.7471Q67.9688-64.8438 67.9688-62.3047L67.9688-43.6523L51.6602-52.8809Q49.3164-54.3457 48.1201-54.0527Q46.9238-53.7598 45.7031-51.2207Z"/>
  </g>
  <g id="Ultralight-L" transform="matrix(1 0 0 1 487.603 1556)">
   <path class="hierarchical-0:secondary SFSymbolsPreview4D4D4D" d="M72.0703 25.5371Q82.1289 25.5371 91.2354 22.4609Q100.342 19.3848 107.935 13.7939Q115.527 8.20312 121.143 0.585938Q126.758-7.03125 129.858-16.1133Q132.959-25.1953 132.959-35.2539Q132.959-45.3125 129.858-54.4189Q126.758-63.5254 121.167-71.1182Q115.576-78.7109 107.959-84.3262Q100.342-89.9414 91.2354-93.0176Q82.1289-96.0938 72.0703-96.0938Q62.0605-96.0938 52.9541-93.0176Q43.8477-89.9414 36.2305-84.3262Q28.6133-78.7109 23.0225-71.1182Q17.4316-63.5254 14.3555-54.4189Q11.2793-45.3125 11.2793-35.2539Q11.2793-25.1953 14.3555-16.1133Q17.4316-7.03125 23.0225 0.585938Q28.6133 8.20312 36.2305 13.7939Q43.8477 19.3848 52.9541 22.4609Q62.0605 25.5371 72.0703 25.5371ZM72.0703 23.0469Q62.4512 23.0469 53.7109 20.0928Q44.9707 17.1387 37.6709 11.792Q30.3711 6.44531 25.0244-0.854492Q19.6777-8.1543 16.7236-16.8945Q13.7695-25.6348 13.7695-35.2539Q13.7695-44.9219 16.7236-53.6377Q19.6777-62.3535 25.0244-69.6533Q30.3711-76.9531 37.6953-82.3242Q45.0195-87.6953 53.7354-90.6494Q62.4512-93.6035 72.0703-93.6035Q81.7383-93.6035 90.4785-90.6494Q99.2188-87.6953 106.494-82.3242Q113.77-76.9531 119.141-69.6533Q124.512-62.3535 127.466-53.6377Q130.42-44.9219 130.42-35.2539Q130.371-25.6348 127.441-16.8945Q124.512-8.1543 119.141-0.854492Q113.77 6.44531 106.494 11.792Q99.2188 17.1387 90.4785 20.0928Q81.7383 23.0469 72.0703 23.0469Z"/>
   <path class="hierarchical-1:primary SFSymbolsPreview212121" d="M45.2637-50.6348Q44.1406-48.3887 44.458-47.2656Q44.7754-46.1426 46.9238-45.0195L63.8184-35.791L46.8262-25.9277Q44.6777-24.7559 44.3848-23.6084Q44.0918-22.4609 45.3125-20.2148L45.5078-19.9707Q46.6797-17.627 47.7539-17.3096Q48.8281-16.9922 51.123-18.4082L67.627-27.832L67.627-8.88672Q67.627-6.39648 68.457-5.56641Q69.2871-4.73633 71.7773-4.73633L72.2656-4.73633Q74.8047-4.73633 75.6348-5.56641Q76.4648-6.39648 76.4648-8.88672L76.4648-27.832L93.0176-18.4082Q95.2637-17.041 96.3623-17.334Q97.4609-17.627 98.6328-19.9707L98.7793-20.2148Q100-22.4609 99.6826-23.5596Q99.3652-24.6582 97.3145-25.9277L80.3223-35.791L97.2168-45.0195Q99.3164-46.1914 99.6582-47.3389Q100-48.4863 98.877-50.6348L98.6328-51.0254Q97.5098-53.3203 96.4111-53.6377Q95.3125-53.9551 93.0664-52.5879L76.4648-43.2129L76.4648-62.1582Q76.4648-64.5508 75.6348-65.3809Q74.8047-66.2109 72.2656-66.2109L71.7773-66.2109Q69.2871-66.2109 68.457-65.3809Q67.627-64.5508 67.627-62.1582L67.627-43.2129L51.0742-52.5879Q48.877-54.0039 47.7783-53.7109Q46.6797-53.418 45.5078-51.0254Z"/>
  </g>
  <g id="Black-M" transform="matrix(1 0 0 1 2871.32 1126)">
   <path class="hierarchical-0:secondary SFSymbolsPreview4D4D4D" d="M62.0605 18.1152Q73.0957 18.1152 82.7637 13.9648Q92.4316 9.81445 99.7559 2.46582Q107.08-4.88281 111.255-14.5264Q115.43-24.1699 115.43-35.2051Q115.43-46.2402 111.255-55.8838Q107.08-65.5273 99.7559-72.876Q92.4316-80.2246 82.7637-84.375Q73.0957-88.5254 62.0605-88.5254Q51.0742-88.5254 41.4062-84.375Q31.7383-80.2246 24.3896-72.876Q17.041-65.5273 12.8906-55.8838Q8.74023-46.2402 8.74023-35.2051Q8.74023-24.1699 12.8906-14.5264Q17.041-4.88281 24.3896 2.46582Q31.7383 9.81445 41.4062 13.9648Q51.0742 18.1152 62.0605 18.1152ZM62.0605 0.732422Q54.6387 0.732422 48.1201-2.05078Q41.6016-4.83398 36.6455-9.76562Q31.6895-14.6973 28.9062-21.2158Q26.123-27.7344 26.123-35.2051Q26.123-42.6758 28.9062-49.1943Q31.6895-55.7129 36.6455-60.6445Q41.6016-65.5762 48.1201-68.3594Q54.6387-71.1426 62.0605-71.1426Q69.5312-71.1426 76.0498-68.3594Q82.5684-65.5762 87.5-60.6445Q92.4316-55.7129 95.2393-49.1943Q98.0469-42.6758 98.0469-35.2051Q98.0469-27.7344 95.2393-21.2158Q92.4316-14.6973 87.5-9.76562Q82.5684-4.83398 76.0498-2.05078Q69.5312 0.732422 62.0605 0.732422Z"/>
   <path class="hierarchical-1:primary SFSymbolsPreview212121" d="M40.8691-46.2402Q39.5996-43.9941 39.9658-42.7002Q40.332-41.4062 42.627-40.1855L51.123-35.4492L42.627-30.6152Q40.3809-29.3945 40.0391-28.1494Q39.6973-26.9043 41.0645-24.6582L42.1875-22.6074Q43.5059-20.4102 44.751-20.0928Q45.9961-19.7754 48.1445-20.9961L56.2012-25.8301L56.2012-16.0156Q56.2012-13.5254 57.1533-12.5977Q58.1055-11.6699 60.8398-11.6699L63.1348-11.6699Q65.8203-11.6699 66.7725-12.5977Q67.7246-13.5254 67.7246-16.0645L67.7246-25.8301L75.7812-20.9961Q77.9785-19.7266 79.2236-20.0439Q80.4688-20.3613 81.7383-22.6074L82.9102-24.6582Q84.1797-26.9531 83.8623-28.1738Q83.5449-29.3945 81.3477-30.6152L72.8516-35.4492L81.3477-40.1855Q83.5938-41.4062 83.9844-42.7246Q84.375-44.043 83.0566-46.2402L81.8848-48.1445Q80.5664-50.3418 79.2725-50.708Q77.9785-51.0742 75.7812-49.707L67.7246-44.873L67.7246-54.541Q67.7246-56.9824 66.7725-57.9102Q65.8203-58.8379 63.1348-58.8379L60.8398-58.8379Q58.1543-58.8379 57.1777-57.9102Q56.2012-56.9824 56.2012-54.541L56.2012-44.873L48.1934-49.707Q45.8984-51.0254 44.6289-50.6836Q43.3594-50.3418 42.0898-48.1445Z"/>
  </g>
  <g id="Heavy-M" transform="matrix(1 0 0 1 2575.44 1126)">
   <path class="hierarchical-0:secondary SFSymbolsPreview4D4D4D" d="M61.2305 17.2852Q72.0703 17.2852 81.5918 13.1836Q91.1133 9.08203 98.3154 1.85547Q105.518-5.37109 109.644-14.8682Q113.77-24.3652 113.77-35.2051Q113.77-46.0449 109.644-55.542Q105.518-65.0391 98.3154-72.29Q91.1133-79.541 81.5918-83.6182Q72.0703-87.6953 61.2305-87.6953Q50.4395-87.6953 40.918-83.6182Q31.3965-79.541 24.1699-72.29Q16.9434-65.0391 12.8418-55.542Q8.74023-46.0449 8.74023-35.2051Q8.74023-24.3652 12.8418-14.8682Q16.9434-5.37109 24.1699 1.85547Q31.3965 9.08203 40.918 13.1836Q50.4395 17.2852 61.2305 17.2852ZM61.2305 2.05078Q53.5156 2.05078 46.7529-0.854492Q39.9902-3.75977 34.8633-8.8623Q29.7363-13.9648 26.8555-20.7275Q23.9746-27.4902 23.9746-35.2051Q23.9746-42.9688 26.8555-49.7314Q29.7363-56.4941 34.8633-61.5967Q39.9902-66.6992 46.7529-69.5801Q53.5156-72.4609 61.2305-72.4609Q68.9453-72.4609 75.708-69.5801Q82.4707-66.6992 87.5977-61.5967Q92.7246-56.4941 95.6299-49.7314Q98.5352-42.9688 98.5352-35.2051Q98.5352-27.4902 95.6299-20.7275Q92.7246-13.9648 87.6221-8.8623Q82.5195-3.75977 75.7568-0.854492Q68.9941 2.05078 61.2305 2.05078Z"/>
   <path class="hierarchical-1:primary SFSymbolsPreview212121" d="M39.6973-46.6797Q38.4277-44.4336 38.7939-43.1396Q39.1602-41.8457 41.4062-40.625L50.7812-35.4492L41.4062-30.0781Q39.209-28.8574 38.8672-27.5879Q38.5254-26.3184 39.8438-24.0723L40.7227-22.5098Q42.041-20.2637 43.2861-19.9463Q44.5312-19.6289 46.6797-20.8496L55.6641-26.1719L55.6641-15.4297Q55.6641-12.9395 56.6162-12.0117Q57.5684-11.084 60.2539-11.084L62.1094-11.084Q64.7461-11.084 65.6982-12.0117Q66.6504-12.9395 66.6504-15.4785L66.6504-26.1719L75.6348-20.8496Q77.832-19.5801 79.0771-19.8975Q80.3223-20.2148 81.5918-22.5098L82.4707-24.0723Q83.7402-26.3672 83.4229-27.6123Q83.1055-28.8574 80.957-30.0781L71.5332-35.4492L80.9082-40.625Q83.1055-41.8457 83.4961-43.1641Q83.8867-44.4824 82.6172-46.6797L81.6895-48.1934Q80.4199-50.4395 79.126-50.8057Q77.832-51.1719 75.5859-49.8047L66.6504-44.4824L66.6504-55.127Q66.6504-57.5684 65.6982-58.4961Q64.7461-59.4238 62.1094-59.4238L60.2539-59.4238Q57.6172-59.4238 56.6406-58.4961Q55.6641-57.5684 55.6641-55.127L55.6641-44.4824L46.7285-49.8047Q44.4824-51.123 43.1885-50.7812Q41.8945-50.4395 40.6738-48.1934Z"/>
  </g>
  <g id="Bold-M" transform="matrix(1 0 0 1 2279.66 1126)">
   <path class="hierarchical-0:secondary SFSymbolsPreview4D4D4D" d="M60.3027 16.3574Q70.9473 16.3574 80.2734 12.3291Q89.5996 8.30078 96.7041 1.17188Q103.809-5.95703 107.861-15.2832Q111.914-24.6094 111.914-35.2539Q111.914-45.8496 107.861-55.1758Q103.809-64.502 96.7041-71.6309Q89.5996-78.7598 80.249-82.7881Q70.8984-86.8164 60.3027-86.8164Q49.707-86.8164 40.3564-82.7881Q31.0059-78.7598 23.9014-71.6309Q16.7969-64.502 12.7686-55.1758Q8.74023-45.8496 8.74023-35.2539Q8.74023-24.6094 12.7686-15.2832Q16.7969-5.95703 23.9258 1.17188Q31.0547 8.30078 40.3809 12.3291Q49.707 16.3574 60.3027 16.3574ZM60.3027 3.51562Q52.2949 3.51562 45.2637 0.488281Q38.2324-2.53906 32.9102-7.83691Q27.5879-13.1348 24.6094-20.166Q21.6309-27.1973 21.6309-35.2539Q21.6309-43.3105 24.6094-50.3174Q27.5879-57.3242 32.9102-62.6465Q38.2324-67.9688 45.2393-70.9717Q52.2461-73.9746 60.3027-73.9746Q68.3594-73.9746 75.3662-70.9717Q82.373-67.9688 87.6953-62.6465Q93.0176-57.3242 96.0449-50.3174Q99.0723-43.3105 99.0723-35.2539Q99.0723-27.1973 96.0693-20.166Q93.0664-13.1348 87.7441-7.83691Q82.4219-2.53906 75.3906 0.488281Q68.3594 3.51562 60.3027 3.51562Z"/>
   <path class="hierarchical-1:primary SFSymbolsPreview212121" d="M38.3789-47.2168Q37.1582-44.9707 37.5244-43.6768Q37.8906-42.3828 40.0879-41.2109L50.4395-35.498L40.0391-29.541Q37.8906-28.2715 37.5488-27.0264Q37.207-25.7812 38.4766-23.5352L39.1113-22.4121Q40.3809-20.2148 41.6504-19.873Q42.9199-19.5312 45.0684-20.752L55.0293-26.6113L55.0293-14.8438Q55.0293-12.3535 56.0059-11.4258Q56.9824-10.498 59.6191-10.498L60.9375-10.498Q63.5254-10.498 64.502-11.4258Q65.4785-12.3535 65.4785-14.8438L65.4785-26.6113L75.4395-20.752Q77.6367-19.4824 78.9062-19.8242Q80.1758-20.166 81.3965-22.4121L82.0312-23.5352Q83.2031-25.7812 82.8857-27.0508Q82.5684-28.3203 80.4688-29.541L70.0684-35.498L80.4688-41.2109Q82.6172-42.3828 82.9834-43.7012Q83.3496-45.0195 82.1289-47.2168L81.4453-48.3398Q80.2246-50.5859 78.9307-50.9521Q77.6367-51.3184 75.3906-49.9512L65.4785-44.0918L65.4785-55.8105Q65.4785-58.252 64.502-59.1797Q63.5254-60.1074 60.9375-60.1074L59.6191-60.1074Q56.9824-60.1074 56.0059-59.1797Q55.0293-58.252 55.0293-55.8105L55.0293-44.0918L45.1172-49.9512Q42.8711-51.2695 41.5527-50.9277Q40.2344-50.5859 39.0625-48.3398Z"/>
  </g>
  <g id="Semibold-M" transform="matrix(1 0 0 1 1983.6 1126)">
   <path class="hierarchical-0:secondary SFSymbolsPreview4D4D4D" d="M59.668 15.6738Q70.1172 15.6738 79.3457 11.6943Q88.5742 7.71484 95.6055 0.683594Q102.637-6.34766 106.616-15.5518Q110.596-24.7559 110.596-35.2539Q110.596-45.7031 106.616-54.9072Q102.637-64.1113 95.6055-71.1426Q88.5742-78.1738 79.3457-82.1777Q70.1172-86.1816 59.6191-86.1816Q49.1699-86.1816 39.9658-82.1777Q30.7617-78.1738 23.7305-71.1426Q16.6992-64.1113 12.7197-54.9072Q8.74023-45.7031 8.74023-35.2539Q8.74023-24.7559 12.7197-15.5518Q16.6992-6.34766 23.7305 0.683594Q30.7617 7.71484 39.9902 11.6943Q49.2188 15.6738 59.668 15.6738ZM59.668 4.49219Q51.416 4.49219 44.2139 1.41602Q37.0117-1.66016 31.543-7.10449Q26.0742-12.5488 23.0225-19.751Q19.9707-26.9531 19.9707-35.2539Q19.9707-43.5059 23.0225-50.708Q26.0742-57.9102 31.5186-63.3789Q36.9629-68.8477 44.165-71.8994Q51.3672-74.9512 59.6191-74.9512Q67.9199-74.9512 75.1221-71.8994Q82.3242-68.8477 87.7686-63.3789Q93.2129-57.9102 96.3135-50.708Q99.4141-43.5059 99.4141-35.2539Q99.4141-26.9531 96.3379-19.751Q93.2617-12.5488 87.8174-7.10449Q82.373-1.66016 75.1465 1.41602Q67.9199 4.49219 59.668 4.49219Z"/>
   <path class="hierarchical-1:primary SFSymbolsPreview212121" d="M37.4023-47.5586Q36.2305-45.3125 36.5967-43.9941Q36.9629-42.6758 39.1113-41.5527L50.1465-35.498L39.0625-29.1016Q36.9141-27.832 36.5723-26.5869Q36.2305-25.3418 37.5-23.0957L37.9883-22.3145Q39.209-20.0684 40.5029-19.7266Q41.7969-19.3848 43.8965-20.6543L54.541-26.8555L54.541-14.3555Q54.541-11.9141 55.542-10.9619Q56.543-10.0098 59.1309-10.0098L60.1074-10.0098Q62.6465-10.0098 63.623-10.9619Q64.5996-11.9141 64.5996-14.4043L64.5996-26.8555L75.2441-20.6543Q77.4414-19.3359 78.7354-19.6777Q80.0293-20.0195 81.2012-22.3145L81.6406-23.0957Q82.8125-25.3418 82.4951-26.6357Q82.1777-27.9297 80.127-29.1016L68.9941-35.498L80.0781-41.5527Q82.2266-42.7246 82.5928-44.0186Q82.959-45.3125 81.7383-47.5586L81.25-48.3398Q80.0781-50.6348 78.7598-51.001Q77.4414-51.3672 75.1953-50L64.5996-43.7988L64.5996-56.2012Q64.5996-58.6426 63.623-59.5947Q62.6465-60.5469 60.1074-60.5469L59.1309-60.5469Q56.543-60.5469 55.542-59.5947Q54.541-58.6426 54.541-56.2012L54.541-43.7988L43.9941-50Q41.6992-51.3184 40.3809-50.9766Q39.0625-50.6348 37.9395-48.3398Z"/>
  </g>
  <g id="Medium-M" transform="matrix(1 0 0 1 1687.37 1126)">
   <path class="hierarchical-0:secondary SFSymbolsPreview4D4D4D" d="M59.1797 15.1855Q69.5312 15.1855 78.6621 11.2305Q87.793 7.27539 94.751 0.317383Q101.709-6.64062 105.664-15.7715Q109.619-24.9023 109.619-35.2539Q109.619-45.6055 105.664-54.7363Q101.709-63.8672 94.751-70.8252Q87.793-77.7832 78.6377-81.7383Q69.4824-85.6934 59.1309-85.6934Q48.7793-85.6934 39.6484-81.7383Q30.5176-77.7832 23.584-70.8252Q16.6504-63.8672 12.6953-54.7363Q8.74023-45.6055 8.74023-35.2539Q8.74023-24.9023 12.6953-15.7715Q16.6504-6.64062 23.6084 0.317383Q30.5664 7.27539 39.6973 11.2305Q48.8281 15.1855 59.1797 15.1855ZM59.1797 5.27344Q50.7324 5.27344 43.4082 2.12402Q36.084-1.02539 30.5176-6.5918Q24.9512-12.1582 21.8262-19.4824Q18.7012-26.8066 18.7012-35.2539Q18.7012-43.7012 21.8262-51.0254Q24.9512-58.3496 30.4932-63.916Q36.0352-69.4824 43.3838-72.6074Q50.7324-75.7324 59.1309-75.7324Q67.5781-75.7324 74.9023-72.6074Q82.2266-69.4824 87.8174-63.916Q93.4082-58.3496 96.5576-51.0254Q99.707-43.7012 99.707-35.2539Q99.707-26.8066 96.582-19.4824Q93.457-12.1582 87.8906-6.5918Q82.3242-1.02539 74.9756 2.12402Q67.627 5.27344 59.1797 5.27344Z"/>
   <path class="hierarchical-1:primary SFSymbolsPreview212121" d="M36.7188-47.8027Q35.5469-45.5566 35.9131-44.2383Q36.2793-42.9199 38.4277-41.8457L50-35.498L38.3301-28.7598Q36.2305-27.5391 35.8887-26.2695Q35.5469-25 36.8164-22.7539L37.1094-22.2656Q38.3789-20.0195 39.6484-19.6533Q40.918-19.2871 43.0176-20.5566L54.1992-27.0508L54.1992-14.0137Q54.1992-11.5723 55.2002-10.6201Q56.2012-9.66797 58.8379-9.66797L59.4727-9.66797Q62.0605-9.66797 63.0127-10.6201Q63.9648-11.5723 63.9648-14.0137L63.9648-27.0508L75.1465-20.5566Q77.3438-19.2383 78.6377-19.6045Q79.9316-19.9707 81.1035-22.2656L81.3965-22.7539Q82.5684-25 82.251-26.2939Q81.9336-27.5879 79.8828-28.7598L68.2129-35.498L79.834-41.8457Q81.9336-42.9688 82.2998-44.2627Q82.666-45.5566 81.4941-47.8027L81.1523-48.3887Q79.9805-50.6836 78.6621-51.0742Q77.3438-51.4648 75.0977-50.0977L63.9648-43.5547L63.9648-56.543Q63.9648-58.9844 63.0127-59.9365Q62.0605-60.8887 59.4727-60.8887L58.8379-60.8887Q56.2012-60.8887 55.2002-59.9365Q54.1992-58.9844 54.1992-56.543L54.1992-43.5547L43.1152-50.0977Q40.8691-51.3672 39.5508-51.0254Q38.2324-50.6836 37.1094-48.3887Z"/>
  </g>
  <g id="Regular-M" transform="matrix(1 0 0 1 1391.3 1126)">
   <path class="hierarchical-0:secondary SFSymbolsPreview4D4D4D" d="M58.5449 14.5508Q68.75 14.5508 77.7588 10.6445Q86.7676 6.73828 93.6523-0.146484Q100.537-7.03125 104.443-16.04Q108.35-25.0488 108.35-35.2539Q108.35-45.459 104.443-54.4678Q100.537-63.4766 93.6523-70.3613Q86.7676-77.2461 77.7344-81.1523Q68.7012-85.0586 58.4961-85.0586Q48.291-85.0586 39.2822-81.1523Q30.2734-77.2461 23.4131-70.3613Q16.5527-63.4766 12.6465-54.4678Q8.74023-45.459 8.74023-35.2539Q8.74023-25.0488 12.6465-16.04Q16.5527-7.03125 23.4375-0.146484Q30.3223 6.73828 39.3311 10.6445Q48.3398 14.5508 58.5449 14.5508ZM58.5449 6.25Q49.9023 6.25 42.3828 3.02734Q34.8633-0.195312 29.1748-5.88379Q23.4863-11.5723 20.2881-19.0918Q17.0898-26.6113 17.0898-35.2539Q17.0898-43.8965 20.2881-51.416Q23.4863-58.9355 29.1504-64.6484Q34.8145-70.3613 42.334-73.5596Q49.8535-76.7578 58.4961-76.7578Q67.1387-76.7578 74.6582-73.5596Q82.1777-70.3613 87.8906-64.6484Q93.6035-58.9355 96.8262-51.416Q100.049-43.8965 100.049-35.2539Q100.049-26.6113 96.8506-19.0918Q93.6523-11.5723 87.9639-5.88379Q82.2754-0.195312 74.7314 3.02734Q67.1875 6.25 58.5449 6.25Z"/>
   <path class="hierarchical-1:primary SFSymbolsPreview212121" d="M35.8398-48.1445Q34.668-45.8984 35.0342-44.5801Q35.4004-43.2617 37.5-42.1875L49.7559-35.498L37.4023-28.3691Q35.3516-27.0996 35.0098-25.8301Q34.668-24.5605 35.8887-22.3145L36.0352-22.168Q37.2559-19.9219 38.5498-19.5557Q39.8438-19.1895 41.9434-20.459L53.8086-27.2949L53.8086-13.5742Q53.8086-11.1328 54.8096-10.1807Q55.8105-9.22852 58.3984-9.22852L58.6914-9.22852Q61.2305-9.22852 62.207-10.1807Q63.1836-11.1328 63.1836-13.5742L63.1836-27.2949L75.0488-20.459Q77.2461-19.1406 78.54-19.5068Q79.834-19.873 81.0059-22.168L81.1035-22.3145Q82.2266-24.5605 81.9092-25.8789Q81.5918-27.1973 79.5898-28.3691L67.2363-35.498L79.541-42.1875Q81.5918-43.3105 81.958-44.6045Q82.3242-45.8984 81.1523-48.1445L81.0059-48.4375Q79.8828-50.7324 78.5645-51.123Q77.2461-51.5137 74.9512-50.1465L63.1836-43.2617L63.1836-56.9824Q63.1836-59.4238 62.207-60.376Q61.2305-61.3281 58.6914-61.3281L58.3984-61.3281Q55.8105-61.3281 54.8096-60.376Q53.8086-59.4238 53.8086-56.9824L53.8086-43.2617L42.041-50.1465Q39.7949-51.416 38.4521-51.0742Q37.1094-50.7324 36.0352-48.4375Z"/>
  </g>
  <g id="Light-M" transform="matrix(1 0 0 1 1095.41 1126)">
   <path class="hierarchical-0:secondary SFSymbolsPreview4D4D4D" d="M57.7148 13.7207Q67.7734 13.7207 76.6357 9.8877Q85.498 6.05469 92.2607-0.708008Q99.0234-7.4707 102.856-16.333Q106.689-25.1953 106.689-35.2539Q106.689-45.3125 102.856-54.1748Q99.0234-63.0371 92.2607-69.7998Q85.498-76.5625 76.6113-80.3955Q67.7246-84.2285 57.666-84.2285Q47.6074-84.2285 38.7451-80.3955Q29.8828-76.5625 23.1445-69.7998Q16.4062-63.0371 12.5732-54.1748Q8.74023-45.3125 8.74023-35.2539Q8.74023-25.1953 12.5732-16.333Q16.4062-7.4707 23.1689-0.708008Q29.9316 6.05469 38.7939 9.8877Q47.6562 13.7207 57.7148 13.7207ZM57.7148 7.37305Q48.877 7.37305 41.1377 4.07715Q33.3984 0.78125 27.5391-5.07812Q21.6797-10.9375 18.3838-18.6768Q15.0879-26.416 15.0879-35.2539Q15.0879-44.0918 18.3838-51.8311Q21.6797-59.5703 27.5391-65.4541Q33.3984-71.3379 41.1133-74.6338Q48.8281-77.9297 57.666-77.9297Q66.5527-77.9297 74.2676-74.6338Q81.9824-71.3379 87.8662-65.4541Q93.75-59.5703 97.0703-51.8311Q100.391-44.0918 100.391-35.2539Q100.391-26.416 97.0703-18.6768Q93.75-10.9375 87.915-5.07812Q82.0801 0.78125 74.3408 4.07715Q66.6016 7.37305 57.7148 7.37305Z"/>
   <path class="hierarchical-1:primary SFSymbolsPreview212121" d="M35.5957-47.8516Q34.5215-45.752 34.8389-44.5801Q35.1562-43.4082 37.1582-42.3828L49.6582-35.5469L37.0605-28.2715Q35.1074-27.0996 34.8145-25.9521Q34.5215-24.8047 35.6445-22.7051L35.791-22.5586Q36.9141-20.459 38.0615-20.1172Q39.209-19.7754 41.2109-21.0449L53.3691-27.9785L53.3691-13.9648Q53.3691-11.7188 54.248-10.8643Q55.127-10.0098 57.5195-10.0098L57.8613-10.0098Q60.2051-10.0098 61.084-10.8643Q61.9629-11.7188 61.9629-13.9648L61.9629-27.9785L74.1211-21.0449Q76.1719-19.7754 77.3193-20.0928Q78.4668-20.4102 79.5898-22.5586L79.6875-22.7051Q80.7617-24.8047 80.4688-25.9766Q80.1758-27.1484 78.2715-28.2715L65.6738-35.5469L78.2227-42.3828Q80.1758-43.457 80.4932-44.6289Q80.8105-45.8008 79.7363-47.8516L79.5898-48.1445Q78.5156-50.293 77.3438-50.6348Q76.1719-50.9766 74.0723-49.707L61.9629-42.7246L61.9629-56.6895Q61.9629-58.9844 61.084-59.8389Q60.2051-60.6934 57.8613-60.6934L57.5195-60.6934Q55.127-60.6934 54.248-59.8389Q53.3691-58.9844 53.3691-56.6895L53.3691-42.7246L41.2598-49.707Q39.209-50.9277 38.0127-50.6348Q36.8164-50.3418 35.791-48.1445Z"/>
  </g>
  <g id="Thin-M" transform="matrix(1 0 0 1 799.793 1126)">
   <path class="hierarchical-0:secondary SFSymbolsPreview4D4D4D" d="M56.5918 12.5977Q66.5039 12.5977 75.1709 8.88672Q83.8379 5.17578 90.4297-1.44043Q97.0215-8.05664 100.781-16.7236Q104.541-25.3906 104.541-35.2539Q104.541-45.1172 100.781-53.7842Q97.0215-62.4512 90.4297-69.0674Q83.8379-75.6836 75.1709-79.3945Q66.5039-83.1055 56.5918-83.1055Q46.7285-83.1055 38.0615-79.3945Q29.3945-75.6836 22.8271-69.0674Q16.2598-62.4512 12.5-53.7842Q8.74023-45.1172 8.74023-35.2539Q8.74023-25.3906 12.4756-16.7236Q16.2109-8.05664 22.8027-1.44043Q29.3945 5.17578 38.0859 8.88672Q46.7773 12.5977 56.5918 12.5977ZM56.5918 8.88672Q47.4609 8.88672 39.4775 5.44434Q31.4941 2.00195 25.415-4.05273Q19.3359-10.1074 15.918-18.1152Q12.5-26.123 12.5-35.2539Q12.5-44.3848 15.918-52.3926Q19.3359-60.4004 25.415-66.4795Q31.4941-72.5586 39.4775-76.001Q47.4609-79.4434 56.5918-79.4434Q65.7715-79.4434 73.7549-76.001Q81.7383-72.5586 87.8174-66.4795Q93.8965-60.4004 97.3389-52.3926Q100.781-44.3848 100.781-35.2539Q100.781-26.123 97.3633-18.1152Q93.9453-10.1074 87.8662-4.05273Q81.7871 2.00195 73.7793 5.44434Q65.7715 8.88672 56.5918 8.88672Z"/>
   <path class="hierarchical-1:primary SFSymbolsPreview212121" d="M35.3027-47.4121Q34.3262-45.5078 34.6191-44.5068Q34.9121-43.5059 36.6699-42.627L49.5117-35.5957L36.6211-28.125Q34.8633-27.0996 34.5703-26.0986Q34.2773-25.0977 35.3516-23.1934L35.4492-23.0469Q36.4746-21.0938 37.4512-20.8252Q38.4277-20.5566 40.2832-21.6797L52.7832-28.8574L52.7832-14.4531Q52.7832-12.3535 53.54-11.6455Q54.2969-10.9375 56.3965-10.9375L56.7871-10.9375Q58.8867-10.9375 59.6436-11.6455Q60.4004-12.3535 60.4004-14.4531L60.4004-28.8574L72.9004-21.6797Q74.7559-20.5078 75.7324-20.8008Q76.709-21.0938 77.7344-23.0469L77.832-23.1934Q78.8086-25.0977 78.5645-26.0742Q78.3203-27.0508 76.5625-28.125L63.623-35.5957L76.5137-42.627Q78.2715-43.5547 78.54-44.5557Q78.8086-45.5566 77.8809-47.4121L77.7344-47.7051Q76.7578-49.6582 75.7812-49.9268Q74.8047-50.1953 72.9004-49.0723L60.4004-41.8945L60.4004-56.2988Q60.4004-58.3496 59.6436-59.082Q58.8867-59.8145 56.7871-59.8145L56.3965-59.8145Q54.2969-59.8145 53.54-59.082Q52.7832-58.3496 52.7832-56.2988L52.7832-41.8945L40.2832-49.0723Q38.4277-50.1953 37.4268-49.9512Q36.4258-49.707 35.4492-47.7051Z"/>
  </g>
  <g id="Ultralight-M" transform="matrix(1 0 0 1 503.641 1126)">
   <path class="hierarchical-0:secondary SFSymbolsPreview4D4D4D" d="M56.0547 12.0605Q65.8203 12.0605 74.3896 8.37402Q82.959 4.6875 89.4775-1.83105Q95.9961-8.34961 99.707-16.9189Q103.418-25.4883 103.418-35.2539Q103.418-45.0195 99.707-53.5889Q95.9961-62.1582 89.4775-68.6768Q82.959-75.1953 74.3896-78.8818Q65.8203-82.5684 56.0547-82.5684Q46.2891-82.5684 37.7197-78.8818Q29.1504-75.1953 22.6562-68.6768Q16.1621-62.1582 12.4512-53.5889Q8.74023-45.0195 8.74023-35.2539Q8.74023-25.4883 12.4268-16.9189Q16.1133-8.34961 22.6318-1.83105Q29.1504 4.6875 37.7197 8.37402Q46.2891 12.0605 56.0547 12.0605ZM56.0547 9.66797Q46.7773 9.66797 38.6475 6.17676Q30.5176 2.68555 24.3164-3.49121Q18.1152-9.66797 14.624-17.8223Q11.1328-25.9766 11.1328-35.2539Q11.1328-44.5312 14.624-52.6855Q18.1152-60.8398 24.3164-67.041Q30.5176-73.2422 38.6475-76.7334Q46.7773-80.2246 56.0547-80.2246Q65.3809-80.2246 73.5107-76.7334Q81.6406-73.2422 87.8174-67.041Q93.9941-60.8398 97.5098-52.6855Q101.025-44.5312 101.025-35.2539Q101.025-25.9766 97.5098-17.8223Q93.9941-9.66797 87.8174-3.49121Q81.6406 2.68555 73.5107 6.17676Q65.3809 9.66797 56.0547 9.66797Z"/>
   <path class="hierarchical-1:primary SFSymbolsPreview212121" d="M35.1562-47.2656Q34.2773-45.459 34.5215-44.5557Q34.7656-43.6523 36.4746-42.7734L49.5117-35.6445L36.4258-28.0762Q34.7168-27.0996 34.4727-26.1963Q34.2285-25.293 35.2051-23.4863L35.3027-23.3398Q36.2793-21.4844 37.1582-21.2158Q38.0371-20.9473 39.7949-22.1191L52.5391-29.3457L52.5391-14.6973Q52.5391-12.793 53.1982-12.1338Q53.8574-11.4746 55.8594-11.4746L56.25-11.4746Q58.252-11.4746 58.9355-12.1338Q59.6191-12.793 59.6191-14.6973L59.6191-29.3457L72.3145-22.1191Q74.0723-20.9473 74.9512-21.2158Q75.8301-21.4844 76.8066-23.3398L76.9043-23.4863Q77.832-25.293 77.6123-26.1719Q77.3926-27.0508 75.7324-28.0762L62.5977-35.6445L75.6348-42.7734Q77.3438-43.7012 77.5879-44.6045Q77.832-45.5078 77.002-47.2656L76.8066-47.5586Q75.8789-49.3652 75-49.6094Q74.1211-49.8535 72.3145-48.7793L59.6191-41.5527L59.6191-56.1035Q59.6191-58.0566 58.9355-58.7158Q58.252-59.375 56.25-59.375L55.8594-59.375Q53.8574-59.375 53.1982-58.7158Q52.5391-58.0566 52.5391-56.1035L52.5391-41.5527L39.7949-48.7793Q38.0371-49.9023 37.1338-49.6826Q36.2305-49.4629 35.3027-47.5586Z"/>
  </g>
  <g id="Black-S" transform="matrix(1 0 0 1 2884.57 696)">
   <path class="hierarchical-0:secondary SFSymbolsPreview4D4D4D" d="M48.8281 6.78711Q57.5195 6.78711 65.1123 3.51562Q72.7051 0.244141 78.4912-5.54199Q84.2773-11.3281 87.5488-18.9209Q90.8203-26.5137 90.8203-35.2051Q90.8203-43.8965 87.5488-51.4893Q84.2773-59.082 78.4912-64.8682Q72.7051-70.6543 65.1123-73.9258Q57.5195-77.1973 48.8281-77.1973Q40.1367-77.1973 32.5439-73.9258Q24.9512-70.6543 19.165-64.8682Q13.3789-59.082 10.1074-51.4893Q6.83594-43.8965 6.83594-35.2051Q6.83594-26.5137 10.1074-18.9209Q13.3789-11.3281 19.165-5.54199Q24.9512 0.244141 32.5439 3.51562Q40.1367 6.78711 48.8281 6.78711ZM48.8281-7.37305Q43.0664-7.37305 38.0127-9.5459Q32.959-11.7188 29.1504-15.5273Q25.3418-19.3359 23.1689-24.3896Q20.9961-29.4434 20.9961-35.2051Q20.9961-40.9668 23.1689-46.0205Q25.3418-51.0742 29.1504-54.8828Q32.959-58.6914 38.0127-60.8643Q43.0664-63.0371 48.8281-63.0371Q54.5898-63.0371 59.6436-60.8643Q64.6973-58.6914 68.5059-54.8828Q72.3145-51.0742 74.4873-46.0205Q76.6602-40.9668 76.6602-35.2051Q76.6602-29.4434 74.4873-24.3896Q72.3145-19.3359 68.5059-15.5273Q64.6973-11.7188 59.6436-9.5459Q54.5898-7.37305 48.8281-7.37305Z"/>
   <path class="hierarchical-1:primary SFSymbolsPreview212121" d="M32.4219-43.7012Q31.4453-41.9434 31.7139-40.9424Q31.9824-39.9414 33.7891-38.9648L40.1855-35.4004L33.7891-31.7871Q32.0312-30.8594 31.7627-29.8828Q31.4941-28.9062 32.5684-27.1484L33.5449-25.3906Q34.5703-23.6816 35.5225-23.4375Q36.4746-23.1934 38.1836-24.1699L44.2383-27.7832L44.2383-20.3613Q44.1895-18.4082 44.9463-17.7002Q45.7031-16.9922 47.8516-16.9922L49.7559-16.9922Q51.8555-16.9922 52.6123-17.7246Q53.3691-18.457 53.3691-20.4102L53.3691-27.7832L59.4238-24.1699Q61.084-23.1934 62.085-23.4131Q63.0859-23.6328 64.0625-25.3906L65.0391-27.1484Q66.0645-28.9551 65.7959-29.8828Q65.5273-30.8105 63.8184-31.7871L57.4219-35.4004L63.8184-38.9648Q65.625-39.9414 65.918-40.9668Q66.2109-41.9922 65.1855-43.7012L64.1602-45.3125Q63.1348-47.0215 62.1338-47.3145Q61.1328-47.6074 59.4238-46.5332L53.3691-42.8711L53.3691-50.1465Q53.3691-52.0996 52.6123-52.8076Q51.8555-53.5156 49.7559-53.5156L47.8516-53.5156Q45.7031-53.5156 44.9707-52.8076Q44.2383-52.0996 44.2383-50.1465L44.2383-42.8711L38.1836-46.5332Q36.4258-47.5586 35.4248-47.29Q34.4238-47.0215 33.4473-45.3125Z"/>
  </g>
  <g id="Heavy-S" transform="matrix(1 0 0 1 2588.47 696)">
   <path class="hierarchical-0:secondary SFSymbolsPreview4D4D4D" d="M48.1934 6.15234Q56.7871 6.15234 64.2578 2.92969Q71.7285-0.292969 77.4414-6.00586Q83.1543-11.7188 86.377-19.1895Q89.5996-26.6602 89.5996-35.2051Q89.5996-43.75 86.377-51.2451Q83.1543-58.7402 77.4414-64.4531Q71.7285-70.166 64.2334-73.3887Q56.7383-76.6113 48.1934-76.6113Q39.6484-76.6113 32.1777-73.3887Q24.707-70.166 18.9941-64.4531Q13.2812-58.7402 10.0586-51.2451Q6.83594-43.75 6.83594-35.2051Q6.83594-26.6602 10.0586-19.1895Q13.2812-11.7188 18.9941-6.00586Q24.707-0.292969 32.2021 2.92969Q39.6973 6.15234 48.1934 6.15234ZM48.1934-6.39648Q42.2363-6.39648 37.0117-8.64258Q31.7871-10.8887 27.8564-14.8438Q23.9258-18.7988 21.6797-24.0234Q19.4336-29.248 19.4336-35.2051Q19.4336-41.1621 21.6553-46.4111Q23.877-51.6602 27.832-55.5908Q31.7871-59.5215 37.0117-61.7676Q42.2363-64.0137 48.1934-64.0137Q54.1992-64.0137 59.4238-61.7676Q64.6484-59.5215 68.5791-55.5908Q72.5098-51.6602 74.7803-46.4111Q77.0508-41.1621 77.0508-35.2051Q77.0508-29.248 74.8047-24.0234Q72.5586-18.7988 68.6035-14.8438Q64.6484-10.8887 59.4238-8.64258Q54.1992-6.39648 48.1934-6.39648Z"/>
   <path class="hierarchical-1:primary SFSymbolsPreview212121" d="M31.4453-44.0918Q30.4688-42.334 30.7373-41.3086Q31.0059-40.2832 32.8125-39.3555L39.9414-35.4004L32.8125-31.3477Q31.0547-30.3711 30.7861-29.3701Q30.5176-28.3691 31.543-26.6113L32.3242-25.2441Q33.3496-23.4863 34.3262-23.2422Q35.3027-22.998 37.0117-23.9746L43.7988-27.9785L43.7988-19.8242Q43.7988-17.8711 44.5557-17.1387Q45.3125-16.4062 47.4609-16.4062L48.9746-16.4062Q51.0742-16.4062 51.8311-17.1387Q52.5879-17.8711 52.5879-19.873L52.5879-27.9785L59.375-23.9746Q61.084-22.998 62.1094-23.2178Q63.1348-23.4375 64.1113-25.2441L64.8926-26.6113Q65.8691-28.418 65.6006-29.3945Q65.332-30.3711 63.623-31.3477L56.4941-35.4004L63.623-39.3555Q65.4297-40.2832 65.7227-41.333Q66.0156-42.3828 64.9902-44.0918L64.1602-45.4102Q63.1836-47.168 62.1582-47.4609Q61.1328-47.7539 59.375-46.6797L52.5879-42.627L52.5879-50.6836Q52.5879-52.6367 51.8311-53.3691Q51.0742-54.1016 48.9746-54.1016L47.4609-54.1016Q45.3125-54.1016 44.5557-53.3691Q43.7988-52.6367 43.7988-50.6836L43.7988-42.627L37.0605-46.6797Q35.2539-47.7051 34.2285-47.4365Q33.2031-47.168 32.2754-45.4102Z"/>
  </g>
  <g id="Bold-S" transform="matrix(1 0 0 1 2292.43 696)">
   <path class="hierarchical-0:secondary SFSymbolsPreview4D4D4D" d="M47.5586 5.46875Q55.957 5.46875 63.3057 2.29492Q70.6543-0.878906 76.2695-6.51855Q81.8848-12.1582 85.083-19.5068Q88.2812-26.8555 88.2812-35.2539Q88.2812-43.6035 85.083-50.9766Q81.8848-58.3496 76.2695-63.9648Q70.6543-69.5801 63.2812-72.7539Q55.9082-75.9277 47.5098-75.9277Q39.1602-75.9277 31.7871-72.7539Q24.4141-69.5801 18.8232-63.9648Q13.2324-58.3496 10.0342-50.9766Q6.83594-43.6035 6.83594-35.2539Q6.83594-26.8555 10.0342-19.5068Q13.2324-12.1582 18.8477-6.51855Q24.4629-0.878906 31.8115 2.29492Q39.1602 5.46875 47.5586 5.46875ZM47.5586-5.32227Q41.3574-5.32227 35.9375-7.6416Q30.5176-9.96094 26.416-14.0625Q22.3145-18.1641 19.9951-23.6084Q17.6758-29.0527 17.6758-35.2539Q17.6758-41.4551 19.9951-46.875Q22.3145-52.2949 26.3916-56.3965Q30.4688-60.498 35.8887-62.8174Q41.3086-65.1367 47.5098-65.1367Q53.7598-65.1367 59.1797-62.8174Q64.5996-60.498 68.7012-56.3965Q72.8027-52.2949 75.1221-46.875Q77.4414-41.4551 77.4414-35.2539Q77.4414-29.0527 75.1221-23.6084Q72.8027-18.1641 68.7256-14.0625Q64.6484-9.96094 59.2041-7.6416Q53.7598-5.32227 47.5586-5.32227Z"/>
   <path class="hierarchical-1:primary SFSymbolsPreview212121" d="M30.3223-44.5801Q29.3457-42.7734 29.6387-41.748Q29.9316-40.7227 31.6895-39.7949L39.6484-35.4004L31.6406-30.8594Q29.9316-29.8828 29.6631-28.8574Q29.3945-27.832 30.4199-26.0254L30.957-25.0977Q31.9824-23.3398 33.0078-23.0713Q34.0332-22.8027 35.7422-23.7793L43.3105-28.2227L43.3105-19.2383Q43.3105-17.2363 44.0918-16.4795Q44.873-15.7227 47.0215-15.7227L48.0957-15.7227Q50.1953-15.7227 50.9766-16.5039Q51.7578-17.2852 51.7578-19.2383L51.7578-28.2227L59.3262-23.7793Q61.084-22.7539 62.1094-23.0225Q63.1348-23.291 64.1113-25.0977L64.6484-26.0254Q65.625-27.8809 65.3564-28.8818Q65.0879-29.8828 63.4277-30.8594L55.4199-35.4004L63.3789-39.7949Q65.1367-40.7227 65.4297-41.7725Q65.7227-42.8223 64.7461-44.5801L64.1602-45.5078Q63.1836-47.3145 62.1338-47.6074Q61.084-47.9004 59.2773-46.8262L51.7578-42.334L51.7578-51.2695Q51.7578-53.2715 50.9766-54.0039Q50.1953-54.7363 48.0957-54.7363L47.0215-54.7363Q44.873-54.7363 44.0918-54.0039Q43.3105-53.2715 43.3105-51.2695L43.3105-42.334L35.791-46.8262Q33.9355-47.8516 32.8857-47.583Q31.8359-47.3145 30.9082-45.5078Z"/>
  </g>
  <g id="Semibold-S" transform="matrix(1 0 0 1 1996.19 696)">
   <path class="hierarchical-0:secondary SFSymbolsPreview4D4D4D" d="M47.0703 4.98047Q55.3711 4.98047 62.6465 1.85547Q69.9219-1.26953 75.4639-6.86035Q81.0059-12.4512 84.1553-19.7266Q87.3047-27.002 87.3047-35.2539Q87.3047-43.5059 84.1553-50.7812Q81.0059-58.0566 75.4395-63.623Q69.873-69.1895 62.5977-72.3389Q55.3223-75.4883 47.0215-75.4883Q38.7695-75.4883 31.4941-72.3389Q24.2188-69.1895 18.6768-63.623Q13.1348-58.0566 9.98535-50.7812Q6.83594-43.5059 6.83594-35.2539Q6.83594-27.002 9.98535-19.7266Q13.1348-12.4512 18.7012-6.86035Q24.2676-1.26953 31.543 1.85547Q38.8184 4.98047 47.0703 4.98047ZM47.0703-4.58984Q40.7227-4.58984 35.1562-6.95801Q29.5898-9.32617 25.3906-13.5254Q21.1914-17.7246 18.8232-23.291Q16.4551-28.8574 16.4551-35.2539Q16.4551-41.6016 18.8232-47.168Q21.1914-52.7344 25.3662-56.9336Q29.541-61.1328 35.1074-63.5254Q40.6738-65.918 47.0215-65.918Q53.418-65.918 58.9844-63.5254Q64.5508-61.1328 68.75-56.9336Q72.9492-52.7344 75.3418-47.168Q77.7344-41.6016 77.7344-35.2539Q77.7344-28.8574 75.3662-23.291Q72.998-17.7246 68.7988-13.5254Q64.5996-9.32617 59.0332-6.95801Q53.4668-4.58984 47.0703-4.58984Z"/>
   <path class="hierarchical-1:primary SFSymbolsPreview212121" d="M29.4922-44.9219Q28.5645-43.0664 28.8574-42.0166Q29.1504-40.9668 30.8594-40.0879L39.4043-35.4004L30.8594-30.4688Q29.1016-29.4922 28.833-28.4424Q28.5645-27.3926 29.5898-25.6348L29.9805-24.9512Q31.0059-23.1934 32.0557-22.9004Q33.1055-22.6074 34.8145-23.6328L42.9688-28.3691L42.9688-18.7988Q42.9199-16.7969 43.7256-16.04Q44.5312-15.2832 46.6797-15.2832L47.4609-15.2832Q49.5605-15.2832 50.3418-16.0645Q51.123-16.8457 51.123-18.7988L51.123-28.3691L59.2773-23.6328Q61.0352-22.5586 62.085-22.8516Q63.1348-23.1445 64.1113-24.9512L64.502-25.6348Q65.4297-27.4414 65.1611-28.4668Q64.8926-29.4922 63.2324-30.4688L54.6875-35.4004L63.1836-40.0879Q64.9414-40.9668 65.2344-42.041Q65.5273-43.1152 64.5508-44.9219L64.1602-45.5566Q63.1836-47.4121 62.1094-47.7051Q61.0352-47.998 59.2285-46.9238L51.123-42.1387L51.123-51.6602Q51.123-53.6621 50.3418-54.4189Q49.5605-55.1758 47.4609-55.1758L46.6797-55.1758Q44.5312-55.1758 43.75-54.4189Q42.9688-53.6621 42.9688-51.6602L42.9688-42.1387L34.8633-46.9238Q33.0078-47.9492 31.9336-47.6807Q30.8594-47.4121 29.9316-45.5566Z"/>
  </g>
  <g id="Medium-S" transform="matrix(1 0 0 1 1699.83 696)">
   <path class="hierarchical-0:secondary SFSymbolsPreview4D4D4D" d="M46.7285 4.63867Q54.9316 4.63867 62.1338 1.51367Q69.3359-1.61133 74.8535-7.12891Q80.3711-12.6465 83.4961-19.8486Q86.6211-27.0508 86.6211-35.2539Q86.6211-43.4082 83.4961-50.6348Q80.3711-57.8613 74.8291-63.3789Q69.2871-68.8965 62.085-71.9971Q54.8828-75.0977 46.6797-75.0977Q38.4766-75.0977 31.2744-71.9971Q24.0723-68.8965 18.5791-63.3789Q13.0859-57.8613 9.96094-50.6348Q6.83594-43.4082 6.83594-35.2539Q6.83594-27.0508 9.96094-19.8486Q13.0859-12.6465 18.6035-7.12891Q24.1211-1.61133 31.3232 1.51367Q38.5254 4.63867 46.7285 4.63867ZM46.7285-4.00391Q40.2344-4.00391 34.5703-6.4209Q28.9062-8.83789 24.6338-13.1348Q20.3613-17.4316 17.9443-23.0957Q15.5273-28.7598 15.5273-35.2539Q15.5273-41.748 17.9199-47.4121Q20.3125-53.0762 24.585-57.373Q28.8574-61.6699 34.5215-64.0869Q40.1855-66.5039 46.6797-66.5039Q53.1738-66.5039 58.8379-64.0869Q64.502-61.6699 68.7988-57.373Q73.0957-53.0762 75.5127-47.4121Q77.9297-41.748 77.9297-35.2539Q77.9297-28.7598 75.5127-23.0957Q73.0957-17.4316 68.8477-13.1348Q64.5996-8.83789 58.9111-6.4209Q53.2227-4.00391 46.7285-4.00391Z"/>
   <path class="hierarchical-1:primary SFSymbolsPreview212121" d="M28.9062-45.166Q27.9785-43.3105 28.2715-42.2363Q28.5645-41.1621 30.2734-40.2832L39.2578-35.4004L30.2246-30.2246Q28.5156-29.1992 28.2471-28.1494Q27.9785-27.0996 29.0039-25.293L29.248-24.8535Q30.2734-23.0957 31.3477-22.8027Q32.4219-22.5098 34.1309-23.5352L42.6758-28.5156L42.6758-18.457Q42.6758-16.5039 43.5059-15.6982Q44.3359-14.8926 46.4355-14.8926L46.9727-14.8926Q49.0723-14.8926 49.8779-15.6982Q50.6836-16.5039 50.6836-18.5059L50.6836-28.5156L59.2285-23.5352Q61.0352-22.4121 62.085-22.7295Q63.1348-23.0469 64.1113-24.8535L64.3555-25.293Q65.2832-27.1484 65.0146-28.1982Q64.7461-29.248 63.1348-30.2246L54.1016-35.4004L63.0859-40.2832Q64.7949-41.1621 65.0879-42.2363Q65.3809-43.3105 64.4531-45.166L64.1602-45.6543Q63.1836-47.4609 62.1094-47.7783Q61.0352-48.0957 59.1797-46.9727L50.6836-41.9922L50.6836-52.002Q50.6836-54.0039 49.8779-54.7607Q49.0723-55.5176 46.9727-55.5176L46.4355-55.5176Q44.3359-55.5176 43.5059-54.7607Q42.6758-54.0039 42.6758-52.002L42.6758-41.9922L34.1797-46.9727Q32.3242-48.0469 31.25-47.7539Q30.1758-47.4609 29.1992-45.6543Z"/>
  </g>
  <g id="Regular-S" transform="matrix(1 0 0 1 1403.58 696)">
   <path class="hierarchical-0:secondary SFSymbolsPreview4D4D4D" d="M46.2402 4.15039Q54.3457 4.15039 61.4746 1.07422Q68.6035-2.00195 74.0479-7.4707Q79.4922-12.9395 82.5928-20.0684Q85.6934-27.1973 85.6934-35.2539Q85.6934-43.3105 82.5928-50.4395Q79.4922-57.5684 74.0234-63.0371Q68.5547-68.5059 61.4258-71.582Q54.2969-74.6582 46.1914-74.6582Q38.1348-74.6582 31.0059-71.582Q23.877-68.5059 18.457-63.0371Q13.0371-57.5684 9.93652-50.4395Q6.83594-43.3105 6.83594-35.2539Q6.83594-27.1973 9.93652-20.0684Q13.0371-12.9395 18.4814-7.4707Q23.9258-2.00195 31.0547 1.07422Q38.1836 4.15039 46.2402 4.15039ZM46.2402-3.27148Q39.5996-3.27148 33.8135-5.7373Q28.0273-8.20312 23.6572-12.5977Q19.2871-16.9922 16.8213-22.8027Q14.3555-28.6133 14.3555-35.2539Q14.3555-41.8945 16.7969-47.7051Q19.2383-53.5156 23.6084-57.9102Q27.9785-62.3047 33.7646-64.7705Q39.5508-67.2363 46.1914-67.2363Q52.8809-67.2363 58.667-64.7705Q64.4531-62.3047 68.8477-57.9102Q73.2422-53.5156 75.7324-47.7051Q78.2227-41.8945 78.2227-35.2539Q78.2227-28.6133 75.7568-22.8027Q73.291-16.9922 68.9209-12.5977Q64.5508-8.20312 58.7402-5.7373Q52.9297-3.27148 46.2402-3.27148Z"/>
   <path class="hierarchical-1:primary SFSymbolsPreview212121" d="M28.1738-45.459Q27.2461-43.6035 27.5391-42.5293Q27.832-41.4551 29.541-40.5762L39.0625-35.4004L29.4922-29.8828Q27.7832-28.8574 27.5146-27.7832Q27.2461-26.709 28.2227-24.9023L28.3203-24.7559Q29.3457-22.9492 30.4443-22.6562Q31.543-22.3633 33.252-23.3887L42.3828-28.6621L42.3828-18.0664Q42.3828-16.0645 43.2129-15.2588Q44.043-14.4531 46.1426-14.4531L46.3867-14.4531Q48.4863-14.4531 49.292-15.2588Q50.0977-16.0645 50.0977-18.0664L50.0977-28.6621L59.2285-23.3887Q61.0352-22.2656 62.1094-22.583Q63.1836-22.9004 64.1602-24.7559L64.2578-24.9023Q65.1367-26.7578 64.8682-27.832Q64.5996-28.9062 62.9883-29.8828L53.418-35.4004L62.9395-40.5762Q64.6484-41.4551 64.9414-42.5293Q65.2344-43.6035 64.3066-45.459L64.1602-45.7031Q63.2324-47.5586 62.1338-47.876Q61.0352-48.1934 59.1309-47.0703L50.0977-41.7969L50.0977-52.3926Q50.0977-54.3945 49.292-55.1758Q48.4863-55.957 46.3867-55.957L46.1426-55.957Q44.043-55.957 43.2129-55.1758Q42.3828-54.3945 42.3828-52.3926L42.3828-41.7969L33.3496-47.0703Q31.4453-48.1445 30.3467-47.8516Q29.248-47.5586 28.3203-45.7031Z"/>
  </g>
  <g id="Light-S" transform="matrix(1 0 0 1 1107.6 696)">
   <path class="hierarchical-0:secondary SFSymbolsPreview4D4D4D" d="M45.5078 3.41797Q53.4668 3.41797 60.4736 0.415039Q67.4805-2.58789 72.8271-7.95898Q78.1738-13.3301 81.2012-20.3125Q84.2285-27.2949 84.2285-35.2539Q84.2285-43.2129 81.2012-50.1953Q78.1738-57.1777 72.8027-62.5488Q67.4316-67.9199 60.4492-70.9229Q53.4668-73.9258 45.459-73.9258Q37.5488-73.9258 30.542-70.9229Q23.5352-67.9199 18.2129-62.5488Q12.8906-57.1777 9.86328-50.1953Q6.83594-43.2129 6.83594-35.2539Q6.83594-27.2949 9.86328-20.3125Q12.8906-13.3301 18.2373-7.95898Q23.584-2.58789 30.5908 0.415039Q37.5977 3.41797 45.5078 3.41797ZM45.5078-2.29492Q38.6719-2.29492 32.6904-4.83398Q26.709-7.37305 22.1924-11.9141Q17.6758-16.4551 15.1367-22.4365Q12.5977-28.418 12.5977-35.2539Q12.5977-42.0898 15.1367-48.0713Q17.6758-54.0527 22.1924-58.5938Q26.709-63.1348 32.666-65.6738Q38.623-68.2129 45.459-68.2129Q52.3438-68.2129 58.3252-65.6738Q64.3066-63.1348 68.8232-58.5938Q73.3398-54.0527 75.9277-48.0713Q78.5156-42.0898 78.5156-35.2539Q78.5156-28.418 75.9521-22.4365Q73.3887-16.4551 68.8721-11.9141Q64.3555-7.37305 58.374-4.83398Q52.3926-2.29492 45.5078-2.29492Z"/>
   <path class="hierarchical-1:primary SFSymbolsPreview212121" d="M27.9785-45.2148Q27.1484-43.5059 27.3926-42.5537Q27.6367-41.6016 29.248-40.7715L38.9648-35.4492L29.1992-29.834Q27.5879-28.8574 27.3438-27.9053Q27.0996-26.9531 28.0273-25.293L28.125-25.1465Q29.0527-23.4375 30.0293-23.1689Q31.0059-22.9004 32.6172-23.877L41.9922-29.2969L41.9922-18.4082Q41.9922-16.5527 42.7246-15.8447Q43.457-15.1367 45.4102-15.1367L45.6543-15.1367Q47.6074-15.1367 48.3154-15.8447Q49.0234-16.5527 49.0234-18.4082L49.0234-29.2969L58.4473-23.877Q60.1074-22.8516 61.0596-23.1201Q62.0117-23.3887 62.8906-25.1465L62.9883-25.293Q63.8184-27.002 63.5742-27.9541Q63.3301-28.9062 61.8652-29.834L52.0508-35.4492L61.8164-40.7715Q63.3789-41.6016 63.6475-42.5537Q63.916-43.5059 63.0371-45.2148L62.8906-45.459Q62.0605-47.168 61.084-47.4609Q60.1074-47.7539 58.3496-46.6797L49.0234-41.3086L49.0234-52.1484Q49.0234-54.0039 48.3154-54.7119Q47.6074-55.4199 45.6543-55.4199L45.4102-55.4199Q43.457-55.4199 42.7246-54.7119Q41.9922-54.0039 41.9922-52.1484L41.9922-41.3086L32.666-46.6797Q30.957-47.7051 29.9805-47.4609Q29.0039-47.2168 28.125-45.459Z"/>
  </g>
  <g id="Thin-S" transform="matrix(1 0 0 1 811.863 696)">
   <path class="hierarchical-0:secondary SFSymbolsPreview4D4D4D" d="M44.5312 2.44141Q52.3438 2.44141 59.1553-0.488281Q65.9668-3.41797 71.1914-8.64258Q76.416-13.8672 79.3457-20.6787Q82.2754-27.4902 82.2754-35.2539Q82.2754-43.0176 79.3457-49.8291Q76.416-56.6406 71.1914-61.8652Q65.9668-67.0898 59.1553-70.0195Q52.3438-72.9492 44.5312-72.9492Q36.7676-72.9492 29.9316-70.0195Q23.0957-67.0898 17.9199-61.8652Q12.7441-56.6406 9.79004-49.8291Q6.83594-43.0176 6.83594-35.2539Q6.83594-27.4902 9.79004-20.6787Q12.7441-13.8672 17.9199-8.64258Q23.0957-3.41797 29.9316-0.488281Q36.7676 2.44141 44.5312 2.44141ZM44.5312-0.927734Q37.4512-0.927734 31.2256-3.58887Q25-6.25 20.2881-10.9619Q15.5762-15.6738 12.915-21.9238Q10.2539-28.1738 10.2539-35.2539Q10.2539-42.334 12.915-48.584Q15.5762-54.834 20.2881-59.5459Q25-64.2578 31.2256-66.9189Q37.4512-69.5801 44.5312-69.5801Q51.6602-69.5801 57.8857-66.9189Q64.1113-64.2578 68.8232-59.5459Q73.5352-54.834 76.1963-48.584Q78.8574-42.334 78.8574-35.2539Q78.8574-28.1738 76.1963-21.9238Q73.5352-15.6738 68.8232-10.9619Q64.1113-6.25 57.8857-3.58887Q51.6602-0.927734 44.5312-0.927734Z"/>
   <path class="hierarchical-1:primary SFSymbolsPreview212121" d="M27.7344-44.8242Q26.9531-43.3105 27.1973-42.5049Q27.4414-41.6992 28.8574-40.918L38.8672-35.498L28.8086-29.6387Q27.3926-28.8574 27.1729-28.0273Q26.9531-27.1973 27.7832-25.6836L27.8809-25.5371Q28.7109-24.0234 29.4922-23.8037Q30.2734-23.584 31.7383-24.5117L41.4551-30.0293L41.4551-18.7988Q41.4551-17.1875 42.0898-16.5771Q42.7246-15.9668 44.4336-15.9668L44.7266-15.9668Q46.4355-15.9668 47.0215-16.5771Q47.6074-17.1875 47.6074-18.7988L47.6074-30.0293L57.373-24.5117Q58.8867-23.5352 59.668-23.7793Q60.4492-24.0234 61.2305-25.5371L61.3281-25.6836Q62.1094-27.2461 61.8896-28.0273Q61.6699-28.8086 60.3027-29.6387L50.2441-35.498L60.2539-40.918Q61.7188-41.6992 61.9385-42.5293Q62.1582-43.3594 61.377-44.8242L61.2305-45.0684Q60.498-46.6309 59.6924-46.8506Q58.8867-47.0703 57.3242-46.1426L47.6074-40.5762L47.6074-51.8066Q47.6074-53.418 47.0215-54.0039Q46.4355-54.5898 44.7266-54.5898L44.4336-54.5898Q42.7246-54.5898 42.0898-54.0039Q41.4551-53.418 41.4551-51.8066L41.4551-40.5762L31.7871-46.1426Q30.2734-47.0703 29.4678-46.875Q28.6621-46.6797 27.8809-45.0684Z"/>
  </g>
  <g id="Ultralight-S" transform="matrix(1 0 0 1 515.649 696)">
   <path class="hierarchical-0:secondary SFSymbolsPreview4D4D4D" d="M44.043 1.95312Q51.7578 1.95312 58.4717-0.927734Q65.1855-3.80859 70.3369-8.95996Q75.4883-14.1113 78.3936-20.8252Q81.2988-27.5391 81.2988-35.2539Q81.2988-42.9688 78.3936-49.6826Q75.4883-56.3965 70.3369-61.5479Q65.1855-66.6992 58.4717-69.5801Q51.7578-72.4609 44.043-72.4609Q36.377-72.4609 29.6387-69.5801Q22.9004-66.6992 17.7734-61.5479Q12.6465-56.3965 9.74121-49.6826Q6.83594-42.9688 6.83594-35.2539Q6.83594-27.5391 9.74121-20.8252Q12.6465-14.1113 17.7734-8.95996Q22.9004-3.80859 29.6387-0.927734Q36.377 1.95312 44.043 1.95312ZM44.043-0.292969Q36.8164-0.292969 30.4688-3.00293Q24.1211-5.71289 19.3115-10.5225Q14.502-15.332 11.7676-21.6797Q9.0332-28.0273 9.0332-35.2539Q9.0332-42.4805 11.7676-48.8281Q14.502-55.1758 19.3115-59.9854Q24.1211-64.7949 30.4688-67.5049Q36.8164-70.2148 44.043-70.2148Q51.2695-70.2148 57.6416-67.5049Q64.0137-64.7949 68.7988-59.9854Q73.584-55.1758 76.3184-48.8281Q79.0527-42.4805 79.0527-35.2539Q79.0527-28.0273 76.3428-21.6797Q73.6328-15.332 68.8232-10.5225Q64.0137-5.71289 57.666-3.00293Q51.3184-0.292969 44.043-0.292969Z"/>
   <path class="hierarchical-1:primary SFSymbolsPreview212121" d="M27.5879-44.6777Q26.9043-43.2617 27.0996-42.5293Q27.2949-41.7969 28.6621-41.0645L38.8184-35.5469L28.6133-29.6387Q27.2461-28.8574 27.0508-28.125Q26.8555-27.3926 27.6367-25.9766L27.7344-25.8301Q28.5156-24.3652 29.2236-24.1699Q29.9316-23.9746 31.2988-24.8535L41.2109-30.4688L41.2109-19.0918Q41.2109-17.5293 41.7725-16.9922Q42.334-16.4551 43.9453-16.4551L44.2383-16.4551Q45.8008-16.4551 46.3379-16.9922Q46.875-17.5293 46.875-19.0918L46.875-30.4688L56.8359-24.8535Q58.252-23.9746 58.96-24.1699Q59.668-24.3652 60.4004-25.8301L60.498-25.9766Q61.2305-27.3926 61.0352-28.1006Q60.8398-28.8086 59.5703-29.6387L49.3652-35.5469L59.5215-41.0645Q60.8398-41.8457 61.0352-42.5781Q61.2305-43.3105 60.5469-44.6777L60.4004-44.9219Q59.7168-46.3867 59.0088-46.582Q58.3008-46.7773 56.8359-45.8984L46.875-40.2832L46.875-51.6602Q46.875-53.1738 46.3379-53.7109Q45.8008-54.248 44.2383-54.248L43.9453-54.248Q42.334-54.248 41.7725-53.7109Q41.2109-53.1738 41.2109-51.6602L41.2109-40.2832L31.2988-45.8984Q29.9316-46.7773 29.1992-46.6064Q28.4668-46.4355 27.7344-44.9219Z"/>
  </g>
 </g>
</svg>
